%TF.GenerationSoftware,KiCad,Pcbnew,8.0.4*%
%TF.CreationDate,2024-08-26T20:05:07-05:00*%
%TF.ProjectId,controller,636f6e74-726f-46c6-9c65-722e6b696361,2*%
%TF.SameCoordinates,Original*%
%TF.FileFunction,Soldermask,Top*%
%TF.FilePolarity,Negative*%
%FSLAX46Y46*%
G04 Gerber Fmt 4.6, Leading zero omitted, Abs format (unit mm)*
G04 Created by KiCad (PCBNEW 8.0.4) date 2024-08-26 20:05:07*
%MOMM*%
%LPD*%
G01*
G04 APERTURE LIST*
G04 Aperture macros list*
%AMRoundRect*
0 Rectangle with rounded corners*
0 $1 Rounding radius*
0 $2 $3 $4 $5 $6 $7 $8 $9 X,Y pos of 4 corners*
0 Add a 4 corners polygon primitive as box body*
4,1,4,$2,$3,$4,$5,$6,$7,$8,$9,$2,$3,0*
0 Add four circle primitives for the rounded corners*
1,1,$1+$1,$2,$3*
1,1,$1+$1,$4,$5*
1,1,$1+$1,$6,$7*
1,1,$1+$1,$8,$9*
0 Add four rect primitives between the rounded corners*
20,1,$1+$1,$2,$3,$4,$5,0*
20,1,$1+$1,$4,$5,$6,$7,0*
20,1,$1+$1,$6,$7,$8,$9,0*
20,1,$1+$1,$8,$9,$2,$3,0*%
G04 Aperture macros list end*
%ADD10RoundRect,0.250000X-0.450000X0.262500X-0.450000X-0.262500X0.450000X-0.262500X0.450000X0.262500X0*%
%ADD11RoundRect,0.250000X0.450000X-0.262500X0.450000X0.262500X-0.450000X0.262500X-0.450000X-0.262500X0*%
%ADD12RoundRect,0.218750X-0.218750X-0.256250X0.218750X-0.256250X0.218750X0.256250X-0.218750X0.256250X0*%
%ADD13C,1.700000*%
%ADD14RoundRect,0.102000X-1.400000X0.700000X-1.400000X-0.700000X1.400000X-0.700000X1.400000X0.700000X0*%
%ADD15RoundRect,0.102000X-1.400000X0.800000X-1.400000X-0.800000X1.400000X-0.800000X1.400000X0.800000X0*%
%ADD16R,1.400000X1.600000*%
%ADD17C,1.879600*%
%ADD18R,1.780000X2.000000*%
%ADD19C,3.200000*%
%ADD20R,1.800000X1.800000*%
%ADD21C,1.800000*%
%ADD22RoundRect,0.750000X-0.750000X1.250000X-0.750000X-1.250000X0.750000X-1.250000X0.750000X1.250000X0*%
%ADD23O,1.800000X1.800000*%
%ADD24O,1.500000X1.500000*%
%ADD25O,1.700000X1.700000*%
%ADD26R,3.500000X1.700000*%
%ADD27R,1.700000X1.700000*%
%ADD28R,1.700000X3.500000*%
%ADD29RoundRect,0.225000X0.225000X0.250000X-0.225000X0.250000X-0.225000X-0.250000X0.225000X-0.250000X0*%
%ADD30RoundRect,0.150000X-0.825000X-0.150000X0.825000X-0.150000X0.825000X0.150000X-0.825000X0.150000X0*%
%ADD31C,2.540000*%
%ADD32RoundRect,0.101600X0.754000X0.754000X-0.754000X0.754000X-0.754000X-0.754000X0.754000X-0.754000X0*%
%ADD33C,1.711200*%
%ADD34RoundRect,0.112500X-0.187500X-0.112500X0.187500X-0.112500X0.187500X0.112500X-0.187500X0.112500X0*%
G04 APERTURE END LIST*
D10*
%TO.C,R11*%
X98427577Y-88800000D03*
X98427577Y-90625000D03*
%TD*%
D11*
%TO.C,R6*%
X84400000Y-45612500D03*
X84400000Y-43787500D03*
%TD*%
D12*
%TO.C,DT1*%
X83812500Y-34700000D03*
X85387500Y-34700000D03*
%TD*%
D13*
%TO.C,J1-I1*%
X77600000Y-39400000D03*
X77600000Y-46400000D03*
D14*
X73900000Y-38300000D03*
X73900000Y-47700000D03*
X81300000Y-40300000D03*
D15*
X78350000Y-51700000D03*
%TD*%
D16*
%TO.C,SW1*%
X115600000Y-68200000D03*
X115600000Y-60200000D03*
X120100000Y-68200000D03*
X120100000Y-60200000D03*
%TD*%
D10*
%TO.C,R15*%
X93000000Y-88800000D03*
X93000000Y-90625000D03*
%TD*%
%TO.C,R9*%
X51116663Y-88800000D03*
X51116663Y-90625000D03*
%TD*%
D17*
%TO.C,U4*%
X122240000Y-51200000D03*
X119700000Y-51200000D03*
X117160000Y-51200000D03*
X114620000Y-51200000D03*
X112080000Y-51200000D03*
X128740000Y-47910000D03*
X128740000Y-45370000D03*
X109540000Y-51200000D03*
X104460000Y-51200000D03*
X128740000Y-40290000D03*
X101920000Y-51200000D03*
X128740000Y-42830000D03*
X107000000Y-51200000D03*
X128740000Y-50450000D03*
X128740000Y-37750000D03*
%TD*%
D10*
%TO.C,R5*%
X71000000Y-40787500D03*
X71000000Y-42612500D03*
%TD*%
D18*
%TO.C,U1*%
X124700000Y-68100000D03*
X127240000Y-68100000D03*
X129780000Y-68100000D03*
X129780000Y-58570000D03*
X127240000Y-58570000D03*
X124700000Y-58570000D03*
%TD*%
D10*
%TO.C,R8*%
X79400000Y-58487500D03*
X79400000Y-60312500D03*
%TD*%
%TO.C,R18*%
X80300000Y-88787500D03*
X80300000Y-90612500D03*
%TD*%
D19*
%TO.C,Hole1*%
X53600000Y-41200000D03*
%TD*%
D20*
%TO.C,RV4*%
X124100000Y-92900000D03*
D21*
X121600000Y-92900000D03*
X119100000Y-92900000D03*
D22*
X126000000Y-99900000D03*
X117200000Y-99900000D03*
%TD*%
D10*
%TO.C,R2*%
X83000000Y-36687500D03*
X83000000Y-38512500D03*
%TD*%
%TO.C,R20*%
X127600000Y-88787500D03*
X127600000Y-90612500D03*
%TD*%
%TO.C,R7*%
X81900000Y-58487500D03*
X81900000Y-60312500D03*
%TD*%
D20*
%TO.C,RV8*%
X107800000Y-56700000D03*
D21*
X105300000Y-56700000D03*
X102800000Y-56700000D03*
D22*
X109700000Y-63700000D03*
X100900000Y-63700000D03*
%TD*%
D11*
%TO.C,R3*%
X97300000Y-48625000D03*
X97300000Y-46800000D03*
%TD*%
D10*
%TO.C,R13*%
X45700000Y-88800000D03*
X45700000Y-90625000D03*
%TD*%
%TO.C,R17*%
X56600000Y-88787500D03*
X56600000Y-90612500D03*
%TD*%
%TO.C,R19*%
X103900000Y-88787500D03*
X103900000Y-90612500D03*
%TD*%
%TO.C,R10*%
X74772120Y-88800000D03*
X74772120Y-90625000D03*
%TD*%
D20*
%TO.C,RV5*%
X100600000Y-92900000D03*
D21*
X98100000Y-92900000D03*
X95600000Y-92900000D03*
D22*
X102500000Y-99900000D03*
X93700000Y-99900000D03*
%TD*%
D10*
%TO.C,R16*%
X116600000Y-88800000D03*
X116600000Y-90625000D03*
%TD*%
%TO.C,R12*%
X122083034Y-88800000D03*
X122083034Y-90625000D03*
%TD*%
D23*
%TO.C,U3*%
X50665000Y-35630000D03*
D24*
X50965000Y-38660000D03*
X55815000Y-38660000D03*
D23*
X56115000Y-35630000D03*
D25*
X44500000Y-35500000D03*
D26*
X43600000Y-35500000D03*
D25*
X44500000Y-38040000D03*
D26*
X43600000Y-38040000D03*
D27*
X44500000Y-40580000D03*
D26*
X43600000Y-40580000D03*
D25*
X44500000Y-43120000D03*
D26*
X43600000Y-43120000D03*
D25*
X44500000Y-45660000D03*
D26*
X43600000Y-45660000D03*
D25*
X44500000Y-48200000D03*
D26*
X43600000Y-48200000D03*
D25*
X44500000Y-50740000D03*
D26*
X43600000Y-50740000D03*
D27*
X44500000Y-53280000D03*
D26*
X43600000Y-53280000D03*
D25*
X44500000Y-55820000D03*
D26*
X43600000Y-55820000D03*
D25*
X44500000Y-58360000D03*
D26*
X43600000Y-58360000D03*
D25*
X44500000Y-60900000D03*
D26*
X43600000Y-60900000D03*
D25*
X44500000Y-63440000D03*
D26*
X43600000Y-63440000D03*
D27*
X44500000Y-65980000D03*
D26*
X43600000Y-65980000D03*
D25*
X44500000Y-68520000D03*
D26*
X43600000Y-68520000D03*
D25*
X44500000Y-71060000D03*
D26*
X43600000Y-71060000D03*
D25*
X44500000Y-73600000D03*
D26*
X43600000Y-73600000D03*
D25*
X44500000Y-76140000D03*
D26*
X43600000Y-76140000D03*
D27*
X44500000Y-78680000D03*
D26*
X43600000Y-78680000D03*
D25*
X44500000Y-81220000D03*
D26*
X43600000Y-81220000D03*
D25*
X44500000Y-83760000D03*
D26*
X43600000Y-83760000D03*
D25*
X62280000Y-83760000D03*
D26*
X63180000Y-83760000D03*
D25*
X62280000Y-81220000D03*
D26*
X63180000Y-81220000D03*
D27*
X62280000Y-78680000D03*
D26*
X63180000Y-78680000D03*
D25*
X62280000Y-76140000D03*
D26*
X63180000Y-76140000D03*
D25*
X62280000Y-73600000D03*
D26*
X63180000Y-73600000D03*
D25*
X62280000Y-71060000D03*
D26*
X63180000Y-71060000D03*
D25*
X62280000Y-68520000D03*
D26*
X63180000Y-68520000D03*
D27*
X62280000Y-65980000D03*
D26*
X63180000Y-65980000D03*
D25*
X62280000Y-63440000D03*
D26*
X63180000Y-63440000D03*
D25*
X62280000Y-60900000D03*
D26*
X63180000Y-60900000D03*
D25*
X62280000Y-58360000D03*
D26*
X63180000Y-58360000D03*
D25*
X62280000Y-55820000D03*
D26*
X63180000Y-55820000D03*
D27*
X62280000Y-53280000D03*
D26*
X63180000Y-53280000D03*
D25*
X62280000Y-50740000D03*
D26*
X63180000Y-50740000D03*
D25*
X62280000Y-48200000D03*
D26*
X63180000Y-48200000D03*
D25*
X62280000Y-45660000D03*
D26*
X63180000Y-45660000D03*
D25*
X62280000Y-43120000D03*
D26*
X63180000Y-43120000D03*
D27*
X62280000Y-40580000D03*
D26*
X63180000Y-40580000D03*
D25*
X62280000Y-38040000D03*
D26*
X63180000Y-38040000D03*
D25*
X62280000Y-35500000D03*
D26*
X63180000Y-35500000D03*
D25*
X50850000Y-83530000D03*
D28*
X50850000Y-84430000D03*
D27*
X53390000Y-83530000D03*
D28*
X53390000Y-84430000D03*
D25*
X55930000Y-83530000D03*
D28*
X55930000Y-84430000D03*
%TD*%
D29*
%TO.C,C1*%
X91000000Y-62300000D03*
X89450000Y-62300000D03*
%TD*%
D20*
%TO.C,RV6*%
X77100000Y-92900000D03*
D21*
X74600000Y-92900000D03*
X72100000Y-92900000D03*
D22*
X79000000Y-99900000D03*
X70200000Y-99900000D03*
%TD*%
D19*
%TO.C,Hole2*%
X113600000Y-41200000D03*
%TD*%
%TO.C,Hole4*%
X131100000Y-150200000D03*
%TD*%
D13*
%TO.C,J11-O1*%
X89600000Y-39400000D03*
X89600000Y-46400000D03*
D14*
X85900000Y-38300000D03*
X85900000Y-47700000D03*
X93300000Y-40300000D03*
D15*
X90350000Y-51700000D03*
%TD*%
D30*
%TO.C,U2*%
X84770000Y-64430000D03*
X84770000Y-65700000D03*
X84770000Y-66970000D03*
X84770000Y-68240000D03*
X84770000Y-69510000D03*
X84770000Y-70780000D03*
X84770000Y-72050000D03*
X84770000Y-73320000D03*
X89720000Y-73320000D03*
X89720000Y-72050000D03*
X89720000Y-70780000D03*
X89720000Y-69510000D03*
X89720000Y-68240000D03*
X89720000Y-66970000D03*
X89720000Y-65700000D03*
X89720000Y-64430000D03*
%TD*%
D20*
%TO.C,RV3*%
X77100000Y-74150000D03*
D21*
X74600000Y-74150000D03*
X72100000Y-74150000D03*
D22*
X79000000Y-81150000D03*
X70200000Y-81150000D03*
%TD*%
D10*
%TO.C,R14*%
X69300000Y-88787500D03*
X69300000Y-90612500D03*
%TD*%
%TO.C,R4*%
X82300000Y-43787500D03*
X82300000Y-45612500D03*
%TD*%
D31*
%TO.C,DISP1*%
X94268000Y-60714000D03*
X94268000Y-37600000D03*
X70900000Y-60714000D03*
X70900000Y-37600000D03*
D32*
X86394000Y-61857000D03*
D33*
X83854000Y-61857000D03*
X81314000Y-61857000D03*
X78774000Y-61857000D03*
%TD*%
D19*
%TO.C,Hole3*%
X41600000Y-150200000D03*
%TD*%
D12*
%TO.C,DR1*%
X72412500Y-34700000D03*
X73987500Y-34700000D03*
%TD*%
D11*
%TO.C,R1*%
X95300000Y-48612500D03*
X95300000Y-46787500D03*
%TD*%
D20*
%TO.C,RV7*%
X53600000Y-92900000D03*
D21*
X51100000Y-92900000D03*
X48600000Y-92900000D03*
D22*
X55500000Y-99900000D03*
X46700000Y-99900000D03*
%TD*%
D20*
%TO.C,RV2*%
X124100000Y-74150000D03*
D21*
X121600000Y-74150000D03*
X119100000Y-74150000D03*
D22*
X126000000Y-81150000D03*
X117200000Y-81150000D03*
%TD*%
D34*
%TO.C,D1*%
X125150000Y-70900000D03*
X127250000Y-70900000D03*
%TD*%
D20*
%TO.C,RV1*%
X100600000Y-74150000D03*
D21*
X98100000Y-74150000D03*
X95600000Y-74150000D03*
D22*
X102500000Y-81150000D03*
X93700000Y-81150000D03*
%TD*%
M02*
