%TF.GenerationSoftware,KiCad,Pcbnew,8.0.4*%
%TF.CreationDate,2024-08-26T20:04:37-05:00*%
%TF.ProjectId,controller,636f6e74-726f-46c6-9c65-722e6b696361,2*%
%TF.SameCoordinates,Original*%
%TF.FileFunction,Drillmap*%
%TF.FilePolarity,Positive*%
%FSLAX45Y45*%
G04 Gerber Fmt 4.5, Leading zero omitted, Abs format (unit mm)*
G04 Created by KiCad (PCBNEW 8.0.4) date 2024-08-26 20:04:37*
%MOMM*%
%LPD*%
G01*
G04 APERTURE LIST*
%ADD10C,0.050000*%
%ADD11C,0.200000*%
%ADD12C,0.150000*%
%ADD13C,0.170000*%
%ADD14C,0.180000*%
%ADD15C,0.254000*%
%ADD16C,0.320000*%
G04 APERTURE END LIST*
D10*
X3755000Y-3325000D02*
X13485000Y-3325000D01*
X13485000Y-15365000D01*
X3755000Y-15365000D01*
X3755000Y-3325000D01*
D11*
D12*
X5021500Y-3791000D02*
X5171500Y-3941000D01*
X5171500Y-3791000D02*
X5021500Y-3941000D01*
X5506500Y-3791000D02*
X5656500Y-3941000D01*
X5656500Y-3791000D02*
X5506500Y-3941000D01*
D13*
X7845000Y-3940000D02*
G75*
G02*
X7675000Y-3940000I-85000J0D01*
G01*
X7675000Y-3940000D02*
G75*
G02*
X7845000Y-3940000I85000J0D01*
G01*
X7845000Y-4640000D02*
G75*
G02*
X7675000Y-4640000I-85000J0D01*
G01*
X7675000Y-4640000D02*
G75*
G02*
X7845000Y-4640000I85000J0D01*
G01*
X9045000Y-3940000D02*
G75*
G02*
X8875000Y-3940000I-85000J0D01*
G01*
X8875000Y-3940000D02*
G75*
G02*
X9045000Y-3940000I85000J0D01*
G01*
X9045000Y-4640000D02*
G75*
G02*
X8875000Y-4640000I-85000J0D01*
G01*
X8875000Y-4640000D02*
G75*
G02*
X9045000Y-4640000I85000J0D01*
G01*
D14*
X5066500Y-3473000D02*
X5066500Y-3653000D01*
X4976500Y-3563000D02*
X5156500Y-3563000D01*
X5611500Y-3473000D02*
X5611500Y-3653000D01*
X5521500Y-3563000D02*
X5701500Y-3563000D01*
D15*
X7179803Y-3849803D02*
X7179803Y-3670197D01*
X7000197Y-3670197D01*
X7000197Y-3849803D01*
X7179803Y-3849803D01*
X7179803Y-6161203D02*
X7179803Y-5981597D01*
X7000197Y-5981597D01*
X7000197Y-6161203D01*
X7179803Y-6161203D01*
X9516603Y-3849803D02*
X9516603Y-3670197D01*
X9336997Y-3670197D01*
X9336997Y-3849803D01*
X9516603Y-3849803D01*
X9516603Y-6161203D02*
X9516603Y-5981597D01*
X9336997Y-5981597D01*
X9336997Y-6161203D01*
X9516603Y-6161203D01*
D16*
X4160000Y-15180000D02*
X4320000Y-15020000D01*
X4160000Y-14860000D01*
X4000000Y-15020000D01*
X4160000Y-15180000D01*
X5360000Y-4280000D02*
X5520000Y-4120000D01*
X5360000Y-3960000D01*
X5200000Y-4120000D01*
X5360000Y-4280000D01*
X11360000Y-4280000D02*
X11520000Y-4120000D01*
X11360000Y-3960000D01*
X11200000Y-4120000D01*
X11360000Y-4280000D01*
X13110000Y-15180000D02*
X13270000Y-15020000D01*
X13110000Y-14860000D01*
X12950000Y-15020000D01*
X13110000Y-15180000D01*
D11*
X4013277Y-15678984D02*
X4013277Y-15478984D01*
X4013277Y-15478984D02*
X4060896Y-15478984D01*
X4060896Y-15478984D02*
X4089467Y-15488508D01*
X4089467Y-15488508D02*
X4108515Y-15507555D01*
X4108515Y-15507555D02*
X4118039Y-15526603D01*
X4118039Y-15526603D02*
X4127562Y-15564698D01*
X4127562Y-15564698D02*
X4127562Y-15593269D01*
X4127562Y-15593269D02*
X4118039Y-15631365D01*
X4118039Y-15631365D02*
X4108515Y-15650412D01*
X4108515Y-15650412D02*
X4089467Y-15669460D01*
X4089467Y-15669460D02*
X4060896Y-15678984D01*
X4060896Y-15678984D02*
X4013277Y-15678984D01*
X4213277Y-15678984D02*
X4213277Y-15545650D01*
X4213277Y-15583746D02*
X4222801Y-15564698D01*
X4222801Y-15564698D02*
X4232324Y-15555174D01*
X4232324Y-15555174D02*
X4251372Y-15545650D01*
X4251372Y-15545650D02*
X4270420Y-15545650D01*
X4337086Y-15678984D02*
X4337086Y-15545650D01*
X4337086Y-15478984D02*
X4327563Y-15488508D01*
X4327563Y-15488508D02*
X4337086Y-15498031D01*
X4337086Y-15498031D02*
X4346610Y-15488508D01*
X4346610Y-15488508D02*
X4337086Y-15478984D01*
X4337086Y-15478984D02*
X4337086Y-15498031D01*
X4460896Y-15678984D02*
X4441848Y-15669460D01*
X4441848Y-15669460D02*
X4432324Y-15650412D01*
X4432324Y-15650412D02*
X4432324Y-15478984D01*
X4565658Y-15678984D02*
X4546610Y-15669460D01*
X4546610Y-15669460D02*
X4537086Y-15650412D01*
X4537086Y-15650412D02*
X4537086Y-15478984D01*
X4794229Y-15678984D02*
X4794229Y-15478984D01*
X4794229Y-15478984D02*
X4860896Y-15621841D01*
X4860896Y-15621841D02*
X4927563Y-15478984D01*
X4927563Y-15478984D02*
X4927563Y-15678984D01*
X5108515Y-15678984D02*
X5108515Y-15574222D01*
X5108515Y-15574222D02*
X5098991Y-15555174D01*
X5098991Y-15555174D02*
X5079944Y-15545650D01*
X5079944Y-15545650D02*
X5041848Y-15545650D01*
X5041848Y-15545650D02*
X5022801Y-15555174D01*
X5108515Y-15669460D02*
X5089467Y-15678984D01*
X5089467Y-15678984D02*
X5041848Y-15678984D01*
X5041848Y-15678984D02*
X5022801Y-15669460D01*
X5022801Y-15669460D02*
X5013277Y-15650412D01*
X5013277Y-15650412D02*
X5013277Y-15631365D01*
X5013277Y-15631365D02*
X5022801Y-15612317D01*
X5022801Y-15612317D02*
X5041848Y-15602793D01*
X5041848Y-15602793D02*
X5089467Y-15602793D01*
X5089467Y-15602793D02*
X5108515Y-15593269D01*
X5203753Y-15545650D02*
X5203753Y-15745650D01*
X5203753Y-15555174D02*
X5222801Y-15545650D01*
X5222801Y-15545650D02*
X5260896Y-15545650D01*
X5260896Y-15545650D02*
X5279944Y-15555174D01*
X5279944Y-15555174D02*
X5289467Y-15564698D01*
X5289467Y-15564698D02*
X5298991Y-15583746D01*
X5298991Y-15583746D02*
X5298991Y-15640888D01*
X5298991Y-15640888D02*
X5289467Y-15659936D01*
X5289467Y-15659936D02*
X5279944Y-15669460D01*
X5279944Y-15669460D02*
X5260896Y-15678984D01*
X5260896Y-15678984D02*
X5222801Y-15678984D01*
X5222801Y-15678984D02*
X5203753Y-15669460D01*
X5384705Y-15659936D02*
X5394229Y-15669460D01*
X5394229Y-15669460D02*
X5384705Y-15678984D01*
X5384705Y-15678984D02*
X5375182Y-15669460D01*
X5375182Y-15669460D02*
X5384705Y-15659936D01*
X5384705Y-15659936D02*
X5384705Y-15678984D01*
X5384705Y-15555174D02*
X5394229Y-15564698D01*
X5394229Y-15564698D02*
X5384705Y-15574222D01*
X5384705Y-15574222D02*
X5375182Y-15564698D01*
X5375182Y-15564698D02*
X5384705Y-15555174D01*
X5384705Y-15555174D02*
X5384705Y-15574222D01*
D12*
X3602500Y-15932500D02*
X3752500Y-16082500D01*
X3752500Y-15932500D02*
X3602500Y-16082500D01*
D11*
X4118039Y-16098984D02*
X4003753Y-16098984D01*
X4060896Y-16098984D02*
X4060896Y-15898984D01*
X4060896Y-15898984D02*
X4041848Y-15927555D01*
X4041848Y-15927555D02*
X4022801Y-15946603D01*
X4022801Y-15946603D02*
X4003753Y-15956127D01*
X4203753Y-16079936D02*
X4213277Y-16089460D01*
X4213277Y-16089460D02*
X4203753Y-16098984D01*
X4203753Y-16098984D02*
X4194229Y-16089460D01*
X4194229Y-16089460D02*
X4203753Y-16079936D01*
X4203753Y-16079936D02*
X4203753Y-16098984D01*
X4394229Y-15898984D02*
X4298991Y-15898984D01*
X4298991Y-15898984D02*
X4289467Y-15994222D01*
X4289467Y-15994222D02*
X4298991Y-15984698D01*
X4298991Y-15984698D02*
X4318039Y-15975174D01*
X4318039Y-15975174D02*
X4365658Y-15975174D01*
X4365658Y-15975174D02*
X4384705Y-15984698D01*
X4384705Y-15984698D02*
X4394229Y-15994222D01*
X4394229Y-15994222D02*
X4403753Y-16013269D01*
X4403753Y-16013269D02*
X4403753Y-16060888D01*
X4403753Y-16060888D02*
X4394229Y-16079936D01*
X4394229Y-16079936D02*
X4384705Y-16089460D01*
X4384705Y-16089460D02*
X4365658Y-16098984D01*
X4365658Y-16098984D02*
X4318039Y-16098984D01*
X4318039Y-16098984D02*
X4298991Y-16089460D01*
X4298991Y-16089460D02*
X4289467Y-16079936D01*
X4527563Y-15898984D02*
X4546610Y-15898984D01*
X4546610Y-15898984D02*
X4565658Y-15908508D01*
X4565658Y-15908508D02*
X4575182Y-15918031D01*
X4575182Y-15918031D02*
X4584705Y-15937079D01*
X4584705Y-15937079D02*
X4594229Y-15975174D01*
X4594229Y-15975174D02*
X4594229Y-16022793D01*
X4594229Y-16022793D02*
X4584705Y-16060888D01*
X4584705Y-16060888D02*
X4575182Y-16079936D01*
X4575182Y-16079936D02*
X4565658Y-16089460D01*
X4565658Y-16089460D02*
X4546610Y-16098984D01*
X4546610Y-16098984D02*
X4527563Y-16098984D01*
X4527563Y-16098984D02*
X4508515Y-16089460D01*
X4508515Y-16089460D02*
X4498991Y-16079936D01*
X4498991Y-16079936D02*
X4489467Y-16060888D01*
X4489467Y-16060888D02*
X4479944Y-16022793D01*
X4479944Y-16022793D02*
X4479944Y-15975174D01*
X4479944Y-15975174D02*
X4489467Y-15937079D01*
X4489467Y-15937079D02*
X4498991Y-15918031D01*
X4498991Y-15918031D02*
X4508515Y-15908508D01*
X4508515Y-15908508D02*
X4527563Y-15898984D01*
X4718039Y-15898984D02*
X4737086Y-15898984D01*
X4737086Y-15898984D02*
X4756134Y-15908508D01*
X4756134Y-15908508D02*
X4765658Y-15918031D01*
X4765658Y-15918031D02*
X4775182Y-15937079D01*
X4775182Y-15937079D02*
X4784705Y-15975174D01*
X4784705Y-15975174D02*
X4784705Y-16022793D01*
X4784705Y-16022793D02*
X4775182Y-16060888D01*
X4775182Y-16060888D02*
X4765658Y-16079936D01*
X4765658Y-16079936D02*
X4756134Y-16089460D01*
X4756134Y-16089460D02*
X4737086Y-16098984D01*
X4737086Y-16098984D02*
X4718039Y-16098984D01*
X4718039Y-16098984D02*
X4698991Y-16089460D01*
X4698991Y-16089460D02*
X4689467Y-16079936D01*
X4689467Y-16079936D02*
X4679944Y-16060888D01*
X4679944Y-16060888D02*
X4670420Y-16022793D01*
X4670420Y-16022793D02*
X4670420Y-15975174D01*
X4670420Y-15975174D02*
X4679944Y-15937079D01*
X4679944Y-15937079D02*
X4689467Y-15918031D01*
X4689467Y-15918031D02*
X4698991Y-15908508D01*
X4698991Y-15908508D02*
X4718039Y-15898984D01*
X4870420Y-16098984D02*
X4870420Y-15965650D01*
X4870420Y-15984698D02*
X4879944Y-15975174D01*
X4879944Y-15975174D02*
X4898991Y-15965650D01*
X4898991Y-15965650D02*
X4927563Y-15965650D01*
X4927563Y-15965650D02*
X4946610Y-15975174D01*
X4946610Y-15975174D02*
X4956134Y-15994222D01*
X4956134Y-15994222D02*
X4956134Y-16098984D01*
X4956134Y-15994222D02*
X4965658Y-15975174D01*
X4965658Y-15975174D02*
X4984705Y-15965650D01*
X4984705Y-15965650D02*
X5013277Y-15965650D01*
X5013277Y-15965650D02*
X5032325Y-15975174D01*
X5032325Y-15975174D02*
X5041848Y-15994222D01*
X5041848Y-15994222D02*
X5041848Y-16098984D01*
X5137086Y-16098984D02*
X5137086Y-15965650D01*
X5137086Y-15984698D02*
X5146610Y-15975174D01*
X5146610Y-15975174D02*
X5165658Y-15965650D01*
X5165658Y-15965650D02*
X5194229Y-15965650D01*
X5194229Y-15965650D02*
X5213277Y-15975174D01*
X5213277Y-15975174D02*
X5222801Y-15994222D01*
X5222801Y-15994222D02*
X5222801Y-16098984D01*
X5222801Y-15994222D02*
X5232325Y-15975174D01*
X5232325Y-15975174D02*
X5251372Y-15965650D01*
X5251372Y-15965650D02*
X5279944Y-15965650D01*
X5279944Y-15965650D02*
X5298991Y-15975174D01*
X5298991Y-15975174D02*
X5308515Y-15994222D01*
X5308515Y-15994222D02*
X5308515Y-16098984D01*
X5698991Y-15889460D02*
X5527563Y-16146603D01*
X5956134Y-15898984D02*
X5975182Y-15898984D01*
X5975182Y-15898984D02*
X5994229Y-15908508D01*
X5994229Y-15908508D02*
X6003753Y-15918031D01*
X6003753Y-15918031D02*
X6013277Y-15937079D01*
X6013277Y-15937079D02*
X6022801Y-15975174D01*
X6022801Y-15975174D02*
X6022801Y-16022793D01*
X6022801Y-16022793D02*
X6013277Y-16060888D01*
X6013277Y-16060888D02*
X6003753Y-16079936D01*
X6003753Y-16079936D02*
X5994229Y-16089460D01*
X5994229Y-16089460D02*
X5975182Y-16098984D01*
X5975182Y-16098984D02*
X5956134Y-16098984D01*
X5956134Y-16098984D02*
X5937086Y-16089460D01*
X5937086Y-16089460D02*
X5927563Y-16079936D01*
X5927563Y-16079936D02*
X5918039Y-16060888D01*
X5918039Y-16060888D02*
X5908515Y-16022793D01*
X5908515Y-16022793D02*
X5908515Y-15975174D01*
X5908515Y-15975174D02*
X5918039Y-15937079D01*
X5918039Y-15937079D02*
X5927563Y-15918031D01*
X5927563Y-15918031D02*
X5937086Y-15908508D01*
X5937086Y-15908508D02*
X5956134Y-15898984D01*
X6108515Y-16079936D02*
X6118039Y-16089460D01*
X6118039Y-16089460D02*
X6108515Y-16098984D01*
X6108515Y-16098984D02*
X6098991Y-16089460D01*
X6098991Y-16089460D02*
X6108515Y-16079936D01*
X6108515Y-16079936D02*
X6108515Y-16098984D01*
X6241848Y-15898984D02*
X6260896Y-15898984D01*
X6260896Y-15898984D02*
X6279944Y-15908508D01*
X6279944Y-15908508D02*
X6289467Y-15918031D01*
X6289467Y-15918031D02*
X6298991Y-15937079D01*
X6298991Y-15937079D02*
X6308515Y-15975174D01*
X6308515Y-15975174D02*
X6308515Y-16022793D01*
X6308515Y-16022793D02*
X6298991Y-16060888D01*
X6298991Y-16060888D02*
X6289467Y-16079936D01*
X6289467Y-16079936D02*
X6279944Y-16089460D01*
X6279944Y-16089460D02*
X6260896Y-16098984D01*
X6260896Y-16098984D02*
X6241848Y-16098984D01*
X6241848Y-16098984D02*
X6222801Y-16089460D01*
X6222801Y-16089460D02*
X6213277Y-16079936D01*
X6213277Y-16079936D02*
X6203753Y-16060888D01*
X6203753Y-16060888D02*
X6194229Y-16022793D01*
X6194229Y-16022793D02*
X6194229Y-15975174D01*
X6194229Y-15975174D02*
X6203753Y-15937079D01*
X6203753Y-15937079D02*
X6213277Y-15918031D01*
X6213277Y-15918031D02*
X6222801Y-15908508D01*
X6222801Y-15908508D02*
X6241848Y-15898984D01*
X6489467Y-15898984D02*
X6394229Y-15898984D01*
X6394229Y-15898984D02*
X6384706Y-15994222D01*
X6384706Y-15994222D02*
X6394229Y-15984698D01*
X6394229Y-15984698D02*
X6413277Y-15975174D01*
X6413277Y-15975174D02*
X6460896Y-15975174D01*
X6460896Y-15975174D02*
X6479944Y-15984698D01*
X6479944Y-15984698D02*
X6489467Y-15994222D01*
X6489467Y-15994222D02*
X6498991Y-16013269D01*
X6498991Y-16013269D02*
X6498991Y-16060888D01*
X6498991Y-16060888D02*
X6489467Y-16079936D01*
X6489467Y-16079936D02*
X6479944Y-16089460D01*
X6479944Y-16089460D02*
X6460896Y-16098984D01*
X6460896Y-16098984D02*
X6413277Y-16098984D01*
X6413277Y-16098984D02*
X6394229Y-16089460D01*
X6394229Y-16089460D02*
X6384706Y-16079936D01*
X6594229Y-16098984D02*
X6632325Y-16098984D01*
X6632325Y-16098984D02*
X6651372Y-16089460D01*
X6651372Y-16089460D02*
X6660896Y-16079936D01*
X6660896Y-16079936D02*
X6679944Y-16051365D01*
X6679944Y-16051365D02*
X6689467Y-16013269D01*
X6689467Y-16013269D02*
X6689467Y-15937079D01*
X6689467Y-15937079D02*
X6679944Y-15918031D01*
X6679944Y-15918031D02*
X6670420Y-15908508D01*
X6670420Y-15908508D02*
X6651372Y-15898984D01*
X6651372Y-15898984D02*
X6613277Y-15898984D01*
X6613277Y-15898984D02*
X6594229Y-15908508D01*
X6594229Y-15908508D02*
X6584706Y-15918031D01*
X6584706Y-15918031D02*
X6575182Y-15937079D01*
X6575182Y-15937079D02*
X6575182Y-15984698D01*
X6575182Y-15984698D02*
X6584706Y-16003746D01*
X6584706Y-16003746D02*
X6594229Y-16013269D01*
X6594229Y-16013269D02*
X6613277Y-16022793D01*
X6613277Y-16022793D02*
X6651372Y-16022793D01*
X6651372Y-16022793D02*
X6670420Y-16013269D01*
X6670420Y-16013269D02*
X6679944Y-16003746D01*
X6679944Y-16003746D02*
X6689467Y-15984698D01*
X6879944Y-16098984D02*
X6765658Y-16098984D01*
X6822801Y-16098984D02*
X6822801Y-15898984D01*
X6822801Y-15898984D02*
X6803753Y-15927555D01*
X6803753Y-15927555D02*
X6784706Y-15946603D01*
X6784706Y-15946603D02*
X6765658Y-15956127D01*
X6956134Y-15898984D02*
X6956134Y-15937079D01*
X7032325Y-15898984D02*
X7032325Y-15937079D01*
X7327563Y-16175174D02*
X7318039Y-16165650D01*
X7318039Y-16165650D02*
X7298991Y-16137079D01*
X7298991Y-16137079D02*
X7289468Y-16118031D01*
X7289468Y-16118031D02*
X7279944Y-16089460D01*
X7279944Y-16089460D02*
X7270420Y-16041841D01*
X7270420Y-16041841D02*
X7270420Y-16003746D01*
X7270420Y-16003746D02*
X7279944Y-15956127D01*
X7279944Y-15956127D02*
X7289468Y-15927555D01*
X7289468Y-15927555D02*
X7298991Y-15908508D01*
X7298991Y-15908508D02*
X7318039Y-15879936D01*
X7318039Y-15879936D02*
X7327563Y-15870412D01*
X7394229Y-15918031D02*
X7403753Y-15908508D01*
X7403753Y-15908508D02*
X7422801Y-15898984D01*
X7422801Y-15898984D02*
X7470420Y-15898984D01*
X7470420Y-15898984D02*
X7489468Y-15908508D01*
X7489468Y-15908508D02*
X7498991Y-15918031D01*
X7498991Y-15918031D02*
X7508515Y-15937079D01*
X7508515Y-15937079D02*
X7508515Y-15956127D01*
X7508515Y-15956127D02*
X7498991Y-15984698D01*
X7498991Y-15984698D02*
X7384706Y-16098984D01*
X7384706Y-16098984D02*
X7508515Y-16098984D01*
X7746610Y-16098984D02*
X7746610Y-15898984D01*
X7832325Y-16098984D02*
X7832325Y-15994222D01*
X7832325Y-15994222D02*
X7822801Y-15975174D01*
X7822801Y-15975174D02*
X7803753Y-15965650D01*
X7803753Y-15965650D02*
X7775182Y-15965650D01*
X7775182Y-15965650D02*
X7756134Y-15975174D01*
X7756134Y-15975174D02*
X7746610Y-15984698D01*
X7956134Y-16098984D02*
X7937087Y-16089460D01*
X7937087Y-16089460D02*
X7927563Y-16079936D01*
X7927563Y-16079936D02*
X7918039Y-16060888D01*
X7918039Y-16060888D02*
X7918039Y-16003746D01*
X7918039Y-16003746D02*
X7927563Y-15984698D01*
X7927563Y-15984698D02*
X7937087Y-15975174D01*
X7937087Y-15975174D02*
X7956134Y-15965650D01*
X7956134Y-15965650D02*
X7984706Y-15965650D01*
X7984706Y-15965650D02*
X8003753Y-15975174D01*
X8003753Y-15975174D02*
X8013277Y-15984698D01*
X8013277Y-15984698D02*
X8022801Y-16003746D01*
X8022801Y-16003746D02*
X8022801Y-16060888D01*
X8022801Y-16060888D02*
X8013277Y-16079936D01*
X8013277Y-16079936D02*
X8003753Y-16089460D01*
X8003753Y-16089460D02*
X7984706Y-16098984D01*
X7984706Y-16098984D02*
X7956134Y-16098984D01*
X8137087Y-16098984D02*
X8118039Y-16089460D01*
X8118039Y-16089460D02*
X8108515Y-16070412D01*
X8108515Y-16070412D02*
X8108515Y-15898984D01*
X8289468Y-16089460D02*
X8270420Y-16098984D01*
X8270420Y-16098984D02*
X8232325Y-16098984D01*
X8232325Y-16098984D02*
X8213277Y-16089460D01*
X8213277Y-16089460D02*
X8203753Y-16070412D01*
X8203753Y-16070412D02*
X8203753Y-15994222D01*
X8203753Y-15994222D02*
X8213277Y-15975174D01*
X8213277Y-15975174D02*
X8232325Y-15965650D01*
X8232325Y-15965650D02*
X8270420Y-15965650D01*
X8270420Y-15965650D02*
X8289468Y-15975174D01*
X8289468Y-15975174D02*
X8298991Y-15994222D01*
X8298991Y-15994222D02*
X8298991Y-16013269D01*
X8298991Y-16013269D02*
X8203753Y-16032317D01*
X8375182Y-16089460D02*
X8394230Y-16098984D01*
X8394230Y-16098984D02*
X8432325Y-16098984D01*
X8432325Y-16098984D02*
X8451373Y-16089460D01*
X8451373Y-16089460D02*
X8460896Y-16070412D01*
X8460896Y-16070412D02*
X8460896Y-16060888D01*
X8460896Y-16060888D02*
X8451373Y-16041841D01*
X8451373Y-16041841D02*
X8432325Y-16032317D01*
X8432325Y-16032317D02*
X8403753Y-16032317D01*
X8403753Y-16032317D02*
X8384706Y-16022793D01*
X8384706Y-16022793D02*
X8375182Y-16003746D01*
X8375182Y-16003746D02*
X8375182Y-15994222D01*
X8375182Y-15994222D02*
X8384706Y-15975174D01*
X8384706Y-15975174D02*
X8403753Y-15965650D01*
X8403753Y-15965650D02*
X8432325Y-15965650D01*
X8432325Y-15965650D02*
X8451373Y-15975174D01*
X8527563Y-16175174D02*
X8537087Y-16165650D01*
X8537087Y-16165650D02*
X8556134Y-16137079D01*
X8556134Y-16137079D02*
X8565658Y-16118031D01*
X8565658Y-16118031D02*
X8575182Y-16089460D01*
X8575182Y-16089460D02*
X8584706Y-16041841D01*
X8584706Y-16041841D02*
X8584706Y-16003746D01*
X8584706Y-16003746D02*
X8575182Y-15956127D01*
X8575182Y-15956127D02*
X8565658Y-15927555D01*
X8565658Y-15927555D02*
X8556134Y-15908508D01*
X8556134Y-15908508D02*
X8537087Y-15879936D01*
X8537087Y-15879936D02*
X8527563Y-15870412D01*
X8889468Y-16175174D02*
X8879944Y-16165650D01*
X8879944Y-16165650D02*
X8860896Y-16137079D01*
X8860896Y-16137079D02*
X8851373Y-16118031D01*
X8851373Y-16118031D02*
X8841849Y-16089460D01*
X8841849Y-16089460D02*
X8832325Y-16041841D01*
X8832325Y-16041841D02*
X8832325Y-16003746D01*
X8832325Y-16003746D02*
X8841849Y-15956127D01*
X8841849Y-15956127D02*
X8851373Y-15927555D01*
X8851373Y-15927555D02*
X8860896Y-15908508D01*
X8860896Y-15908508D02*
X8879944Y-15879936D01*
X8879944Y-15879936D02*
X8889468Y-15870412D01*
X8965658Y-15965650D02*
X8965658Y-16098984D01*
X8965658Y-15984698D02*
X8975182Y-15975174D01*
X8975182Y-15975174D02*
X8994230Y-15965650D01*
X8994230Y-15965650D02*
X9022801Y-15965650D01*
X9022801Y-15965650D02*
X9041849Y-15975174D01*
X9041849Y-15975174D02*
X9051373Y-15994222D01*
X9051373Y-15994222D02*
X9051373Y-16098984D01*
X9175182Y-16098984D02*
X9156134Y-16089460D01*
X9156134Y-16089460D02*
X9146611Y-16079936D01*
X9146611Y-16079936D02*
X9137087Y-16060888D01*
X9137087Y-16060888D02*
X9137087Y-16003746D01*
X9137087Y-16003746D02*
X9146611Y-15984698D01*
X9146611Y-15984698D02*
X9156134Y-15975174D01*
X9156134Y-15975174D02*
X9175182Y-15965650D01*
X9175182Y-15965650D02*
X9203754Y-15965650D01*
X9203754Y-15965650D02*
X9222801Y-15975174D01*
X9222801Y-15975174D02*
X9232325Y-15984698D01*
X9232325Y-15984698D02*
X9241849Y-16003746D01*
X9241849Y-16003746D02*
X9241849Y-16060888D01*
X9241849Y-16060888D02*
X9232325Y-16079936D01*
X9232325Y-16079936D02*
X9222801Y-16089460D01*
X9222801Y-16089460D02*
X9203754Y-16098984D01*
X9203754Y-16098984D02*
X9175182Y-16098984D01*
X9298992Y-15965650D02*
X9375182Y-15965650D01*
X9327563Y-15898984D02*
X9327563Y-16070412D01*
X9327563Y-16070412D02*
X9337087Y-16089460D01*
X9337087Y-16089460D02*
X9356134Y-16098984D01*
X9356134Y-16098984D02*
X9375182Y-16098984D01*
X9594230Y-15965650D02*
X9594230Y-16165650D01*
X9594230Y-15975174D02*
X9613277Y-15965650D01*
X9613277Y-15965650D02*
X9651373Y-15965650D01*
X9651373Y-15965650D02*
X9670420Y-15975174D01*
X9670420Y-15975174D02*
X9679944Y-15984698D01*
X9679944Y-15984698D02*
X9689468Y-16003746D01*
X9689468Y-16003746D02*
X9689468Y-16060888D01*
X9689468Y-16060888D02*
X9679944Y-16079936D01*
X9679944Y-16079936D02*
X9670420Y-16089460D01*
X9670420Y-16089460D02*
X9651373Y-16098984D01*
X9651373Y-16098984D02*
X9613277Y-16098984D01*
X9613277Y-16098984D02*
X9594230Y-16089460D01*
X9803754Y-16098984D02*
X9784706Y-16089460D01*
X9784706Y-16089460D02*
X9775182Y-16070412D01*
X9775182Y-16070412D02*
X9775182Y-15898984D01*
X9965658Y-16098984D02*
X9965658Y-15994222D01*
X9965658Y-15994222D02*
X9956135Y-15975174D01*
X9956135Y-15975174D02*
X9937087Y-15965650D01*
X9937087Y-15965650D02*
X9898992Y-15965650D01*
X9898992Y-15965650D02*
X9879944Y-15975174D01*
X9965658Y-16089460D02*
X9946611Y-16098984D01*
X9946611Y-16098984D02*
X9898992Y-16098984D01*
X9898992Y-16098984D02*
X9879944Y-16089460D01*
X9879944Y-16089460D02*
X9870420Y-16070412D01*
X9870420Y-16070412D02*
X9870420Y-16051365D01*
X9870420Y-16051365D02*
X9879944Y-16032317D01*
X9879944Y-16032317D02*
X9898992Y-16022793D01*
X9898992Y-16022793D02*
X9946611Y-16022793D01*
X9946611Y-16022793D02*
X9965658Y-16013269D01*
X10032325Y-15965650D02*
X10108515Y-15965650D01*
X10060896Y-15898984D02*
X10060896Y-16070412D01*
X10060896Y-16070412D02*
X10070420Y-16089460D01*
X10070420Y-16089460D02*
X10089468Y-16098984D01*
X10089468Y-16098984D02*
X10108515Y-16098984D01*
X10251373Y-16089460D02*
X10232325Y-16098984D01*
X10232325Y-16098984D02*
X10194230Y-16098984D01*
X10194230Y-16098984D02*
X10175182Y-16089460D01*
X10175182Y-16089460D02*
X10165658Y-16070412D01*
X10165658Y-16070412D02*
X10165658Y-15994222D01*
X10165658Y-15994222D02*
X10175182Y-15975174D01*
X10175182Y-15975174D02*
X10194230Y-15965650D01*
X10194230Y-15965650D02*
X10232325Y-15965650D01*
X10232325Y-15965650D02*
X10251373Y-15975174D01*
X10251373Y-15975174D02*
X10260896Y-15994222D01*
X10260896Y-15994222D02*
X10260896Y-16013269D01*
X10260896Y-16013269D02*
X10165658Y-16032317D01*
X10432325Y-16098984D02*
X10432325Y-15898984D01*
X10432325Y-16089460D02*
X10413277Y-16098984D01*
X10413277Y-16098984D02*
X10375182Y-16098984D01*
X10375182Y-16098984D02*
X10356135Y-16089460D01*
X10356135Y-16089460D02*
X10346611Y-16079936D01*
X10346611Y-16079936D02*
X10337087Y-16060888D01*
X10337087Y-16060888D02*
X10337087Y-16003746D01*
X10337087Y-16003746D02*
X10346611Y-15984698D01*
X10346611Y-15984698D02*
X10356135Y-15975174D01*
X10356135Y-15975174D02*
X10375182Y-15965650D01*
X10375182Y-15965650D02*
X10413277Y-15965650D01*
X10413277Y-15965650D02*
X10432325Y-15975174D01*
X10508516Y-16175174D02*
X10518039Y-16165650D01*
X10518039Y-16165650D02*
X10537087Y-16137079D01*
X10537087Y-16137079D02*
X10546611Y-16118031D01*
X10546611Y-16118031D02*
X10556135Y-16089460D01*
X10556135Y-16089460D02*
X10565658Y-16041841D01*
X10565658Y-16041841D02*
X10565658Y-16003746D01*
X10565658Y-16003746D02*
X10556135Y-15956127D01*
X10556135Y-15956127D02*
X10546611Y-15927555D01*
X10546611Y-15927555D02*
X10537087Y-15908508D01*
X10537087Y-15908508D02*
X10518039Y-15879936D01*
X10518039Y-15879936D02*
X10508516Y-15870412D01*
D13*
X3752500Y-16277500D02*
G75*
G02*
X3582500Y-16277500I-85000J0D01*
G01*
X3582500Y-16277500D02*
G75*
G02*
X3752500Y-16277500I85000J0D01*
G01*
D11*
X4118039Y-16368984D02*
X4003753Y-16368984D01*
X4060896Y-16368984D02*
X4060896Y-16168984D01*
X4060896Y-16168984D02*
X4041848Y-16197555D01*
X4041848Y-16197555D02*
X4022801Y-16216603D01*
X4022801Y-16216603D02*
X4003753Y-16226127D01*
X4203753Y-16349936D02*
X4213277Y-16359460D01*
X4213277Y-16359460D02*
X4203753Y-16368984D01*
X4203753Y-16368984D02*
X4194229Y-16359460D01*
X4194229Y-16359460D02*
X4203753Y-16349936D01*
X4203753Y-16349936D02*
X4203753Y-16368984D01*
X4279944Y-16168984D02*
X4413277Y-16168984D01*
X4413277Y-16168984D02*
X4327563Y-16368984D01*
X4527563Y-16168984D02*
X4546610Y-16168984D01*
X4546610Y-16168984D02*
X4565658Y-16178508D01*
X4565658Y-16178508D02*
X4575182Y-16188031D01*
X4575182Y-16188031D02*
X4584705Y-16207079D01*
X4584705Y-16207079D02*
X4594229Y-16245174D01*
X4594229Y-16245174D02*
X4594229Y-16292793D01*
X4594229Y-16292793D02*
X4584705Y-16330888D01*
X4584705Y-16330888D02*
X4575182Y-16349936D01*
X4575182Y-16349936D02*
X4565658Y-16359460D01*
X4565658Y-16359460D02*
X4546610Y-16368984D01*
X4546610Y-16368984D02*
X4527563Y-16368984D01*
X4527563Y-16368984D02*
X4508515Y-16359460D01*
X4508515Y-16359460D02*
X4498991Y-16349936D01*
X4498991Y-16349936D02*
X4489467Y-16330888D01*
X4489467Y-16330888D02*
X4479944Y-16292793D01*
X4479944Y-16292793D02*
X4479944Y-16245174D01*
X4479944Y-16245174D02*
X4489467Y-16207079D01*
X4489467Y-16207079D02*
X4498991Y-16188031D01*
X4498991Y-16188031D02*
X4508515Y-16178508D01*
X4508515Y-16178508D02*
X4527563Y-16168984D01*
X4718039Y-16168984D02*
X4737086Y-16168984D01*
X4737086Y-16168984D02*
X4756134Y-16178508D01*
X4756134Y-16178508D02*
X4765658Y-16188031D01*
X4765658Y-16188031D02*
X4775182Y-16207079D01*
X4775182Y-16207079D02*
X4784705Y-16245174D01*
X4784705Y-16245174D02*
X4784705Y-16292793D01*
X4784705Y-16292793D02*
X4775182Y-16330888D01*
X4775182Y-16330888D02*
X4765658Y-16349936D01*
X4765658Y-16349936D02*
X4756134Y-16359460D01*
X4756134Y-16359460D02*
X4737086Y-16368984D01*
X4737086Y-16368984D02*
X4718039Y-16368984D01*
X4718039Y-16368984D02*
X4698991Y-16359460D01*
X4698991Y-16359460D02*
X4689467Y-16349936D01*
X4689467Y-16349936D02*
X4679944Y-16330888D01*
X4679944Y-16330888D02*
X4670420Y-16292793D01*
X4670420Y-16292793D02*
X4670420Y-16245174D01*
X4670420Y-16245174D02*
X4679944Y-16207079D01*
X4679944Y-16207079D02*
X4689467Y-16188031D01*
X4689467Y-16188031D02*
X4698991Y-16178508D01*
X4698991Y-16178508D02*
X4718039Y-16168984D01*
X4870420Y-16368984D02*
X4870420Y-16235650D01*
X4870420Y-16254698D02*
X4879944Y-16245174D01*
X4879944Y-16245174D02*
X4898991Y-16235650D01*
X4898991Y-16235650D02*
X4927563Y-16235650D01*
X4927563Y-16235650D02*
X4946610Y-16245174D01*
X4946610Y-16245174D02*
X4956134Y-16264222D01*
X4956134Y-16264222D02*
X4956134Y-16368984D01*
X4956134Y-16264222D02*
X4965658Y-16245174D01*
X4965658Y-16245174D02*
X4984705Y-16235650D01*
X4984705Y-16235650D02*
X5013277Y-16235650D01*
X5013277Y-16235650D02*
X5032325Y-16245174D01*
X5032325Y-16245174D02*
X5041848Y-16264222D01*
X5041848Y-16264222D02*
X5041848Y-16368984D01*
X5137086Y-16368984D02*
X5137086Y-16235650D01*
X5137086Y-16254698D02*
X5146610Y-16245174D01*
X5146610Y-16245174D02*
X5165658Y-16235650D01*
X5165658Y-16235650D02*
X5194229Y-16235650D01*
X5194229Y-16235650D02*
X5213277Y-16245174D01*
X5213277Y-16245174D02*
X5222801Y-16264222D01*
X5222801Y-16264222D02*
X5222801Y-16368984D01*
X5222801Y-16264222D02*
X5232325Y-16245174D01*
X5232325Y-16245174D02*
X5251372Y-16235650D01*
X5251372Y-16235650D02*
X5279944Y-16235650D01*
X5279944Y-16235650D02*
X5298991Y-16245174D01*
X5298991Y-16245174D02*
X5308515Y-16264222D01*
X5308515Y-16264222D02*
X5308515Y-16368984D01*
X5698991Y-16159460D02*
X5527563Y-16416603D01*
X5956134Y-16168984D02*
X5975182Y-16168984D01*
X5975182Y-16168984D02*
X5994229Y-16178508D01*
X5994229Y-16178508D02*
X6003753Y-16188031D01*
X6003753Y-16188031D02*
X6013277Y-16207079D01*
X6013277Y-16207079D02*
X6022801Y-16245174D01*
X6022801Y-16245174D02*
X6022801Y-16292793D01*
X6022801Y-16292793D02*
X6013277Y-16330888D01*
X6013277Y-16330888D02*
X6003753Y-16349936D01*
X6003753Y-16349936D02*
X5994229Y-16359460D01*
X5994229Y-16359460D02*
X5975182Y-16368984D01*
X5975182Y-16368984D02*
X5956134Y-16368984D01*
X5956134Y-16368984D02*
X5937086Y-16359460D01*
X5937086Y-16359460D02*
X5927563Y-16349936D01*
X5927563Y-16349936D02*
X5918039Y-16330888D01*
X5918039Y-16330888D02*
X5908515Y-16292793D01*
X5908515Y-16292793D02*
X5908515Y-16245174D01*
X5908515Y-16245174D02*
X5918039Y-16207079D01*
X5918039Y-16207079D02*
X5927563Y-16188031D01*
X5927563Y-16188031D02*
X5937086Y-16178508D01*
X5937086Y-16178508D02*
X5956134Y-16168984D01*
X6108515Y-16349936D02*
X6118039Y-16359460D01*
X6118039Y-16359460D02*
X6108515Y-16368984D01*
X6108515Y-16368984D02*
X6098991Y-16359460D01*
X6098991Y-16359460D02*
X6108515Y-16349936D01*
X6108515Y-16349936D02*
X6108515Y-16368984D01*
X6241848Y-16168984D02*
X6260896Y-16168984D01*
X6260896Y-16168984D02*
X6279944Y-16178508D01*
X6279944Y-16178508D02*
X6289467Y-16188031D01*
X6289467Y-16188031D02*
X6298991Y-16207079D01*
X6298991Y-16207079D02*
X6308515Y-16245174D01*
X6308515Y-16245174D02*
X6308515Y-16292793D01*
X6308515Y-16292793D02*
X6298991Y-16330888D01*
X6298991Y-16330888D02*
X6289467Y-16349936D01*
X6289467Y-16349936D02*
X6279944Y-16359460D01*
X6279944Y-16359460D02*
X6260896Y-16368984D01*
X6260896Y-16368984D02*
X6241848Y-16368984D01*
X6241848Y-16368984D02*
X6222801Y-16359460D01*
X6222801Y-16359460D02*
X6213277Y-16349936D01*
X6213277Y-16349936D02*
X6203753Y-16330888D01*
X6203753Y-16330888D02*
X6194229Y-16292793D01*
X6194229Y-16292793D02*
X6194229Y-16245174D01*
X6194229Y-16245174D02*
X6203753Y-16207079D01*
X6203753Y-16207079D02*
X6213277Y-16188031D01*
X6213277Y-16188031D02*
X6222801Y-16178508D01*
X6222801Y-16178508D02*
X6241848Y-16168984D01*
X6479944Y-16168984D02*
X6441848Y-16168984D01*
X6441848Y-16168984D02*
X6422801Y-16178508D01*
X6422801Y-16178508D02*
X6413277Y-16188031D01*
X6413277Y-16188031D02*
X6394229Y-16216603D01*
X6394229Y-16216603D02*
X6384706Y-16254698D01*
X6384706Y-16254698D02*
X6384706Y-16330888D01*
X6384706Y-16330888D02*
X6394229Y-16349936D01*
X6394229Y-16349936D02*
X6403753Y-16359460D01*
X6403753Y-16359460D02*
X6422801Y-16368984D01*
X6422801Y-16368984D02*
X6460896Y-16368984D01*
X6460896Y-16368984D02*
X6479944Y-16359460D01*
X6479944Y-16359460D02*
X6489467Y-16349936D01*
X6489467Y-16349936D02*
X6498991Y-16330888D01*
X6498991Y-16330888D02*
X6498991Y-16283269D01*
X6498991Y-16283269D02*
X6489467Y-16264222D01*
X6489467Y-16264222D02*
X6479944Y-16254698D01*
X6479944Y-16254698D02*
X6460896Y-16245174D01*
X6460896Y-16245174D02*
X6422801Y-16245174D01*
X6422801Y-16245174D02*
X6403753Y-16254698D01*
X6403753Y-16254698D02*
X6394229Y-16264222D01*
X6394229Y-16264222D02*
X6384706Y-16283269D01*
X6670420Y-16168984D02*
X6632325Y-16168984D01*
X6632325Y-16168984D02*
X6613277Y-16178508D01*
X6613277Y-16178508D02*
X6603753Y-16188031D01*
X6603753Y-16188031D02*
X6584706Y-16216603D01*
X6584706Y-16216603D02*
X6575182Y-16254698D01*
X6575182Y-16254698D02*
X6575182Y-16330888D01*
X6575182Y-16330888D02*
X6584706Y-16349936D01*
X6584706Y-16349936D02*
X6594229Y-16359460D01*
X6594229Y-16359460D02*
X6613277Y-16368984D01*
X6613277Y-16368984D02*
X6651372Y-16368984D01*
X6651372Y-16368984D02*
X6670420Y-16359460D01*
X6670420Y-16359460D02*
X6679944Y-16349936D01*
X6679944Y-16349936D02*
X6689467Y-16330888D01*
X6689467Y-16330888D02*
X6689467Y-16283269D01*
X6689467Y-16283269D02*
X6679944Y-16264222D01*
X6679944Y-16264222D02*
X6670420Y-16254698D01*
X6670420Y-16254698D02*
X6651372Y-16245174D01*
X6651372Y-16245174D02*
X6613277Y-16245174D01*
X6613277Y-16245174D02*
X6594229Y-16254698D01*
X6594229Y-16254698D02*
X6584706Y-16264222D01*
X6584706Y-16264222D02*
X6575182Y-16283269D01*
X6784706Y-16368984D02*
X6822801Y-16368984D01*
X6822801Y-16368984D02*
X6841848Y-16359460D01*
X6841848Y-16359460D02*
X6851372Y-16349936D01*
X6851372Y-16349936D02*
X6870420Y-16321365D01*
X6870420Y-16321365D02*
X6879944Y-16283269D01*
X6879944Y-16283269D02*
X6879944Y-16207079D01*
X6879944Y-16207079D02*
X6870420Y-16188031D01*
X6870420Y-16188031D02*
X6860896Y-16178508D01*
X6860896Y-16178508D02*
X6841848Y-16168984D01*
X6841848Y-16168984D02*
X6803753Y-16168984D01*
X6803753Y-16168984D02*
X6784706Y-16178508D01*
X6784706Y-16178508D02*
X6775182Y-16188031D01*
X6775182Y-16188031D02*
X6765658Y-16207079D01*
X6765658Y-16207079D02*
X6765658Y-16254698D01*
X6765658Y-16254698D02*
X6775182Y-16273746D01*
X6775182Y-16273746D02*
X6784706Y-16283269D01*
X6784706Y-16283269D02*
X6803753Y-16292793D01*
X6803753Y-16292793D02*
X6841848Y-16292793D01*
X6841848Y-16292793D02*
X6860896Y-16283269D01*
X6860896Y-16283269D02*
X6870420Y-16273746D01*
X6870420Y-16273746D02*
X6879944Y-16254698D01*
X6956134Y-16168984D02*
X6956134Y-16207079D01*
X7032325Y-16168984D02*
X7032325Y-16207079D01*
X7327563Y-16445174D02*
X7318039Y-16435650D01*
X7318039Y-16435650D02*
X7298991Y-16407079D01*
X7298991Y-16407079D02*
X7289468Y-16388031D01*
X7289468Y-16388031D02*
X7279944Y-16359460D01*
X7279944Y-16359460D02*
X7270420Y-16311841D01*
X7270420Y-16311841D02*
X7270420Y-16273746D01*
X7270420Y-16273746D02*
X7279944Y-16226127D01*
X7279944Y-16226127D02*
X7289468Y-16197555D01*
X7289468Y-16197555D02*
X7298991Y-16178508D01*
X7298991Y-16178508D02*
X7318039Y-16149936D01*
X7318039Y-16149936D02*
X7327563Y-16140412D01*
X7489468Y-16235650D02*
X7489468Y-16368984D01*
X7441848Y-16159460D02*
X7394229Y-16302317D01*
X7394229Y-16302317D02*
X7518039Y-16302317D01*
X7746610Y-16368984D02*
X7746610Y-16168984D01*
X7832325Y-16368984D02*
X7832325Y-16264222D01*
X7832325Y-16264222D02*
X7822801Y-16245174D01*
X7822801Y-16245174D02*
X7803753Y-16235650D01*
X7803753Y-16235650D02*
X7775182Y-16235650D01*
X7775182Y-16235650D02*
X7756134Y-16245174D01*
X7756134Y-16245174D02*
X7746610Y-16254698D01*
X7956134Y-16368984D02*
X7937087Y-16359460D01*
X7937087Y-16359460D02*
X7927563Y-16349936D01*
X7927563Y-16349936D02*
X7918039Y-16330888D01*
X7918039Y-16330888D02*
X7918039Y-16273746D01*
X7918039Y-16273746D02*
X7927563Y-16254698D01*
X7927563Y-16254698D02*
X7937087Y-16245174D01*
X7937087Y-16245174D02*
X7956134Y-16235650D01*
X7956134Y-16235650D02*
X7984706Y-16235650D01*
X7984706Y-16235650D02*
X8003753Y-16245174D01*
X8003753Y-16245174D02*
X8013277Y-16254698D01*
X8013277Y-16254698D02*
X8022801Y-16273746D01*
X8022801Y-16273746D02*
X8022801Y-16330888D01*
X8022801Y-16330888D02*
X8013277Y-16349936D01*
X8013277Y-16349936D02*
X8003753Y-16359460D01*
X8003753Y-16359460D02*
X7984706Y-16368984D01*
X7984706Y-16368984D02*
X7956134Y-16368984D01*
X8137087Y-16368984D02*
X8118039Y-16359460D01*
X8118039Y-16359460D02*
X8108515Y-16340412D01*
X8108515Y-16340412D02*
X8108515Y-16168984D01*
X8289468Y-16359460D02*
X8270420Y-16368984D01*
X8270420Y-16368984D02*
X8232325Y-16368984D01*
X8232325Y-16368984D02*
X8213277Y-16359460D01*
X8213277Y-16359460D02*
X8203753Y-16340412D01*
X8203753Y-16340412D02*
X8203753Y-16264222D01*
X8203753Y-16264222D02*
X8213277Y-16245174D01*
X8213277Y-16245174D02*
X8232325Y-16235650D01*
X8232325Y-16235650D02*
X8270420Y-16235650D01*
X8270420Y-16235650D02*
X8289468Y-16245174D01*
X8289468Y-16245174D02*
X8298991Y-16264222D01*
X8298991Y-16264222D02*
X8298991Y-16283269D01*
X8298991Y-16283269D02*
X8203753Y-16302317D01*
X8375182Y-16359460D02*
X8394230Y-16368984D01*
X8394230Y-16368984D02*
X8432325Y-16368984D01*
X8432325Y-16368984D02*
X8451373Y-16359460D01*
X8451373Y-16359460D02*
X8460896Y-16340412D01*
X8460896Y-16340412D02*
X8460896Y-16330888D01*
X8460896Y-16330888D02*
X8451373Y-16311841D01*
X8451373Y-16311841D02*
X8432325Y-16302317D01*
X8432325Y-16302317D02*
X8403753Y-16302317D01*
X8403753Y-16302317D02*
X8384706Y-16292793D01*
X8384706Y-16292793D02*
X8375182Y-16273746D01*
X8375182Y-16273746D02*
X8375182Y-16264222D01*
X8375182Y-16264222D02*
X8384706Y-16245174D01*
X8384706Y-16245174D02*
X8403753Y-16235650D01*
X8403753Y-16235650D02*
X8432325Y-16235650D01*
X8432325Y-16235650D02*
X8451373Y-16245174D01*
X8527563Y-16445174D02*
X8537087Y-16435650D01*
X8537087Y-16435650D02*
X8556134Y-16407079D01*
X8556134Y-16407079D02*
X8565658Y-16388031D01*
X8565658Y-16388031D02*
X8575182Y-16359460D01*
X8575182Y-16359460D02*
X8584706Y-16311841D01*
X8584706Y-16311841D02*
X8584706Y-16273746D01*
X8584706Y-16273746D02*
X8575182Y-16226127D01*
X8575182Y-16226127D02*
X8565658Y-16197555D01*
X8565658Y-16197555D02*
X8556134Y-16178508D01*
X8556134Y-16178508D02*
X8537087Y-16149936D01*
X8537087Y-16149936D02*
X8527563Y-16140412D01*
X8889468Y-16445174D02*
X8879944Y-16435650D01*
X8879944Y-16435650D02*
X8860896Y-16407079D01*
X8860896Y-16407079D02*
X8851373Y-16388031D01*
X8851373Y-16388031D02*
X8841849Y-16359460D01*
X8841849Y-16359460D02*
X8832325Y-16311841D01*
X8832325Y-16311841D02*
X8832325Y-16273746D01*
X8832325Y-16273746D02*
X8841849Y-16226127D01*
X8841849Y-16226127D02*
X8851373Y-16197555D01*
X8851373Y-16197555D02*
X8860896Y-16178508D01*
X8860896Y-16178508D02*
X8879944Y-16149936D01*
X8879944Y-16149936D02*
X8889468Y-16140412D01*
X8965658Y-16235650D02*
X8965658Y-16368984D01*
X8965658Y-16254698D02*
X8975182Y-16245174D01*
X8975182Y-16245174D02*
X8994230Y-16235650D01*
X8994230Y-16235650D02*
X9022801Y-16235650D01*
X9022801Y-16235650D02*
X9041849Y-16245174D01*
X9041849Y-16245174D02*
X9051373Y-16264222D01*
X9051373Y-16264222D02*
X9051373Y-16368984D01*
X9175182Y-16368984D02*
X9156134Y-16359460D01*
X9156134Y-16359460D02*
X9146611Y-16349936D01*
X9146611Y-16349936D02*
X9137087Y-16330888D01*
X9137087Y-16330888D02*
X9137087Y-16273746D01*
X9137087Y-16273746D02*
X9146611Y-16254698D01*
X9146611Y-16254698D02*
X9156134Y-16245174D01*
X9156134Y-16245174D02*
X9175182Y-16235650D01*
X9175182Y-16235650D02*
X9203754Y-16235650D01*
X9203754Y-16235650D02*
X9222801Y-16245174D01*
X9222801Y-16245174D02*
X9232325Y-16254698D01*
X9232325Y-16254698D02*
X9241849Y-16273746D01*
X9241849Y-16273746D02*
X9241849Y-16330888D01*
X9241849Y-16330888D02*
X9232325Y-16349936D01*
X9232325Y-16349936D02*
X9222801Y-16359460D01*
X9222801Y-16359460D02*
X9203754Y-16368984D01*
X9203754Y-16368984D02*
X9175182Y-16368984D01*
X9298992Y-16235650D02*
X9375182Y-16235650D01*
X9327563Y-16168984D02*
X9327563Y-16340412D01*
X9327563Y-16340412D02*
X9337087Y-16359460D01*
X9337087Y-16359460D02*
X9356134Y-16368984D01*
X9356134Y-16368984D02*
X9375182Y-16368984D01*
X9594230Y-16235650D02*
X9594230Y-16435650D01*
X9594230Y-16245174D02*
X9613277Y-16235650D01*
X9613277Y-16235650D02*
X9651373Y-16235650D01*
X9651373Y-16235650D02*
X9670420Y-16245174D01*
X9670420Y-16245174D02*
X9679944Y-16254698D01*
X9679944Y-16254698D02*
X9689468Y-16273746D01*
X9689468Y-16273746D02*
X9689468Y-16330888D01*
X9689468Y-16330888D02*
X9679944Y-16349936D01*
X9679944Y-16349936D02*
X9670420Y-16359460D01*
X9670420Y-16359460D02*
X9651373Y-16368984D01*
X9651373Y-16368984D02*
X9613277Y-16368984D01*
X9613277Y-16368984D02*
X9594230Y-16359460D01*
X9803754Y-16368984D02*
X9784706Y-16359460D01*
X9784706Y-16359460D02*
X9775182Y-16340412D01*
X9775182Y-16340412D02*
X9775182Y-16168984D01*
X9965658Y-16368984D02*
X9965658Y-16264222D01*
X9965658Y-16264222D02*
X9956135Y-16245174D01*
X9956135Y-16245174D02*
X9937087Y-16235650D01*
X9937087Y-16235650D02*
X9898992Y-16235650D01*
X9898992Y-16235650D02*
X9879944Y-16245174D01*
X9965658Y-16359460D02*
X9946611Y-16368984D01*
X9946611Y-16368984D02*
X9898992Y-16368984D01*
X9898992Y-16368984D02*
X9879944Y-16359460D01*
X9879944Y-16359460D02*
X9870420Y-16340412D01*
X9870420Y-16340412D02*
X9870420Y-16321365D01*
X9870420Y-16321365D02*
X9879944Y-16302317D01*
X9879944Y-16302317D02*
X9898992Y-16292793D01*
X9898992Y-16292793D02*
X9946611Y-16292793D01*
X9946611Y-16292793D02*
X9965658Y-16283269D01*
X10032325Y-16235650D02*
X10108515Y-16235650D01*
X10060896Y-16168984D02*
X10060896Y-16340412D01*
X10060896Y-16340412D02*
X10070420Y-16359460D01*
X10070420Y-16359460D02*
X10089468Y-16368984D01*
X10089468Y-16368984D02*
X10108515Y-16368984D01*
X10251373Y-16359460D02*
X10232325Y-16368984D01*
X10232325Y-16368984D02*
X10194230Y-16368984D01*
X10194230Y-16368984D02*
X10175182Y-16359460D01*
X10175182Y-16359460D02*
X10165658Y-16340412D01*
X10165658Y-16340412D02*
X10165658Y-16264222D01*
X10165658Y-16264222D02*
X10175182Y-16245174D01*
X10175182Y-16245174D02*
X10194230Y-16235650D01*
X10194230Y-16235650D02*
X10232325Y-16235650D01*
X10232325Y-16235650D02*
X10251373Y-16245174D01*
X10251373Y-16245174D02*
X10260896Y-16264222D01*
X10260896Y-16264222D02*
X10260896Y-16283269D01*
X10260896Y-16283269D02*
X10165658Y-16302317D01*
X10432325Y-16368984D02*
X10432325Y-16168984D01*
X10432325Y-16359460D02*
X10413277Y-16368984D01*
X10413277Y-16368984D02*
X10375182Y-16368984D01*
X10375182Y-16368984D02*
X10356135Y-16359460D01*
X10356135Y-16359460D02*
X10346611Y-16349936D01*
X10346611Y-16349936D02*
X10337087Y-16330888D01*
X10337087Y-16330888D02*
X10337087Y-16273746D01*
X10337087Y-16273746D02*
X10346611Y-16254698D01*
X10346611Y-16254698D02*
X10356135Y-16245174D01*
X10356135Y-16245174D02*
X10375182Y-16235650D01*
X10375182Y-16235650D02*
X10413277Y-16235650D01*
X10413277Y-16235650D02*
X10432325Y-16245174D01*
X10508516Y-16445174D02*
X10518039Y-16435650D01*
X10518039Y-16435650D02*
X10537087Y-16407079D01*
X10537087Y-16407079D02*
X10546611Y-16388031D01*
X10546611Y-16388031D02*
X10556135Y-16359460D01*
X10556135Y-16359460D02*
X10565658Y-16311841D01*
X10565658Y-16311841D02*
X10565658Y-16273746D01*
X10565658Y-16273746D02*
X10556135Y-16226127D01*
X10556135Y-16226127D02*
X10546611Y-16197555D01*
X10546611Y-16197555D02*
X10537087Y-16178508D01*
X10537087Y-16178508D02*
X10518039Y-16149936D01*
X10518039Y-16149936D02*
X10508516Y-16140412D01*
D14*
X3662500Y-16477500D02*
X3662500Y-16657500D01*
X3572500Y-16567500D02*
X3752500Y-16567500D01*
D11*
X4118039Y-16658984D02*
X4003753Y-16658984D01*
X4060896Y-16658984D02*
X4060896Y-16458984D01*
X4060896Y-16458984D02*
X4041848Y-16487555D01*
X4041848Y-16487555D02*
X4022801Y-16506603D01*
X4022801Y-16506603D02*
X4003753Y-16516127D01*
X4203753Y-16639936D02*
X4213277Y-16649460D01*
X4213277Y-16649460D02*
X4203753Y-16658984D01*
X4203753Y-16658984D02*
X4194229Y-16649460D01*
X4194229Y-16649460D02*
X4203753Y-16639936D01*
X4203753Y-16639936D02*
X4203753Y-16658984D01*
X4327563Y-16544698D02*
X4308515Y-16535174D01*
X4308515Y-16535174D02*
X4298991Y-16525650D01*
X4298991Y-16525650D02*
X4289467Y-16506603D01*
X4289467Y-16506603D02*
X4289467Y-16497079D01*
X4289467Y-16497079D02*
X4298991Y-16478031D01*
X4298991Y-16478031D02*
X4308515Y-16468508D01*
X4308515Y-16468508D02*
X4327563Y-16458984D01*
X4327563Y-16458984D02*
X4365658Y-16458984D01*
X4365658Y-16458984D02*
X4384705Y-16468508D01*
X4384705Y-16468508D02*
X4394229Y-16478031D01*
X4394229Y-16478031D02*
X4403753Y-16497079D01*
X4403753Y-16497079D02*
X4403753Y-16506603D01*
X4403753Y-16506603D02*
X4394229Y-16525650D01*
X4394229Y-16525650D02*
X4384705Y-16535174D01*
X4384705Y-16535174D02*
X4365658Y-16544698D01*
X4365658Y-16544698D02*
X4327563Y-16544698D01*
X4327563Y-16544698D02*
X4308515Y-16554222D01*
X4308515Y-16554222D02*
X4298991Y-16563746D01*
X4298991Y-16563746D02*
X4289467Y-16582793D01*
X4289467Y-16582793D02*
X4289467Y-16620888D01*
X4289467Y-16620888D02*
X4298991Y-16639936D01*
X4298991Y-16639936D02*
X4308515Y-16649460D01*
X4308515Y-16649460D02*
X4327563Y-16658984D01*
X4327563Y-16658984D02*
X4365658Y-16658984D01*
X4365658Y-16658984D02*
X4384705Y-16649460D01*
X4384705Y-16649460D02*
X4394229Y-16639936D01*
X4394229Y-16639936D02*
X4403753Y-16620888D01*
X4403753Y-16620888D02*
X4403753Y-16582793D01*
X4403753Y-16582793D02*
X4394229Y-16563746D01*
X4394229Y-16563746D02*
X4384705Y-16554222D01*
X4384705Y-16554222D02*
X4365658Y-16544698D01*
X4527563Y-16458984D02*
X4546610Y-16458984D01*
X4546610Y-16458984D02*
X4565658Y-16468508D01*
X4565658Y-16468508D02*
X4575182Y-16478031D01*
X4575182Y-16478031D02*
X4584705Y-16497079D01*
X4584705Y-16497079D02*
X4594229Y-16535174D01*
X4594229Y-16535174D02*
X4594229Y-16582793D01*
X4594229Y-16582793D02*
X4584705Y-16620888D01*
X4584705Y-16620888D02*
X4575182Y-16639936D01*
X4575182Y-16639936D02*
X4565658Y-16649460D01*
X4565658Y-16649460D02*
X4546610Y-16658984D01*
X4546610Y-16658984D02*
X4527563Y-16658984D01*
X4527563Y-16658984D02*
X4508515Y-16649460D01*
X4508515Y-16649460D02*
X4498991Y-16639936D01*
X4498991Y-16639936D02*
X4489467Y-16620888D01*
X4489467Y-16620888D02*
X4479944Y-16582793D01*
X4479944Y-16582793D02*
X4479944Y-16535174D01*
X4479944Y-16535174D02*
X4489467Y-16497079D01*
X4489467Y-16497079D02*
X4498991Y-16478031D01*
X4498991Y-16478031D02*
X4508515Y-16468508D01*
X4508515Y-16468508D02*
X4527563Y-16458984D01*
X4718039Y-16458984D02*
X4737086Y-16458984D01*
X4737086Y-16458984D02*
X4756134Y-16468508D01*
X4756134Y-16468508D02*
X4765658Y-16478031D01*
X4765658Y-16478031D02*
X4775182Y-16497079D01*
X4775182Y-16497079D02*
X4784705Y-16535174D01*
X4784705Y-16535174D02*
X4784705Y-16582793D01*
X4784705Y-16582793D02*
X4775182Y-16620888D01*
X4775182Y-16620888D02*
X4765658Y-16639936D01*
X4765658Y-16639936D02*
X4756134Y-16649460D01*
X4756134Y-16649460D02*
X4737086Y-16658984D01*
X4737086Y-16658984D02*
X4718039Y-16658984D01*
X4718039Y-16658984D02*
X4698991Y-16649460D01*
X4698991Y-16649460D02*
X4689467Y-16639936D01*
X4689467Y-16639936D02*
X4679944Y-16620888D01*
X4679944Y-16620888D02*
X4670420Y-16582793D01*
X4670420Y-16582793D02*
X4670420Y-16535174D01*
X4670420Y-16535174D02*
X4679944Y-16497079D01*
X4679944Y-16497079D02*
X4689467Y-16478031D01*
X4689467Y-16478031D02*
X4698991Y-16468508D01*
X4698991Y-16468508D02*
X4718039Y-16458984D01*
X4870420Y-16658984D02*
X4870420Y-16525650D01*
X4870420Y-16544698D02*
X4879944Y-16535174D01*
X4879944Y-16535174D02*
X4898991Y-16525650D01*
X4898991Y-16525650D02*
X4927563Y-16525650D01*
X4927563Y-16525650D02*
X4946610Y-16535174D01*
X4946610Y-16535174D02*
X4956134Y-16554222D01*
X4956134Y-16554222D02*
X4956134Y-16658984D01*
X4956134Y-16554222D02*
X4965658Y-16535174D01*
X4965658Y-16535174D02*
X4984705Y-16525650D01*
X4984705Y-16525650D02*
X5013277Y-16525650D01*
X5013277Y-16525650D02*
X5032325Y-16535174D01*
X5032325Y-16535174D02*
X5041848Y-16554222D01*
X5041848Y-16554222D02*
X5041848Y-16658984D01*
X5137086Y-16658984D02*
X5137086Y-16525650D01*
X5137086Y-16544698D02*
X5146610Y-16535174D01*
X5146610Y-16535174D02*
X5165658Y-16525650D01*
X5165658Y-16525650D02*
X5194229Y-16525650D01*
X5194229Y-16525650D02*
X5213277Y-16535174D01*
X5213277Y-16535174D02*
X5222801Y-16554222D01*
X5222801Y-16554222D02*
X5222801Y-16658984D01*
X5222801Y-16554222D02*
X5232325Y-16535174D01*
X5232325Y-16535174D02*
X5251372Y-16525650D01*
X5251372Y-16525650D02*
X5279944Y-16525650D01*
X5279944Y-16525650D02*
X5298991Y-16535174D01*
X5298991Y-16535174D02*
X5308515Y-16554222D01*
X5308515Y-16554222D02*
X5308515Y-16658984D01*
X5698991Y-16449460D02*
X5527563Y-16706603D01*
X5956134Y-16458984D02*
X5975182Y-16458984D01*
X5975182Y-16458984D02*
X5994229Y-16468508D01*
X5994229Y-16468508D02*
X6003753Y-16478031D01*
X6003753Y-16478031D02*
X6013277Y-16497079D01*
X6013277Y-16497079D02*
X6022801Y-16535174D01*
X6022801Y-16535174D02*
X6022801Y-16582793D01*
X6022801Y-16582793D02*
X6013277Y-16620888D01*
X6013277Y-16620888D02*
X6003753Y-16639936D01*
X6003753Y-16639936D02*
X5994229Y-16649460D01*
X5994229Y-16649460D02*
X5975182Y-16658984D01*
X5975182Y-16658984D02*
X5956134Y-16658984D01*
X5956134Y-16658984D02*
X5937086Y-16649460D01*
X5937086Y-16649460D02*
X5927563Y-16639936D01*
X5927563Y-16639936D02*
X5918039Y-16620888D01*
X5918039Y-16620888D02*
X5908515Y-16582793D01*
X5908515Y-16582793D02*
X5908515Y-16535174D01*
X5908515Y-16535174D02*
X5918039Y-16497079D01*
X5918039Y-16497079D02*
X5927563Y-16478031D01*
X5927563Y-16478031D02*
X5937086Y-16468508D01*
X5937086Y-16468508D02*
X5956134Y-16458984D01*
X6108515Y-16639936D02*
X6118039Y-16649460D01*
X6118039Y-16649460D02*
X6108515Y-16658984D01*
X6108515Y-16658984D02*
X6098991Y-16649460D01*
X6098991Y-16649460D02*
X6108515Y-16639936D01*
X6108515Y-16639936D02*
X6108515Y-16658984D01*
X6241848Y-16458984D02*
X6260896Y-16458984D01*
X6260896Y-16458984D02*
X6279944Y-16468508D01*
X6279944Y-16468508D02*
X6289467Y-16478031D01*
X6289467Y-16478031D02*
X6298991Y-16497079D01*
X6298991Y-16497079D02*
X6308515Y-16535174D01*
X6308515Y-16535174D02*
X6308515Y-16582793D01*
X6308515Y-16582793D02*
X6298991Y-16620888D01*
X6298991Y-16620888D02*
X6289467Y-16639936D01*
X6289467Y-16639936D02*
X6279944Y-16649460D01*
X6279944Y-16649460D02*
X6260896Y-16658984D01*
X6260896Y-16658984D02*
X6241848Y-16658984D01*
X6241848Y-16658984D02*
X6222801Y-16649460D01*
X6222801Y-16649460D02*
X6213277Y-16639936D01*
X6213277Y-16639936D02*
X6203753Y-16620888D01*
X6203753Y-16620888D02*
X6194229Y-16582793D01*
X6194229Y-16582793D02*
X6194229Y-16535174D01*
X6194229Y-16535174D02*
X6203753Y-16497079D01*
X6203753Y-16497079D02*
X6213277Y-16478031D01*
X6213277Y-16478031D02*
X6222801Y-16468508D01*
X6222801Y-16468508D02*
X6241848Y-16458984D01*
X6375182Y-16458984D02*
X6508515Y-16458984D01*
X6508515Y-16458984D02*
X6422801Y-16658984D01*
X6622801Y-16458984D02*
X6641848Y-16458984D01*
X6641848Y-16458984D02*
X6660896Y-16468508D01*
X6660896Y-16468508D02*
X6670420Y-16478031D01*
X6670420Y-16478031D02*
X6679944Y-16497079D01*
X6679944Y-16497079D02*
X6689467Y-16535174D01*
X6689467Y-16535174D02*
X6689467Y-16582793D01*
X6689467Y-16582793D02*
X6679944Y-16620888D01*
X6679944Y-16620888D02*
X6670420Y-16639936D01*
X6670420Y-16639936D02*
X6660896Y-16649460D01*
X6660896Y-16649460D02*
X6641848Y-16658984D01*
X6641848Y-16658984D02*
X6622801Y-16658984D01*
X6622801Y-16658984D02*
X6603753Y-16649460D01*
X6603753Y-16649460D02*
X6594229Y-16639936D01*
X6594229Y-16639936D02*
X6584706Y-16620888D01*
X6584706Y-16620888D02*
X6575182Y-16582793D01*
X6575182Y-16582793D02*
X6575182Y-16535174D01*
X6575182Y-16535174D02*
X6584706Y-16497079D01*
X6584706Y-16497079D02*
X6594229Y-16478031D01*
X6594229Y-16478031D02*
X6603753Y-16468508D01*
X6603753Y-16468508D02*
X6622801Y-16458984D01*
X6784706Y-16658984D02*
X6822801Y-16658984D01*
X6822801Y-16658984D02*
X6841848Y-16649460D01*
X6841848Y-16649460D02*
X6851372Y-16639936D01*
X6851372Y-16639936D02*
X6870420Y-16611365D01*
X6870420Y-16611365D02*
X6879944Y-16573269D01*
X6879944Y-16573269D02*
X6879944Y-16497079D01*
X6879944Y-16497079D02*
X6870420Y-16478031D01*
X6870420Y-16478031D02*
X6860896Y-16468508D01*
X6860896Y-16468508D02*
X6841848Y-16458984D01*
X6841848Y-16458984D02*
X6803753Y-16458984D01*
X6803753Y-16458984D02*
X6784706Y-16468508D01*
X6784706Y-16468508D02*
X6775182Y-16478031D01*
X6775182Y-16478031D02*
X6765658Y-16497079D01*
X6765658Y-16497079D02*
X6765658Y-16544698D01*
X6765658Y-16544698D02*
X6775182Y-16563746D01*
X6775182Y-16563746D02*
X6784706Y-16573269D01*
X6784706Y-16573269D02*
X6803753Y-16582793D01*
X6803753Y-16582793D02*
X6841848Y-16582793D01*
X6841848Y-16582793D02*
X6860896Y-16573269D01*
X6860896Y-16573269D02*
X6870420Y-16563746D01*
X6870420Y-16563746D02*
X6879944Y-16544698D01*
X6956134Y-16458984D02*
X6956134Y-16497079D01*
X7032325Y-16458984D02*
X7032325Y-16497079D01*
X7327563Y-16735174D02*
X7318039Y-16725650D01*
X7318039Y-16725650D02*
X7298991Y-16697079D01*
X7298991Y-16697079D02*
X7289468Y-16678031D01*
X7289468Y-16678031D02*
X7279944Y-16649460D01*
X7279944Y-16649460D02*
X7270420Y-16601841D01*
X7270420Y-16601841D02*
X7270420Y-16563746D01*
X7270420Y-16563746D02*
X7279944Y-16516127D01*
X7279944Y-16516127D02*
X7289468Y-16487555D01*
X7289468Y-16487555D02*
X7298991Y-16468508D01*
X7298991Y-16468508D02*
X7318039Y-16439936D01*
X7318039Y-16439936D02*
X7327563Y-16430412D01*
X7394229Y-16478031D02*
X7403753Y-16468508D01*
X7403753Y-16468508D02*
X7422801Y-16458984D01*
X7422801Y-16458984D02*
X7470420Y-16458984D01*
X7470420Y-16458984D02*
X7489468Y-16468508D01*
X7489468Y-16468508D02*
X7498991Y-16478031D01*
X7498991Y-16478031D02*
X7508515Y-16497079D01*
X7508515Y-16497079D02*
X7508515Y-16516127D01*
X7508515Y-16516127D02*
X7498991Y-16544698D01*
X7498991Y-16544698D02*
X7384706Y-16658984D01*
X7384706Y-16658984D02*
X7508515Y-16658984D01*
X7746610Y-16658984D02*
X7746610Y-16458984D01*
X7832325Y-16658984D02*
X7832325Y-16554222D01*
X7832325Y-16554222D02*
X7822801Y-16535174D01*
X7822801Y-16535174D02*
X7803753Y-16525650D01*
X7803753Y-16525650D02*
X7775182Y-16525650D01*
X7775182Y-16525650D02*
X7756134Y-16535174D01*
X7756134Y-16535174D02*
X7746610Y-16544698D01*
X7956134Y-16658984D02*
X7937087Y-16649460D01*
X7937087Y-16649460D02*
X7927563Y-16639936D01*
X7927563Y-16639936D02*
X7918039Y-16620888D01*
X7918039Y-16620888D02*
X7918039Y-16563746D01*
X7918039Y-16563746D02*
X7927563Y-16544698D01*
X7927563Y-16544698D02*
X7937087Y-16535174D01*
X7937087Y-16535174D02*
X7956134Y-16525650D01*
X7956134Y-16525650D02*
X7984706Y-16525650D01*
X7984706Y-16525650D02*
X8003753Y-16535174D01*
X8003753Y-16535174D02*
X8013277Y-16544698D01*
X8013277Y-16544698D02*
X8022801Y-16563746D01*
X8022801Y-16563746D02*
X8022801Y-16620888D01*
X8022801Y-16620888D02*
X8013277Y-16639936D01*
X8013277Y-16639936D02*
X8003753Y-16649460D01*
X8003753Y-16649460D02*
X7984706Y-16658984D01*
X7984706Y-16658984D02*
X7956134Y-16658984D01*
X8137087Y-16658984D02*
X8118039Y-16649460D01*
X8118039Y-16649460D02*
X8108515Y-16630412D01*
X8108515Y-16630412D02*
X8108515Y-16458984D01*
X8289468Y-16649460D02*
X8270420Y-16658984D01*
X8270420Y-16658984D02*
X8232325Y-16658984D01*
X8232325Y-16658984D02*
X8213277Y-16649460D01*
X8213277Y-16649460D02*
X8203753Y-16630412D01*
X8203753Y-16630412D02*
X8203753Y-16554222D01*
X8203753Y-16554222D02*
X8213277Y-16535174D01*
X8213277Y-16535174D02*
X8232325Y-16525650D01*
X8232325Y-16525650D02*
X8270420Y-16525650D01*
X8270420Y-16525650D02*
X8289468Y-16535174D01*
X8289468Y-16535174D02*
X8298991Y-16554222D01*
X8298991Y-16554222D02*
X8298991Y-16573269D01*
X8298991Y-16573269D02*
X8203753Y-16592317D01*
X8375182Y-16649460D02*
X8394230Y-16658984D01*
X8394230Y-16658984D02*
X8432325Y-16658984D01*
X8432325Y-16658984D02*
X8451373Y-16649460D01*
X8451373Y-16649460D02*
X8460896Y-16630412D01*
X8460896Y-16630412D02*
X8460896Y-16620888D01*
X8460896Y-16620888D02*
X8451373Y-16601841D01*
X8451373Y-16601841D02*
X8432325Y-16592317D01*
X8432325Y-16592317D02*
X8403753Y-16592317D01*
X8403753Y-16592317D02*
X8384706Y-16582793D01*
X8384706Y-16582793D02*
X8375182Y-16563746D01*
X8375182Y-16563746D02*
X8375182Y-16554222D01*
X8375182Y-16554222D02*
X8384706Y-16535174D01*
X8384706Y-16535174D02*
X8403753Y-16525650D01*
X8403753Y-16525650D02*
X8432325Y-16525650D01*
X8432325Y-16525650D02*
X8451373Y-16535174D01*
X8527563Y-16735174D02*
X8537087Y-16725650D01*
X8537087Y-16725650D02*
X8556134Y-16697079D01*
X8556134Y-16697079D02*
X8565658Y-16678031D01*
X8565658Y-16678031D02*
X8575182Y-16649460D01*
X8575182Y-16649460D02*
X8584706Y-16601841D01*
X8584706Y-16601841D02*
X8584706Y-16563746D01*
X8584706Y-16563746D02*
X8575182Y-16516127D01*
X8575182Y-16516127D02*
X8565658Y-16487555D01*
X8565658Y-16487555D02*
X8556134Y-16468508D01*
X8556134Y-16468508D02*
X8537087Y-16439936D01*
X8537087Y-16439936D02*
X8527563Y-16430412D01*
X8889468Y-16735174D02*
X8879944Y-16725650D01*
X8879944Y-16725650D02*
X8860896Y-16697079D01*
X8860896Y-16697079D02*
X8851373Y-16678031D01*
X8851373Y-16678031D02*
X8841849Y-16649460D01*
X8841849Y-16649460D02*
X8832325Y-16601841D01*
X8832325Y-16601841D02*
X8832325Y-16563746D01*
X8832325Y-16563746D02*
X8841849Y-16516127D01*
X8841849Y-16516127D02*
X8851373Y-16487555D01*
X8851373Y-16487555D02*
X8860896Y-16468508D01*
X8860896Y-16468508D02*
X8879944Y-16439936D01*
X8879944Y-16439936D02*
X8889468Y-16430412D01*
X8965658Y-16525650D02*
X8965658Y-16658984D01*
X8965658Y-16544698D02*
X8975182Y-16535174D01*
X8975182Y-16535174D02*
X8994230Y-16525650D01*
X8994230Y-16525650D02*
X9022801Y-16525650D01*
X9022801Y-16525650D02*
X9041849Y-16535174D01*
X9041849Y-16535174D02*
X9051373Y-16554222D01*
X9051373Y-16554222D02*
X9051373Y-16658984D01*
X9175182Y-16658984D02*
X9156134Y-16649460D01*
X9156134Y-16649460D02*
X9146611Y-16639936D01*
X9146611Y-16639936D02*
X9137087Y-16620888D01*
X9137087Y-16620888D02*
X9137087Y-16563746D01*
X9137087Y-16563746D02*
X9146611Y-16544698D01*
X9146611Y-16544698D02*
X9156134Y-16535174D01*
X9156134Y-16535174D02*
X9175182Y-16525650D01*
X9175182Y-16525650D02*
X9203754Y-16525650D01*
X9203754Y-16525650D02*
X9222801Y-16535174D01*
X9222801Y-16535174D02*
X9232325Y-16544698D01*
X9232325Y-16544698D02*
X9241849Y-16563746D01*
X9241849Y-16563746D02*
X9241849Y-16620888D01*
X9241849Y-16620888D02*
X9232325Y-16639936D01*
X9232325Y-16639936D02*
X9222801Y-16649460D01*
X9222801Y-16649460D02*
X9203754Y-16658984D01*
X9203754Y-16658984D02*
X9175182Y-16658984D01*
X9298992Y-16525650D02*
X9375182Y-16525650D01*
X9327563Y-16458984D02*
X9327563Y-16630412D01*
X9327563Y-16630412D02*
X9337087Y-16649460D01*
X9337087Y-16649460D02*
X9356134Y-16658984D01*
X9356134Y-16658984D02*
X9375182Y-16658984D01*
X9594230Y-16525650D02*
X9594230Y-16725650D01*
X9594230Y-16535174D02*
X9613277Y-16525650D01*
X9613277Y-16525650D02*
X9651373Y-16525650D01*
X9651373Y-16525650D02*
X9670420Y-16535174D01*
X9670420Y-16535174D02*
X9679944Y-16544698D01*
X9679944Y-16544698D02*
X9689468Y-16563746D01*
X9689468Y-16563746D02*
X9689468Y-16620888D01*
X9689468Y-16620888D02*
X9679944Y-16639936D01*
X9679944Y-16639936D02*
X9670420Y-16649460D01*
X9670420Y-16649460D02*
X9651373Y-16658984D01*
X9651373Y-16658984D02*
X9613277Y-16658984D01*
X9613277Y-16658984D02*
X9594230Y-16649460D01*
X9803754Y-16658984D02*
X9784706Y-16649460D01*
X9784706Y-16649460D02*
X9775182Y-16630412D01*
X9775182Y-16630412D02*
X9775182Y-16458984D01*
X9965658Y-16658984D02*
X9965658Y-16554222D01*
X9965658Y-16554222D02*
X9956135Y-16535174D01*
X9956135Y-16535174D02*
X9937087Y-16525650D01*
X9937087Y-16525650D02*
X9898992Y-16525650D01*
X9898992Y-16525650D02*
X9879944Y-16535174D01*
X9965658Y-16649460D02*
X9946611Y-16658984D01*
X9946611Y-16658984D02*
X9898992Y-16658984D01*
X9898992Y-16658984D02*
X9879944Y-16649460D01*
X9879944Y-16649460D02*
X9870420Y-16630412D01*
X9870420Y-16630412D02*
X9870420Y-16611365D01*
X9870420Y-16611365D02*
X9879944Y-16592317D01*
X9879944Y-16592317D02*
X9898992Y-16582793D01*
X9898992Y-16582793D02*
X9946611Y-16582793D01*
X9946611Y-16582793D02*
X9965658Y-16573269D01*
X10032325Y-16525650D02*
X10108515Y-16525650D01*
X10060896Y-16458984D02*
X10060896Y-16630412D01*
X10060896Y-16630412D02*
X10070420Y-16649460D01*
X10070420Y-16649460D02*
X10089468Y-16658984D01*
X10089468Y-16658984D02*
X10108515Y-16658984D01*
X10251373Y-16649460D02*
X10232325Y-16658984D01*
X10232325Y-16658984D02*
X10194230Y-16658984D01*
X10194230Y-16658984D02*
X10175182Y-16649460D01*
X10175182Y-16649460D02*
X10165658Y-16630412D01*
X10165658Y-16630412D02*
X10165658Y-16554222D01*
X10165658Y-16554222D02*
X10175182Y-16535174D01*
X10175182Y-16535174D02*
X10194230Y-16525650D01*
X10194230Y-16525650D02*
X10232325Y-16525650D01*
X10232325Y-16525650D02*
X10251373Y-16535174D01*
X10251373Y-16535174D02*
X10260896Y-16554222D01*
X10260896Y-16554222D02*
X10260896Y-16573269D01*
X10260896Y-16573269D02*
X10165658Y-16592317D01*
X10432325Y-16658984D02*
X10432325Y-16458984D01*
X10432325Y-16649460D02*
X10413277Y-16658984D01*
X10413277Y-16658984D02*
X10375182Y-16658984D01*
X10375182Y-16658984D02*
X10356135Y-16649460D01*
X10356135Y-16649460D02*
X10346611Y-16639936D01*
X10346611Y-16639936D02*
X10337087Y-16620888D01*
X10337087Y-16620888D02*
X10337087Y-16563746D01*
X10337087Y-16563746D02*
X10346611Y-16544698D01*
X10346611Y-16544698D02*
X10356135Y-16535174D01*
X10356135Y-16535174D02*
X10375182Y-16525650D01*
X10375182Y-16525650D02*
X10413277Y-16525650D01*
X10413277Y-16525650D02*
X10432325Y-16535174D01*
X10508516Y-16735174D02*
X10518039Y-16725650D01*
X10518039Y-16725650D02*
X10537087Y-16697079D01*
X10537087Y-16697079D02*
X10546611Y-16678031D01*
X10546611Y-16678031D02*
X10556135Y-16649460D01*
X10556135Y-16649460D02*
X10565658Y-16601841D01*
X10565658Y-16601841D02*
X10565658Y-16563746D01*
X10565658Y-16563746D02*
X10556135Y-16516127D01*
X10556135Y-16516127D02*
X10546611Y-16487555D01*
X10546611Y-16487555D02*
X10537087Y-16468508D01*
X10537087Y-16468508D02*
X10518039Y-16439936D01*
X10518039Y-16439936D02*
X10508516Y-16430412D01*
X3723211Y-16938211D02*
X3723211Y-16796789D01*
X3581789Y-16796789D01*
X3581789Y-16938211D01*
X3723211Y-16938211D01*
X4003753Y-16778031D02*
X4013277Y-16768508D01*
X4013277Y-16768508D02*
X4032324Y-16758984D01*
X4032324Y-16758984D02*
X4079943Y-16758984D01*
X4079943Y-16758984D02*
X4098991Y-16768508D01*
X4098991Y-16768508D02*
X4108515Y-16778031D01*
X4108515Y-16778031D02*
X4118039Y-16797079D01*
X4118039Y-16797079D02*
X4118039Y-16816127D01*
X4118039Y-16816127D02*
X4108515Y-16844698D01*
X4108515Y-16844698D02*
X3994229Y-16958984D01*
X3994229Y-16958984D02*
X4118039Y-16958984D01*
X4203753Y-16939936D02*
X4213277Y-16949460D01*
X4213277Y-16949460D02*
X4203753Y-16958984D01*
X4203753Y-16958984D02*
X4194229Y-16949460D01*
X4194229Y-16949460D02*
X4203753Y-16939936D01*
X4203753Y-16939936D02*
X4203753Y-16958984D01*
X4394229Y-16758984D02*
X4298991Y-16758984D01*
X4298991Y-16758984D02*
X4289467Y-16854222D01*
X4289467Y-16854222D02*
X4298991Y-16844698D01*
X4298991Y-16844698D02*
X4318039Y-16835174D01*
X4318039Y-16835174D02*
X4365658Y-16835174D01*
X4365658Y-16835174D02*
X4384705Y-16844698D01*
X4384705Y-16844698D02*
X4394229Y-16854222D01*
X4394229Y-16854222D02*
X4403753Y-16873270D01*
X4403753Y-16873270D02*
X4403753Y-16920889D01*
X4403753Y-16920889D02*
X4394229Y-16939936D01*
X4394229Y-16939936D02*
X4384705Y-16949460D01*
X4384705Y-16949460D02*
X4365658Y-16958984D01*
X4365658Y-16958984D02*
X4318039Y-16958984D01*
X4318039Y-16958984D02*
X4298991Y-16949460D01*
X4298991Y-16949460D02*
X4289467Y-16939936D01*
X4575182Y-16825650D02*
X4575182Y-16958984D01*
X4527563Y-16749460D02*
X4479944Y-16892317D01*
X4479944Y-16892317D02*
X4603753Y-16892317D01*
X4718039Y-16758984D02*
X4737086Y-16758984D01*
X4737086Y-16758984D02*
X4756134Y-16768508D01*
X4756134Y-16768508D02*
X4765658Y-16778031D01*
X4765658Y-16778031D02*
X4775182Y-16797079D01*
X4775182Y-16797079D02*
X4784705Y-16835174D01*
X4784705Y-16835174D02*
X4784705Y-16882793D01*
X4784705Y-16882793D02*
X4775182Y-16920889D01*
X4775182Y-16920889D02*
X4765658Y-16939936D01*
X4765658Y-16939936D02*
X4756134Y-16949460D01*
X4756134Y-16949460D02*
X4737086Y-16958984D01*
X4737086Y-16958984D02*
X4718039Y-16958984D01*
X4718039Y-16958984D02*
X4698991Y-16949460D01*
X4698991Y-16949460D02*
X4689467Y-16939936D01*
X4689467Y-16939936D02*
X4679944Y-16920889D01*
X4679944Y-16920889D02*
X4670420Y-16882793D01*
X4670420Y-16882793D02*
X4670420Y-16835174D01*
X4670420Y-16835174D02*
X4679944Y-16797079D01*
X4679944Y-16797079D02*
X4689467Y-16778031D01*
X4689467Y-16778031D02*
X4698991Y-16768508D01*
X4698991Y-16768508D02*
X4718039Y-16758984D01*
X4870420Y-16958984D02*
X4870420Y-16825650D01*
X4870420Y-16844698D02*
X4879944Y-16835174D01*
X4879944Y-16835174D02*
X4898991Y-16825650D01*
X4898991Y-16825650D02*
X4927563Y-16825650D01*
X4927563Y-16825650D02*
X4946610Y-16835174D01*
X4946610Y-16835174D02*
X4956134Y-16854222D01*
X4956134Y-16854222D02*
X4956134Y-16958984D01*
X4956134Y-16854222D02*
X4965658Y-16835174D01*
X4965658Y-16835174D02*
X4984705Y-16825650D01*
X4984705Y-16825650D02*
X5013277Y-16825650D01*
X5013277Y-16825650D02*
X5032325Y-16835174D01*
X5032325Y-16835174D02*
X5041848Y-16854222D01*
X5041848Y-16854222D02*
X5041848Y-16958984D01*
X5137086Y-16958984D02*
X5137086Y-16825650D01*
X5137086Y-16844698D02*
X5146610Y-16835174D01*
X5146610Y-16835174D02*
X5165658Y-16825650D01*
X5165658Y-16825650D02*
X5194229Y-16825650D01*
X5194229Y-16825650D02*
X5213277Y-16835174D01*
X5213277Y-16835174D02*
X5222801Y-16854222D01*
X5222801Y-16854222D02*
X5222801Y-16958984D01*
X5222801Y-16854222D02*
X5232325Y-16835174D01*
X5232325Y-16835174D02*
X5251372Y-16825650D01*
X5251372Y-16825650D02*
X5279944Y-16825650D01*
X5279944Y-16825650D02*
X5298991Y-16835174D01*
X5298991Y-16835174D02*
X5308515Y-16854222D01*
X5308515Y-16854222D02*
X5308515Y-16958984D01*
X5698991Y-16749460D02*
X5527563Y-17006603D01*
X5956134Y-16758984D02*
X5975182Y-16758984D01*
X5975182Y-16758984D02*
X5994229Y-16768508D01*
X5994229Y-16768508D02*
X6003753Y-16778031D01*
X6003753Y-16778031D02*
X6013277Y-16797079D01*
X6013277Y-16797079D02*
X6022801Y-16835174D01*
X6022801Y-16835174D02*
X6022801Y-16882793D01*
X6022801Y-16882793D02*
X6013277Y-16920889D01*
X6013277Y-16920889D02*
X6003753Y-16939936D01*
X6003753Y-16939936D02*
X5994229Y-16949460D01*
X5994229Y-16949460D02*
X5975182Y-16958984D01*
X5975182Y-16958984D02*
X5956134Y-16958984D01*
X5956134Y-16958984D02*
X5937086Y-16949460D01*
X5937086Y-16949460D02*
X5927563Y-16939936D01*
X5927563Y-16939936D02*
X5918039Y-16920889D01*
X5918039Y-16920889D02*
X5908515Y-16882793D01*
X5908515Y-16882793D02*
X5908515Y-16835174D01*
X5908515Y-16835174D02*
X5918039Y-16797079D01*
X5918039Y-16797079D02*
X5927563Y-16778031D01*
X5927563Y-16778031D02*
X5937086Y-16768508D01*
X5937086Y-16768508D02*
X5956134Y-16758984D01*
X6108515Y-16939936D02*
X6118039Y-16949460D01*
X6118039Y-16949460D02*
X6108515Y-16958984D01*
X6108515Y-16958984D02*
X6098991Y-16949460D01*
X6098991Y-16949460D02*
X6108515Y-16939936D01*
X6108515Y-16939936D02*
X6108515Y-16958984D01*
X6308515Y-16958984D02*
X6194229Y-16958984D01*
X6251372Y-16958984D02*
X6251372Y-16758984D01*
X6251372Y-16758984D02*
X6232325Y-16787555D01*
X6232325Y-16787555D02*
X6213277Y-16806603D01*
X6213277Y-16806603D02*
X6194229Y-16816127D01*
X6432325Y-16758984D02*
X6451372Y-16758984D01*
X6451372Y-16758984D02*
X6470420Y-16768508D01*
X6470420Y-16768508D02*
X6479944Y-16778031D01*
X6479944Y-16778031D02*
X6489467Y-16797079D01*
X6489467Y-16797079D02*
X6498991Y-16835174D01*
X6498991Y-16835174D02*
X6498991Y-16882793D01*
X6498991Y-16882793D02*
X6489467Y-16920889D01*
X6489467Y-16920889D02*
X6479944Y-16939936D01*
X6479944Y-16939936D02*
X6470420Y-16949460D01*
X6470420Y-16949460D02*
X6451372Y-16958984D01*
X6451372Y-16958984D02*
X6432325Y-16958984D01*
X6432325Y-16958984D02*
X6413277Y-16949460D01*
X6413277Y-16949460D02*
X6403753Y-16939936D01*
X6403753Y-16939936D02*
X6394229Y-16920889D01*
X6394229Y-16920889D02*
X6384706Y-16882793D01*
X6384706Y-16882793D02*
X6384706Y-16835174D01*
X6384706Y-16835174D02*
X6394229Y-16797079D01*
X6394229Y-16797079D02*
X6403753Y-16778031D01*
X6403753Y-16778031D02*
X6413277Y-16768508D01*
X6413277Y-16768508D02*
X6432325Y-16758984D01*
X6622801Y-16758984D02*
X6641848Y-16758984D01*
X6641848Y-16758984D02*
X6660896Y-16768508D01*
X6660896Y-16768508D02*
X6670420Y-16778031D01*
X6670420Y-16778031D02*
X6679944Y-16797079D01*
X6679944Y-16797079D02*
X6689467Y-16835174D01*
X6689467Y-16835174D02*
X6689467Y-16882793D01*
X6689467Y-16882793D02*
X6679944Y-16920889D01*
X6679944Y-16920889D02*
X6670420Y-16939936D01*
X6670420Y-16939936D02*
X6660896Y-16949460D01*
X6660896Y-16949460D02*
X6641848Y-16958984D01*
X6641848Y-16958984D02*
X6622801Y-16958984D01*
X6622801Y-16958984D02*
X6603753Y-16949460D01*
X6603753Y-16949460D02*
X6594229Y-16939936D01*
X6594229Y-16939936D02*
X6584706Y-16920889D01*
X6584706Y-16920889D02*
X6575182Y-16882793D01*
X6575182Y-16882793D02*
X6575182Y-16835174D01*
X6575182Y-16835174D02*
X6584706Y-16797079D01*
X6584706Y-16797079D02*
X6594229Y-16778031D01*
X6594229Y-16778031D02*
X6603753Y-16768508D01*
X6603753Y-16768508D02*
X6622801Y-16758984D01*
X6813277Y-16758984D02*
X6832325Y-16758984D01*
X6832325Y-16758984D02*
X6851372Y-16768508D01*
X6851372Y-16768508D02*
X6860896Y-16778031D01*
X6860896Y-16778031D02*
X6870420Y-16797079D01*
X6870420Y-16797079D02*
X6879944Y-16835174D01*
X6879944Y-16835174D02*
X6879944Y-16882793D01*
X6879944Y-16882793D02*
X6870420Y-16920889D01*
X6870420Y-16920889D02*
X6860896Y-16939936D01*
X6860896Y-16939936D02*
X6851372Y-16949460D01*
X6851372Y-16949460D02*
X6832325Y-16958984D01*
X6832325Y-16958984D02*
X6813277Y-16958984D01*
X6813277Y-16958984D02*
X6794229Y-16949460D01*
X6794229Y-16949460D02*
X6784706Y-16939936D01*
X6784706Y-16939936D02*
X6775182Y-16920889D01*
X6775182Y-16920889D02*
X6765658Y-16882793D01*
X6765658Y-16882793D02*
X6765658Y-16835174D01*
X6765658Y-16835174D02*
X6775182Y-16797079D01*
X6775182Y-16797079D02*
X6784706Y-16778031D01*
X6784706Y-16778031D02*
X6794229Y-16768508D01*
X6794229Y-16768508D02*
X6813277Y-16758984D01*
X6956134Y-16758984D02*
X6956134Y-16797079D01*
X7032325Y-16758984D02*
X7032325Y-16797079D01*
X7327563Y-17035174D02*
X7318039Y-17025650D01*
X7318039Y-17025650D02*
X7298991Y-16997079D01*
X7298991Y-16997079D02*
X7289468Y-16978031D01*
X7289468Y-16978031D02*
X7279944Y-16949460D01*
X7279944Y-16949460D02*
X7270420Y-16901841D01*
X7270420Y-16901841D02*
X7270420Y-16863746D01*
X7270420Y-16863746D02*
X7279944Y-16816127D01*
X7279944Y-16816127D02*
X7289468Y-16787555D01*
X7289468Y-16787555D02*
X7298991Y-16768508D01*
X7298991Y-16768508D02*
X7318039Y-16739936D01*
X7318039Y-16739936D02*
X7327563Y-16730412D01*
X7489468Y-16825650D02*
X7489468Y-16958984D01*
X7441848Y-16749460D02*
X7394229Y-16892317D01*
X7394229Y-16892317D02*
X7518039Y-16892317D01*
X7746610Y-16958984D02*
X7746610Y-16758984D01*
X7832325Y-16958984D02*
X7832325Y-16854222D01*
X7832325Y-16854222D02*
X7822801Y-16835174D01*
X7822801Y-16835174D02*
X7803753Y-16825650D01*
X7803753Y-16825650D02*
X7775182Y-16825650D01*
X7775182Y-16825650D02*
X7756134Y-16835174D01*
X7756134Y-16835174D02*
X7746610Y-16844698D01*
X7956134Y-16958984D02*
X7937087Y-16949460D01*
X7937087Y-16949460D02*
X7927563Y-16939936D01*
X7927563Y-16939936D02*
X7918039Y-16920889D01*
X7918039Y-16920889D02*
X7918039Y-16863746D01*
X7918039Y-16863746D02*
X7927563Y-16844698D01*
X7927563Y-16844698D02*
X7937087Y-16835174D01*
X7937087Y-16835174D02*
X7956134Y-16825650D01*
X7956134Y-16825650D02*
X7984706Y-16825650D01*
X7984706Y-16825650D02*
X8003753Y-16835174D01*
X8003753Y-16835174D02*
X8013277Y-16844698D01*
X8013277Y-16844698D02*
X8022801Y-16863746D01*
X8022801Y-16863746D02*
X8022801Y-16920889D01*
X8022801Y-16920889D02*
X8013277Y-16939936D01*
X8013277Y-16939936D02*
X8003753Y-16949460D01*
X8003753Y-16949460D02*
X7984706Y-16958984D01*
X7984706Y-16958984D02*
X7956134Y-16958984D01*
X8137087Y-16958984D02*
X8118039Y-16949460D01*
X8118039Y-16949460D02*
X8108515Y-16930412D01*
X8108515Y-16930412D02*
X8108515Y-16758984D01*
X8289468Y-16949460D02*
X8270420Y-16958984D01*
X8270420Y-16958984D02*
X8232325Y-16958984D01*
X8232325Y-16958984D02*
X8213277Y-16949460D01*
X8213277Y-16949460D02*
X8203753Y-16930412D01*
X8203753Y-16930412D02*
X8203753Y-16854222D01*
X8203753Y-16854222D02*
X8213277Y-16835174D01*
X8213277Y-16835174D02*
X8232325Y-16825650D01*
X8232325Y-16825650D02*
X8270420Y-16825650D01*
X8270420Y-16825650D02*
X8289468Y-16835174D01*
X8289468Y-16835174D02*
X8298991Y-16854222D01*
X8298991Y-16854222D02*
X8298991Y-16873270D01*
X8298991Y-16873270D02*
X8203753Y-16892317D01*
X8375182Y-16949460D02*
X8394230Y-16958984D01*
X8394230Y-16958984D02*
X8432325Y-16958984D01*
X8432325Y-16958984D02*
X8451373Y-16949460D01*
X8451373Y-16949460D02*
X8460896Y-16930412D01*
X8460896Y-16930412D02*
X8460896Y-16920889D01*
X8460896Y-16920889D02*
X8451373Y-16901841D01*
X8451373Y-16901841D02*
X8432325Y-16892317D01*
X8432325Y-16892317D02*
X8403753Y-16892317D01*
X8403753Y-16892317D02*
X8384706Y-16882793D01*
X8384706Y-16882793D02*
X8375182Y-16863746D01*
X8375182Y-16863746D02*
X8375182Y-16854222D01*
X8375182Y-16854222D02*
X8384706Y-16835174D01*
X8384706Y-16835174D02*
X8403753Y-16825650D01*
X8403753Y-16825650D02*
X8432325Y-16825650D01*
X8432325Y-16825650D02*
X8451373Y-16835174D01*
X8527563Y-17035174D02*
X8537087Y-17025650D01*
X8537087Y-17025650D02*
X8556134Y-16997079D01*
X8556134Y-16997079D02*
X8565658Y-16978031D01*
X8565658Y-16978031D02*
X8575182Y-16949460D01*
X8575182Y-16949460D02*
X8584706Y-16901841D01*
X8584706Y-16901841D02*
X8584706Y-16863746D01*
X8584706Y-16863746D02*
X8575182Y-16816127D01*
X8575182Y-16816127D02*
X8565658Y-16787555D01*
X8565658Y-16787555D02*
X8556134Y-16768508D01*
X8556134Y-16768508D02*
X8537087Y-16739936D01*
X8537087Y-16739936D02*
X8527563Y-16730412D01*
X8889468Y-17035174D02*
X8879944Y-17025650D01*
X8879944Y-17025650D02*
X8860896Y-16997079D01*
X8860896Y-16997079D02*
X8851373Y-16978031D01*
X8851373Y-16978031D02*
X8841849Y-16949460D01*
X8841849Y-16949460D02*
X8832325Y-16901841D01*
X8832325Y-16901841D02*
X8832325Y-16863746D01*
X8832325Y-16863746D02*
X8841849Y-16816127D01*
X8841849Y-16816127D02*
X8851373Y-16787555D01*
X8851373Y-16787555D02*
X8860896Y-16768508D01*
X8860896Y-16768508D02*
X8879944Y-16739936D01*
X8879944Y-16739936D02*
X8889468Y-16730412D01*
X8965658Y-16825650D02*
X8965658Y-16958984D01*
X8965658Y-16844698D02*
X8975182Y-16835174D01*
X8975182Y-16835174D02*
X8994230Y-16825650D01*
X8994230Y-16825650D02*
X9022801Y-16825650D01*
X9022801Y-16825650D02*
X9041849Y-16835174D01*
X9041849Y-16835174D02*
X9051373Y-16854222D01*
X9051373Y-16854222D02*
X9051373Y-16958984D01*
X9175182Y-16958984D02*
X9156134Y-16949460D01*
X9156134Y-16949460D02*
X9146611Y-16939936D01*
X9146611Y-16939936D02*
X9137087Y-16920889D01*
X9137087Y-16920889D02*
X9137087Y-16863746D01*
X9137087Y-16863746D02*
X9146611Y-16844698D01*
X9146611Y-16844698D02*
X9156134Y-16835174D01*
X9156134Y-16835174D02*
X9175182Y-16825650D01*
X9175182Y-16825650D02*
X9203754Y-16825650D01*
X9203754Y-16825650D02*
X9222801Y-16835174D01*
X9222801Y-16835174D02*
X9232325Y-16844698D01*
X9232325Y-16844698D02*
X9241849Y-16863746D01*
X9241849Y-16863746D02*
X9241849Y-16920889D01*
X9241849Y-16920889D02*
X9232325Y-16939936D01*
X9232325Y-16939936D02*
X9222801Y-16949460D01*
X9222801Y-16949460D02*
X9203754Y-16958984D01*
X9203754Y-16958984D02*
X9175182Y-16958984D01*
X9298992Y-16825650D02*
X9375182Y-16825650D01*
X9327563Y-16758984D02*
X9327563Y-16930412D01*
X9327563Y-16930412D02*
X9337087Y-16949460D01*
X9337087Y-16949460D02*
X9356134Y-16958984D01*
X9356134Y-16958984D02*
X9375182Y-16958984D01*
X9594230Y-16825650D02*
X9594230Y-17025650D01*
X9594230Y-16835174D02*
X9613277Y-16825650D01*
X9613277Y-16825650D02*
X9651373Y-16825650D01*
X9651373Y-16825650D02*
X9670420Y-16835174D01*
X9670420Y-16835174D02*
X9679944Y-16844698D01*
X9679944Y-16844698D02*
X9689468Y-16863746D01*
X9689468Y-16863746D02*
X9689468Y-16920889D01*
X9689468Y-16920889D02*
X9679944Y-16939936D01*
X9679944Y-16939936D02*
X9670420Y-16949460D01*
X9670420Y-16949460D02*
X9651373Y-16958984D01*
X9651373Y-16958984D02*
X9613277Y-16958984D01*
X9613277Y-16958984D02*
X9594230Y-16949460D01*
X9803754Y-16958984D02*
X9784706Y-16949460D01*
X9784706Y-16949460D02*
X9775182Y-16930412D01*
X9775182Y-16930412D02*
X9775182Y-16758984D01*
X9965658Y-16958984D02*
X9965658Y-16854222D01*
X9965658Y-16854222D02*
X9956135Y-16835174D01*
X9956135Y-16835174D02*
X9937087Y-16825650D01*
X9937087Y-16825650D02*
X9898992Y-16825650D01*
X9898992Y-16825650D02*
X9879944Y-16835174D01*
X9965658Y-16949460D02*
X9946611Y-16958984D01*
X9946611Y-16958984D02*
X9898992Y-16958984D01*
X9898992Y-16958984D02*
X9879944Y-16949460D01*
X9879944Y-16949460D02*
X9870420Y-16930412D01*
X9870420Y-16930412D02*
X9870420Y-16911365D01*
X9870420Y-16911365D02*
X9879944Y-16892317D01*
X9879944Y-16892317D02*
X9898992Y-16882793D01*
X9898992Y-16882793D02*
X9946611Y-16882793D01*
X9946611Y-16882793D02*
X9965658Y-16873270D01*
X10032325Y-16825650D02*
X10108515Y-16825650D01*
X10060896Y-16758984D02*
X10060896Y-16930412D01*
X10060896Y-16930412D02*
X10070420Y-16949460D01*
X10070420Y-16949460D02*
X10089468Y-16958984D01*
X10089468Y-16958984D02*
X10108515Y-16958984D01*
X10251373Y-16949460D02*
X10232325Y-16958984D01*
X10232325Y-16958984D02*
X10194230Y-16958984D01*
X10194230Y-16958984D02*
X10175182Y-16949460D01*
X10175182Y-16949460D02*
X10165658Y-16930412D01*
X10165658Y-16930412D02*
X10165658Y-16854222D01*
X10165658Y-16854222D02*
X10175182Y-16835174D01*
X10175182Y-16835174D02*
X10194230Y-16825650D01*
X10194230Y-16825650D02*
X10232325Y-16825650D01*
X10232325Y-16825650D02*
X10251373Y-16835174D01*
X10251373Y-16835174D02*
X10260896Y-16854222D01*
X10260896Y-16854222D02*
X10260896Y-16873270D01*
X10260896Y-16873270D02*
X10165658Y-16892317D01*
X10432325Y-16958984D02*
X10432325Y-16758984D01*
X10432325Y-16949460D02*
X10413277Y-16958984D01*
X10413277Y-16958984D02*
X10375182Y-16958984D01*
X10375182Y-16958984D02*
X10356135Y-16949460D01*
X10356135Y-16949460D02*
X10346611Y-16939936D01*
X10346611Y-16939936D02*
X10337087Y-16920889D01*
X10337087Y-16920889D02*
X10337087Y-16863746D01*
X10337087Y-16863746D02*
X10346611Y-16844698D01*
X10346611Y-16844698D02*
X10356135Y-16835174D01*
X10356135Y-16835174D02*
X10375182Y-16825650D01*
X10375182Y-16825650D02*
X10413277Y-16825650D01*
X10413277Y-16825650D02*
X10432325Y-16835174D01*
X10508516Y-17035174D02*
X10518039Y-17025650D01*
X10518039Y-17025650D02*
X10537087Y-16997079D01*
X10537087Y-16997079D02*
X10546611Y-16978031D01*
X10546611Y-16978031D02*
X10556135Y-16949460D01*
X10556135Y-16949460D02*
X10565658Y-16901841D01*
X10565658Y-16901841D02*
X10565658Y-16863746D01*
X10565658Y-16863746D02*
X10556135Y-16816127D01*
X10556135Y-16816127D02*
X10546611Y-16787555D01*
X10546611Y-16787555D02*
X10537087Y-16768508D01*
X10537087Y-16768508D02*
X10518039Y-16739936D01*
X10518039Y-16739936D02*
X10508516Y-16730412D01*
X3652500Y-17287500D02*
X3752500Y-17187500D01*
X3652500Y-17087500D01*
X3552500Y-17187500D01*
X3652500Y-17287500D01*
X3994229Y-17078984D02*
X4118039Y-17078984D01*
X4118039Y-17078984D02*
X4051372Y-17155174D01*
X4051372Y-17155174D02*
X4079943Y-17155174D01*
X4079943Y-17155174D02*
X4098991Y-17164698D01*
X4098991Y-17164698D02*
X4108515Y-17174222D01*
X4108515Y-17174222D02*
X4118039Y-17193270D01*
X4118039Y-17193270D02*
X4118039Y-17240889D01*
X4118039Y-17240889D02*
X4108515Y-17259936D01*
X4108515Y-17259936D02*
X4098991Y-17269460D01*
X4098991Y-17269460D02*
X4079943Y-17278984D01*
X4079943Y-17278984D02*
X4022801Y-17278984D01*
X4022801Y-17278984D02*
X4003753Y-17269460D01*
X4003753Y-17269460D02*
X3994229Y-17259936D01*
X4203753Y-17259936D02*
X4213277Y-17269460D01*
X4213277Y-17269460D02*
X4203753Y-17278984D01*
X4203753Y-17278984D02*
X4194229Y-17269460D01*
X4194229Y-17269460D02*
X4203753Y-17259936D01*
X4203753Y-17259936D02*
X4203753Y-17278984D01*
X4289467Y-17098031D02*
X4298991Y-17088508D01*
X4298991Y-17088508D02*
X4318039Y-17078984D01*
X4318039Y-17078984D02*
X4365658Y-17078984D01*
X4365658Y-17078984D02*
X4384705Y-17088508D01*
X4384705Y-17088508D02*
X4394229Y-17098031D01*
X4394229Y-17098031D02*
X4403753Y-17117079D01*
X4403753Y-17117079D02*
X4403753Y-17136127D01*
X4403753Y-17136127D02*
X4394229Y-17164698D01*
X4394229Y-17164698D02*
X4279944Y-17278984D01*
X4279944Y-17278984D02*
X4403753Y-17278984D01*
X4527563Y-17078984D02*
X4546610Y-17078984D01*
X4546610Y-17078984D02*
X4565658Y-17088508D01*
X4565658Y-17088508D02*
X4575182Y-17098031D01*
X4575182Y-17098031D02*
X4584705Y-17117079D01*
X4584705Y-17117079D02*
X4594229Y-17155174D01*
X4594229Y-17155174D02*
X4594229Y-17202793D01*
X4594229Y-17202793D02*
X4584705Y-17240889D01*
X4584705Y-17240889D02*
X4575182Y-17259936D01*
X4575182Y-17259936D02*
X4565658Y-17269460D01*
X4565658Y-17269460D02*
X4546610Y-17278984D01*
X4546610Y-17278984D02*
X4527563Y-17278984D01*
X4527563Y-17278984D02*
X4508515Y-17269460D01*
X4508515Y-17269460D02*
X4498991Y-17259936D01*
X4498991Y-17259936D02*
X4489467Y-17240889D01*
X4489467Y-17240889D02*
X4479944Y-17202793D01*
X4479944Y-17202793D02*
X4479944Y-17155174D01*
X4479944Y-17155174D02*
X4489467Y-17117079D01*
X4489467Y-17117079D02*
X4498991Y-17098031D01*
X4498991Y-17098031D02*
X4508515Y-17088508D01*
X4508515Y-17088508D02*
X4527563Y-17078984D01*
X4718039Y-17078984D02*
X4737086Y-17078984D01*
X4737086Y-17078984D02*
X4756134Y-17088508D01*
X4756134Y-17088508D02*
X4765658Y-17098031D01*
X4765658Y-17098031D02*
X4775182Y-17117079D01*
X4775182Y-17117079D02*
X4784705Y-17155174D01*
X4784705Y-17155174D02*
X4784705Y-17202793D01*
X4784705Y-17202793D02*
X4775182Y-17240889D01*
X4775182Y-17240889D02*
X4765658Y-17259936D01*
X4765658Y-17259936D02*
X4756134Y-17269460D01*
X4756134Y-17269460D02*
X4737086Y-17278984D01*
X4737086Y-17278984D02*
X4718039Y-17278984D01*
X4718039Y-17278984D02*
X4698991Y-17269460D01*
X4698991Y-17269460D02*
X4689467Y-17259936D01*
X4689467Y-17259936D02*
X4679944Y-17240889D01*
X4679944Y-17240889D02*
X4670420Y-17202793D01*
X4670420Y-17202793D02*
X4670420Y-17155174D01*
X4670420Y-17155174D02*
X4679944Y-17117079D01*
X4679944Y-17117079D02*
X4689467Y-17098031D01*
X4689467Y-17098031D02*
X4698991Y-17088508D01*
X4698991Y-17088508D02*
X4718039Y-17078984D01*
X4870420Y-17278984D02*
X4870420Y-17145650D01*
X4870420Y-17164698D02*
X4879944Y-17155174D01*
X4879944Y-17155174D02*
X4898991Y-17145650D01*
X4898991Y-17145650D02*
X4927563Y-17145650D01*
X4927563Y-17145650D02*
X4946610Y-17155174D01*
X4946610Y-17155174D02*
X4956134Y-17174222D01*
X4956134Y-17174222D02*
X4956134Y-17278984D01*
X4956134Y-17174222D02*
X4965658Y-17155174D01*
X4965658Y-17155174D02*
X4984705Y-17145650D01*
X4984705Y-17145650D02*
X5013277Y-17145650D01*
X5013277Y-17145650D02*
X5032325Y-17155174D01*
X5032325Y-17155174D02*
X5041848Y-17174222D01*
X5041848Y-17174222D02*
X5041848Y-17278984D01*
X5137086Y-17278984D02*
X5137086Y-17145650D01*
X5137086Y-17164698D02*
X5146610Y-17155174D01*
X5146610Y-17155174D02*
X5165658Y-17145650D01*
X5165658Y-17145650D02*
X5194229Y-17145650D01*
X5194229Y-17145650D02*
X5213277Y-17155174D01*
X5213277Y-17155174D02*
X5222801Y-17174222D01*
X5222801Y-17174222D02*
X5222801Y-17278984D01*
X5222801Y-17174222D02*
X5232325Y-17155174D01*
X5232325Y-17155174D02*
X5251372Y-17145650D01*
X5251372Y-17145650D02*
X5279944Y-17145650D01*
X5279944Y-17145650D02*
X5298991Y-17155174D01*
X5298991Y-17155174D02*
X5308515Y-17174222D01*
X5308515Y-17174222D02*
X5308515Y-17278984D01*
X5698991Y-17069460D02*
X5527563Y-17326603D01*
X5956134Y-17078984D02*
X5975182Y-17078984D01*
X5975182Y-17078984D02*
X5994229Y-17088508D01*
X5994229Y-17088508D02*
X6003753Y-17098031D01*
X6003753Y-17098031D02*
X6013277Y-17117079D01*
X6013277Y-17117079D02*
X6022801Y-17155174D01*
X6022801Y-17155174D02*
X6022801Y-17202793D01*
X6022801Y-17202793D02*
X6013277Y-17240889D01*
X6013277Y-17240889D02*
X6003753Y-17259936D01*
X6003753Y-17259936D02*
X5994229Y-17269460D01*
X5994229Y-17269460D02*
X5975182Y-17278984D01*
X5975182Y-17278984D02*
X5956134Y-17278984D01*
X5956134Y-17278984D02*
X5937086Y-17269460D01*
X5937086Y-17269460D02*
X5927563Y-17259936D01*
X5927563Y-17259936D02*
X5918039Y-17240889D01*
X5918039Y-17240889D02*
X5908515Y-17202793D01*
X5908515Y-17202793D02*
X5908515Y-17155174D01*
X5908515Y-17155174D02*
X5918039Y-17117079D01*
X5918039Y-17117079D02*
X5927563Y-17098031D01*
X5927563Y-17098031D02*
X5937086Y-17088508D01*
X5937086Y-17088508D02*
X5956134Y-17078984D01*
X6108515Y-17259936D02*
X6118039Y-17269460D01*
X6118039Y-17269460D02*
X6108515Y-17278984D01*
X6108515Y-17278984D02*
X6098991Y-17269460D01*
X6098991Y-17269460D02*
X6108515Y-17259936D01*
X6108515Y-17259936D02*
X6108515Y-17278984D01*
X6308515Y-17278984D02*
X6194229Y-17278984D01*
X6251372Y-17278984D02*
X6251372Y-17078984D01*
X6251372Y-17078984D02*
X6232325Y-17107555D01*
X6232325Y-17107555D02*
X6213277Y-17126603D01*
X6213277Y-17126603D02*
X6194229Y-17136127D01*
X6384706Y-17098031D02*
X6394229Y-17088508D01*
X6394229Y-17088508D02*
X6413277Y-17078984D01*
X6413277Y-17078984D02*
X6460896Y-17078984D01*
X6460896Y-17078984D02*
X6479944Y-17088508D01*
X6479944Y-17088508D02*
X6489467Y-17098031D01*
X6489467Y-17098031D02*
X6498991Y-17117079D01*
X6498991Y-17117079D02*
X6498991Y-17136127D01*
X6498991Y-17136127D02*
X6489467Y-17164698D01*
X6489467Y-17164698D02*
X6375182Y-17278984D01*
X6375182Y-17278984D02*
X6498991Y-17278984D01*
X6670420Y-17078984D02*
X6632325Y-17078984D01*
X6632325Y-17078984D02*
X6613277Y-17088508D01*
X6613277Y-17088508D02*
X6603753Y-17098031D01*
X6603753Y-17098031D02*
X6584706Y-17126603D01*
X6584706Y-17126603D02*
X6575182Y-17164698D01*
X6575182Y-17164698D02*
X6575182Y-17240889D01*
X6575182Y-17240889D02*
X6584706Y-17259936D01*
X6584706Y-17259936D02*
X6594229Y-17269460D01*
X6594229Y-17269460D02*
X6613277Y-17278984D01*
X6613277Y-17278984D02*
X6651372Y-17278984D01*
X6651372Y-17278984D02*
X6670420Y-17269460D01*
X6670420Y-17269460D02*
X6679944Y-17259936D01*
X6679944Y-17259936D02*
X6689467Y-17240889D01*
X6689467Y-17240889D02*
X6689467Y-17193270D01*
X6689467Y-17193270D02*
X6679944Y-17174222D01*
X6679944Y-17174222D02*
X6670420Y-17164698D01*
X6670420Y-17164698D02*
X6651372Y-17155174D01*
X6651372Y-17155174D02*
X6613277Y-17155174D01*
X6613277Y-17155174D02*
X6594229Y-17164698D01*
X6594229Y-17164698D02*
X6584706Y-17174222D01*
X6584706Y-17174222D02*
X6575182Y-17193270D01*
X6813277Y-17078984D02*
X6832325Y-17078984D01*
X6832325Y-17078984D02*
X6851372Y-17088508D01*
X6851372Y-17088508D02*
X6860896Y-17098031D01*
X6860896Y-17098031D02*
X6870420Y-17117079D01*
X6870420Y-17117079D02*
X6879944Y-17155174D01*
X6879944Y-17155174D02*
X6879944Y-17202793D01*
X6879944Y-17202793D02*
X6870420Y-17240889D01*
X6870420Y-17240889D02*
X6860896Y-17259936D01*
X6860896Y-17259936D02*
X6851372Y-17269460D01*
X6851372Y-17269460D02*
X6832325Y-17278984D01*
X6832325Y-17278984D02*
X6813277Y-17278984D01*
X6813277Y-17278984D02*
X6794229Y-17269460D01*
X6794229Y-17269460D02*
X6784706Y-17259936D01*
X6784706Y-17259936D02*
X6775182Y-17240889D01*
X6775182Y-17240889D02*
X6765658Y-17202793D01*
X6765658Y-17202793D02*
X6765658Y-17155174D01*
X6765658Y-17155174D02*
X6775182Y-17117079D01*
X6775182Y-17117079D02*
X6784706Y-17098031D01*
X6784706Y-17098031D02*
X6794229Y-17088508D01*
X6794229Y-17088508D02*
X6813277Y-17078984D01*
X6956134Y-17078984D02*
X6956134Y-17117079D01*
X7032325Y-17078984D02*
X7032325Y-17117079D01*
X7327563Y-17355174D02*
X7318039Y-17345650D01*
X7318039Y-17345650D02*
X7298991Y-17317079D01*
X7298991Y-17317079D02*
X7289468Y-17298031D01*
X7289468Y-17298031D02*
X7279944Y-17269460D01*
X7279944Y-17269460D02*
X7270420Y-17221841D01*
X7270420Y-17221841D02*
X7270420Y-17183746D01*
X7270420Y-17183746D02*
X7279944Y-17136127D01*
X7279944Y-17136127D02*
X7289468Y-17107555D01*
X7289468Y-17107555D02*
X7298991Y-17088508D01*
X7298991Y-17088508D02*
X7318039Y-17059936D01*
X7318039Y-17059936D02*
X7327563Y-17050412D01*
X7489468Y-17145650D02*
X7489468Y-17278984D01*
X7441848Y-17069460D02*
X7394229Y-17212317D01*
X7394229Y-17212317D02*
X7518039Y-17212317D01*
X7746610Y-17278984D02*
X7746610Y-17078984D01*
X7832325Y-17278984D02*
X7832325Y-17174222D01*
X7832325Y-17174222D02*
X7822801Y-17155174D01*
X7822801Y-17155174D02*
X7803753Y-17145650D01*
X7803753Y-17145650D02*
X7775182Y-17145650D01*
X7775182Y-17145650D02*
X7756134Y-17155174D01*
X7756134Y-17155174D02*
X7746610Y-17164698D01*
X7956134Y-17278984D02*
X7937087Y-17269460D01*
X7937087Y-17269460D02*
X7927563Y-17259936D01*
X7927563Y-17259936D02*
X7918039Y-17240889D01*
X7918039Y-17240889D02*
X7918039Y-17183746D01*
X7918039Y-17183746D02*
X7927563Y-17164698D01*
X7927563Y-17164698D02*
X7937087Y-17155174D01*
X7937087Y-17155174D02*
X7956134Y-17145650D01*
X7956134Y-17145650D02*
X7984706Y-17145650D01*
X7984706Y-17145650D02*
X8003753Y-17155174D01*
X8003753Y-17155174D02*
X8013277Y-17164698D01*
X8013277Y-17164698D02*
X8022801Y-17183746D01*
X8022801Y-17183746D02*
X8022801Y-17240889D01*
X8022801Y-17240889D02*
X8013277Y-17259936D01*
X8013277Y-17259936D02*
X8003753Y-17269460D01*
X8003753Y-17269460D02*
X7984706Y-17278984D01*
X7984706Y-17278984D02*
X7956134Y-17278984D01*
X8137087Y-17278984D02*
X8118039Y-17269460D01*
X8118039Y-17269460D02*
X8108515Y-17250412D01*
X8108515Y-17250412D02*
X8108515Y-17078984D01*
X8289468Y-17269460D02*
X8270420Y-17278984D01*
X8270420Y-17278984D02*
X8232325Y-17278984D01*
X8232325Y-17278984D02*
X8213277Y-17269460D01*
X8213277Y-17269460D02*
X8203753Y-17250412D01*
X8203753Y-17250412D02*
X8203753Y-17174222D01*
X8203753Y-17174222D02*
X8213277Y-17155174D01*
X8213277Y-17155174D02*
X8232325Y-17145650D01*
X8232325Y-17145650D02*
X8270420Y-17145650D01*
X8270420Y-17145650D02*
X8289468Y-17155174D01*
X8289468Y-17155174D02*
X8298991Y-17174222D01*
X8298991Y-17174222D02*
X8298991Y-17193270D01*
X8298991Y-17193270D02*
X8203753Y-17212317D01*
X8375182Y-17269460D02*
X8394230Y-17278984D01*
X8394230Y-17278984D02*
X8432325Y-17278984D01*
X8432325Y-17278984D02*
X8451373Y-17269460D01*
X8451373Y-17269460D02*
X8460896Y-17250412D01*
X8460896Y-17250412D02*
X8460896Y-17240889D01*
X8460896Y-17240889D02*
X8451373Y-17221841D01*
X8451373Y-17221841D02*
X8432325Y-17212317D01*
X8432325Y-17212317D02*
X8403753Y-17212317D01*
X8403753Y-17212317D02*
X8384706Y-17202793D01*
X8384706Y-17202793D02*
X8375182Y-17183746D01*
X8375182Y-17183746D02*
X8375182Y-17174222D01*
X8375182Y-17174222D02*
X8384706Y-17155174D01*
X8384706Y-17155174D02*
X8403753Y-17145650D01*
X8403753Y-17145650D02*
X8432325Y-17145650D01*
X8432325Y-17145650D02*
X8451373Y-17155174D01*
X8527563Y-17355174D02*
X8537087Y-17345650D01*
X8537087Y-17345650D02*
X8556134Y-17317079D01*
X8556134Y-17317079D02*
X8565658Y-17298031D01*
X8565658Y-17298031D02*
X8575182Y-17269460D01*
X8575182Y-17269460D02*
X8584706Y-17221841D01*
X8584706Y-17221841D02*
X8584706Y-17183746D01*
X8584706Y-17183746D02*
X8575182Y-17136127D01*
X8575182Y-17136127D02*
X8565658Y-17107555D01*
X8565658Y-17107555D02*
X8556134Y-17088508D01*
X8556134Y-17088508D02*
X8537087Y-17059936D01*
X8537087Y-17059936D02*
X8527563Y-17050412D01*
X8889468Y-17355174D02*
X8879944Y-17345650D01*
X8879944Y-17345650D02*
X8860896Y-17317079D01*
X8860896Y-17317079D02*
X8851373Y-17298031D01*
X8851373Y-17298031D02*
X8841849Y-17269460D01*
X8841849Y-17269460D02*
X8832325Y-17221841D01*
X8832325Y-17221841D02*
X8832325Y-17183746D01*
X8832325Y-17183746D02*
X8841849Y-17136127D01*
X8841849Y-17136127D02*
X8851373Y-17107555D01*
X8851373Y-17107555D02*
X8860896Y-17088508D01*
X8860896Y-17088508D02*
X8879944Y-17059936D01*
X8879944Y-17059936D02*
X8889468Y-17050412D01*
X8965658Y-17145650D02*
X8965658Y-17278984D01*
X8965658Y-17164698D02*
X8975182Y-17155174D01*
X8975182Y-17155174D02*
X8994230Y-17145650D01*
X8994230Y-17145650D02*
X9022801Y-17145650D01*
X9022801Y-17145650D02*
X9041849Y-17155174D01*
X9041849Y-17155174D02*
X9051373Y-17174222D01*
X9051373Y-17174222D02*
X9051373Y-17278984D01*
X9175182Y-17278984D02*
X9156134Y-17269460D01*
X9156134Y-17269460D02*
X9146611Y-17259936D01*
X9146611Y-17259936D02*
X9137087Y-17240889D01*
X9137087Y-17240889D02*
X9137087Y-17183746D01*
X9137087Y-17183746D02*
X9146611Y-17164698D01*
X9146611Y-17164698D02*
X9156134Y-17155174D01*
X9156134Y-17155174D02*
X9175182Y-17145650D01*
X9175182Y-17145650D02*
X9203754Y-17145650D01*
X9203754Y-17145650D02*
X9222801Y-17155174D01*
X9222801Y-17155174D02*
X9232325Y-17164698D01*
X9232325Y-17164698D02*
X9241849Y-17183746D01*
X9241849Y-17183746D02*
X9241849Y-17240889D01*
X9241849Y-17240889D02*
X9232325Y-17259936D01*
X9232325Y-17259936D02*
X9222801Y-17269460D01*
X9222801Y-17269460D02*
X9203754Y-17278984D01*
X9203754Y-17278984D02*
X9175182Y-17278984D01*
X9298992Y-17145650D02*
X9375182Y-17145650D01*
X9327563Y-17078984D02*
X9327563Y-17250412D01*
X9327563Y-17250412D02*
X9337087Y-17269460D01*
X9337087Y-17269460D02*
X9356134Y-17278984D01*
X9356134Y-17278984D02*
X9375182Y-17278984D01*
X9594230Y-17145650D02*
X9594230Y-17345650D01*
X9594230Y-17155174D02*
X9613277Y-17145650D01*
X9613277Y-17145650D02*
X9651373Y-17145650D01*
X9651373Y-17145650D02*
X9670420Y-17155174D01*
X9670420Y-17155174D02*
X9679944Y-17164698D01*
X9679944Y-17164698D02*
X9689468Y-17183746D01*
X9689468Y-17183746D02*
X9689468Y-17240889D01*
X9689468Y-17240889D02*
X9679944Y-17259936D01*
X9679944Y-17259936D02*
X9670420Y-17269460D01*
X9670420Y-17269460D02*
X9651373Y-17278984D01*
X9651373Y-17278984D02*
X9613277Y-17278984D01*
X9613277Y-17278984D02*
X9594230Y-17269460D01*
X9803754Y-17278984D02*
X9784706Y-17269460D01*
X9784706Y-17269460D02*
X9775182Y-17250412D01*
X9775182Y-17250412D02*
X9775182Y-17078984D01*
X9965658Y-17278984D02*
X9965658Y-17174222D01*
X9965658Y-17174222D02*
X9956135Y-17155174D01*
X9956135Y-17155174D02*
X9937087Y-17145650D01*
X9937087Y-17145650D02*
X9898992Y-17145650D01*
X9898992Y-17145650D02*
X9879944Y-17155174D01*
X9965658Y-17269460D02*
X9946611Y-17278984D01*
X9946611Y-17278984D02*
X9898992Y-17278984D01*
X9898992Y-17278984D02*
X9879944Y-17269460D01*
X9879944Y-17269460D02*
X9870420Y-17250412D01*
X9870420Y-17250412D02*
X9870420Y-17231365D01*
X9870420Y-17231365D02*
X9879944Y-17212317D01*
X9879944Y-17212317D02*
X9898992Y-17202793D01*
X9898992Y-17202793D02*
X9946611Y-17202793D01*
X9946611Y-17202793D02*
X9965658Y-17193270D01*
X10032325Y-17145650D02*
X10108515Y-17145650D01*
X10060896Y-17078984D02*
X10060896Y-17250412D01*
X10060896Y-17250412D02*
X10070420Y-17269460D01*
X10070420Y-17269460D02*
X10089468Y-17278984D01*
X10089468Y-17278984D02*
X10108515Y-17278984D01*
X10251373Y-17269460D02*
X10232325Y-17278984D01*
X10232325Y-17278984D02*
X10194230Y-17278984D01*
X10194230Y-17278984D02*
X10175182Y-17269460D01*
X10175182Y-17269460D02*
X10165658Y-17250412D01*
X10165658Y-17250412D02*
X10165658Y-17174222D01*
X10165658Y-17174222D02*
X10175182Y-17155174D01*
X10175182Y-17155174D02*
X10194230Y-17145650D01*
X10194230Y-17145650D02*
X10232325Y-17145650D01*
X10232325Y-17145650D02*
X10251373Y-17155174D01*
X10251373Y-17155174D02*
X10260896Y-17174222D01*
X10260896Y-17174222D02*
X10260896Y-17193270D01*
X10260896Y-17193270D02*
X10165658Y-17212317D01*
X10432325Y-17278984D02*
X10432325Y-17078984D01*
X10432325Y-17269460D02*
X10413277Y-17278984D01*
X10413277Y-17278984D02*
X10375182Y-17278984D01*
X10375182Y-17278984D02*
X10356135Y-17269460D01*
X10356135Y-17269460D02*
X10346611Y-17259936D01*
X10346611Y-17259936D02*
X10337087Y-17240889D01*
X10337087Y-17240889D02*
X10337087Y-17183746D01*
X10337087Y-17183746D02*
X10346611Y-17164698D01*
X10346611Y-17164698D02*
X10356135Y-17155174D01*
X10356135Y-17155174D02*
X10375182Y-17145650D01*
X10375182Y-17145650D02*
X10413277Y-17145650D01*
X10413277Y-17145650D02*
X10432325Y-17155174D01*
X10508516Y-17355174D02*
X10518039Y-17345650D01*
X10518039Y-17345650D02*
X10537087Y-17317079D01*
X10537087Y-17317079D02*
X10546611Y-17298031D01*
X10546611Y-17298031D02*
X10556135Y-17269460D01*
X10556135Y-17269460D02*
X10565658Y-17221841D01*
X10565658Y-17221841D02*
X10565658Y-17183746D01*
X10565658Y-17183746D02*
X10556135Y-17136127D01*
X10556135Y-17136127D02*
X10546611Y-17107555D01*
X10546611Y-17107555D02*
X10537087Y-17088508D01*
X10537087Y-17088508D02*
X10518039Y-17059936D01*
X10518039Y-17059936D02*
X10508516Y-17050412D01*
M02*
