%TF.GenerationSoftware,KiCad,Pcbnew,8.0.4*%
%TF.CreationDate,2024-08-26T20:05:07-05:00*%
%TF.ProjectId,controller,636f6e74-726f-46c6-9c65-722e6b696361,2*%
%TF.SameCoordinates,Original*%
%TF.FileFunction,Legend,Bot*%
%TF.FilePolarity,Positive*%
%FSLAX46Y46*%
G04 Gerber Fmt 4.6, Leading zero omitted, Abs format (unit mm)*
G04 Created by KiCad (PCBNEW 8.0.4) date 2024-08-26 20:05:07*
%MOMM*%
%LPD*%
G01*
G04 APERTURE LIST*
G04 Aperture macros list*
%AMRoundRect*
0 Rectangle with rounded corners*
0 $1 Rounding radius*
0 $2 $3 $4 $5 $6 $7 $8 $9 X,Y pos of 4 corners*
0 Add a 4 corners polygon primitive as box body*
4,1,4,$2,$3,$4,$5,$6,$7,$8,$9,$2,$3,0*
0 Add four circle primitives for the rounded corners*
1,1,$1+$1,$2,$3*
1,1,$1+$1,$4,$5*
1,1,$1+$1,$6,$7*
1,1,$1+$1,$8,$9*
0 Add four rect primitives between the rounded corners*
20,1,$1+$1,$2,$3,$4,$5,0*
20,1,$1+$1,$4,$5,$6,$7,0*
20,1,$1+$1,$6,$7,$8,$9,0*
20,1,$1+$1,$8,$9,$2,$3,0*%
G04 Aperture macros list end*
%ADD10C,1.700000*%
%ADD11C,1.879600*%
%ADD12C,3.200000*%
%ADD13R,1.800000X1.800000*%
%ADD14C,1.800000*%
%ADD15RoundRect,0.750000X-0.750000X1.250000X-0.750000X-1.250000X0.750000X-1.250000X0.750000X1.250000X0*%
%ADD16O,1.800000X1.800000*%
%ADD17O,1.500000X1.500000*%
%ADD18O,1.700000X1.700000*%
%ADD19R,1.700000X1.700000*%
%ADD20C,2.540000*%
%ADD21RoundRect,0.101600X0.754000X0.754000X-0.754000X0.754000X-0.754000X-0.754000X0.754000X-0.754000X0*%
%ADD22C,1.711200*%
G04 APERTURE END LIST*
%LPC*%
D10*
%TO.C,J1-I1*%
X77600000Y-39400000D03*
X77600000Y-46400000D03*
%TD*%
D11*
%TO.C,U4*%
X122240000Y-51200000D03*
X119700000Y-51200000D03*
X117160000Y-51200000D03*
X114620000Y-51200000D03*
X112080000Y-51200000D03*
X128740000Y-47910000D03*
X128740000Y-45370000D03*
X109540000Y-51200000D03*
X104460000Y-51200000D03*
X128740000Y-40290000D03*
X101920000Y-51200000D03*
X128740000Y-42830000D03*
X107000000Y-51200000D03*
X128740000Y-50450000D03*
X128740000Y-37750000D03*
%TD*%
D12*
%TO.C,Hole1*%
X53600000Y-41200000D03*
%TD*%
D13*
%TO.C,RV4*%
X124100000Y-92900000D03*
D14*
X121600000Y-92900000D03*
X119100000Y-92900000D03*
D15*
X126000000Y-99900000D03*
X117200000Y-99900000D03*
%TD*%
D13*
%TO.C,RV8*%
X107800000Y-56700000D03*
D14*
X105300000Y-56700000D03*
X102800000Y-56700000D03*
D15*
X109700000Y-63700000D03*
X100900000Y-63700000D03*
%TD*%
D13*
%TO.C,RV5*%
X100600000Y-92900000D03*
D14*
X98100000Y-92900000D03*
X95600000Y-92900000D03*
D15*
X102500000Y-99900000D03*
X93700000Y-99900000D03*
%TD*%
D16*
%TO.C,U3*%
X50665000Y-35630000D03*
D17*
X50965000Y-38660000D03*
X55815000Y-38660000D03*
D16*
X56115000Y-35630000D03*
D18*
X44500000Y-35500000D03*
X44500000Y-38040000D03*
D19*
X44500000Y-40580000D03*
D18*
X44500000Y-43120000D03*
X44500000Y-45660000D03*
X44500000Y-48200000D03*
X44500000Y-50740000D03*
D19*
X44500000Y-53280000D03*
D18*
X44500000Y-55820000D03*
X44500000Y-58360000D03*
X44500000Y-60900000D03*
X44500000Y-63440000D03*
D19*
X44500000Y-65980000D03*
D18*
X44500000Y-68520000D03*
X44500000Y-71060000D03*
X44500000Y-73600000D03*
X44500000Y-76140000D03*
D19*
X44500000Y-78680000D03*
D18*
X44500000Y-81220000D03*
X44500000Y-83760000D03*
X62280000Y-83760000D03*
X62280000Y-81220000D03*
D19*
X62280000Y-78680000D03*
D18*
X62280000Y-76140000D03*
X62280000Y-73600000D03*
X62280000Y-71060000D03*
X62280000Y-68520000D03*
D19*
X62280000Y-65980000D03*
D18*
X62280000Y-63440000D03*
X62280000Y-60900000D03*
X62280000Y-58360000D03*
X62280000Y-55820000D03*
D19*
X62280000Y-53280000D03*
D18*
X62280000Y-50740000D03*
X62280000Y-48200000D03*
X62280000Y-45660000D03*
X62280000Y-43120000D03*
D19*
X62280000Y-40580000D03*
D18*
X62280000Y-38040000D03*
X62280000Y-35500000D03*
X50850000Y-83530000D03*
D19*
X53390000Y-83530000D03*
D18*
X55930000Y-83530000D03*
%TD*%
D13*
%TO.C,RV6*%
X77100000Y-92900000D03*
D14*
X74600000Y-92900000D03*
X72100000Y-92900000D03*
D15*
X79000000Y-99900000D03*
X70200000Y-99900000D03*
%TD*%
D12*
%TO.C,Hole2*%
X113600000Y-41200000D03*
%TD*%
%TO.C,Hole4*%
X131100000Y-150200000D03*
%TD*%
D10*
%TO.C,J11-O1*%
X89600000Y-39400000D03*
X89600000Y-46400000D03*
%TD*%
D13*
%TO.C,RV3*%
X77100000Y-74150000D03*
D14*
X74600000Y-74150000D03*
X72100000Y-74150000D03*
D15*
X79000000Y-81150000D03*
X70200000Y-81150000D03*
%TD*%
D20*
%TO.C,DISP1*%
X94268000Y-60714000D03*
X94268000Y-37600000D03*
X70900000Y-60714000D03*
X70900000Y-37600000D03*
D21*
X86394000Y-61857000D03*
D22*
X83854000Y-61857000D03*
X81314000Y-61857000D03*
X78774000Y-61857000D03*
%TD*%
D12*
%TO.C,Hole3*%
X41600000Y-150200000D03*
%TD*%
D13*
%TO.C,RV7*%
X53600000Y-92900000D03*
D14*
X51100000Y-92900000D03*
X48600000Y-92900000D03*
D15*
X55500000Y-99900000D03*
X46700000Y-99900000D03*
%TD*%
D13*
%TO.C,RV2*%
X124100000Y-74150000D03*
D14*
X121600000Y-74150000D03*
X119100000Y-74150000D03*
D15*
X126000000Y-81150000D03*
X117200000Y-81150000D03*
%TD*%
D13*
%TO.C,RV1*%
X100600000Y-74150000D03*
D14*
X98100000Y-74150000D03*
X95600000Y-74150000D03*
D15*
X102500000Y-81150000D03*
X93700000Y-81150000D03*
%TD*%
%LPD*%
M02*
