M48
; DRILL file {KiCad 8.0.4} date 2024-08-26T20:04:39-0500
; FORMAT={-:-/ absolute / metric / decimal}
; #@! TF.CreationDate,2024-08-26T20:04:39-05:00
; #@! TF.GenerationSoftware,Kicad,Pcbnew,8.0.4
; #@! TF.FileFunction,Plated,1,2,PTH
FMAT,2
METRIC
; #@! TA.AperFunction,Plated,PTH,ViaDrill
T1C0.300
; #@! TA.AperFunction,Plated,PTH,ComponentDrill
T2C1.000
; #@! TA.AperFunction,Plated,PTH,ComponentDrill
T3C1.020
; #@! TA.AperFunction,Plated,PTH,ComponentDrill
T4C1.800
%
G90
G05
T1
X44.2Y-88.8
X49.7Y-88.8
X50.4Y-73.8
X51.0Y-127.5
X51.017Y-143.883
X51.117Y-113.483
X52.9Y-73.7
X54.9Y-73.7
X58.4Y-88.8
X67.1Y-64.2
X67.4Y-88.9
X69.0Y-34.6
X72.1Y-90.612
X73.3Y-88.8
X73.8Y-71.66
X74.7Y-143.9
X74.772Y-113.311
X74.8Y-128.4
X80.5Y-49.4
X82.1Y-66.7
X82.4Y-34.5
X82.6Y-88.8
X82.9Y-72.4
X85.9Y-57.0
X86.3Y-72.1
X87.0Y-66.3
X87.9Y-40.6
X91.2Y-88.8
X91.5Y-72.1
X91.595Y-74.495
X93.6Y-72.7
X96.0Y-90.625
X96.116Y-59.284
X97.1Y-88.8
X98.2Y-113.1
X98.4Y-128.8
X98.6Y-143.9
X105.6Y-88.8
X113.8Y-88.6
X118.2Y-60.3
X119.5Y-90.625
X120.6Y-88.7
X121.7Y-128.9
X122.0Y-113.9
X122.3Y-144.4
X124.9Y-65.9
X126.7Y-65.5
X129.7Y-88.8
T2
X48.6Y-92.9
X51.1Y-92.9
X53.6Y-92.9
X72.1Y-74.15
X72.1Y-92.9
X74.6Y-74.15
X74.6Y-92.9
X77.1Y-74.15
X77.1Y-92.9
X78.774Y-61.857
X81.314Y-61.857
X83.854Y-61.857
X86.394Y-61.857
X95.6Y-74.15
X95.6Y-92.9
X98.1Y-74.15
X98.1Y-92.9
X100.6Y-74.15
X100.6Y-92.9
X101.92Y-51.2
X102.8Y-56.7
X104.46Y-51.2
X105.3Y-56.7
X107.0Y-51.2
X107.8Y-56.7
X109.54Y-51.2
X112.08Y-51.2
X114.62Y-51.2
X117.16Y-51.2
X119.1Y-74.15
X119.1Y-92.9
X119.7Y-51.2
X121.6Y-74.15
X121.6Y-92.9
X122.24Y-51.2
X124.1Y-74.15
X124.1Y-92.9
X128.74Y-37.75
X128.74Y-40.29
X128.74Y-42.83
X128.74Y-45.37
X128.74Y-47.91
X128.74Y-50.45
T3
X44.5Y-35.5
X44.5Y-38.04
X44.5Y-40.58
X44.5Y-43.12
X44.5Y-45.66
X44.5Y-48.2
X44.5Y-50.74
X44.5Y-53.28
X44.5Y-55.82
X44.5Y-58.36
X44.5Y-60.9
X44.5Y-63.44
X44.5Y-65.98
X44.5Y-68.52
X44.5Y-71.06
X44.5Y-73.6
X44.5Y-76.14
X44.5Y-78.68
X44.5Y-81.22
X44.5Y-83.76
X50.85Y-83.53
X53.39Y-83.53
X55.93Y-83.53
X62.28Y-35.5
X62.28Y-38.04
X62.28Y-40.58
X62.28Y-43.12
X62.28Y-45.66
X62.28Y-48.2
X62.28Y-50.74
X62.28Y-53.28
X62.28Y-55.82
X62.28Y-58.36
X62.28Y-60.9
X62.28Y-63.44
X62.28Y-65.98
X62.28Y-68.52
X62.28Y-71.06
X62.28Y-73.6
X62.28Y-76.14
X62.28Y-78.68
X62.28Y-81.22
X62.28Y-83.76
T4
X46.7Y-99.75G85X46.7Y-100.05
G05
X55.5Y-99.75G85X55.5Y-100.05
G05
X70.2Y-81.0G85X70.2Y-81.3
G05
X70.2Y-99.75G85X70.2Y-100.05
G05
X79.0Y-81.0G85X79.0Y-81.3
G05
X79.0Y-99.75G85X79.0Y-100.05
G05
X93.7Y-81.0G85X93.7Y-81.3
G05
X93.7Y-99.75G85X93.7Y-100.05
G05
X100.9Y-63.55G85X100.9Y-63.85
G05
X102.5Y-81.0G85X102.5Y-81.3
G05
X102.5Y-99.75G85X102.5Y-100.05
G05
X109.7Y-63.55G85X109.7Y-63.85
G05
X117.2Y-81.0G85X117.2Y-81.3
G05
X117.2Y-99.75G85X117.2Y-100.05
G05
X126.0Y-81.0G85X126.0Y-81.3
G05
X126.0Y-99.75G85X126.0Y-100.05
G05
M30
