%TF.GenerationSoftware,KiCad,Pcbnew,8.0.4*%
%TF.CreationDate,2024-08-26T20:04:37-05:00*%
%TF.ProjectId,controller,636f6e74-726f-46c6-9c65-722e6b696361,2*%
%TF.SameCoordinates,Original*%
%TF.FileFunction,Drillmap*%
%TF.FilePolarity,Positive*%
%FSLAX45Y45*%
G04 Gerber Fmt 4.5, Leading zero omitted, Abs format (unit mm)*
G04 Created by KiCad (PCBNEW 8.0.4) date 2024-08-26 20:04:37*
%MOMM*%
%LPD*%
G01*
G04 APERTURE LIST*
%ADD10C,0.050000*%
%ADD11C,0.200000*%
%ADD12C,0.100000*%
%ADD13C,0.102000*%
%ADD14C,0.180000*%
G04 APERTURE END LIST*
D10*
X3755000Y-3325000D02*
X13485000Y-3325000D01*
X13485000Y-15365000D01*
X3755000Y-15365000D01*
X3755000Y-3325000D01*
D11*
D12*
X4405000Y-8865000D02*
X4435000Y-8895000D01*
X4435000Y-8865000D02*
X4405000Y-8895000D01*
X4955000Y-8865000D02*
X4985000Y-8895000D01*
X4985000Y-8865000D02*
X4955000Y-8895000D01*
X5025000Y-7365000D02*
X5055000Y-7395000D01*
X5055000Y-7365000D02*
X5025000Y-7395000D01*
X5085000Y-12735000D02*
X5115000Y-12765000D01*
X5115000Y-12735000D02*
X5085000Y-12765000D01*
X5086666Y-14373303D02*
X5116666Y-14403303D01*
X5116666Y-14373303D02*
X5086666Y-14403303D01*
X5096666Y-11333303D02*
X5126666Y-11363303D01*
X5126666Y-11333303D02*
X5096666Y-11363303D01*
X5275000Y-7355000D02*
X5305000Y-7385000D01*
X5305000Y-7355000D02*
X5275000Y-7385000D01*
X5475000Y-7355000D02*
X5505000Y-7385000D01*
X5505000Y-7355000D02*
X5475000Y-7385000D01*
X5825000Y-8865000D02*
X5855000Y-8895000D01*
X5855000Y-8865000D02*
X5825000Y-8895000D01*
X6695000Y-6405000D02*
X6725000Y-6435000D01*
X6725000Y-6405000D02*
X6695000Y-6435000D01*
X6725000Y-8875000D02*
X6755000Y-8905000D01*
X6755000Y-8875000D02*
X6725000Y-8905000D01*
X6885000Y-3445000D02*
X6915000Y-3475000D01*
X6915000Y-3445000D02*
X6885000Y-3475000D01*
X7195000Y-9046250D02*
X7225000Y-9076250D01*
X7225000Y-9046250D02*
X7195000Y-9076250D01*
X7315000Y-8865000D02*
X7345000Y-8895000D01*
X7345000Y-8865000D02*
X7315000Y-8895000D01*
X7365000Y-7151000D02*
X7395000Y-7181000D01*
X7395000Y-7151000D02*
X7365000Y-7181000D01*
X7455000Y-14375000D02*
X7485000Y-14405000D01*
X7485000Y-14375000D02*
X7455000Y-14405000D01*
X7462212Y-11316091D02*
X7492212Y-11346091D01*
X7492212Y-11316091D02*
X7462212Y-11346091D01*
X7465000Y-12825000D02*
X7495000Y-12855000D01*
X7495000Y-12825000D02*
X7465000Y-12855000D01*
X8035000Y-4925000D02*
X8065000Y-4955000D01*
X8065000Y-4925000D02*
X8035000Y-4955000D01*
X8195000Y-6655000D02*
X8225000Y-6685000D01*
X8225000Y-6655000D02*
X8195000Y-6685000D01*
X8225000Y-3435000D02*
X8255000Y-3465000D01*
X8255000Y-3435000D02*
X8225000Y-3465000D01*
X8245000Y-8865000D02*
X8275000Y-8895000D01*
X8275000Y-8865000D02*
X8245000Y-8895000D01*
X8275000Y-7225000D02*
X8305000Y-7255000D01*
X8305000Y-7225000D02*
X8275000Y-7255000D01*
X8575000Y-5685000D02*
X8605000Y-5715000D01*
X8605000Y-5685000D02*
X8575000Y-5715000D01*
X8615000Y-7195000D02*
X8645000Y-7225000D01*
X8645000Y-7195000D02*
X8615000Y-7225000D01*
X8685000Y-6615000D02*
X8715000Y-6645000D01*
X8715000Y-6615000D02*
X8685000Y-6645000D01*
X8775000Y-4045000D02*
X8805000Y-4075000D01*
X8805000Y-4045000D02*
X8775000Y-4075000D01*
X9105000Y-8865000D02*
X9135000Y-8895000D01*
X9135000Y-8865000D02*
X9105000Y-8895000D01*
X9135000Y-7195000D02*
X9165000Y-7225000D01*
X9165000Y-7195000D02*
X9135000Y-7225000D01*
X9144500Y-7434481D02*
X9174500Y-7464481D01*
X9174500Y-7434481D02*
X9144500Y-7464481D01*
X9345000Y-7255000D02*
X9375000Y-7285000D01*
X9375000Y-7255000D02*
X9345000Y-7285000D01*
X9585000Y-9047500D02*
X9615000Y-9077500D01*
X9615000Y-9047500D02*
X9585000Y-9077500D01*
X9596571Y-5913429D02*
X9626571Y-5943429D01*
X9626571Y-5913429D02*
X9596571Y-5943429D01*
X9695000Y-8865000D02*
X9725000Y-8895000D01*
X9725000Y-8865000D02*
X9695000Y-8895000D01*
X9805000Y-11295000D02*
X9835000Y-11325000D01*
X9835000Y-11295000D02*
X9805000Y-11325000D01*
X9825000Y-12865000D02*
X9855000Y-12895000D01*
X9855000Y-12865000D02*
X9825000Y-12895000D01*
X9845000Y-14375000D02*
X9875000Y-14405000D01*
X9875000Y-14375000D02*
X9845000Y-14405000D01*
X10545000Y-8865000D02*
X10575000Y-8895000D01*
X10575000Y-8865000D02*
X10545000Y-8895000D01*
X11365000Y-8845000D02*
X11395000Y-8875000D01*
X11395000Y-8845000D02*
X11365000Y-8875000D01*
X11805000Y-6015000D02*
X11835000Y-6045000D01*
X11835000Y-6015000D02*
X11805000Y-6045000D01*
X11935000Y-9047500D02*
X11965000Y-9077500D01*
X11965000Y-9047500D02*
X11935000Y-9077500D01*
X12045000Y-8855000D02*
X12075000Y-8885000D01*
X12075000Y-8855000D02*
X12045000Y-8885000D01*
X12155000Y-12875000D02*
X12185000Y-12905000D01*
X12185000Y-12875000D02*
X12155000Y-12905000D01*
X12185000Y-11375000D02*
X12215000Y-11405000D01*
X12215000Y-11375000D02*
X12185000Y-11405000D01*
X12215000Y-14425000D02*
X12245000Y-14455000D01*
X12245000Y-14425000D02*
X12215000Y-14455000D01*
X12475000Y-6575000D02*
X12505000Y-6605000D01*
X12505000Y-6575000D02*
X12475000Y-6605000D01*
X12655000Y-6535000D02*
X12685000Y-6565000D01*
X12685000Y-6535000D02*
X12655000Y-6565000D01*
X12955000Y-8865000D02*
X12985000Y-8895000D01*
X12985000Y-8865000D02*
X12955000Y-8895000D01*
X4910000Y-9290000D02*
G75*
G02*
X4810000Y-9290000I-50000J0D01*
G01*
X4810000Y-9290000D02*
G75*
G02*
X4910000Y-9290000I50000J0D01*
G01*
X5160000Y-9290000D02*
G75*
G02*
X5060000Y-9290000I-50000J0D01*
G01*
X5060000Y-9290000D02*
G75*
G02*
X5160000Y-9290000I50000J0D01*
G01*
X5410000Y-9290000D02*
G75*
G02*
X5310000Y-9290000I-50000J0D01*
G01*
X5310000Y-9290000D02*
G75*
G02*
X5410000Y-9290000I50000J0D01*
G01*
X7260000Y-7415000D02*
G75*
G02*
X7160000Y-7415000I-50000J0D01*
G01*
X7160000Y-7415000D02*
G75*
G02*
X7260000Y-7415000I50000J0D01*
G01*
X7260000Y-9290000D02*
G75*
G02*
X7160000Y-9290000I-50000J0D01*
G01*
X7160000Y-9290000D02*
G75*
G02*
X7260000Y-9290000I50000J0D01*
G01*
X7510000Y-7415000D02*
G75*
G02*
X7410000Y-7415000I-50000J0D01*
G01*
X7410000Y-7415000D02*
G75*
G02*
X7510000Y-7415000I50000J0D01*
G01*
X7510000Y-9290000D02*
G75*
G02*
X7410000Y-9290000I-50000J0D01*
G01*
X7410000Y-9290000D02*
G75*
G02*
X7510000Y-9290000I50000J0D01*
G01*
X7760000Y-7415000D02*
G75*
G02*
X7660000Y-7415000I-50000J0D01*
G01*
X7660000Y-7415000D02*
G75*
G02*
X7760000Y-7415000I50000J0D01*
G01*
X7760000Y-9290000D02*
G75*
G02*
X7660000Y-9290000I-50000J0D01*
G01*
X7660000Y-9290000D02*
G75*
G02*
X7760000Y-9290000I50000J0D01*
G01*
X7927400Y-6185700D02*
G75*
G02*
X7827400Y-6185700I-50000J0D01*
G01*
X7827400Y-6185700D02*
G75*
G02*
X7927400Y-6185700I50000J0D01*
G01*
X8181400Y-6185700D02*
G75*
G02*
X8081400Y-6185700I-50000J0D01*
G01*
X8081400Y-6185700D02*
G75*
G02*
X8181400Y-6185700I50000J0D01*
G01*
X8435400Y-6185700D02*
G75*
G02*
X8335400Y-6185700I-50000J0D01*
G01*
X8335400Y-6185700D02*
G75*
G02*
X8435400Y-6185700I50000J0D01*
G01*
X8689400Y-6185700D02*
G75*
G02*
X8589400Y-6185700I-50000J0D01*
G01*
X8589400Y-6185700D02*
G75*
G02*
X8689400Y-6185700I50000J0D01*
G01*
X9610000Y-7415000D02*
G75*
G02*
X9510000Y-7415000I-50000J0D01*
G01*
X9510000Y-7415000D02*
G75*
G02*
X9610000Y-7415000I50000J0D01*
G01*
X9610000Y-9290000D02*
G75*
G02*
X9510000Y-9290000I-50000J0D01*
G01*
X9510000Y-9290000D02*
G75*
G02*
X9610000Y-9290000I50000J0D01*
G01*
X9860000Y-7415000D02*
G75*
G02*
X9760000Y-7415000I-50000J0D01*
G01*
X9760000Y-7415000D02*
G75*
G02*
X9860000Y-7415000I50000J0D01*
G01*
X9860000Y-9290000D02*
G75*
G02*
X9760000Y-9290000I-50000J0D01*
G01*
X9760000Y-9290000D02*
G75*
G02*
X9860000Y-9290000I50000J0D01*
G01*
X10110000Y-7415000D02*
G75*
G02*
X10010000Y-7415000I-50000J0D01*
G01*
X10010000Y-7415000D02*
G75*
G02*
X10110000Y-7415000I50000J0D01*
G01*
X10110000Y-9290000D02*
G75*
G02*
X10010000Y-9290000I-50000J0D01*
G01*
X10010000Y-9290000D02*
G75*
G02*
X10110000Y-9290000I50000J0D01*
G01*
X10242000Y-5120000D02*
G75*
G02*
X10142000Y-5120000I-50000J0D01*
G01*
X10142000Y-5120000D02*
G75*
G02*
X10242000Y-5120000I50000J0D01*
G01*
X10330000Y-5670000D02*
G75*
G02*
X10230000Y-5670000I-50000J0D01*
G01*
X10230000Y-5670000D02*
G75*
G02*
X10330000Y-5670000I50000J0D01*
G01*
X10496000Y-5120000D02*
G75*
G02*
X10396000Y-5120000I-50000J0D01*
G01*
X10396000Y-5120000D02*
G75*
G02*
X10496000Y-5120000I50000J0D01*
G01*
X10580000Y-5670000D02*
G75*
G02*
X10480000Y-5670000I-50000J0D01*
G01*
X10480000Y-5670000D02*
G75*
G02*
X10580000Y-5670000I50000J0D01*
G01*
X10750000Y-5120000D02*
G75*
G02*
X10650000Y-5120000I-50000J0D01*
G01*
X10650000Y-5120000D02*
G75*
G02*
X10750000Y-5120000I50000J0D01*
G01*
X10830000Y-5670000D02*
G75*
G02*
X10730000Y-5670000I-50000J0D01*
G01*
X10730000Y-5670000D02*
G75*
G02*
X10830000Y-5670000I50000J0D01*
G01*
X11004000Y-5120000D02*
G75*
G02*
X10904000Y-5120000I-50000J0D01*
G01*
X10904000Y-5120000D02*
G75*
G02*
X11004000Y-5120000I50000J0D01*
G01*
X11258000Y-5120000D02*
G75*
G02*
X11158000Y-5120000I-50000J0D01*
G01*
X11158000Y-5120000D02*
G75*
G02*
X11258000Y-5120000I50000J0D01*
G01*
X11512000Y-5120000D02*
G75*
G02*
X11412000Y-5120000I-50000J0D01*
G01*
X11412000Y-5120000D02*
G75*
G02*
X11512000Y-5120000I50000J0D01*
G01*
X11766000Y-5120000D02*
G75*
G02*
X11666000Y-5120000I-50000J0D01*
G01*
X11666000Y-5120000D02*
G75*
G02*
X11766000Y-5120000I50000J0D01*
G01*
X11960000Y-7415000D02*
G75*
G02*
X11860000Y-7415000I-50000J0D01*
G01*
X11860000Y-7415000D02*
G75*
G02*
X11960000Y-7415000I50000J0D01*
G01*
X11960000Y-9290000D02*
G75*
G02*
X11860000Y-9290000I-50000J0D01*
G01*
X11860000Y-9290000D02*
G75*
G02*
X11960000Y-9290000I50000J0D01*
G01*
X12020000Y-5120000D02*
G75*
G02*
X11920000Y-5120000I-50000J0D01*
G01*
X11920000Y-5120000D02*
G75*
G02*
X12020000Y-5120000I50000J0D01*
G01*
X12210000Y-7415000D02*
G75*
G02*
X12110000Y-7415000I-50000J0D01*
G01*
X12110000Y-7415000D02*
G75*
G02*
X12210000Y-7415000I50000J0D01*
G01*
X12210000Y-9290000D02*
G75*
G02*
X12110000Y-9290000I-50000J0D01*
G01*
X12110000Y-9290000D02*
G75*
G02*
X12210000Y-9290000I50000J0D01*
G01*
X12274000Y-5120000D02*
G75*
G02*
X12174000Y-5120000I-50000J0D01*
G01*
X12174000Y-5120000D02*
G75*
G02*
X12274000Y-5120000I50000J0D01*
G01*
X12460000Y-7415000D02*
G75*
G02*
X12360000Y-7415000I-50000J0D01*
G01*
X12360000Y-7415000D02*
G75*
G02*
X12460000Y-7415000I50000J0D01*
G01*
X12460000Y-9290000D02*
G75*
G02*
X12360000Y-9290000I-50000J0D01*
G01*
X12360000Y-9290000D02*
G75*
G02*
X12460000Y-9290000I50000J0D01*
G01*
X12924000Y-3775000D02*
G75*
G02*
X12824000Y-3775000I-50000J0D01*
G01*
X12824000Y-3775000D02*
G75*
G02*
X12924000Y-3775000I50000J0D01*
G01*
X12924000Y-4029000D02*
G75*
G02*
X12824000Y-4029000I-50000J0D01*
G01*
X12824000Y-4029000D02*
G75*
G02*
X12924000Y-4029000I50000J0D01*
G01*
X12924000Y-4283000D02*
G75*
G02*
X12824000Y-4283000I-50000J0D01*
G01*
X12824000Y-4283000D02*
G75*
G02*
X12924000Y-4283000I50000J0D01*
G01*
X12924000Y-4537000D02*
G75*
G02*
X12824000Y-4537000I-50000J0D01*
G01*
X12824000Y-4537000D02*
G75*
G02*
X12924000Y-4537000I50000J0D01*
G01*
X12924000Y-4791000D02*
G75*
G02*
X12824000Y-4791000I-50000J0D01*
G01*
X12824000Y-4791000D02*
G75*
G02*
X12924000Y-4791000I50000J0D01*
G01*
X12924000Y-5045000D02*
G75*
G02*
X12824000Y-5045000I-50000J0D01*
G01*
X12824000Y-5045000D02*
G75*
G02*
X12924000Y-5045000I50000J0D01*
G01*
D13*
X4450000Y-3499000D02*
X4450000Y-3601000D01*
X4399000Y-3550000D02*
X4501000Y-3550000D01*
X4450000Y-3753000D02*
X4450000Y-3855000D01*
X4399000Y-3804000D02*
X4501000Y-3804000D01*
X4450000Y-4007000D02*
X4450000Y-4109000D01*
X4399000Y-4058000D02*
X4501000Y-4058000D01*
X4450000Y-4261000D02*
X4450000Y-4363000D01*
X4399000Y-4312000D02*
X4501000Y-4312000D01*
X4450000Y-4515000D02*
X4450000Y-4617000D01*
X4399000Y-4566000D02*
X4501000Y-4566000D01*
X4450000Y-4769000D02*
X4450000Y-4871000D01*
X4399000Y-4820000D02*
X4501000Y-4820000D01*
X4450000Y-5023000D02*
X4450000Y-5125000D01*
X4399000Y-5074000D02*
X4501000Y-5074000D01*
X4450000Y-5277000D02*
X4450000Y-5379000D01*
X4399000Y-5328000D02*
X4501000Y-5328000D01*
X4450000Y-5531000D02*
X4450000Y-5633000D01*
X4399000Y-5582000D02*
X4501000Y-5582000D01*
X4450000Y-5785000D02*
X4450000Y-5887000D01*
X4399000Y-5836000D02*
X4501000Y-5836000D01*
X4450000Y-6039000D02*
X4450000Y-6141000D01*
X4399000Y-6090000D02*
X4501000Y-6090000D01*
X4450000Y-6293000D02*
X4450000Y-6395000D01*
X4399000Y-6344000D02*
X4501000Y-6344000D01*
X4450000Y-6547000D02*
X4450000Y-6649000D01*
X4399000Y-6598000D02*
X4501000Y-6598000D01*
X4450000Y-6801000D02*
X4450000Y-6903000D01*
X4399000Y-6852000D02*
X4501000Y-6852000D01*
X4450000Y-7055000D02*
X4450000Y-7157000D01*
X4399000Y-7106000D02*
X4501000Y-7106000D01*
X4450000Y-7309000D02*
X4450000Y-7411000D01*
X4399000Y-7360000D02*
X4501000Y-7360000D01*
X4450000Y-7563000D02*
X4450000Y-7665000D01*
X4399000Y-7614000D02*
X4501000Y-7614000D01*
X4450000Y-7817000D02*
X4450000Y-7919000D01*
X4399000Y-7868000D02*
X4501000Y-7868000D01*
X4450000Y-8071000D02*
X4450000Y-8173000D01*
X4399000Y-8122000D02*
X4501000Y-8122000D01*
X4450000Y-8325000D02*
X4450000Y-8427000D01*
X4399000Y-8376000D02*
X4501000Y-8376000D01*
X5085000Y-8302000D02*
X5085000Y-8404000D01*
X5034000Y-8353000D02*
X5136000Y-8353000D01*
X5339000Y-8302000D02*
X5339000Y-8404000D01*
X5288000Y-8353000D02*
X5390000Y-8353000D01*
X5593000Y-8302000D02*
X5593000Y-8404000D01*
X5542000Y-8353000D02*
X5644000Y-8353000D01*
X6228000Y-3499000D02*
X6228000Y-3601000D01*
X6177000Y-3550000D02*
X6279000Y-3550000D01*
X6228000Y-3753000D02*
X6228000Y-3855000D01*
X6177000Y-3804000D02*
X6279000Y-3804000D01*
X6228000Y-4007000D02*
X6228000Y-4109000D01*
X6177000Y-4058000D02*
X6279000Y-4058000D01*
X6228000Y-4261000D02*
X6228000Y-4363000D01*
X6177000Y-4312000D02*
X6279000Y-4312000D01*
X6228000Y-4515000D02*
X6228000Y-4617000D01*
X6177000Y-4566000D02*
X6279000Y-4566000D01*
X6228000Y-4769000D02*
X6228000Y-4871000D01*
X6177000Y-4820000D02*
X6279000Y-4820000D01*
X6228000Y-5023000D02*
X6228000Y-5125000D01*
X6177000Y-5074000D02*
X6279000Y-5074000D01*
X6228000Y-5277000D02*
X6228000Y-5379000D01*
X6177000Y-5328000D02*
X6279000Y-5328000D01*
X6228000Y-5531000D02*
X6228000Y-5633000D01*
X6177000Y-5582000D02*
X6279000Y-5582000D01*
X6228000Y-5785000D02*
X6228000Y-5887000D01*
X6177000Y-5836000D02*
X6279000Y-5836000D01*
X6228000Y-6039000D02*
X6228000Y-6141000D01*
X6177000Y-6090000D02*
X6279000Y-6090000D01*
X6228000Y-6293000D02*
X6228000Y-6395000D01*
X6177000Y-6344000D02*
X6279000Y-6344000D01*
X6228000Y-6547000D02*
X6228000Y-6649000D01*
X6177000Y-6598000D02*
X6279000Y-6598000D01*
X6228000Y-6801000D02*
X6228000Y-6903000D01*
X6177000Y-6852000D02*
X6279000Y-6852000D01*
X6228000Y-7055000D02*
X6228000Y-7157000D01*
X6177000Y-7106000D02*
X6279000Y-7106000D01*
X6228000Y-7309000D02*
X6228000Y-7411000D01*
X6177000Y-7360000D02*
X6279000Y-7360000D01*
X6228000Y-7563000D02*
X6228000Y-7665000D01*
X6177000Y-7614000D02*
X6279000Y-7614000D01*
X6228000Y-7817000D02*
X6228000Y-7919000D01*
X6177000Y-7868000D02*
X6279000Y-7868000D01*
X6228000Y-8071000D02*
X6228000Y-8173000D01*
X6177000Y-8122000D02*
X6279000Y-8122000D01*
X6228000Y-8325000D02*
X6228000Y-8427000D01*
X6177000Y-8376000D02*
X6279000Y-8376000D01*
D14*
X4733640Y-10053640D02*
X4733640Y-9926360D01*
X4606360Y-9926360D01*
X4606360Y-10053640D01*
X4733640Y-10053640D01*
D12*
X4580000Y-9975000D02*
X4580000Y-10005000D01*
X4760000Y-10005000D02*
G75*
G02*
X4580000Y-10005000I-90000J0D01*
G01*
X4760000Y-10005000D02*
X4760000Y-9975000D01*
X4760000Y-9975000D02*
G75*
G03*
X4580000Y-9975000I-90000J0D01*
G01*
D14*
X5613640Y-10053640D02*
X5613640Y-9926360D01*
X5486360Y-9926360D01*
X5486360Y-10053640D01*
X5613640Y-10053640D01*
D12*
X5460000Y-9975000D02*
X5460000Y-10005000D01*
X5640000Y-10005000D02*
G75*
G02*
X5460000Y-10005000I-90000J0D01*
G01*
X5640000Y-10005000D02*
X5640000Y-9975000D01*
X5640000Y-9975000D02*
G75*
G03*
X5460000Y-9975000I-90000J0D01*
G01*
D14*
X7083640Y-8178640D02*
X7083640Y-8051360D01*
X6956360Y-8051360D01*
X6956360Y-8178640D01*
X7083640Y-8178640D01*
D12*
X6930000Y-8100000D02*
X6930000Y-8130000D01*
X7110000Y-8130000D02*
G75*
G02*
X6930000Y-8130000I-90000J0D01*
G01*
X7110000Y-8130000D02*
X7110000Y-8100000D01*
X7110000Y-8100000D02*
G75*
G03*
X6930000Y-8100000I-90000J0D01*
G01*
D14*
X7083640Y-10053640D02*
X7083640Y-9926360D01*
X6956360Y-9926360D01*
X6956360Y-10053640D01*
X7083640Y-10053640D01*
D12*
X6930000Y-9975000D02*
X6930000Y-10005000D01*
X7110000Y-10005000D02*
G75*
G02*
X6930000Y-10005000I-90000J0D01*
G01*
X7110000Y-10005000D02*
X7110000Y-9975000D01*
X7110000Y-9975000D02*
G75*
G03*
X6930000Y-9975000I-90000J0D01*
G01*
D14*
X7963640Y-8178640D02*
X7963640Y-8051360D01*
X7836360Y-8051360D01*
X7836360Y-8178640D01*
X7963640Y-8178640D01*
D12*
X7810000Y-8100000D02*
X7810000Y-8130000D01*
X7990000Y-8130000D02*
G75*
G02*
X7810000Y-8130000I-90000J0D01*
G01*
X7990000Y-8130000D02*
X7990000Y-8100000D01*
X7990000Y-8100000D02*
G75*
G03*
X7810000Y-8100000I-90000J0D01*
G01*
D14*
X7963640Y-10053640D02*
X7963640Y-9926360D01*
X7836360Y-9926360D01*
X7836360Y-10053640D01*
X7963640Y-10053640D01*
D12*
X7810000Y-9975000D02*
X7810000Y-10005000D01*
X7990000Y-10005000D02*
G75*
G02*
X7810000Y-10005000I-90000J0D01*
G01*
X7990000Y-10005000D02*
X7990000Y-9975000D01*
X7990000Y-9975000D02*
G75*
G03*
X7810000Y-9975000I-90000J0D01*
G01*
D14*
X9433640Y-8178640D02*
X9433640Y-8051360D01*
X9306360Y-8051360D01*
X9306360Y-8178640D01*
X9433640Y-8178640D01*
D12*
X9280000Y-8100000D02*
X9280000Y-8130000D01*
X9460000Y-8130000D02*
G75*
G02*
X9280000Y-8130000I-90000J0D01*
G01*
X9460000Y-8130000D02*
X9460000Y-8100000D01*
X9460000Y-8100000D02*
G75*
G03*
X9280000Y-8100000I-90000J0D01*
G01*
D14*
X9433640Y-10053640D02*
X9433640Y-9926360D01*
X9306360Y-9926360D01*
X9306360Y-10053640D01*
X9433640Y-10053640D01*
D12*
X9280000Y-9975000D02*
X9280000Y-10005000D01*
X9460000Y-10005000D02*
G75*
G02*
X9280000Y-10005000I-90000J0D01*
G01*
X9460000Y-10005000D02*
X9460000Y-9975000D01*
X9460000Y-9975000D02*
G75*
G03*
X9280000Y-9975000I-90000J0D01*
G01*
D14*
X10153640Y-6433640D02*
X10153640Y-6306360D01*
X10026360Y-6306360D01*
X10026360Y-6433640D01*
X10153640Y-6433640D01*
D12*
X10000000Y-6355000D02*
X10000000Y-6385000D01*
X10180000Y-6385000D02*
G75*
G02*
X10000000Y-6385000I-90000J0D01*
G01*
X10180000Y-6385000D02*
X10180000Y-6355000D01*
X10180000Y-6355000D02*
G75*
G03*
X10000000Y-6355000I-90000J0D01*
G01*
D14*
X10313640Y-8178640D02*
X10313640Y-8051360D01*
X10186360Y-8051360D01*
X10186360Y-8178640D01*
X10313640Y-8178640D01*
D12*
X10160000Y-8100000D02*
X10160000Y-8130000D01*
X10340000Y-8130000D02*
G75*
G02*
X10160000Y-8130000I-90000J0D01*
G01*
X10340000Y-8130000D02*
X10340000Y-8100000D01*
X10340000Y-8100000D02*
G75*
G03*
X10160000Y-8100000I-90000J0D01*
G01*
D14*
X10313640Y-10053640D02*
X10313640Y-9926360D01*
X10186360Y-9926360D01*
X10186360Y-10053640D01*
X10313640Y-10053640D01*
D12*
X10160000Y-9975000D02*
X10160000Y-10005000D01*
X10340000Y-10005000D02*
G75*
G02*
X10160000Y-10005000I-90000J0D01*
G01*
X10340000Y-10005000D02*
X10340000Y-9975000D01*
X10340000Y-9975000D02*
G75*
G03*
X10160000Y-9975000I-90000J0D01*
G01*
D14*
X11033640Y-6433640D02*
X11033640Y-6306360D01*
X10906360Y-6306360D01*
X10906360Y-6433640D01*
X11033640Y-6433640D01*
D12*
X10880000Y-6355000D02*
X10880000Y-6385000D01*
X11060000Y-6385000D02*
G75*
G02*
X10880000Y-6385000I-90000J0D01*
G01*
X11060000Y-6385000D02*
X11060000Y-6355000D01*
X11060000Y-6355000D02*
G75*
G03*
X10880000Y-6355000I-90000J0D01*
G01*
D14*
X11783640Y-8178640D02*
X11783640Y-8051360D01*
X11656360Y-8051360D01*
X11656360Y-8178640D01*
X11783640Y-8178640D01*
D12*
X11630000Y-8100000D02*
X11630000Y-8130000D01*
X11810000Y-8130000D02*
G75*
G02*
X11630000Y-8130000I-90000J0D01*
G01*
X11810000Y-8130000D02*
X11810000Y-8100000D01*
X11810000Y-8100000D02*
G75*
G03*
X11630000Y-8100000I-90000J0D01*
G01*
D14*
X11783640Y-10053640D02*
X11783640Y-9926360D01*
X11656360Y-9926360D01*
X11656360Y-10053640D01*
X11783640Y-10053640D01*
D12*
X11630000Y-9975000D02*
X11630000Y-10005000D01*
X11810000Y-10005000D02*
G75*
G02*
X11630000Y-10005000I-90000J0D01*
G01*
X11810000Y-10005000D02*
X11810000Y-9975000D01*
X11810000Y-9975000D02*
G75*
G03*
X11630000Y-9975000I-90000J0D01*
G01*
D14*
X12663640Y-8178640D02*
X12663640Y-8051360D01*
X12536360Y-8051360D01*
X12536360Y-8178640D01*
X12663640Y-8178640D01*
D12*
X12510000Y-8100000D02*
X12510000Y-8130000D01*
X12690000Y-8130000D02*
G75*
G02*
X12510000Y-8130000I-90000J0D01*
G01*
X12690000Y-8130000D02*
X12690000Y-8100000D01*
X12690000Y-8100000D02*
G75*
G03*
X12510000Y-8100000I-90000J0D01*
G01*
D14*
X12663640Y-10053640D02*
X12663640Y-9926360D01*
X12536360Y-9926360D01*
X12536360Y-10053640D01*
X12663640Y-10053640D01*
D12*
X12510000Y-9975000D02*
X12510000Y-10005000D01*
X12690000Y-10005000D02*
G75*
G02*
X12510000Y-10005000I-90000J0D01*
G01*
X12690000Y-10005000D02*
X12690000Y-9975000D01*
X12690000Y-9975000D02*
G75*
G03*
X12510000Y-9975000I-90000J0D01*
G01*
D11*
X4013277Y-15678984D02*
X4013277Y-15478984D01*
X4013277Y-15478984D02*
X4060896Y-15478984D01*
X4060896Y-15478984D02*
X4089467Y-15488508D01*
X4089467Y-15488508D02*
X4108515Y-15507555D01*
X4108515Y-15507555D02*
X4118039Y-15526603D01*
X4118039Y-15526603D02*
X4127562Y-15564698D01*
X4127562Y-15564698D02*
X4127562Y-15593269D01*
X4127562Y-15593269D02*
X4118039Y-15631365D01*
X4118039Y-15631365D02*
X4108515Y-15650412D01*
X4108515Y-15650412D02*
X4089467Y-15669460D01*
X4089467Y-15669460D02*
X4060896Y-15678984D01*
X4060896Y-15678984D02*
X4013277Y-15678984D01*
X4213277Y-15678984D02*
X4213277Y-15545650D01*
X4213277Y-15583746D02*
X4222801Y-15564698D01*
X4222801Y-15564698D02*
X4232324Y-15555174D01*
X4232324Y-15555174D02*
X4251372Y-15545650D01*
X4251372Y-15545650D02*
X4270420Y-15545650D01*
X4337086Y-15678984D02*
X4337086Y-15545650D01*
X4337086Y-15478984D02*
X4327563Y-15488508D01*
X4327563Y-15488508D02*
X4337086Y-15498031D01*
X4337086Y-15498031D02*
X4346610Y-15488508D01*
X4346610Y-15488508D02*
X4337086Y-15478984D01*
X4337086Y-15478984D02*
X4337086Y-15498031D01*
X4460896Y-15678984D02*
X4441848Y-15669460D01*
X4441848Y-15669460D02*
X4432324Y-15650412D01*
X4432324Y-15650412D02*
X4432324Y-15478984D01*
X4565658Y-15678984D02*
X4546610Y-15669460D01*
X4546610Y-15669460D02*
X4537086Y-15650412D01*
X4537086Y-15650412D02*
X4537086Y-15478984D01*
X4794229Y-15678984D02*
X4794229Y-15478984D01*
X4794229Y-15478984D02*
X4860896Y-15621841D01*
X4860896Y-15621841D02*
X4927563Y-15478984D01*
X4927563Y-15478984D02*
X4927563Y-15678984D01*
X5108515Y-15678984D02*
X5108515Y-15574222D01*
X5108515Y-15574222D02*
X5098991Y-15555174D01*
X5098991Y-15555174D02*
X5079944Y-15545650D01*
X5079944Y-15545650D02*
X5041848Y-15545650D01*
X5041848Y-15545650D02*
X5022801Y-15555174D01*
X5108515Y-15669460D02*
X5089467Y-15678984D01*
X5089467Y-15678984D02*
X5041848Y-15678984D01*
X5041848Y-15678984D02*
X5022801Y-15669460D01*
X5022801Y-15669460D02*
X5013277Y-15650412D01*
X5013277Y-15650412D02*
X5013277Y-15631365D01*
X5013277Y-15631365D02*
X5022801Y-15612317D01*
X5022801Y-15612317D02*
X5041848Y-15602793D01*
X5041848Y-15602793D02*
X5089467Y-15602793D01*
X5089467Y-15602793D02*
X5108515Y-15593269D01*
X5203753Y-15545650D02*
X5203753Y-15745650D01*
X5203753Y-15555174D02*
X5222801Y-15545650D01*
X5222801Y-15545650D02*
X5260896Y-15545650D01*
X5260896Y-15545650D02*
X5279944Y-15555174D01*
X5279944Y-15555174D02*
X5289467Y-15564698D01*
X5289467Y-15564698D02*
X5298991Y-15583746D01*
X5298991Y-15583746D02*
X5298991Y-15640888D01*
X5298991Y-15640888D02*
X5289467Y-15659936D01*
X5289467Y-15659936D02*
X5279944Y-15669460D01*
X5279944Y-15669460D02*
X5260896Y-15678984D01*
X5260896Y-15678984D02*
X5222801Y-15678984D01*
X5222801Y-15678984D02*
X5203753Y-15669460D01*
X5384705Y-15659936D02*
X5394229Y-15669460D01*
X5394229Y-15669460D02*
X5384705Y-15678984D01*
X5384705Y-15678984D02*
X5375182Y-15669460D01*
X5375182Y-15669460D02*
X5384705Y-15659936D01*
X5384705Y-15659936D02*
X5384705Y-15678984D01*
X5384705Y-15555174D02*
X5394229Y-15564698D01*
X5394229Y-15564698D02*
X5384705Y-15574222D01*
X5384705Y-15574222D02*
X5375182Y-15564698D01*
X5375182Y-15564698D02*
X5384705Y-15555174D01*
X5384705Y-15555174D02*
X5384705Y-15574222D01*
D12*
X3722500Y-15992500D02*
X3752500Y-16022500D01*
X3752500Y-15992500D02*
X3722500Y-16022500D01*
D11*
X4051372Y-15898984D02*
X4070420Y-15898984D01*
X4070420Y-15898984D02*
X4089467Y-15908508D01*
X4089467Y-15908508D02*
X4098991Y-15918031D01*
X4098991Y-15918031D02*
X4108515Y-15937079D01*
X4108515Y-15937079D02*
X4118039Y-15975174D01*
X4118039Y-15975174D02*
X4118039Y-16022793D01*
X4118039Y-16022793D02*
X4108515Y-16060888D01*
X4108515Y-16060888D02*
X4098991Y-16079936D01*
X4098991Y-16079936D02*
X4089467Y-16089460D01*
X4089467Y-16089460D02*
X4070420Y-16098984D01*
X4070420Y-16098984D02*
X4051372Y-16098984D01*
X4051372Y-16098984D02*
X4032324Y-16089460D01*
X4032324Y-16089460D02*
X4022801Y-16079936D01*
X4022801Y-16079936D02*
X4013277Y-16060888D01*
X4013277Y-16060888D02*
X4003753Y-16022793D01*
X4003753Y-16022793D02*
X4003753Y-15975174D01*
X4003753Y-15975174D02*
X4013277Y-15937079D01*
X4013277Y-15937079D02*
X4022801Y-15918031D01*
X4022801Y-15918031D02*
X4032324Y-15908508D01*
X4032324Y-15908508D02*
X4051372Y-15898984D01*
X4203753Y-16079936D02*
X4213277Y-16089460D01*
X4213277Y-16089460D02*
X4203753Y-16098984D01*
X4203753Y-16098984D02*
X4194229Y-16089460D01*
X4194229Y-16089460D02*
X4203753Y-16079936D01*
X4203753Y-16079936D02*
X4203753Y-16098984D01*
X4279944Y-15898984D02*
X4403753Y-15898984D01*
X4403753Y-15898984D02*
X4337086Y-15975174D01*
X4337086Y-15975174D02*
X4365658Y-15975174D01*
X4365658Y-15975174D02*
X4384705Y-15984698D01*
X4384705Y-15984698D02*
X4394229Y-15994222D01*
X4394229Y-15994222D02*
X4403753Y-16013269D01*
X4403753Y-16013269D02*
X4403753Y-16060888D01*
X4403753Y-16060888D02*
X4394229Y-16079936D01*
X4394229Y-16079936D02*
X4384705Y-16089460D01*
X4384705Y-16089460D02*
X4365658Y-16098984D01*
X4365658Y-16098984D02*
X4308515Y-16098984D01*
X4308515Y-16098984D02*
X4289467Y-16089460D01*
X4289467Y-16089460D02*
X4279944Y-16079936D01*
X4527563Y-15898984D02*
X4546610Y-15898984D01*
X4546610Y-15898984D02*
X4565658Y-15908508D01*
X4565658Y-15908508D02*
X4575182Y-15918031D01*
X4575182Y-15918031D02*
X4584705Y-15937079D01*
X4584705Y-15937079D02*
X4594229Y-15975174D01*
X4594229Y-15975174D02*
X4594229Y-16022793D01*
X4594229Y-16022793D02*
X4584705Y-16060888D01*
X4584705Y-16060888D02*
X4575182Y-16079936D01*
X4575182Y-16079936D02*
X4565658Y-16089460D01*
X4565658Y-16089460D02*
X4546610Y-16098984D01*
X4546610Y-16098984D02*
X4527563Y-16098984D01*
X4527563Y-16098984D02*
X4508515Y-16089460D01*
X4508515Y-16089460D02*
X4498991Y-16079936D01*
X4498991Y-16079936D02*
X4489467Y-16060888D01*
X4489467Y-16060888D02*
X4479944Y-16022793D01*
X4479944Y-16022793D02*
X4479944Y-15975174D01*
X4479944Y-15975174D02*
X4489467Y-15937079D01*
X4489467Y-15937079D02*
X4498991Y-15918031D01*
X4498991Y-15918031D02*
X4508515Y-15908508D01*
X4508515Y-15908508D02*
X4527563Y-15898984D01*
X4718039Y-15898984D02*
X4737086Y-15898984D01*
X4737086Y-15898984D02*
X4756134Y-15908508D01*
X4756134Y-15908508D02*
X4765658Y-15918031D01*
X4765658Y-15918031D02*
X4775182Y-15937079D01*
X4775182Y-15937079D02*
X4784705Y-15975174D01*
X4784705Y-15975174D02*
X4784705Y-16022793D01*
X4784705Y-16022793D02*
X4775182Y-16060888D01*
X4775182Y-16060888D02*
X4765658Y-16079936D01*
X4765658Y-16079936D02*
X4756134Y-16089460D01*
X4756134Y-16089460D02*
X4737086Y-16098984D01*
X4737086Y-16098984D02*
X4718039Y-16098984D01*
X4718039Y-16098984D02*
X4698991Y-16089460D01*
X4698991Y-16089460D02*
X4689467Y-16079936D01*
X4689467Y-16079936D02*
X4679944Y-16060888D01*
X4679944Y-16060888D02*
X4670420Y-16022793D01*
X4670420Y-16022793D02*
X4670420Y-15975174D01*
X4670420Y-15975174D02*
X4679944Y-15937079D01*
X4679944Y-15937079D02*
X4689467Y-15918031D01*
X4689467Y-15918031D02*
X4698991Y-15908508D01*
X4698991Y-15908508D02*
X4718039Y-15898984D01*
X4870420Y-16098984D02*
X4870420Y-15965650D01*
X4870420Y-15984698D02*
X4879944Y-15975174D01*
X4879944Y-15975174D02*
X4898991Y-15965650D01*
X4898991Y-15965650D02*
X4927563Y-15965650D01*
X4927563Y-15965650D02*
X4946610Y-15975174D01*
X4946610Y-15975174D02*
X4956134Y-15994222D01*
X4956134Y-15994222D02*
X4956134Y-16098984D01*
X4956134Y-15994222D02*
X4965658Y-15975174D01*
X4965658Y-15975174D02*
X4984705Y-15965650D01*
X4984705Y-15965650D02*
X5013277Y-15965650D01*
X5013277Y-15965650D02*
X5032325Y-15975174D01*
X5032325Y-15975174D02*
X5041848Y-15994222D01*
X5041848Y-15994222D02*
X5041848Y-16098984D01*
X5137086Y-16098984D02*
X5137086Y-15965650D01*
X5137086Y-15984698D02*
X5146610Y-15975174D01*
X5146610Y-15975174D02*
X5165658Y-15965650D01*
X5165658Y-15965650D02*
X5194229Y-15965650D01*
X5194229Y-15965650D02*
X5213277Y-15975174D01*
X5213277Y-15975174D02*
X5222801Y-15994222D01*
X5222801Y-15994222D02*
X5222801Y-16098984D01*
X5222801Y-15994222D02*
X5232325Y-15975174D01*
X5232325Y-15975174D02*
X5251372Y-15965650D01*
X5251372Y-15965650D02*
X5279944Y-15965650D01*
X5279944Y-15965650D02*
X5298991Y-15975174D01*
X5298991Y-15975174D02*
X5308515Y-15994222D01*
X5308515Y-15994222D02*
X5308515Y-16098984D01*
X5698991Y-15889460D02*
X5527563Y-16146603D01*
X5956134Y-15898984D02*
X5975182Y-15898984D01*
X5975182Y-15898984D02*
X5994229Y-15908508D01*
X5994229Y-15908508D02*
X6003753Y-15918031D01*
X6003753Y-15918031D02*
X6013277Y-15937079D01*
X6013277Y-15937079D02*
X6022801Y-15975174D01*
X6022801Y-15975174D02*
X6022801Y-16022793D01*
X6022801Y-16022793D02*
X6013277Y-16060888D01*
X6013277Y-16060888D02*
X6003753Y-16079936D01*
X6003753Y-16079936D02*
X5994229Y-16089460D01*
X5994229Y-16089460D02*
X5975182Y-16098984D01*
X5975182Y-16098984D02*
X5956134Y-16098984D01*
X5956134Y-16098984D02*
X5937086Y-16089460D01*
X5937086Y-16089460D02*
X5927563Y-16079936D01*
X5927563Y-16079936D02*
X5918039Y-16060888D01*
X5918039Y-16060888D02*
X5908515Y-16022793D01*
X5908515Y-16022793D02*
X5908515Y-15975174D01*
X5908515Y-15975174D02*
X5918039Y-15937079D01*
X5918039Y-15937079D02*
X5927563Y-15918031D01*
X5927563Y-15918031D02*
X5937086Y-15908508D01*
X5937086Y-15908508D02*
X5956134Y-15898984D01*
X6108515Y-16079936D02*
X6118039Y-16089460D01*
X6118039Y-16089460D02*
X6108515Y-16098984D01*
X6108515Y-16098984D02*
X6098991Y-16089460D01*
X6098991Y-16089460D02*
X6108515Y-16079936D01*
X6108515Y-16079936D02*
X6108515Y-16098984D01*
X6241848Y-15898984D02*
X6260896Y-15898984D01*
X6260896Y-15898984D02*
X6279944Y-15908508D01*
X6279944Y-15908508D02*
X6289467Y-15918031D01*
X6289467Y-15918031D02*
X6298991Y-15937079D01*
X6298991Y-15937079D02*
X6308515Y-15975174D01*
X6308515Y-15975174D02*
X6308515Y-16022793D01*
X6308515Y-16022793D02*
X6298991Y-16060888D01*
X6298991Y-16060888D02*
X6289467Y-16079936D01*
X6289467Y-16079936D02*
X6279944Y-16089460D01*
X6279944Y-16089460D02*
X6260896Y-16098984D01*
X6260896Y-16098984D02*
X6241848Y-16098984D01*
X6241848Y-16098984D02*
X6222801Y-16089460D01*
X6222801Y-16089460D02*
X6213277Y-16079936D01*
X6213277Y-16079936D02*
X6203753Y-16060888D01*
X6203753Y-16060888D02*
X6194229Y-16022793D01*
X6194229Y-16022793D02*
X6194229Y-15975174D01*
X6194229Y-15975174D02*
X6203753Y-15937079D01*
X6203753Y-15937079D02*
X6213277Y-15918031D01*
X6213277Y-15918031D02*
X6222801Y-15908508D01*
X6222801Y-15908508D02*
X6241848Y-15898984D01*
X6498991Y-16098984D02*
X6384706Y-16098984D01*
X6441848Y-16098984D02*
X6441848Y-15898984D01*
X6441848Y-15898984D02*
X6422801Y-15927555D01*
X6422801Y-15927555D02*
X6403753Y-15946603D01*
X6403753Y-15946603D02*
X6384706Y-15956127D01*
X6689467Y-16098984D02*
X6575182Y-16098984D01*
X6632325Y-16098984D02*
X6632325Y-15898984D01*
X6632325Y-15898984D02*
X6613277Y-15927555D01*
X6613277Y-15927555D02*
X6594229Y-15946603D01*
X6594229Y-15946603D02*
X6575182Y-15956127D01*
X6803753Y-15984698D02*
X6784706Y-15975174D01*
X6784706Y-15975174D02*
X6775182Y-15965650D01*
X6775182Y-15965650D02*
X6765658Y-15946603D01*
X6765658Y-15946603D02*
X6765658Y-15937079D01*
X6765658Y-15937079D02*
X6775182Y-15918031D01*
X6775182Y-15918031D02*
X6784706Y-15908508D01*
X6784706Y-15908508D02*
X6803753Y-15898984D01*
X6803753Y-15898984D02*
X6841848Y-15898984D01*
X6841848Y-15898984D02*
X6860896Y-15908508D01*
X6860896Y-15908508D02*
X6870420Y-15918031D01*
X6870420Y-15918031D02*
X6879944Y-15937079D01*
X6879944Y-15937079D02*
X6879944Y-15946603D01*
X6879944Y-15946603D02*
X6870420Y-15965650D01*
X6870420Y-15965650D02*
X6860896Y-15975174D01*
X6860896Y-15975174D02*
X6841848Y-15984698D01*
X6841848Y-15984698D02*
X6803753Y-15984698D01*
X6803753Y-15984698D02*
X6784706Y-15994222D01*
X6784706Y-15994222D02*
X6775182Y-16003746D01*
X6775182Y-16003746D02*
X6765658Y-16022793D01*
X6765658Y-16022793D02*
X6765658Y-16060888D01*
X6765658Y-16060888D02*
X6775182Y-16079936D01*
X6775182Y-16079936D02*
X6784706Y-16089460D01*
X6784706Y-16089460D02*
X6803753Y-16098984D01*
X6803753Y-16098984D02*
X6841848Y-16098984D01*
X6841848Y-16098984D02*
X6860896Y-16089460D01*
X6860896Y-16089460D02*
X6870420Y-16079936D01*
X6870420Y-16079936D02*
X6879944Y-16060888D01*
X6879944Y-16060888D02*
X6879944Y-16022793D01*
X6879944Y-16022793D02*
X6870420Y-16003746D01*
X6870420Y-16003746D02*
X6860896Y-15994222D01*
X6860896Y-15994222D02*
X6841848Y-15984698D01*
X6956134Y-15898984D02*
X6956134Y-15937079D01*
X7032325Y-15898984D02*
X7032325Y-15937079D01*
X7327563Y-16175174D02*
X7318039Y-16165650D01*
X7318039Y-16165650D02*
X7298991Y-16137079D01*
X7298991Y-16137079D02*
X7289468Y-16118031D01*
X7289468Y-16118031D02*
X7279944Y-16089460D01*
X7279944Y-16089460D02*
X7270420Y-16041841D01*
X7270420Y-16041841D02*
X7270420Y-16003746D01*
X7270420Y-16003746D02*
X7279944Y-15956127D01*
X7279944Y-15956127D02*
X7289468Y-15927555D01*
X7289468Y-15927555D02*
X7298991Y-15908508D01*
X7298991Y-15908508D02*
X7318039Y-15879936D01*
X7318039Y-15879936D02*
X7327563Y-15870412D01*
X7489468Y-15965650D02*
X7489468Y-16098984D01*
X7441848Y-15889460D02*
X7394229Y-16032317D01*
X7394229Y-16032317D02*
X7518039Y-16032317D01*
X7622801Y-15984698D02*
X7603753Y-15975174D01*
X7603753Y-15975174D02*
X7594229Y-15965650D01*
X7594229Y-15965650D02*
X7584706Y-15946603D01*
X7584706Y-15946603D02*
X7584706Y-15937079D01*
X7584706Y-15937079D02*
X7594229Y-15918031D01*
X7594229Y-15918031D02*
X7603753Y-15908508D01*
X7603753Y-15908508D02*
X7622801Y-15898984D01*
X7622801Y-15898984D02*
X7660896Y-15898984D01*
X7660896Y-15898984D02*
X7679944Y-15908508D01*
X7679944Y-15908508D02*
X7689468Y-15918031D01*
X7689468Y-15918031D02*
X7698991Y-15937079D01*
X7698991Y-15937079D02*
X7698991Y-15946603D01*
X7698991Y-15946603D02*
X7689468Y-15965650D01*
X7689468Y-15965650D02*
X7679944Y-15975174D01*
X7679944Y-15975174D02*
X7660896Y-15984698D01*
X7660896Y-15984698D02*
X7622801Y-15984698D01*
X7622801Y-15984698D02*
X7603753Y-15994222D01*
X7603753Y-15994222D02*
X7594229Y-16003746D01*
X7594229Y-16003746D02*
X7584706Y-16022793D01*
X7584706Y-16022793D02*
X7584706Y-16060888D01*
X7584706Y-16060888D02*
X7594229Y-16079936D01*
X7594229Y-16079936D02*
X7603753Y-16089460D01*
X7603753Y-16089460D02*
X7622801Y-16098984D01*
X7622801Y-16098984D02*
X7660896Y-16098984D01*
X7660896Y-16098984D02*
X7679944Y-16089460D01*
X7679944Y-16089460D02*
X7689468Y-16079936D01*
X7689468Y-16079936D02*
X7698991Y-16060888D01*
X7698991Y-16060888D02*
X7698991Y-16022793D01*
X7698991Y-16022793D02*
X7689468Y-16003746D01*
X7689468Y-16003746D02*
X7679944Y-15994222D01*
X7679944Y-15994222D02*
X7660896Y-15984698D01*
X7937087Y-16098984D02*
X7937087Y-15898984D01*
X8022801Y-16098984D02*
X8022801Y-15994222D01*
X8022801Y-15994222D02*
X8013277Y-15975174D01*
X8013277Y-15975174D02*
X7994230Y-15965650D01*
X7994230Y-15965650D02*
X7965658Y-15965650D01*
X7965658Y-15965650D02*
X7946610Y-15975174D01*
X7946610Y-15975174D02*
X7937087Y-15984698D01*
X8146610Y-16098984D02*
X8127563Y-16089460D01*
X8127563Y-16089460D02*
X8118039Y-16079936D01*
X8118039Y-16079936D02*
X8108515Y-16060888D01*
X8108515Y-16060888D02*
X8108515Y-16003746D01*
X8108515Y-16003746D02*
X8118039Y-15984698D01*
X8118039Y-15984698D02*
X8127563Y-15975174D01*
X8127563Y-15975174D02*
X8146610Y-15965650D01*
X8146610Y-15965650D02*
X8175182Y-15965650D01*
X8175182Y-15965650D02*
X8194230Y-15975174D01*
X8194230Y-15975174D02*
X8203753Y-15984698D01*
X8203753Y-15984698D02*
X8213277Y-16003746D01*
X8213277Y-16003746D02*
X8213277Y-16060888D01*
X8213277Y-16060888D02*
X8203753Y-16079936D01*
X8203753Y-16079936D02*
X8194230Y-16089460D01*
X8194230Y-16089460D02*
X8175182Y-16098984D01*
X8175182Y-16098984D02*
X8146610Y-16098984D01*
X8327563Y-16098984D02*
X8308515Y-16089460D01*
X8308515Y-16089460D02*
X8298991Y-16070412D01*
X8298991Y-16070412D02*
X8298991Y-15898984D01*
X8479944Y-16089460D02*
X8460896Y-16098984D01*
X8460896Y-16098984D02*
X8422801Y-16098984D01*
X8422801Y-16098984D02*
X8403753Y-16089460D01*
X8403753Y-16089460D02*
X8394230Y-16070412D01*
X8394230Y-16070412D02*
X8394230Y-15994222D01*
X8394230Y-15994222D02*
X8403753Y-15975174D01*
X8403753Y-15975174D02*
X8422801Y-15965650D01*
X8422801Y-15965650D02*
X8460896Y-15965650D01*
X8460896Y-15965650D02*
X8479944Y-15975174D01*
X8479944Y-15975174D02*
X8489468Y-15994222D01*
X8489468Y-15994222D02*
X8489468Y-16013269D01*
X8489468Y-16013269D02*
X8394230Y-16032317D01*
X8565658Y-16089460D02*
X8584706Y-16098984D01*
X8584706Y-16098984D02*
X8622801Y-16098984D01*
X8622801Y-16098984D02*
X8641849Y-16089460D01*
X8641849Y-16089460D02*
X8651373Y-16070412D01*
X8651373Y-16070412D02*
X8651373Y-16060888D01*
X8651373Y-16060888D02*
X8641849Y-16041841D01*
X8641849Y-16041841D02*
X8622801Y-16032317D01*
X8622801Y-16032317D02*
X8594230Y-16032317D01*
X8594230Y-16032317D02*
X8575182Y-16022793D01*
X8575182Y-16022793D02*
X8565658Y-16003746D01*
X8565658Y-16003746D02*
X8565658Y-15994222D01*
X8565658Y-15994222D02*
X8575182Y-15975174D01*
X8575182Y-15975174D02*
X8594230Y-15965650D01*
X8594230Y-15965650D02*
X8622801Y-15965650D01*
X8622801Y-15965650D02*
X8641849Y-15975174D01*
X8718039Y-16175174D02*
X8727563Y-16165650D01*
X8727563Y-16165650D02*
X8746611Y-16137079D01*
X8746611Y-16137079D02*
X8756134Y-16118031D01*
X8756134Y-16118031D02*
X8765658Y-16089460D01*
X8765658Y-16089460D02*
X8775182Y-16041841D01*
X8775182Y-16041841D02*
X8775182Y-16003746D01*
X8775182Y-16003746D02*
X8765658Y-15956127D01*
X8765658Y-15956127D02*
X8756134Y-15927555D01*
X8756134Y-15927555D02*
X8746611Y-15908508D01*
X8746611Y-15908508D02*
X8727563Y-15879936D01*
X8727563Y-15879936D02*
X8718039Y-15870412D01*
D12*
X3752500Y-16271500D02*
G75*
G02*
X3652500Y-16271500I-50000J0D01*
G01*
X3652500Y-16271500D02*
G75*
G02*
X3752500Y-16271500I50000J0D01*
G01*
D11*
X4118039Y-16362984D02*
X4003753Y-16362984D01*
X4060896Y-16362984D02*
X4060896Y-16162984D01*
X4060896Y-16162984D02*
X4041848Y-16191555D01*
X4041848Y-16191555D02*
X4022801Y-16210603D01*
X4022801Y-16210603D02*
X4003753Y-16220127D01*
X4203753Y-16343936D02*
X4213277Y-16353460D01*
X4213277Y-16353460D02*
X4203753Y-16362984D01*
X4203753Y-16362984D02*
X4194229Y-16353460D01*
X4194229Y-16353460D02*
X4203753Y-16343936D01*
X4203753Y-16343936D02*
X4203753Y-16362984D01*
X4337086Y-16162984D02*
X4356134Y-16162984D01*
X4356134Y-16162984D02*
X4375182Y-16172508D01*
X4375182Y-16172508D02*
X4384705Y-16182031D01*
X4384705Y-16182031D02*
X4394229Y-16201079D01*
X4394229Y-16201079D02*
X4403753Y-16239174D01*
X4403753Y-16239174D02*
X4403753Y-16286793D01*
X4403753Y-16286793D02*
X4394229Y-16324888D01*
X4394229Y-16324888D02*
X4384705Y-16343936D01*
X4384705Y-16343936D02*
X4375182Y-16353460D01*
X4375182Y-16353460D02*
X4356134Y-16362984D01*
X4356134Y-16362984D02*
X4337086Y-16362984D01*
X4337086Y-16362984D02*
X4318039Y-16353460D01*
X4318039Y-16353460D02*
X4308515Y-16343936D01*
X4308515Y-16343936D02*
X4298991Y-16324888D01*
X4298991Y-16324888D02*
X4289467Y-16286793D01*
X4289467Y-16286793D02*
X4289467Y-16239174D01*
X4289467Y-16239174D02*
X4298991Y-16201079D01*
X4298991Y-16201079D02*
X4308515Y-16182031D01*
X4308515Y-16182031D02*
X4318039Y-16172508D01*
X4318039Y-16172508D02*
X4337086Y-16162984D01*
X4527563Y-16162984D02*
X4546610Y-16162984D01*
X4546610Y-16162984D02*
X4565658Y-16172508D01*
X4565658Y-16172508D02*
X4575182Y-16182031D01*
X4575182Y-16182031D02*
X4584705Y-16201079D01*
X4584705Y-16201079D02*
X4594229Y-16239174D01*
X4594229Y-16239174D02*
X4594229Y-16286793D01*
X4594229Y-16286793D02*
X4584705Y-16324888D01*
X4584705Y-16324888D02*
X4575182Y-16343936D01*
X4575182Y-16343936D02*
X4565658Y-16353460D01*
X4565658Y-16353460D02*
X4546610Y-16362984D01*
X4546610Y-16362984D02*
X4527563Y-16362984D01*
X4527563Y-16362984D02*
X4508515Y-16353460D01*
X4508515Y-16353460D02*
X4498991Y-16343936D01*
X4498991Y-16343936D02*
X4489467Y-16324888D01*
X4489467Y-16324888D02*
X4479944Y-16286793D01*
X4479944Y-16286793D02*
X4479944Y-16239174D01*
X4479944Y-16239174D02*
X4489467Y-16201079D01*
X4489467Y-16201079D02*
X4498991Y-16182031D01*
X4498991Y-16182031D02*
X4508515Y-16172508D01*
X4508515Y-16172508D02*
X4527563Y-16162984D01*
X4718039Y-16162984D02*
X4737086Y-16162984D01*
X4737086Y-16162984D02*
X4756134Y-16172508D01*
X4756134Y-16172508D02*
X4765658Y-16182031D01*
X4765658Y-16182031D02*
X4775182Y-16201079D01*
X4775182Y-16201079D02*
X4784705Y-16239174D01*
X4784705Y-16239174D02*
X4784705Y-16286793D01*
X4784705Y-16286793D02*
X4775182Y-16324888D01*
X4775182Y-16324888D02*
X4765658Y-16343936D01*
X4765658Y-16343936D02*
X4756134Y-16353460D01*
X4756134Y-16353460D02*
X4737086Y-16362984D01*
X4737086Y-16362984D02*
X4718039Y-16362984D01*
X4718039Y-16362984D02*
X4698991Y-16353460D01*
X4698991Y-16353460D02*
X4689467Y-16343936D01*
X4689467Y-16343936D02*
X4679944Y-16324888D01*
X4679944Y-16324888D02*
X4670420Y-16286793D01*
X4670420Y-16286793D02*
X4670420Y-16239174D01*
X4670420Y-16239174D02*
X4679944Y-16201079D01*
X4679944Y-16201079D02*
X4689467Y-16182031D01*
X4689467Y-16182031D02*
X4698991Y-16172508D01*
X4698991Y-16172508D02*
X4718039Y-16162984D01*
X4870420Y-16362984D02*
X4870420Y-16229650D01*
X4870420Y-16248698D02*
X4879944Y-16239174D01*
X4879944Y-16239174D02*
X4898991Y-16229650D01*
X4898991Y-16229650D02*
X4927563Y-16229650D01*
X4927563Y-16229650D02*
X4946610Y-16239174D01*
X4946610Y-16239174D02*
X4956134Y-16258222D01*
X4956134Y-16258222D02*
X4956134Y-16362984D01*
X4956134Y-16258222D02*
X4965658Y-16239174D01*
X4965658Y-16239174D02*
X4984705Y-16229650D01*
X4984705Y-16229650D02*
X5013277Y-16229650D01*
X5013277Y-16229650D02*
X5032325Y-16239174D01*
X5032325Y-16239174D02*
X5041848Y-16258222D01*
X5041848Y-16258222D02*
X5041848Y-16362984D01*
X5137086Y-16362984D02*
X5137086Y-16229650D01*
X5137086Y-16248698D02*
X5146610Y-16239174D01*
X5146610Y-16239174D02*
X5165658Y-16229650D01*
X5165658Y-16229650D02*
X5194229Y-16229650D01*
X5194229Y-16229650D02*
X5213277Y-16239174D01*
X5213277Y-16239174D02*
X5222801Y-16258222D01*
X5222801Y-16258222D02*
X5222801Y-16362984D01*
X5222801Y-16258222D02*
X5232325Y-16239174D01*
X5232325Y-16239174D02*
X5251372Y-16229650D01*
X5251372Y-16229650D02*
X5279944Y-16229650D01*
X5279944Y-16229650D02*
X5298991Y-16239174D01*
X5298991Y-16239174D02*
X5308515Y-16258222D01*
X5308515Y-16258222D02*
X5308515Y-16362984D01*
X5698991Y-16153460D02*
X5527563Y-16410603D01*
X5956134Y-16162984D02*
X5975182Y-16162984D01*
X5975182Y-16162984D02*
X5994229Y-16172508D01*
X5994229Y-16172508D02*
X6003753Y-16182031D01*
X6003753Y-16182031D02*
X6013277Y-16201079D01*
X6013277Y-16201079D02*
X6022801Y-16239174D01*
X6022801Y-16239174D02*
X6022801Y-16286793D01*
X6022801Y-16286793D02*
X6013277Y-16324888D01*
X6013277Y-16324888D02*
X6003753Y-16343936D01*
X6003753Y-16343936D02*
X5994229Y-16353460D01*
X5994229Y-16353460D02*
X5975182Y-16362984D01*
X5975182Y-16362984D02*
X5956134Y-16362984D01*
X5956134Y-16362984D02*
X5937086Y-16353460D01*
X5937086Y-16353460D02*
X5927563Y-16343936D01*
X5927563Y-16343936D02*
X5918039Y-16324888D01*
X5918039Y-16324888D02*
X5908515Y-16286793D01*
X5908515Y-16286793D02*
X5908515Y-16239174D01*
X5908515Y-16239174D02*
X5918039Y-16201079D01*
X5918039Y-16201079D02*
X5927563Y-16182031D01*
X5927563Y-16182031D02*
X5937086Y-16172508D01*
X5937086Y-16172508D02*
X5956134Y-16162984D01*
X6108515Y-16343936D02*
X6118039Y-16353460D01*
X6118039Y-16353460D02*
X6108515Y-16362984D01*
X6108515Y-16362984D02*
X6098991Y-16353460D01*
X6098991Y-16353460D02*
X6108515Y-16343936D01*
X6108515Y-16343936D02*
X6108515Y-16362984D01*
X6241848Y-16162984D02*
X6260896Y-16162984D01*
X6260896Y-16162984D02*
X6279944Y-16172508D01*
X6279944Y-16172508D02*
X6289467Y-16182031D01*
X6289467Y-16182031D02*
X6298991Y-16201079D01*
X6298991Y-16201079D02*
X6308515Y-16239174D01*
X6308515Y-16239174D02*
X6308515Y-16286793D01*
X6308515Y-16286793D02*
X6298991Y-16324888D01*
X6298991Y-16324888D02*
X6289467Y-16343936D01*
X6289467Y-16343936D02*
X6279944Y-16353460D01*
X6279944Y-16353460D02*
X6260896Y-16362984D01*
X6260896Y-16362984D02*
X6241848Y-16362984D01*
X6241848Y-16362984D02*
X6222801Y-16353460D01*
X6222801Y-16353460D02*
X6213277Y-16343936D01*
X6213277Y-16343936D02*
X6203753Y-16324888D01*
X6203753Y-16324888D02*
X6194229Y-16286793D01*
X6194229Y-16286793D02*
X6194229Y-16239174D01*
X6194229Y-16239174D02*
X6203753Y-16201079D01*
X6203753Y-16201079D02*
X6213277Y-16182031D01*
X6213277Y-16182031D02*
X6222801Y-16172508D01*
X6222801Y-16172508D02*
X6241848Y-16162984D01*
X6375182Y-16162984D02*
X6498991Y-16162984D01*
X6498991Y-16162984D02*
X6432325Y-16239174D01*
X6432325Y-16239174D02*
X6460896Y-16239174D01*
X6460896Y-16239174D02*
X6479944Y-16248698D01*
X6479944Y-16248698D02*
X6489467Y-16258222D01*
X6489467Y-16258222D02*
X6498991Y-16277269D01*
X6498991Y-16277269D02*
X6498991Y-16324888D01*
X6498991Y-16324888D02*
X6489467Y-16343936D01*
X6489467Y-16343936D02*
X6479944Y-16353460D01*
X6479944Y-16353460D02*
X6460896Y-16362984D01*
X6460896Y-16362984D02*
X6403753Y-16362984D01*
X6403753Y-16362984D02*
X6384706Y-16353460D01*
X6384706Y-16353460D02*
X6375182Y-16343936D01*
X6594229Y-16362984D02*
X6632325Y-16362984D01*
X6632325Y-16362984D02*
X6651372Y-16353460D01*
X6651372Y-16353460D02*
X6660896Y-16343936D01*
X6660896Y-16343936D02*
X6679944Y-16315365D01*
X6679944Y-16315365D02*
X6689467Y-16277269D01*
X6689467Y-16277269D02*
X6689467Y-16201079D01*
X6689467Y-16201079D02*
X6679944Y-16182031D01*
X6679944Y-16182031D02*
X6670420Y-16172508D01*
X6670420Y-16172508D02*
X6651372Y-16162984D01*
X6651372Y-16162984D02*
X6613277Y-16162984D01*
X6613277Y-16162984D02*
X6594229Y-16172508D01*
X6594229Y-16172508D02*
X6584706Y-16182031D01*
X6584706Y-16182031D02*
X6575182Y-16201079D01*
X6575182Y-16201079D02*
X6575182Y-16248698D01*
X6575182Y-16248698D02*
X6584706Y-16267746D01*
X6584706Y-16267746D02*
X6594229Y-16277269D01*
X6594229Y-16277269D02*
X6613277Y-16286793D01*
X6613277Y-16286793D02*
X6651372Y-16286793D01*
X6651372Y-16286793D02*
X6670420Y-16277269D01*
X6670420Y-16277269D02*
X6679944Y-16267746D01*
X6679944Y-16267746D02*
X6689467Y-16248698D01*
X6860896Y-16229650D02*
X6860896Y-16362984D01*
X6813277Y-16153460D02*
X6765658Y-16296317D01*
X6765658Y-16296317D02*
X6889467Y-16296317D01*
X6956134Y-16162984D02*
X6956134Y-16201079D01*
X7032325Y-16162984D02*
X7032325Y-16201079D01*
X7327563Y-16439174D02*
X7318039Y-16429650D01*
X7318039Y-16429650D02*
X7298991Y-16401079D01*
X7298991Y-16401079D02*
X7289468Y-16382031D01*
X7289468Y-16382031D02*
X7279944Y-16353460D01*
X7279944Y-16353460D02*
X7270420Y-16305841D01*
X7270420Y-16305841D02*
X7270420Y-16267746D01*
X7270420Y-16267746D02*
X7279944Y-16220127D01*
X7279944Y-16220127D02*
X7289468Y-16191555D01*
X7289468Y-16191555D02*
X7298991Y-16172508D01*
X7298991Y-16172508D02*
X7318039Y-16143936D01*
X7318039Y-16143936D02*
X7327563Y-16134412D01*
X7489468Y-16229650D02*
X7489468Y-16362984D01*
X7441848Y-16153460D02*
X7394229Y-16296317D01*
X7394229Y-16296317D02*
X7518039Y-16296317D01*
X7575182Y-16162984D02*
X7698991Y-16162984D01*
X7698991Y-16162984D02*
X7632325Y-16239174D01*
X7632325Y-16239174D02*
X7660896Y-16239174D01*
X7660896Y-16239174D02*
X7679944Y-16248698D01*
X7679944Y-16248698D02*
X7689468Y-16258222D01*
X7689468Y-16258222D02*
X7698991Y-16277269D01*
X7698991Y-16277269D02*
X7698991Y-16324888D01*
X7698991Y-16324888D02*
X7689468Y-16343936D01*
X7689468Y-16343936D02*
X7679944Y-16353460D01*
X7679944Y-16353460D02*
X7660896Y-16362984D01*
X7660896Y-16362984D02*
X7603753Y-16362984D01*
X7603753Y-16362984D02*
X7584706Y-16353460D01*
X7584706Y-16353460D02*
X7575182Y-16343936D01*
X7937087Y-16362984D02*
X7937087Y-16162984D01*
X8022801Y-16362984D02*
X8022801Y-16258222D01*
X8022801Y-16258222D02*
X8013277Y-16239174D01*
X8013277Y-16239174D02*
X7994230Y-16229650D01*
X7994230Y-16229650D02*
X7965658Y-16229650D01*
X7965658Y-16229650D02*
X7946610Y-16239174D01*
X7946610Y-16239174D02*
X7937087Y-16248698D01*
X8146610Y-16362984D02*
X8127563Y-16353460D01*
X8127563Y-16353460D02*
X8118039Y-16343936D01*
X8118039Y-16343936D02*
X8108515Y-16324888D01*
X8108515Y-16324888D02*
X8108515Y-16267746D01*
X8108515Y-16267746D02*
X8118039Y-16248698D01*
X8118039Y-16248698D02*
X8127563Y-16239174D01*
X8127563Y-16239174D02*
X8146610Y-16229650D01*
X8146610Y-16229650D02*
X8175182Y-16229650D01*
X8175182Y-16229650D02*
X8194230Y-16239174D01*
X8194230Y-16239174D02*
X8203753Y-16248698D01*
X8203753Y-16248698D02*
X8213277Y-16267746D01*
X8213277Y-16267746D02*
X8213277Y-16324888D01*
X8213277Y-16324888D02*
X8203753Y-16343936D01*
X8203753Y-16343936D02*
X8194230Y-16353460D01*
X8194230Y-16353460D02*
X8175182Y-16362984D01*
X8175182Y-16362984D02*
X8146610Y-16362984D01*
X8327563Y-16362984D02*
X8308515Y-16353460D01*
X8308515Y-16353460D02*
X8298991Y-16334412D01*
X8298991Y-16334412D02*
X8298991Y-16162984D01*
X8479944Y-16353460D02*
X8460896Y-16362984D01*
X8460896Y-16362984D02*
X8422801Y-16362984D01*
X8422801Y-16362984D02*
X8403753Y-16353460D01*
X8403753Y-16353460D02*
X8394230Y-16334412D01*
X8394230Y-16334412D02*
X8394230Y-16258222D01*
X8394230Y-16258222D02*
X8403753Y-16239174D01*
X8403753Y-16239174D02*
X8422801Y-16229650D01*
X8422801Y-16229650D02*
X8460896Y-16229650D01*
X8460896Y-16229650D02*
X8479944Y-16239174D01*
X8479944Y-16239174D02*
X8489468Y-16258222D01*
X8489468Y-16258222D02*
X8489468Y-16277269D01*
X8489468Y-16277269D02*
X8394230Y-16296317D01*
X8565658Y-16353460D02*
X8584706Y-16362984D01*
X8584706Y-16362984D02*
X8622801Y-16362984D01*
X8622801Y-16362984D02*
X8641849Y-16353460D01*
X8641849Y-16353460D02*
X8651373Y-16334412D01*
X8651373Y-16334412D02*
X8651373Y-16324888D01*
X8651373Y-16324888D02*
X8641849Y-16305841D01*
X8641849Y-16305841D02*
X8622801Y-16296317D01*
X8622801Y-16296317D02*
X8594230Y-16296317D01*
X8594230Y-16296317D02*
X8575182Y-16286793D01*
X8575182Y-16286793D02*
X8565658Y-16267746D01*
X8565658Y-16267746D02*
X8565658Y-16258222D01*
X8565658Y-16258222D02*
X8575182Y-16239174D01*
X8575182Y-16239174D02*
X8594230Y-16229650D01*
X8594230Y-16229650D02*
X8622801Y-16229650D01*
X8622801Y-16229650D02*
X8641849Y-16239174D01*
X8718039Y-16439174D02*
X8727563Y-16429650D01*
X8727563Y-16429650D02*
X8746611Y-16401079D01*
X8746611Y-16401079D02*
X8756134Y-16382031D01*
X8756134Y-16382031D02*
X8765658Y-16353460D01*
X8765658Y-16353460D02*
X8775182Y-16305841D01*
X8775182Y-16305841D02*
X8775182Y-16267746D01*
X8775182Y-16267746D02*
X8765658Y-16220127D01*
X8765658Y-16220127D02*
X8756134Y-16191555D01*
X8756134Y-16191555D02*
X8746611Y-16172508D01*
X8746611Y-16172508D02*
X8727563Y-16143936D01*
X8727563Y-16143936D02*
X8718039Y-16134412D01*
D13*
X3701500Y-16484500D02*
X3701500Y-16586500D01*
X3650500Y-16535500D02*
X3752500Y-16535500D01*
D11*
X4118039Y-16626984D02*
X4003753Y-16626984D01*
X4060896Y-16626984D02*
X4060896Y-16426984D01*
X4060896Y-16426984D02*
X4041848Y-16455555D01*
X4041848Y-16455555D02*
X4022801Y-16474603D01*
X4022801Y-16474603D02*
X4003753Y-16484127D01*
X4203753Y-16607936D02*
X4213277Y-16617460D01*
X4213277Y-16617460D02*
X4203753Y-16626984D01*
X4203753Y-16626984D02*
X4194229Y-16617460D01*
X4194229Y-16617460D02*
X4203753Y-16607936D01*
X4203753Y-16607936D02*
X4203753Y-16626984D01*
X4337086Y-16426984D02*
X4356134Y-16426984D01*
X4356134Y-16426984D02*
X4375182Y-16436508D01*
X4375182Y-16436508D02*
X4384705Y-16446031D01*
X4384705Y-16446031D02*
X4394229Y-16465079D01*
X4394229Y-16465079D02*
X4403753Y-16503174D01*
X4403753Y-16503174D02*
X4403753Y-16550793D01*
X4403753Y-16550793D02*
X4394229Y-16588888D01*
X4394229Y-16588888D02*
X4384705Y-16607936D01*
X4384705Y-16607936D02*
X4375182Y-16617460D01*
X4375182Y-16617460D02*
X4356134Y-16626984D01*
X4356134Y-16626984D02*
X4337086Y-16626984D01*
X4337086Y-16626984D02*
X4318039Y-16617460D01*
X4318039Y-16617460D02*
X4308515Y-16607936D01*
X4308515Y-16607936D02*
X4298991Y-16588888D01*
X4298991Y-16588888D02*
X4289467Y-16550793D01*
X4289467Y-16550793D02*
X4289467Y-16503174D01*
X4289467Y-16503174D02*
X4298991Y-16465079D01*
X4298991Y-16465079D02*
X4308515Y-16446031D01*
X4308515Y-16446031D02*
X4318039Y-16436508D01*
X4318039Y-16436508D02*
X4337086Y-16426984D01*
X4479944Y-16446031D02*
X4489467Y-16436508D01*
X4489467Y-16436508D02*
X4508515Y-16426984D01*
X4508515Y-16426984D02*
X4556134Y-16426984D01*
X4556134Y-16426984D02*
X4575182Y-16436508D01*
X4575182Y-16436508D02*
X4584705Y-16446031D01*
X4584705Y-16446031D02*
X4594229Y-16465079D01*
X4594229Y-16465079D02*
X4594229Y-16484127D01*
X4594229Y-16484127D02*
X4584705Y-16512698D01*
X4584705Y-16512698D02*
X4470420Y-16626984D01*
X4470420Y-16626984D02*
X4594229Y-16626984D01*
X4718039Y-16426984D02*
X4737086Y-16426984D01*
X4737086Y-16426984D02*
X4756134Y-16436508D01*
X4756134Y-16436508D02*
X4765658Y-16446031D01*
X4765658Y-16446031D02*
X4775182Y-16465079D01*
X4775182Y-16465079D02*
X4784705Y-16503174D01*
X4784705Y-16503174D02*
X4784705Y-16550793D01*
X4784705Y-16550793D02*
X4775182Y-16588888D01*
X4775182Y-16588888D02*
X4765658Y-16607936D01*
X4765658Y-16607936D02*
X4756134Y-16617460D01*
X4756134Y-16617460D02*
X4737086Y-16626984D01*
X4737086Y-16626984D02*
X4718039Y-16626984D01*
X4718039Y-16626984D02*
X4698991Y-16617460D01*
X4698991Y-16617460D02*
X4689467Y-16607936D01*
X4689467Y-16607936D02*
X4679944Y-16588888D01*
X4679944Y-16588888D02*
X4670420Y-16550793D01*
X4670420Y-16550793D02*
X4670420Y-16503174D01*
X4670420Y-16503174D02*
X4679944Y-16465079D01*
X4679944Y-16465079D02*
X4689467Y-16446031D01*
X4689467Y-16446031D02*
X4698991Y-16436508D01*
X4698991Y-16436508D02*
X4718039Y-16426984D01*
X4870420Y-16626984D02*
X4870420Y-16493650D01*
X4870420Y-16512698D02*
X4879944Y-16503174D01*
X4879944Y-16503174D02*
X4898991Y-16493650D01*
X4898991Y-16493650D02*
X4927563Y-16493650D01*
X4927563Y-16493650D02*
X4946610Y-16503174D01*
X4946610Y-16503174D02*
X4956134Y-16522222D01*
X4956134Y-16522222D02*
X4956134Y-16626984D01*
X4956134Y-16522222D02*
X4965658Y-16503174D01*
X4965658Y-16503174D02*
X4984705Y-16493650D01*
X4984705Y-16493650D02*
X5013277Y-16493650D01*
X5013277Y-16493650D02*
X5032325Y-16503174D01*
X5032325Y-16503174D02*
X5041848Y-16522222D01*
X5041848Y-16522222D02*
X5041848Y-16626984D01*
X5137086Y-16626984D02*
X5137086Y-16493650D01*
X5137086Y-16512698D02*
X5146610Y-16503174D01*
X5146610Y-16503174D02*
X5165658Y-16493650D01*
X5165658Y-16493650D02*
X5194229Y-16493650D01*
X5194229Y-16493650D02*
X5213277Y-16503174D01*
X5213277Y-16503174D02*
X5222801Y-16522222D01*
X5222801Y-16522222D02*
X5222801Y-16626984D01*
X5222801Y-16522222D02*
X5232325Y-16503174D01*
X5232325Y-16503174D02*
X5251372Y-16493650D01*
X5251372Y-16493650D02*
X5279944Y-16493650D01*
X5279944Y-16493650D02*
X5298991Y-16503174D01*
X5298991Y-16503174D02*
X5308515Y-16522222D01*
X5308515Y-16522222D02*
X5308515Y-16626984D01*
X5698991Y-16417460D02*
X5527563Y-16674603D01*
X5956134Y-16426984D02*
X5975182Y-16426984D01*
X5975182Y-16426984D02*
X5994229Y-16436508D01*
X5994229Y-16436508D02*
X6003753Y-16446031D01*
X6003753Y-16446031D02*
X6013277Y-16465079D01*
X6013277Y-16465079D02*
X6022801Y-16503174D01*
X6022801Y-16503174D02*
X6022801Y-16550793D01*
X6022801Y-16550793D02*
X6013277Y-16588888D01*
X6013277Y-16588888D02*
X6003753Y-16607936D01*
X6003753Y-16607936D02*
X5994229Y-16617460D01*
X5994229Y-16617460D02*
X5975182Y-16626984D01*
X5975182Y-16626984D02*
X5956134Y-16626984D01*
X5956134Y-16626984D02*
X5937086Y-16617460D01*
X5937086Y-16617460D02*
X5927563Y-16607936D01*
X5927563Y-16607936D02*
X5918039Y-16588888D01*
X5918039Y-16588888D02*
X5908515Y-16550793D01*
X5908515Y-16550793D02*
X5908515Y-16503174D01*
X5908515Y-16503174D02*
X5918039Y-16465079D01*
X5918039Y-16465079D02*
X5927563Y-16446031D01*
X5927563Y-16446031D02*
X5937086Y-16436508D01*
X5937086Y-16436508D02*
X5956134Y-16426984D01*
X6108515Y-16607936D02*
X6118039Y-16617460D01*
X6118039Y-16617460D02*
X6108515Y-16626984D01*
X6108515Y-16626984D02*
X6098991Y-16617460D01*
X6098991Y-16617460D02*
X6108515Y-16607936D01*
X6108515Y-16607936D02*
X6108515Y-16626984D01*
X6241848Y-16426984D02*
X6260896Y-16426984D01*
X6260896Y-16426984D02*
X6279944Y-16436508D01*
X6279944Y-16436508D02*
X6289467Y-16446031D01*
X6289467Y-16446031D02*
X6298991Y-16465079D01*
X6298991Y-16465079D02*
X6308515Y-16503174D01*
X6308515Y-16503174D02*
X6308515Y-16550793D01*
X6308515Y-16550793D02*
X6298991Y-16588888D01*
X6298991Y-16588888D02*
X6289467Y-16607936D01*
X6289467Y-16607936D02*
X6279944Y-16617460D01*
X6279944Y-16617460D02*
X6260896Y-16626984D01*
X6260896Y-16626984D02*
X6241848Y-16626984D01*
X6241848Y-16626984D02*
X6222801Y-16617460D01*
X6222801Y-16617460D02*
X6213277Y-16607936D01*
X6213277Y-16607936D02*
X6203753Y-16588888D01*
X6203753Y-16588888D02*
X6194229Y-16550793D01*
X6194229Y-16550793D02*
X6194229Y-16503174D01*
X6194229Y-16503174D02*
X6203753Y-16465079D01*
X6203753Y-16465079D02*
X6213277Y-16446031D01*
X6213277Y-16446031D02*
X6222801Y-16436508D01*
X6222801Y-16436508D02*
X6241848Y-16426984D01*
X6479944Y-16493650D02*
X6479944Y-16626984D01*
X6432325Y-16417460D02*
X6384706Y-16560317D01*
X6384706Y-16560317D02*
X6508515Y-16560317D01*
X6622801Y-16426984D02*
X6641848Y-16426984D01*
X6641848Y-16426984D02*
X6660896Y-16436508D01*
X6660896Y-16436508D02*
X6670420Y-16446031D01*
X6670420Y-16446031D02*
X6679944Y-16465079D01*
X6679944Y-16465079D02*
X6689467Y-16503174D01*
X6689467Y-16503174D02*
X6689467Y-16550793D01*
X6689467Y-16550793D02*
X6679944Y-16588888D01*
X6679944Y-16588888D02*
X6670420Y-16607936D01*
X6670420Y-16607936D02*
X6660896Y-16617460D01*
X6660896Y-16617460D02*
X6641848Y-16626984D01*
X6641848Y-16626984D02*
X6622801Y-16626984D01*
X6622801Y-16626984D02*
X6603753Y-16617460D01*
X6603753Y-16617460D02*
X6594229Y-16607936D01*
X6594229Y-16607936D02*
X6584706Y-16588888D01*
X6584706Y-16588888D02*
X6575182Y-16550793D01*
X6575182Y-16550793D02*
X6575182Y-16503174D01*
X6575182Y-16503174D02*
X6584706Y-16465079D01*
X6584706Y-16465079D02*
X6594229Y-16446031D01*
X6594229Y-16446031D02*
X6603753Y-16436508D01*
X6603753Y-16436508D02*
X6622801Y-16426984D01*
X6765658Y-16446031D02*
X6775182Y-16436508D01*
X6775182Y-16436508D02*
X6794229Y-16426984D01*
X6794229Y-16426984D02*
X6841848Y-16426984D01*
X6841848Y-16426984D02*
X6860896Y-16436508D01*
X6860896Y-16436508D02*
X6870420Y-16446031D01*
X6870420Y-16446031D02*
X6879944Y-16465079D01*
X6879944Y-16465079D02*
X6879944Y-16484127D01*
X6879944Y-16484127D02*
X6870420Y-16512698D01*
X6870420Y-16512698D02*
X6756134Y-16626984D01*
X6756134Y-16626984D02*
X6879944Y-16626984D01*
X6956134Y-16426984D02*
X6956134Y-16465079D01*
X7032325Y-16426984D02*
X7032325Y-16465079D01*
X7327563Y-16703174D02*
X7318039Y-16693650D01*
X7318039Y-16693650D02*
X7298991Y-16665079D01*
X7298991Y-16665079D02*
X7289468Y-16646031D01*
X7289468Y-16646031D02*
X7279944Y-16617460D01*
X7279944Y-16617460D02*
X7270420Y-16569841D01*
X7270420Y-16569841D02*
X7270420Y-16531746D01*
X7270420Y-16531746D02*
X7279944Y-16484127D01*
X7279944Y-16484127D02*
X7289468Y-16455555D01*
X7289468Y-16455555D02*
X7298991Y-16436508D01*
X7298991Y-16436508D02*
X7318039Y-16407936D01*
X7318039Y-16407936D02*
X7327563Y-16398412D01*
X7489468Y-16493650D02*
X7489468Y-16626984D01*
X7441848Y-16417460D02*
X7394229Y-16560317D01*
X7394229Y-16560317D02*
X7518039Y-16560317D01*
X7575182Y-16426984D02*
X7698991Y-16426984D01*
X7698991Y-16426984D02*
X7632325Y-16503174D01*
X7632325Y-16503174D02*
X7660896Y-16503174D01*
X7660896Y-16503174D02*
X7679944Y-16512698D01*
X7679944Y-16512698D02*
X7689468Y-16522222D01*
X7689468Y-16522222D02*
X7698991Y-16541269D01*
X7698991Y-16541269D02*
X7698991Y-16588888D01*
X7698991Y-16588888D02*
X7689468Y-16607936D01*
X7689468Y-16607936D02*
X7679944Y-16617460D01*
X7679944Y-16617460D02*
X7660896Y-16626984D01*
X7660896Y-16626984D02*
X7603753Y-16626984D01*
X7603753Y-16626984D02*
X7584706Y-16617460D01*
X7584706Y-16617460D02*
X7575182Y-16607936D01*
X7937087Y-16626984D02*
X7937087Y-16426984D01*
X8022801Y-16626984D02*
X8022801Y-16522222D01*
X8022801Y-16522222D02*
X8013277Y-16503174D01*
X8013277Y-16503174D02*
X7994230Y-16493650D01*
X7994230Y-16493650D02*
X7965658Y-16493650D01*
X7965658Y-16493650D02*
X7946610Y-16503174D01*
X7946610Y-16503174D02*
X7937087Y-16512698D01*
X8146610Y-16626984D02*
X8127563Y-16617460D01*
X8127563Y-16617460D02*
X8118039Y-16607936D01*
X8118039Y-16607936D02*
X8108515Y-16588888D01*
X8108515Y-16588888D02*
X8108515Y-16531746D01*
X8108515Y-16531746D02*
X8118039Y-16512698D01*
X8118039Y-16512698D02*
X8127563Y-16503174D01*
X8127563Y-16503174D02*
X8146610Y-16493650D01*
X8146610Y-16493650D02*
X8175182Y-16493650D01*
X8175182Y-16493650D02*
X8194230Y-16503174D01*
X8194230Y-16503174D02*
X8203753Y-16512698D01*
X8203753Y-16512698D02*
X8213277Y-16531746D01*
X8213277Y-16531746D02*
X8213277Y-16588888D01*
X8213277Y-16588888D02*
X8203753Y-16607936D01*
X8203753Y-16607936D02*
X8194230Y-16617460D01*
X8194230Y-16617460D02*
X8175182Y-16626984D01*
X8175182Y-16626984D02*
X8146610Y-16626984D01*
X8327563Y-16626984D02*
X8308515Y-16617460D01*
X8308515Y-16617460D02*
X8298991Y-16598412D01*
X8298991Y-16598412D02*
X8298991Y-16426984D01*
X8479944Y-16617460D02*
X8460896Y-16626984D01*
X8460896Y-16626984D02*
X8422801Y-16626984D01*
X8422801Y-16626984D02*
X8403753Y-16617460D01*
X8403753Y-16617460D02*
X8394230Y-16598412D01*
X8394230Y-16598412D02*
X8394230Y-16522222D01*
X8394230Y-16522222D02*
X8403753Y-16503174D01*
X8403753Y-16503174D02*
X8422801Y-16493650D01*
X8422801Y-16493650D02*
X8460896Y-16493650D01*
X8460896Y-16493650D02*
X8479944Y-16503174D01*
X8479944Y-16503174D02*
X8489468Y-16522222D01*
X8489468Y-16522222D02*
X8489468Y-16541269D01*
X8489468Y-16541269D02*
X8394230Y-16560317D01*
X8565658Y-16617460D02*
X8584706Y-16626984D01*
X8584706Y-16626984D02*
X8622801Y-16626984D01*
X8622801Y-16626984D02*
X8641849Y-16617460D01*
X8641849Y-16617460D02*
X8651373Y-16598412D01*
X8651373Y-16598412D02*
X8651373Y-16588888D01*
X8651373Y-16588888D02*
X8641849Y-16569841D01*
X8641849Y-16569841D02*
X8622801Y-16560317D01*
X8622801Y-16560317D02*
X8594230Y-16560317D01*
X8594230Y-16560317D02*
X8575182Y-16550793D01*
X8575182Y-16550793D02*
X8565658Y-16531746D01*
X8565658Y-16531746D02*
X8565658Y-16522222D01*
X8565658Y-16522222D02*
X8575182Y-16503174D01*
X8575182Y-16503174D02*
X8594230Y-16493650D01*
X8594230Y-16493650D02*
X8622801Y-16493650D01*
X8622801Y-16493650D02*
X8641849Y-16503174D01*
X8718039Y-16703174D02*
X8727563Y-16693650D01*
X8727563Y-16693650D02*
X8746611Y-16665079D01*
X8746611Y-16665079D02*
X8756134Y-16646031D01*
X8756134Y-16646031D02*
X8765658Y-16617460D01*
X8765658Y-16617460D02*
X8775182Y-16569841D01*
X8775182Y-16569841D02*
X8775182Y-16531746D01*
X8775182Y-16531746D02*
X8765658Y-16484127D01*
X8765658Y-16484127D02*
X8756134Y-16455555D01*
X8756134Y-16455555D02*
X8746611Y-16436508D01*
X8746611Y-16436508D02*
X8727563Y-16407936D01*
X8727563Y-16407936D02*
X8718039Y-16398412D01*
D14*
X3726140Y-16863140D02*
X3726140Y-16735860D01*
X3598860Y-16735860D01*
X3598860Y-16863140D01*
X3726140Y-16863140D01*
D11*
X4118039Y-16890984D02*
X4003753Y-16890984D01*
X4060896Y-16890984D02*
X4060896Y-16690984D01*
X4060896Y-16690984D02*
X4041848Y-16719555D01*
X4041848Y-16719555D02*
X4022801Y-16738603D01*
X4022801Y-16738603D02*
X4003753Y-16748127D01*
X4203753Y-16871936D02*
X4213277Y-16881460D01*
X4213277Y-16881460D02*
X4203753Y-16890984D01*
X4203753Y-16890984D02*
X4194229Y-16881460D01*
X4194229Y-16881460D02*
X4203753Y-16871936D01*
X4203753Y-16871936D02*
X4203753Y-16890984D01*
X4327563Y-16776698D02*
X4308515Y-16767174D01*
X4308515Y-16767174D02*
X4298991Y-16757650D01*
X4298991Y-16757650D02*
X4289467Y-16738603D01*
X4289467Y-16738603D02*
X4289467Y-16729079D01*
X4289467Y-16729079D02*
X4298991Y-16710031D01*
X4298991Y-16710031D02*
X4308515Y-16700508D01*
X4308515Y-16700508D02*
X4327563Y-16690984D01*
X4327563Y-16690984D02*
X4365658Y-16690984D01*
X4365658Y-16690984D02*
X4384705Y-16700508D01*
X4384705Y-16700508D02*
X4394229Y-16710031D01*
X4394229Y-16710031D02*
X4403753Y-16729079D01*
X4403753Y-16729079D02*
X4403753Y-16738603D01*
X4403753Y-16738603D02*
X4394229Y-16757650D01*
X4394229Y-16757650D02*
X4384705Y-16767174D01*
X4384705Y-16767174D02*
X4365658Y-16776698D01*
X4365658Y-16776698D02*
X4327563Y-16776698D01*
X4327563Y-16776698D02*
X4308515Y-16786222D01*
X4308515Y-16786222D02*
X4298991Y-16795746D01*
X4298991Y-16795746D02*
X4289467Y-16814793D01*
X4289467Y-16814793D02*
X4289467Y-16852889D01*
X4289467Y-16852889D02*
X4298991Y-16871936D01*
X4298991Y-16871936D02*
X4308515Y-16881460D01*
X4308515Y-16881460D02*
X4327563Y-16890984D01*
X4327563Y-16890984D02*
X4365658Y-16890984D01*
X4365658Y-16890984D02*
X4384705Y-16881460D01*
X4384705Y-16881460D02*
X4394229Y-16871936D01*
X4394229Y-16871936D02*
X4403753Y-16852889D01*
X4403753Y-16852889D02*
X4403753Y-16814793D01*
X4403753Y-16814793D02*
X4394229Y-16795746D01*
X4394229Y-16795746D02*
X4384705Y-16786222D01*
X4384705Y-16786222D02*
X4365658Y-16776698D01*
X4527563Y-16690984D02*
X4546610Y-16690984D01*
X4546610Y-16690984D02*
X4565658Y-16700508D01*
X4565658Y-16700508D02*
X4575182Y-16710031D01*
X4575182Y-16710031D02*
X4584705Y-16729079D01*
X4584705Y-16729079D02*
X4594229Y-16767174D01*
X4594229Y-16767174D02*
X4594229Y-16814793D01*
X4594229Y-16814793D02*
X4584705Y-16852889D01*
X4584705Y-16852889D02*
X4575182Y-16871936D01*
X4575182Y-16871936D02*
X4565658Y-16881460D01*
X4565658Y-16881460D02*
X4546610Y-16890984D01*
X4546610Y-16890984D02*
X4527563Y-16890984D01*
X4527563Y-16890984D02*
X4508515Y-16881460D01*
X4508515Y-16881460D02*
X4498991Y-16871936D01*
X4498991Y-16871936D02*
X4489467Y-16852889D01*
X4489467Y-16852889D02*
X4479944Y-16814793D01*
X4479944Y-16814793D02*
X4479944Y-16767174D01*
X4479944Y-16767174D02*
X4489467Y-16729079D01*
X4489467Y-16729079D02*
X4498991Y-16710031D01*
X4498991Y-16710031D02*
X4508515Y-16700508D01*
X4508515Y-16700508D02*
X4527563Y-16690984D01*
X4718039Y-16690984D02*
X4737086Y-16690984D01*
X4737086Y-16690984D02*
X4756134Y-16700508D01*
X4756134Y-16700508D02*
X4765658Y-16710031D01*
X4765658Y-16710031D02*
X4775182Y-16729079D01*
X4775182Y-16729079D02*
X4784705Y-16767174D01*
X4784705Y-16767174D02*
X4784705Y-16814793D01*
X4784705Y-16814793D02*
X4775182Y-16852889D01*
X4775182Y-16852889D02*
X4765658Y-16871936D01*
X4765658Y-16871936D02*
X4756134Y-16881460D01*
X4756134Y-16881460D02*
X4737086Y-16890984D01*
X4737086Y-16890984D02*
X4718039Y-16890984D01*
X4718039Y-16890984D02*
X4698991Y-16881460D01*
X4698991Y-16881460D02*
X4689467Y-16871936D01*
X4689467Y-16871936D02*
X4679944Y-16852889D01*
X4679944Y-16852889D02*
X4670420Y-16814793D01*
X4670420Y-16814793D02*
X4670420Y-16767174D01*
X4670420Y-16767174D02*
X4679944Y-16729079D01*
X4679944Y-16729079D02*
X4689467Y-16710031D01*
X4689467Y-16710031D02*
X4698991Y-16700508D01*
X4698991Y-16700508D02*
X4718039Y-16690984D01*
X4870420Y-16890984D02*
X4870420Y-16757650D01*
X4870420Y-16776698D02*
X4879944Y-16767174D01*
X4879944Y-16767174D02*
X4898991Y-16757650D01*
X4898991Y-16757650D02*
X4927563Y-16757650D01*
X4927563Y-16757650D02*
X4946610Y-16767174D01*
X4946610Y-16767174D02*
X4956134Y-16786222D01*
X4956134Y-16786222D02*
X4956134Y-16890984D01*
X4956134Y-16786222D02*
X4965658Y-16767174D01*
X4965658Y-16767174D02*
X4984705Y-16757650D01*
X4984705Y-16757650D02*
X5013277Y-16757650D01*
X5013277Y-16757650D02*
X5032325Y-16767174D01*
X5032325Y-16767174D02*
X5041848Y-16786222D01*
X5041848Y-16786222D02*
X5041848Y-16890984D01*
X5137086Y-16890984D02*
X5137086Y-16757650D01*
X5137086Y-16776698D02*
X5146610Y-16767174D01*
X5146610Y-16767174D02*
X5165658Y-16757650D01*
X5165658Y-16757650D02*
X5194229Y-16757650D01*
X5194229Y-16757650D02*
X5213277Y-16767174D01*
X5213277Y-16767174D02*
X5222801Y-16786222D01*
X5222801Y-16786222D02*
X5222801Y-16890984D01*
X5222801Y-16786222D02*
X5232325Y-16767174D01*
X5232325Y-16767174D02*
X5251372Y-16757650D01*
X5251372Y-16757650D02*
X5279944Y-16757650D01*
X5279944Y-16757650D02*
X5298991Y-16767174D01*
X5298991Y-16767174D02*
X5308515Y-16786222D01*
X5308515Y-16786222D02*
X5308515Y-16890984D01*
X5698991Y-16681460D02*
X5527563Y-16938603D01*
X5956134Y-16690984D02*
X5975182Y-16690984D01*
X5975182Y-16690984D02*
X5994229Y-16700508D01*
X5994229Y-16700508D02*
X6003753Y-16710031D01*
X6003753Y-16710031D02*
X6013277Y-16729079D01*
X6013277Y-16729079D02*
X6022801Y-16767174D01*
X6022801Y-16767174D02*
X6022801Y-16814793D01*
X6022801Y-16814793D02*
X6013277Y-16852889D01*
X6013277Y-16852889D02*
X6003753Y-16871936D01*
X6003753Y-16871936D02*
X5994229Y-16881460D01*
X5994229Y-16881460D02*
X5975182Y-16890984D01*
X5975182Y-16890984D02*
X5956134Y-16890984D01*
X5956134Y-16890984D02*
X5937086Y-16881460D01*
X5937086Y-16881460D02*
X5927563Y-16871936D01*
X5927563Y-16871936D02*
X5918039Y-16852889D01*
X5918039Y-16852889D02*
X5908515Y-16814793D01*
X5908515Y-16814793D02*
X5908515Y-16767174D01*
X5908515Y-16767174D02*
X5918039Y-16729079D01*
X5918039Y-16729079D02*
X5927563Y-16710031D01*
X5927563Y-16710031D02*
X5937086Y-16700508D01*
X5937086Y-16700508D02*
X5956134Y-16690984D01*
X6108515Y-16871936D02*
X6118039Y-16881460D01*
X6118039Y-16881460D02*
X6108515Y-16890984D01*
X6108515Y-16890984D02*
X6098991Y-16881460D01*
X6098991Y-16881460D02*
X6108515Y-16871936D01*
X6108515Y-16871936D02*
X6108515Y-16890984D01*
X6241848Y-16690984D02*
X6260896Y-16690984D01*
X6260896Y-16690984D02*
X6279944Y-16700508D01*
X6279944Y-16700508D02*
X6289467Y-16710031D01*
X6289467Y-16710031D02*
X6298991Y-16729079D01*
X6298991Y-16729079D02*
X6308515Y-16767174D01*
X6308515Y-16767174D02*
X6308515Y-16814793D01*
X6308515Y-16814793D02*
X6298991Y-16852889D01*
X6298991Y-16852889D02*
X6289467Y-16871936D01*
X6289467Y-16871936D02*
X6279944Y-16881460D01*
X6279944Y-16881460D02*
X6260896Y-16890984D01*
X6260896Y-16890984D02*
X6241848Y-16890984D01*
X6241848Y-16890984D02*
X6222801Y-16881460D01*
X6222801Y-16881460D02*
X6213277Y-16871936D01*
X6213277Y-16871936D02*
X6203753Y-16852889D01*
X6203753Y-16852889D02*
X6194229Y-16814793D01*
X6194229Y-16814793D02*
X6194229Y-16767174D01*
X6194229Y-16767174D02*
X6203753Y-16729079D01*
X6203753Y-16729079D02*
X6213277Y-16710031D01*
X6213277Y-16710031D02*
X6222801Y-16700508D01*
X6222801Y-16700508D02*
X6241848Y-16690984D01*
X6375182Y-16690984D02*
X6508515Y-16690984D01*
X6508515Y-16690984D02*
X6422801Y-16890984D01*
X6622801Y-16690984D02*
X6641848Y-16690984D01*
X6641848Y-16690984D02*
X6660896Y-16700508D01*
X6660896Y-16700508D02*
X6670420Y-16710031D01*
X6670420Y-16710031D02*
X6679944Y-16729079D01*
X6679944Y-16729079D02*
X6689467Y-16767174D01*
X6689467Y-16767174D02*
X6689467Y-16814793D01*
X6689467Y-16814793D02*
X6679944Y-16852889D01*
X6679944Y-16852889D02*
X6670420Y-16871936D01*
X6670420Y-16871936D02*
X6660896Y-16881460D01*
X6660896Y-16881460D02*
X6641848Y-16890984D01*
X6641848Y-16890984D02*
X6622801Y-16890984D01*
X6622801Y-16890984D02*
X6603753Y-16881460D01*
X6603753Y-16881460D02*
X6594229Y-16871936D01*
X6594229Y-16871936D02*
X6584706Y-16852889D01*
X6584706Y-16852889D02*
X6575182Y-16814793D01*
X6575182Y-16814793D02*
X6575182Y-16767174D01*
X6575182Y-16767174D02*
X6584706Y-16729079D01*
X6584706Y-16729079D02*
X6594229Y-16710031D01*
X6594229Y-16710031D02*
X6603753Y-16700508D01*
X6603753Y-16700508D02*
X6622801Y-16690984D01*
X6784706Y-16890984D02*
X6822801Y-16890984D01*
X6822801Y-16890984D02*
X6841848Y-16881460D01*
X6841848Y-16881460D02*
X6851372Y-16871936D01*
X6851372Y-16871936D02*
X6870420Y-16843365D01*
X6870420Y-16843365D02*
X6879944Y-16805270D01*
X6879944Y-16805270D02*
X6879944Y-16729079D01*
X6879944Y-16729079D02*
X6870420Y-16710031D01*
X6870420Y-16710031D02*
X6860896Y-16700508D01*
X6860896Y-16700508D02*
X6841848Y-16690984D01*
X6841848Y-16690984D02*
X6803753Y-16690984D01*
X6803753Y-16690984D02*
X6784706Y-16700508D01*
X6784706Y-16700508D02*
X6775182Y-16710031D01*
X6775182Y-16710031D02*
X6765658Y-16729079D01*
X6765658Y-16729079D02*
X6765658Y-16776698D01*
X6765658Y-16776698D02*
X6775182Y-16795746D01*
X6775182Y-16795746D02*
X6784706Y-16805270D01*
X6784706Y-16805270D02*
X6803753Y-16814793D01*
X6803753Y-16814793D02*
X6841848Y-16814793D01*
X6841848Y-16814793D02*
X6860896Y-16805270D01*
X6860896Y-16805270D02*
X6870420Y-16795746D01*
X6870420Y-16795746D02*
X6879944Y-16776698D01*
X6956134Y-16690984D02*
X6956134Y-16729079D01*
X7032325Y-16690984D02*
X7032325Y-16729079D01*
X7327563Y-16967174D02*
X7318039Y-16957650D01*
X7318039Y-16957650D02*
X7298991Y-16929079D01*
X7298991Y-16929079D02*
X7289468Y-16910031D01*
X7289468Y-16910031D02*
X7279944Y-16881460D01*
X7279944Y-16881460D02*
X7270420Y-16833841D01*
X7270420Y-16833841D02*
X7270420Y-16795746D01*
X7270420Y-16795746D02*
X7279944Y-16748127D01*
X7279944Y-16748127D02*
X7289468Y-16719555D01*
X7289468Y-16719555D02*
X7298991Y-16700508D01*
X7298991Y-16700508D02*
X7318039Y-16671936D01*
X7318039Y-16671936D02*
X7327563Y-16662412D01*
X7441848Y-16690984D02*
X7460896Y-16690984D01*
X7460896Y-16690984D02*
X7479944Y-16700508D01*
X7479944Y-16700508D02*
X7489468Y-16710031D01*
X7489468Y-16710031D02*
X7498991Y-16729079D01*
X7498991Y-16729079D02*
X7508515Y-16767174D01*
X7508515Y-16767174D02*
X7508515Y-16814793D01*
X7508515Y-16814793D02*
X7498991Y-16852889D01*
X7498991Y-16852889D02*
X7489468Y-16871936D01*
X7489468Y-16871936D02*
X7479944Y-16881460D01*
X7479944Y-16881460D02*
X7460896Y-16890984D01*
X7460896Y-16890984D02*
X7441848Y-16890984D01*
X7441848Y-16890984D02*
X7422801Y-16881460D01*
X7422801Y-16881460D02*
X7413277Y-16871936D01*
X7413277Y-16871936D02*
X7403753Y-16852889D01*
X7403753Y-16852889D02*
X7394229Y-16814793D01*
X7394229Y-16814793D02*
X7394229Y-16767174D01*
X7394229Y-16767174D02*
X7403753Y-16729079D01*
X7403753Y-16729079D02*
X7413277Y-16710031D01*
X7413277Y-16710031D02*
X7422801Y-16700508D01*
X7422801Y-16700508D02*
X7441848Y-16690984D01*
X7746610Y-16890984D02*
X7746610Y-16690984D01*
X7832325Y-16890984D02*
X7832325Y-16786222D01*
X7832325Y-16786222D02*
X7822801Y-16767174D01*
X7822801Y-16767174D02*
X7803753Y-16757650D01*
X7803753Y-16757650D02*
X7775182Y-16757650D01*
X7775182Y-16757650D02*
X7756134Y-16767174D01*
X7756134Y-16767174D02*
X7746610Y-16776698D01*
X7956134Y-16890984D02*
X7937087Y-16881460D01*
X7937087Y-16881460D02*
X7927563Y-16871936D01*
X7927563Y-16871936D02*
X7918039Y-16852889D01*
X7918039Y-16852889D02*
X7918039Y-16795746D01*
X7918039Y-16795746D02*
X7927563Y-16776698D01*
X7927563Y-16776698D02*
X7937087Y-16767174D01*
X7937087Y-16767174D02*
X7956134Y-16757650D01*
X7956134Y-16757650D02*
X7984706Y-16757650D01*
X7984706Y-16757650D02*
X8003753Y-16767174D01*
X8003753Y-16767174D02*
X8013277Y-16776698D01*
X8013277Y-16776698D02*
X8022801Y-16795746D01*
X8022801Y-16795746D02*
X8022801Y-16852889D01*
X8022801Y-16852889D02*
X8013277Y-16871936D01*
X8013277Y-16871936D02*
X8003753Y-16881460D01*
X8003753Y-16881460D02*
X7984706Y-16890984D01*
X7984706Y-16890984D02*
X7956134Y-16890984D01*
X8137087Y-16890984D02*
X8118039Y-16881460D01*
X8118039Y-16881460D02*
X8108515Y-16862412D01*
X8108515Y-16862412D02*
X8108515Y-16690984D01*
X8289468Y-16881460D02*
X8270420Y-16890984D01*
X8270420Y-16890984D02*
X8232325Y-16890984D01*
X8232325Y-16890984D02*
X8213277Y-16881460D01*
X8213277Y-16881460D02*
X8203753Y-16862412D01*
X8203753Y-16862412D02*
X8203753Y-16786222D01*
X8203753Y-16786222D02*
X8213277Y-16767174D01*
X8213277Y-16767174D02*
X8232325Y-16757650D01*
X8232325Y-16757650D02*
X8270420Y-16757650D01*
X8270420Y-16757650D02*
X8289468Y-16767174D01*
X8289468Y-16767174D02*
X8298991Y-16786222D01*
X8298991Y-16786222D02*
X8298991Y-16805270D01*
X8298991Y-16805270D02*
X8203753Y-16824317D01*
X8375182Y-16881460D02*
X8394230Y-16890984D01*
X8394230Y-16890984D02*
X8432325Y-16890984D01*
X8432325Y-16890984D02*
X8451373Y-16881460D01*
X8451373Y-16881460D02*
X8460896Y-16862412D01*
X8460896Y-16862412D02*
X8460896Y-16852889D01*
X8460896Y-16852889D02*
X8451373Y-16833841D01*
X8451373Y-16833841D02*
X8432325Y-16824317D01*
X8432325Y-16824317D02*
X8403753Y-16824317D01*
X8403753Y-16824317D02*
X8384706Y-16814793D01*
X8384706Y-16814793D02*
X8375182Y-16795746D01*
X8375182Y-16795746D02*
X8375182Y-16786222D01*
X8375182Y-16786222D02*
X8384706Y-16767174D01*
X8384706Y-16767174D02*
X8403753Y-16757650D01*
X8403753Y-16757650D02*
X8432325Y-16757650D01*
X8432325Y-16757650D02*
X8451373Y-16767174D01*
X8698992Y-16814793D02*
X8851373Y-16814793D01*
X8775182Y-16890984D02*
X8775182Y-16738603D01*
X9203754Y-16890984D02*
X9089468Y-16890984D01*
X9146611Y-16890984D02*
X9146611Y-16690984D01*
X9146611Y-16690984D02*
X9127563Y-16719555D01*
X9127563Y-16719555D02*
X9108515Y-16738603D01*
X9108515Y-16738603D02*
X9089468Y-16748127D01*
X9375182Y-16690984D02*
X9337087Y-16690984D01*
X9337087Y-16690984D02*
X9318039Y-16700508D01*
X9318039Y-16700508D02*
X9308515Y-16710031D01*
X9308515Y-16710031D02*
X9289468Y-16738603D01*
X9289468Y-16738603D02*
X9279944Y-16776698D01*
X9279944Y-16776698D02*
X9279944Y-16852889D01*
X9279944Y-16852889D02*
X9289468Y-16871936D01*
X9289468Y-16871936D02*
X9298992Y-16881460D01*
X9298992Y-16881460D02*
X9318039Y-16890984D01*
X9318039Y-16890984D02*
X9356135Y-16890984D01*
X9356135Y-16890984D02*
X9375182Y-16881460D01*
X9375182Y-16881460D02*
X9384706Y-16871936D01*
X9384706Y-16871936D02*
X9394230Y-16852889D01*
X9394230Y-16852889D02*
X9394230Y-16805270D01*
X9394230Y-16805270D02*
X9384706Y-16786222D01*
X9384706Y-16786222D02*
X9375182Y-16776698D01*
X9375182Y-16776698D02*
X9356135Y-16767174D01*
X9356135Y-16767174D02*
X9318039Y-16767174D01*
X9318039Y-16767174D02*
X9298992Y-16776698D01*
X9298992Y-16776698D02*
X9289468Y-16786222D01*
X9289468Y-16786222D02*
X9279944Y-16805270D01*
X9622801Y-16881460D02*
X9641849Y-16890984D01*
X9641849Y-16890984D02*
X9679944Y-16890984D01*
X9679944Y-16890984D02*
X9698992Y-16881460D01*
X9698992Y-16881460D02*
X9708516Y-16862412D01*
X9708516Y-16862412D02*
X9708516Y-16852889D01*
X9708516Y-16852889D02*
X9698992Y-16833841D01*
X9698992Y-16833841D02*
X9679944Y-16824317D01*
X9679944Y-16824317D02*
X9651373Y-16824317D01*
X9651373Y-16824317D02*
X9632325Y-16814793D01*
X9632325Y-16814793D02*
X9622801Y-16795746D01*
X9622801Y-16795746D02*
X9622801Y-16786222D01*
X9622801Y-16786222D02*
X9632325Y-16767174D01*
X9632325Y-16767174D02*
X9651373Y-16757650D01*
X9651373Y-16757650D02*
X9679944Y-16757650D01*
X9679944Y-16757650D02*
X9698992Y-16767174D01*
X9822801Y-16890984D02*
X9803754Y-16881460D01*
X9803754Y-16881460D02*
X9794230Y-16862412D01*
X9794230Y-16862412D02*
X9794230Y-16690984D01*
X9927563Y-16890984D02*
X9908516Y-16881460D01*
X9908516Y-16881460D02*
X9898992Y-16871936D01*
X9898992Y-16871936D02*
X9889468Y-16852889D01*
X9889468Y-16852889D02*
X9889468Y-16795746D01*
X9889468Y-16795746D02*
X9898992Y-16776698D01*
X9898992Y-16776698D02*
X9908516Y-16767174D01*
X9908516Y-16767174D02*
X9927563Y-16757650D01*
X9927563Y-16757650D02*
X9956135Y-16757650D01*
X9956135Y-16757650D02*
X9975182Y-16767174D01*
X9975182Y-16767174D02*
X9984706Y-16776698D01*
X9984706Y-16776698D02*
X9994230Y-16795746D01*
X9994230Y-16795746D02*
X9994230Y-16852889D01*
X9994230Y-16852889D02*
X9984706Y-16871936D01*
X9984706Y-16871936D02*
X9975182Y-16881460D01*
X9975182Y-16881460D02*
X9956135Y-16890984D01*
X9956135Y-16890984D02*
X9927563Y-16890984D01*
X10051373Y-16757650D02*
X10127563Y-16757650D01*
X10079944Y-16690984D02*
X10079944Y-16862412D01*
X10079944Y-16862412D02*
X10089468Y-16881460D01*
X10089468Y-16881460D02*
X10108516Y-16890984D01*
X10108516Y-16890984D02*
X10127563Y-16890984D01*
X10184706Y-16881460D02*
X10203754Y-16890984D01*
X10203754Y-16890984D02*
X10241849Y-16890984D01*
X10241849Y-16890984D02*
X10260897Y-16881460D01*
X10260897Y-16881460D02*
X10270420Y-16862412D01*
X10270420Y-16862412D02*
X10270420Y-16852889D01*
X10270420Y-16852889D02*
X10260897Y-16833841D01*
X10260897Y-16833841D02*
X10241849Y-16824317D01*
X10241849Y-16824317D02*
X10213277Y-16824317D01*
X10213277Y-16824317D02*
X10194230Y-16814793D01*
X10194230Y-16814793D02*
X10184706Y-16795746D01*
X10184706Y-16795746D02*
X10184706Y-16786222D01*
X10184706Y-16786222D02*
X10194230Y-16767174D01*
X10194230Y-16767174D02*
X10213277Y-16757650D01*
X10213277Y-16757650D02*
X10241849Y-16757650D01*
X10241849Y-16757650D02*
X10260897Y-16767174D01*
X10337087Y-16967174D02*
X10346611Y-16957650D01*
X10346611Y-16957650D02*
X10365658Y-16929079D01*
X10365658Y-16929079D02*
X10375182Y-16910031D01*
X10375182Y-16910031D02*
X10384706Y-16881460D01*
X10384706Y-16881460D02*
X10394230Y-16833841D01*
X10394230Y-16833841D02*
X10394230Y-16795746D01*
X10394230Y-16795746D02*
X10384706Y-16748127D01*
X10384706Y-16748127D02*
X10375182Y-16719555D01*
X10375182Y-16719555D02*
X10365658Y-16700508D01*
X10365658Y-16700508D02*
X10346611Y-16671936D01*
X10346611Y-16671936D02*
X10337087Y-16662412D01*
M02*
