%TF.GenerationSoftware,KiCad,Pcbnew,8.0.3*%
%TF.CreationDate,2024-07-12T18:25:32-05:00*%
%TF.ProjectId,controller,636f6e74-726f-46c6-9c65-722e6b696361,rev?*%
%TF.SameCoordinates,Original*%
%TF.FileFunction,Paste,Top*%
%TF.FilePolarity,Positive*%
%FSLAX46Y46*%
G04 Gerber Fmt 4.6, Leading zero omitted, Abs format (unit mm)*
G04 Created by KiCad (PCBNEW 8.0.3) date 2024-07-12 18:25:32*
%MOMM*%
%LPD*%
G01*
G04 APERTURE LIST*
G04 Aperture macros list*
%AMRoundRect*
0 Rectangle with rounded corners*
0 $1 Rounding radius*
0 $2 $3 $4 $5 $6 $7 $8 $9 X,Y pos of 4 corners*
0 Add a 4 corners polygon primitive as box body*
4,1,4,$2,$3,$4,$5,$6,$7,$8,$9,$2,$3,0*
0 Add four circle primitives for the rounded corners*
1,1,$1+$1,$2,$3*
1,1,$1+$1,$4,$5*
1,1,$1+$1,$6,$7*
1,1,$1+$1,$8,$9*
0 Add four rect primitives between the rounded corners*
20,1,$1+$1,$2,$3,$4,$5,0*
20,1,$1+$1,$4,$5,$6,$7,0*
20,1,$1+$1,$6,$7,$8,$9,0*
20,1,$1+$1,$8,$9,$2,$3,0*%
G04 Aperture macros list end*
%ADD10RoundRect,0.250000X0.450000X-0.262500X0.450000X0.262500X-0.450000X0.262500X-0.450000X-0.262500X0*%
%ADD11RoundRect,0.250000X-0.450000X0.262500X-0.450000X-0.262500X0.450000X-0.262500X0.450000X0.262500X0*%
%ADD12RoundRect,0.218750X-0.218750X-0.256250X0.218750X-0.256250X0.218750X0.256250X-0.218750X0.256250X0*%
%ADD13R,2.800000X1.600000*%
%ADD14R,2.800000X1.400000*%
%ADD15R,1.400000X1.600000*%
%ADD16R,1.780000X2.000000*%
%ADD17RoundRect,0.250000X-0.262500X-0.450000X0.262500X-0.450000X0.262500X0.450000X-0.262500X0.450000X0*%
%ADD18RoundRect,0.225000X0.225000X0.250000X-0.225000X0.250000X-0.225000X-0.250000X0.225000X-0.250000X0*%
%ADD19RoundRect,0.150000X-0.825000X-0.150000X0.825000X-0.150000X0.825000X0.150000X-0.825000X0.150000X0*%
%ADD20RoundRect,0.112500X-0.187500X-0.112500X0.187500X-0.112500X0.187500X0.112500X-0.187500X0.112500X0*%
G04 APERTURE END LIST*
D10*
%TO.C,R3*%
X123700000Y-34400000D03*
X123700000Y-36225000D03*
%TD*%
D11*
%TO.C,R11*%
X124827577Y-76400000D03*
X124827577Y-78225000D03*
%TD*%
D10*
%TO.C,R6*%
X110800000Y-36125000D03*
X110800000Y-34300000D03*
%TD*%
D12*
%TO.C,DT1*%
X111787500Y-25200000D03*
X110212500Y-25200000D03*
%TD*%
D13*
%TO.C,J1-I1*%
X104932000Y-42900000D03*
D14*
X107882000Y-31500000D03*
X100482000Y-38900000D03*
X100482000Y-29500000D03*
%TD*%
D15*
%TO.C,SW1*%
X142000000Y-54200000D03*
X142000000Y-46200000D03*
X146500000Y-54200000D03*
X146500000Y-46200000D03*
%TD*%
D11*
%TO.C,R15*%
X119400000Y-76400000D03*
X119400000Y-78225000D03*
%TD*%
%TO.C,R9*%
X77516663Y-76400000D03*
X77516663Y-78225000D03*
%TD*%
%TO.C,R5*%
X97400000Y-28387500D03*
X97400000Y-30212500D03*
%TD*%
D16*
%TO.C,U1*%
X151100000Y-46170000D03*
X153640000Y-46170000D03*
X156180000Y-46170000D03*
X156180000Y-55700000D03*
X153640000Y-55700000D03*
X151100000Y-55700000D03*
%TD*%
D11*
%TO.C,R8*%
X105800000Y-46087500D03*
X105800000Y-47912500D03*
%TD*%
%TO.C,R18*%
X106700000Y-76387500D03*
X106700000Y-78212500D03*
%TD*%
D17*
%TO.C,R2*%
X108687500Y-27300000D03*
X110512500Y-27300000D03*
%TD*%
D11*
%TO.C,R20*%
X154000000Y-76387500D03*
X154000000Y-78212500D03*
%TD*%
%TO.C,R7*%
X108300000Y-46087500D03*
X108300000Y-47912500D03*
%TD*%
%TO.C,R13*%
X72100000Y-76400000D03*
X72100000Y-78225000D03*
%TD*%
%TO.C,R17*%
X83000000Y-76387500D03*
X83000000Y-78212500D03*
%TD*%
%TO.C,R19*%
X130300000Y-76387500D03*
X130300000Y-78212500D03*
%TD*%
%TO.C,R10*%
X101172120Y-76400000D03*
X101172120Y-78225000D03*
%TD*%
%TO.C,R16*%
X143000000Y-76400000D03*
X143000000Y-78225000D03*
%TD*%
%TO.C,R12*%
X148483034Y-76400000D03*
X148483034Y-78225000D03*
%TD*%
D18*
%TO.C,C1*%
X117400000Y-49900000D03*
X115850000Y-49900000D03*
%TD*%
D13*
%TO.C,J11-O1*%
X117200000Y-42300000D03*
D14*
X120150000Y-30900000D03*
X112750000Y-38300000D03*
X112750000Y-28900000D03*
%TD*%
D19*
%TO.C,U2*%
X116120000Y-52030000D03*
X116120000Y-53300000D03*
X116120000Y-54570000D03*
X116120000Y-55840000D03*
X116120000Y-57110000D03*
X116120000Y-58380000D03*
X116120000Y-59650000D03*
X116120000Y-60920000D03*
X111170000Y-60920000D03*
X111170000Y-59650000D03*
X111170000Y-58380000D03*
X111170000Y-57110000D03*
X111170000Y-55840000D03*
X111170000Y-54570000D03*
X111170000Y-53300000D03*
X111170000Y-52030000D03*
%TD*%
D11*
%TO.C,R14*%
X95700000Y-76387500D03*
X95700000Y-78212500D03*
%TD*%
%TO.C,R4*%
X108700000Y-34300000D03*
X108700000Y-36125000D03*
%TD*%
D12*
%TO.C,DR1*%
X99812500Y-25400000D03*
X101387500Y-25400000D03*
%TD*%
D10*
%TO.C,R1*%
X121700000Y-34387500D03*
X121700000Y-36212500D03*
%TD*%
D20*
%TO.C,D1*%
X151550000Y-58500000D03*
X153650000Y-58500000D03*
%TD*%
M02*
