M48
; DRILL file {KiCad 8.0.3} date 2024-07-12T18:26:03-0500
; FORMAT={-:-/ absolute / metric / decimal}
; #@! TF.CreationDate,2024-07-12T18:26:03-05:00
; #@! TF.GenerationSoftware,Kicad,Pcbnew,8.0.3
; #@! TF.FileFunction,Plated,1,2,PTH
FMAT,2
METRIC
; #@! TA.AperFunction,Plated,PTH,ViaDrill
T1C0.300
; #@! TA.AperFunction,Plated,PTH,ComponentDrill
T2C1.000
; #@! TA.AperFunction,Plated,PTH,ComponentDrill
T3C1.020
; #@! TA.AperFunction,Plated,PTH,ComponentDrill
T4C1.800
%
G90
G05
T1
X70.6Y-76.4
X76.1Y-76.4
X76.8Y-61.4
X77.4Y-115.1
X77.417Y-131.483
X77.517Y-101.083
X78.9Y-61.3
X81.3Y-61.3
X84.8Y-76.4
X93.5Y-51.8
X93.8Y-76.5
X98.5Y-78.212
X99.7Y-76.4
X100.8Y-59.4
X101.1Y-131.5
X101.172Y-100.911
X101.2Y-116.0
X106.8Y-27.1
X108.5Y-54.3
X108.8Y-60.4
X109.0Y-76.4
X109.6Y-32.8
X110.0Y-63.9
X112.0Y-27.3
X112.3Y-44.6
X112.6Y-36.3
X112.7Y-55.504
X113.0Y-25.0
X115.0Y-27.3
X117.6Y-76.4
X117.995Y-62.095
X118.3Y-27.7
X119.0Y-61.2
X120.0Y-60.3
X122.4Y-78.225
X122.516Y-46.884
X123.5Y-76.4
X124.6Y-100.7
X124.8Y-116.4
X125.0Y-131.5
X132.0Y-76.4
X140.2Y-76.2
X145.9Y-78.225
X147.0Y-76.3
X148.1Y-116.5
X148.4Y-101.5
X148.7Y-132.0
X149.7Y-43.1
X151.3Y-53.5
X152.3Y-51.9
X156.1Y-76.4
T2
X74.6Y-80.7
X77.1Y-80.7
X79.6Y-80.7
X98.5Y-80.6
X98.8Y-61.9
X101.0Y-80.6
X101.3Y-61.9
X103.5Y-80.6
X103.8Y-61.9
X105.706Y-50.007
X108.246Y-50.007
X110.786Y-50.007
X113.326Y-50.007
X121.5Y-61.9
X122.7Y-80.6
X124.0Y-61.9
X125.2Y-80.6
X126.5Y-61.9
X127.7Y-80.6
X128.32Y-38.8
X128.7Y-44.3
X130.86Y-38.8
X131.2Y-44.3
X133.4Y-38.8
X133.7Y-44.3
X135.94Y-38.8
X138.48Y-38.8
X141.02Y-38.8
X143.56Y-38.8
X145.1Y-61.75
X146.0Y-80.5
X146.1Y-38.8
X147.6Y-61.75
X148.5Y-80.5
X148.64Y-38.8
X150.1Y-61.75
X151.0Y-80.5
X155.14Y-25.35
X155.14Y-27.89
X155.14Y-30.43
X155.14Y-32.97
X155.14Y-35.51
X155.14Y-38.05
T3
X70.9Y-23.1
X70.9Y-25.64
X70.9Y-28.18
X70.9Y-30.72
X70.9Y-33.26
X70.9Y-35.8
X70.9Y-38.34
X70.9Y-40.88
X70.9Y-43.42
X70.9Y-45.96
X70.9Y-48.5
X70.9Y-51.04
X70.9Y-53.58
X70.9Y-56.12
X70.9Y-58.66
X70.9Y-61.2
X70.9Y-63.74
X70.9Y-66.28
X70.9Y-68.82
X70.9Y-71.36
X77.25Y-71.13
X79.79Y-71.13
X82.33Y-71.13
X88.68Y-23.1
X88.68Y-25.64
X88.68Y-28.18
X88.68Y-30.72
X88.68Y-33.26
X88.68Y-35.8
X88.68Y-38.34
X88.68Y-40.88
X88.68Y-43.42
X88.68Y-45.96
X88.68Y-48.5
X88.68Y-51.04
X88.68Y-53.58
X88.68Y-56.12
X88.68Y-58.66
X88.68Y-61.2
X88.68Y-63.74
X88.68Y-66.28
X88.68Y-68.82
X88.68Y-71.36
T4
X72.7Y-87.55G85X72.7Y-87.85
G05
X81.5Y-87.55G85X81.5Y-87.85
G05
X96.6Y-87.45G85X96.6Y-87.75
G05
X96.9Y-68.75G85X96.9Y-69.05
G05
X105.4Y-87.45G85X105.4Y-87.75
G05
X105.7Y-68.75G85X105.7Y-69.05
G05
X119.6Y-68.75G85X119.6Y-69.05
G05
X120.8Y-87.45G85X120.8Y-87.75
G05
X126.8Y-51.15G85X126.8Y-51.45
G05
X128.4Y-68.75G85X128.4Y-69.05
G05
X129.6Y-87.45G85X129.6Y-87.75
G05
X135.6Y-51.15G85X135.6Y-51.45
G05
X143.2Y-68.6G85X143.2Y-68.9
G05
X144.1Y-87.35G85X144.1Y-87.65
G05
X152.0Y-68.6G85X152.0Y-68.9
G05
X152.9Y-87.35G85X152.9Y-87.65
G05
M30
