%TF.GenerationSoftware,KiCad,Pcbnew,8.0.3*%
%TF.CreationDate,2024-07-12T18:26:02-05:00*%
%TF.ProjectId,controller,636f6e74-726f-46c6-9c65-722e6b696361,rev?*%
%TF.SameCoordinates,Original*%
%TF.FileFunction,Drillmap*%
%TF.FilePolarity,Positive*%
%FSLAX45Y45*%
G04 Gerber Fmt 4.5, Leading zero omitted, Abs format (unit mm)*
G04 Created by KiCad (PCBNEW 8.0.3) date 2024-07-12 18:26:02*
%MOMM*%
%LPD*%
G01*
G04 APERTURE LIST*
%ADD10C,0.050000*%
%ADD11C,0.200000*%
%ADD12C,0.100000*%
%ADD13C,0.102000*%
%ADD14C,0.180000*%
G04 APERTURE END LIST*
D10*
X6395000Y-2085000D02*
X16125000Y-2085000D01*
X16125000Y-14125000D01*
X6395000Y-14125000D01*
X6395000Y-2085000D01*
D11*
D12*
X7045000Y-7625000D02*
X7075000Y-7655000D01*
X7075000Y-7625000D02*
X7045000Y-7655000D01*
X7595000Y-7625000D02*
X7625000Y-7655000D01*
X7625000Y-7625000D02*
X7595000Y-7655000D01*
X7665000Y-6125000D02*
X7695000Y-6155000D01*
X7695000Y-6125000D02*
X7665000Y-6155000D01*
X7725000Y-11495000D02*
X7755000Y-11525000D01*
X7755000Y-11495000D02*
X7725000Y-11525000D01*
X7726666Y-13133303D02*
X7756666Y-13163303D01*
X7756666Y-13133303D02*
X7726666Y-13163303D01*
X7736666Y-10093303D02*
X7766666Y-10123303D01*
X7766666Y-10093303D02*
X7736666Y-10123303D01*
X7875000Y-6115000D02*
X7905000Y-6145000D01*
X7905000Y-6115000D02*
X7875000Y-6145000D01*
X8115000Y-6115000D02*
X8145000Y-6145000D01*
X8145000Y-6115000D02*
X8115000Y-6145000D01*
X8465000Y-7625000D02*
X8495000Y-7655000D01*
X8495000Y-7625000D02*
X8465000Y-7655000D01*
X9335000Y-5165000D02*
X9365000Y-5195000D01*
X9365000Y-5165000D02*
X9335000Y-5195000D01*
X9365000Y-7635000D02*
X9395000Y-7665000D01*
X9395000Y-7635000D02*
X9365000Y-7665000D01*
X9835000Y-7806250D02*
X9865000Y-7836250D01*
X9865000Y-7806250D02*
X9835000Y-7836250D01*
X9955000Y-7625000D02*
X9985000Y-7655000D01*
X9985000Y-7625000D02*
X9955000Y-7655000D01*
X10065000Y-5925000D02*
X10095000Y-5955000D01*
X10095000Y-5925000D02*
X10065000Y-5955000D01*
X10095000Y-13135000D02*
X10125000Y-13165000D01*
X10125000Y-13135000D02*
X10095000Y-13165000D01*
X10102212Y-10076091D02*
X10132212Y-10106091D01*
X10132212Y-10076091D02*
X10102212Y-10106091D01*
X10105000Y-11585000D02*
X10135000Y-11615000D01*
X10135000Y-11585000D02*
X10105000Y-11615000D01*
X10665000Y-2695000D02*
X10695000Y-2725000D01*
X10695000Y-2695000D02*
X10665000Y-2725000D01*
X10835000Y-5415000D02*
X10865000Y-5445000D01*
X10865000Y-5415000D02*
X10835000Y-5445000D01*
X10865000Y-6025000D02*
X10895000Y-6055000D01*
X10895000Y-6025000D02*
X10865000Y-6055000D01*
X10885000Y-7625000D02*
X10915000Y-7655000D01*
X10915000Y-7625000D02*
X10885000Y-7655000D01*
X10945000Y-3265000D02*
X10975000Y-3295000D01*
X10975000Y-3265000D02*
X10945000Y-3295000D01*
X10985000Y-6375000D02*
X11015000Y-6405000D01*
X11015000Y-6375000D02*
X10985000Y-6405000D01*
X11185000Y-2715000D02*
X11215000Y-2745000D01*
X11215000Y-2715000D02*
X11185000Y-2745000D01*
X11215000Y-4445000D02*
X11245000Y-4475000D01*
X11245000Y-4445000D02*
X11215000Y-4475000D01*
X11245000Y-3615000D02*
X11275000Y-3645000D01*
X11275000Y-3615000D02*
X11245000Y-3645000D01*
X11255000Y-5535408D02*
X11285000Y-5565408D01*
X11285000Y-5535408D02*
X11255000Y-5565408D01*
X11285000Y-2485000D02*
X11315000Y-2515000D01*
X11315000Y-2485000D02*
X11285000Y-2515000D01*
X11485000Y-2715000D02*
X11515000Y-2745000D01*
X11515000Y-2715000D02*
X11485000Y-2745000D01*
X11745000Y-7625000D02*
X11775000Y-7655000D01*
X11775000Y-7625000D02*
X11745000Y-7655000D01*
X11784500Y-6194481D02*
X11814500Y-6224481D01*
X11814500Y-6194481D02*
X11784500Y-6224481D01*
X11815000Y-2755000D02*
X11845000Y-2785000D01*
X11845000Y-2755000D02*
X11815000Y-2785000D01*
X11885000Y-6105000D02*
X11915000Y-6135000D01*
X11915000Y-6105000D02*
X11885000Y-6135000D01*
X11985000Y-6015000D02*
X12015000Y-6045000D01*
X12015000Y-6015000D02*
X11985000Y-6045000D01*
X12225000Y-7807500D02*
X12255000Y-7837500D01*
X12255000Y-7807500D02*
X12225000Y-7837500D01*
X12236571Y-4673429D02*
X12266571Y-4703429D01*
X12266571Y-4673429D02*
X12236571Y-4703429D01*
X12335000Y-7625000D02*
X12365000Y-7655000D01*
X12365000Y-7625000D02*
X12335000Y-7655000D01*
X12445000Y-10055000D02*
X12475000Y-10085000D01*
X12475000Y-10055000D02*
X12445000Y-10085000D01*
X12465000Y-11625000D02*
X12495000Y-11655000D01*
X12495000Y-11625000D02*
X12465000Y-11655000D01*
X12485000Y-13135000D02*
X12515000Y-13165000D01*
X12515000Y-13135000D02*
X12485000Y-13165000D01*
X13185000Y-7625000D02*
X13215000Y-7655000D01*
X13215000Y-7625000D02*
X13185000Y-7655000D01*
X14005000Y-7605000D02*
X14035000Y-7635000D01*
X14035000Y-7605000D02*
X14005000Y-7635000D01*
X14575000Y-7807500D02*
X14605000Y-7837500D01*
X14605000Y-7807500D02*
X14575000Y-7837500D01*
X14685000Y-7615000D02*
X14715000Y-7645000D01*
X14715000Y-7615000D02*
X14685000Y-7645000D01*
X14795000Y-11635000D02*
X14825000Y-11665000D01*
X14825000Y-11635000D02*
X14795000Y-11665000D01*
X14825000Y-10135000D02*
X14855000Y-10165000D01*
X14855000Y-10135000D02*
X14825000Y-10165000D01*
X14855000Y-13185000D02*
X14885000Y-13215000D01*
X14885000Y-13185000D02*
X14855000Y-13215000D01*
X14955000Y-4295000D02*
X14985000Y-4325000D01*
X14985000Y-4295000D02*
X14955000Y-4325000D01*
X15115000Y-5335000D02*
X15145000Y-5365000D01*
X15145000Y-5335000D02*
X15115000Y-5365000D01*
X15215000Y-5175000D02*
X15245000Y-5205000D01*
X15245000Y-5175000D02*
X15215000Y-5205000D01*
X15595000Y-7625000D02*
X15625000Y-7655000D01*
X15625000Y-7625000D02*
X15595000Y-7655000D01*
X7510000Y-8070000D02*
G75*
G02*
X7410000Y-8070000I-50000J0D01*
G01*
X7410000Y-8070000D02*
G75*
G02*
X7510000Y-8070000I50000J0D01*
G01*
X7760000Y-8070000D02*
G75*
G02*
X7660000Y-8070000I-50000J0D01*
G01*
X7660000Y-8070000D02*
G75*
G02*
X7760000Y-8070000I50000J0D01*
G01*
X8010000Y-8070000D02*
G75*
G02*
X7910000Y-8070000I-50000J0D01*
G01*
X7910000Y-8070000D02*
G75*
G02*
X8010000Y-8070000I50000J0D01*
G01*
X9900000Y-8060000D02*
G75*
G02*
X9800000Y-8060000I-50000J0D01*
G01*
X9800000Y-8060000D02*
G75*
G02*
X9900000Y-8060000I50000J0D01*
G01*
X9930000Y-6190000D02*
G75*
G02*
X9830000Y-6190000I-50000J0D01*
G01*
X9830000Y-6190000D02*
G75*
G02*
X9930000Y-6190000I50000J0D01*
G01*
X10150000Y-8060000D02*
G75*
G02*
X10050000Y-8060000I-50000J0D01*
G01*
X10050000Y-8060000D02*
G75*
G02*
X10150000Y-8060000I50000J0D01*
G01*
X10180000Y-6190000D02*
G75*
G02*
X10080000Y-6190000I-50000J0D01*
G01*
X10080000Y-6190000D02*
G75*
G02*
X10180000Y-6190000I50000J0D01*
G01*
X10400000Y-8060000D02*
G75*
G02*
X10300000Y-8060000I-50000J0D01*
G01*
X10300000Y-8060000D02*
G75*
G02*
X10400000Y-8060000I50000J0D01*
G01*
X10430000Y-6190000D02*
G75*
G02*
X10330000Y-6190000I-50000J0D01*
G01*
X10330000Y-6190000D02*
G75*
G02*
X10430000Y-6190000I50000J0D01*
G01*
X10620600Y-5000700D02*
G75*
G02*
X10520600Y-5000700I-50000J0D01*
G01*
X10520600Y-5000700D02*
G75*
G02*
X10620600Y-5000700I50000J0D01*
G01*
X10874600Y-5000700D02*
G75*
G02*
X10774600Y-5000700I-50000J0D01*
G01*
X10774600Y-5000700D02*
G75*
G02*
X10874600Y-5000700I50000J0D01*
G01*
X11128600Y-5000700D02*
G75*
G02*
X11028600Y-5000700I-50000J0D01*
G01*
X11028600Y-5000700D02*
G75*
G02*
X11128600Y-5000700I50000J0D01*
G01*
X11382600Y-5000700D02*
G75*
G02*
X11282600Y-5000700I-50000J0D01*
G01*
X11282600Y-5000700D02*
G75*
G02*
X11382600Y-5000700I50000J0D01*
G01*
X12200000Y-6190000D02*
G75*
G02*
X12100000Y-6190000I-50000J0D01*
G01*
X12100000Y-6190000D02*
G75*
G02*
X12200000Y-6190000I50000J0D01*
G01*
X12320000Y-8060000D02*
G75*
G02*
X12220000Y-8060000I-50000J0D01*
G01*
X12220000Y-8060000D02*
G75*
G02*
X12320000Y-8060000I50000J0D01*
G01*
X12450000Y-6190000D02*
G75*
G02*
X12350000Y-6190000I-50000J0D01*
G01*
X12350000Y-6190000D02*
G75*
G02*
X12450000Y-6190000I50000J0D01*
G01*
X12570000Y-8060000D02*
G75*
G02*
X12470000Y-8060000I-50000J0D01*
G01*
X12470000Y-8060000D02*
G75*
G02*
X12570000Y-8060000I50000J0D01*
G01*
X12700000Y-6190000D02*
G75*
G02*
X12600000Y-6190000I-50000J0D01*
G01*
X12600000Y-6190000D02*
G75*
G02*
X12700000Y-6190000I50000J0D01*
G01*
X12820000Y-8060000D02*
G75*
G02*
X12720000Y-8060000I-50000J0D01*
G01*
X12720000Y-8060000D02*
G75*
G02*
X12820000Y-8060000I50000J0D01*
G01*
X12882000Y-3880000D02*
G75*
G02*
X12782000Y-3880000I-50000J0D01*
G01*
X12782000Y-3880000D02*
G75*
G02*
X12882000Y-3880000I50000J0D01*
G01*
X12920000Y-4430000D02*
G75*
G02*
X12820000Y-4430000I-50000J0D01*
G01*
X12820000Y-4430000D02*
G75*
G02*
X12920000Y-4430000I50000J0D01*
G01*
X13136000Y-3880000D02*
G75*
G02*
X13036000Y-3880000I-50000J0D01*
G01*
X13036000Y-3880000D02*
G75*
G02*
X13136000Y-3880000I50000J0D01*
G01*
X13170000Y-4430000D02*
G75*
G02*
X13070000Y-4430000I-50000J0D01*
G01*
X13070000Y-4430000D02*
G75*
G02*
X13170000Y-4430000I50000J0D01*
G01*
X13390000Y-3880000D02*
G75*
G02*
X13290000Y-3880000I-50000J0D01*
G01*
X13290000Y-3880000D02*
G75*
G02*
X13390000Y-3880000I50000J0D01*
G01*
X13420000Y-4430000D02*
G75*
G02*
X13320000Y-4430000I-50000J0D01*
G01*
X13320000Y-4430000D02*
G75*
G02*
X13420000Y-4430000I50000J0D01*
G01*
X13644000Y-3880000D02*
G75*
G02*
X13544000Y-3880000I-50000J0D01*
G01*
X13544000Y-3880000D02*
G75*
G02*
X13644000Y-3880000I50000J0D01*
G01*
X13898000Y-3880000D02*
G75*
G02*
X13798000Y-3880000I-50000J0D01*
G01*
X13798000Y-3880000D02*
G75*
G02*
X13898000Y-3880000I50000J0D01*
G01*
X14152000Y-3880000D02*
G75*
G02*
X14052000Y-3880000I-50000J0D01*
G01*
X14052000Y-3880000D02*
G75*
G02*
X14152000Y-3880000I50000J0D01*
G01*
X14406000Y-3880000D02*
G75*
G02*
X14306000Y-3880000I-50000J0D01*
G01*
X14306000Y-3880000D02*
G75*
G02*
X14406000Y-3880000I50000J0D01*
G01*
X14560000Y-6175000D02*
G75*
G02*
X14460000Y-6175000I-50000J0D01*
G01*
X14460000Y-6175000D02*
G75*
G02*
X14560000Y-6175000I50000J0D01*
G01*
X14650000Y-8050000D02*
G75*
G02*
X14550000Y-8050000I-50000J0D01*
G01*
X14550000Y-8050000D02*
G75*
G02*
X14650000Y-8050000I50000J0D01*
G01*
X14660000Y-3880000D02*
G75*
G02*
X14560000Y-3880000I-50000J0D01*
G01*
X14560000Y-3880000D02*
G75*
G02*
X14660000Y-3880000I50000J0D01*
G01*
X14810000Y-6175000D02*
G75*
G02*
X14710000Y-6175000I-50000J0D01*
G01*
X14710000Y-6175000D02*
G75*
G02*
X14810000Y-6175000I50000J0D01*
G01*
X14900000Y-8050000D02*
G75*
G02*
X14800000Y-8050000I-50000J0D01*
G01*
X14800000Y-8050000D02*
G75*
G02*
X14900000Y-8050000I50000J0D01*
G01*
X14914000Y-3880000D02*
G75*
G02*
X14814000Y-3880000I-50000J0D01*
G01*
X14814000Y-3880000D02*
G75*
G02*
X14914000Y-3880000I50000J0D01*
G01*
X15060000Y-6175000D02*
G75*
G02*
X14960000Y-6175000I-50000J0D01*
G01*
X14960000Y-6175000D02*
G75*
G02*
X15060000Y-6175000I50000J0D01*
G01*
X15150000Y-8050000D02*
G75*
G02*
X15050000Y-8050000I-50000J0D01*
G01*
X15050000Y-8050000D02*
G75*
G02*
X15150000Y-8050000I50000J0D01*
G01*
X15564000Y-2535000D02*
G75*
G02*
X15464000Y-2535000I-50000J0D01*
G01*
X15464000Y-2535000D02*
G75*
G02*
X15564000Y-2535000I50000J0D01*
G01*
X15564000Y-2789000D02*
G75*
G02*
X15464000Y-2789000I-50000J0D01*
G01*
X15464000Y-2789000D02*
G75*
G02*
X15564000Y-2789000I50000J0D01*
G01*
X15564000Y-3043000D02*
G75*
G02*
X15464000Y-3043000I-50000J0D01*
G01*
X15464000Y-3043000D02*
G75*
G02*
X15564000Y-3043000I50000J0D01*
G01*
X15564000Y-3297000D02*
G75*
G02*
X15464000Y-3297000I-50000J0D01*
G01*
X15464000Y-3297000D02*
G75*
G02*
X15564000Y-3297000I50000J0D01*
G01*
X15564000Y-3551000D02*
G75*
G02*
X15464000Y-3551000I-50000J0D01*
G01*
X15464000Y-3551000D02*
G75*
G02*
X15564000Y-3551000I50000J0D01*
G01*
X15564000Y-3805000D02*
G75*
G02*
X15464000Y-3805000I-50000J0D01*
G01*
X15464000Y-3805000D02*
G75*
G02*
X15564000Y-3805000I50000J0D01*
G01*
D13*
X7090000Y-2259000D02*
X7090000Y-2361000D01*
X7039000Y-2310000D02*
X7141000Y-2310000D01*
X7090000Y-2513000D02*
X7090000Y-2615000D01*
X7039000Y-2564000D02*
X7141000Y-2564000D01*
X7090000Y-2767000D02*
X7090000Y-2869000D01*
X7039000Y-2818000D02*
X7141000Y-2818000D01*
X7090000Y-3021000D02*
X7090000Y-3123000D01*
X7039000Y-3072000D02*
X7141000Y-3072000D01*
X7090000Y-3275000D02*
X7090000Y-3377000D01*
X7039000Y-3326000D02*
X7141000Y-3326000D01*
X7090000Y-3529000D02*
X7090000Y-3631000D01*
X7039000Y-3580000D02*
X7141000Y-3580000D01*
X7090000Y-3783000D02*
X7090000Y-3885000D01*
X7039000Y-3834000D02*
X7141000Y-3834000D01*
X7090000Y-4037000D02*
X7090000Y-4139000D01*
X7039000Y-4088000D02*
X7141000Y-4088000D01*
X7090000Y-4291000D02*
X7090000Y-4393000D01*
X7039000Y-4342000D02*
X7141000Y-4342000D01*
X7090000Y-4545000D02*
X7090000Y-4647000D01*
X7039000Y-4596000D02*
X7141000Y-4596000D01*
X7090000Y-4799000D02*
X7090000Y-4901000D01*
X7039000Y-4850000D02*
X7141000Y-4850000D01*
X7090000Y-5053000D02*
X7090000Y-5155000D01*
X7039000Y-5104000D02*
X7141000Y-5104000D01*
X7090000Y-5307000D02*
X7090000Y-5409000D01*
X7039000Y-5358000D02*
X7141000Y-5358000D01*
X7090000Y-5561000D02*
X7090000Y-5663000D01*
X7039000Y-5612000D02*
X7141000Y-5612000D01*
X7090000Y-5815000D02*
X7090000Y-5917000D01*
X7039000Y-5866000D02*
X7141000Y-5866000D01*
X7090000Y-6069000D02*
X7090000Y-6171000D01*
X7039000Y-6120000D02*
X7141000Y-6120000D01*
X7090000Y-6323000D02*
X7090000Y-6425000D01*
X7039000Y-6374000D02*
X7141000Y-6374000D01*
X7090000Y-6577000D02*
X7090000Y-6679000D01*
X7039000Y-6628000D02*
X7141000Y-6628000D01*
X7090000Y-6831000D02*
X7090000Y-6933000D01*
X7039000Y-6882000D02*
X7141000Y-6882000D01*
X7090000Y-7085000D02*
X7090000Y-7187000D01*
X7039000Y-7136000D02*
X7141000Y-7136000D01*
X7725000Y-7062000D02*
X7725000Y-7164000D01*
X7674000Y-7113000D02*
X7776000Y-7113000D01*
X7979000Y-7062000D02*
X7979000Y-7164000D01*
X7928000Y-7113000D02*
X8030000Y-7113000D01*
X8233000Y-7062000D02*
X8233000Y-7164000D01*
X8182000Y-7113000D02*
X8284000Y-7113000D01*
X8868000Y-2259000D02*
X8868000Y-2361000D01*
X8817000Y-2310000D02*
X8919000Y-2310000D01*
X8868000Y-2513000D02*
X8868000Y-2615000D01*
X8817000Y-2564000D02*
X8919000Y-2564000D01*
X8868000Y-2767000D02*
X8868000Y-2869000D01*
X8817000Y-2818000D02*
X8919000Y-2818000D01*
X8868000Y-3021000D02*
X8868000Y-3123000D01*
X8817000Y-3072000D02*
X8919000Y-3072000D01*
X8868000Y-3275000D02*
X8868000Y-3377000D01*
X8817000Y-3326000D02*
X8919000Y-3326000D01*
X8868000Y-3529000D02*
X8868000Y-3631000D01*
X8817000Y-3580000D02*
X8919000Y-3580000D01*
X8868000Y-3783000D02*
X8868000Y-3885000D01*
X8817000Y-3834000D02*
X8919000Y-3834000D01*
X8868000Y-4037000D02*
X8868000Y-4139000D01*
X8817000Y-4088000D02*
X8919000Y-4088000D01*
X8868000Y-4291000D02*
X8868000Y-4393000D01*
X8817000Y-4342000D02*
X8919000Y-4342000D01*
X8868000Y-4545000D02*
X8868000Y-4647000D01*
X8817000Y-4596000D02*
X8919000Y-4596000D01*
X8868000Y-4799000D02*
X8868000Y-4901000D01*
X8817000Y-4850000D02*
X8919000Y-4850000D01*
X8868000Y-5053000D02*
X8868000Y-5155000D01*
X8817000Y-5104000D02*
X8919000Y-5104000D01*
X8868000Y-5307000D02*
X8868000Y-5409000D01*
X8817000Y-5358000D02*
X8919000Y-5358000D01*
X8868000Y-5561000D02*
X8868000Y-5663000D01*
X8817000Y-5612000D02*
X8919000Y-5612000D01*
X8868000Y-5815000D02*
X8868000Y-5917000D01*
X8817000Y-5866000D02*
X8919000Y-5866000D01*
X8868000Y-6069000D02*
X8868000Y-6171000D01*
X8817000Y-6120000D02*
X8919000Y-6120000D01*
X8868000Y-6323000D02*
X8868000Y-6425000D01*
X8817000Y-6374000D02*
X8919000Y-6374000D01*
X8868000Y-6577000D02*
X8868000Y-6679000D01*
X8817000Y-6628000D02*
X8919000Y-6628000D01*
X8868000Y-6831000D02*
X8868000Y-6933000D01*
X8817000Y-6882000D02*
X8919000Y-6882000D01*
X8868000Y-7085000D02*
X8868000Y-7187000D01*
X8817000Y-7136000D02*
X8919000Y-7136000D01*
D14*
X7333640Y-8833640D02*
X7333640Y-8706360D01*
X7206360Y-8706360D01*
X7206360Y-8833640D01*
X7333640Y-8833640D01*
D12*
X7180000Y-8755000D02*
X7180000Y-8785000D01*
X7360000Y-8785000D02*
G75*
G02*
X7180000Y-8785000I-90000J0D01*
G01*
X7360000Y-8785000D02*
X7360000Y-8755000D01*
X7360000Y-8755000D02*
G75*
G03*
X7180000Y-8755000I-90000J0D01*
G01*
D14*
X8213640Y-8833640D02*
X8213640Y-8706360D01*
X8086360Y-8706360D01*
X8086360Y-8833640D01*
X8213640Y-8833640D01*
D12*
X8060000Y-8755000D02*
X8060000Y-8785000D01*
X8240000Y-8785000D02*
G75*
G02*
X8060000Y-8785000I-90000J0D01*
G01*
X8240000Y-8785000D02*
X8240000Y-8755000D01*
X8240000Y-8755000D02*
G75*
G03*
X8060000Y-8755000I-90000J0D01*
G01*
D14*
X9723640Y-8823640D02*
X9723640Y-8696360D01*
X9596360Y-8696360D01*
X9596360Y-8823640D01*
X9723640Y-8823640D01*
D12*
X9570000Y-8745000D02*
X9570000Y-8775000D01*
X9750000Y-8775000D02*
G75*
G02*
X9570000Y-8775000I-90000J0D01*
G01*
X9750000Y-8775000D02*
X9750000Y-8745000D01*
X9750000Y-8745000D02*
G75*
G03*
X9570000Y-8745000I-90000J0D01*
G01*
D14*
X9753640Y-6953640D02*
X9753640Y-6826360D01*
X9626360Y-6826360D01*
X9626360Y-6953640D01*
X9753640Y-6953640D01*
D12*
X9600000Y-6875000D02*
X9600000Y-6905000D01*
X9780000Y-6905000D02*
G75*
G02*
X9600000Y-6905000I-90000J0D01*
G01*
X9780000Y-6905000D02*
X9780000Y-6875000D01*
X9780000Y-6875000D02*
G75*
G03*
X9600000Y-6875000I-90000J0D01*
G01*
D14*
X10603640Y-8823640D02*
X10603640Y-8696360D01*
X10476360Y-8696360D01*
X10476360Y-8823640D01*
X10603640Y-8823640D01*
D12*
X10450000Y-8745000D02*
X10450000Y-8775000D01*
X10630000Y-8775000D02*
G75*
G02*
X10450000Y-8775000I-90000J0D01*
G01*
X10630000Y-8775000D02*
X10630000Y-8745000D01*
X10630000Y-8745000D02*
G75*
G03*
X10450000Y-8745000I-90000J0D01*
G01*
D14*
X10633640Y-6953640D02*
X10633640Y-6826360D01*
X10506360Y-6826360D01*
X10506360Y-6953640D01*
X10633640Y-6953640D01*
D12*
X10480000Y-6875000D02*
X10480000Y-6905000D01*
X10660000Y-6905000D02*
G75*
G02*
X10480000Y-6905000I-90000J0D01*
G01*
X10660000Y-6905000D02*
X10660000Y-6875000D01*
X10660000Y-6875000D02*
G75*
G03*
X10480000Y-6875000I-90000J0D01*
G01*
D14*
X12023640Y-6953640D02*
X12023640Y-6826360D01*
X11896360Y-6826360D01*
X11896360Y-6953640D01*
X12023640Y-6953640D01*
D12*
X11870000Y-6875000D02*
X11870000Y-6905000D01*
X12050000Y-6905000D02*
G75*
G02*
X11870000Y-6905000I-90000J0D01*
G01*
X12050000Y-6905000D02*
X12050000Y-6875000D01*
X12050000Y-6875000D02*
G75*
G03*
X11870000Y-6875000I-90000J0D01*
G01*
D14*
X12143640Y-8823640D02*
X12143640Y-8696360D01*
X12016360Y-8696360D01*
X12016360Y-8823640D01*
X12143640Y-8823640D01*
D12*
X11990000Y-8745000D02*
X11990000Y-8775000D01*
X12170000Y-8775000D02*
G75*
G02*
X11990000Y-8775000I-90000J0D01*
G01*
X12170000Y-8775000D02*
X12170000Y-8745000D01*
X12170000Y-8745000D02*
G75*
G03*
X11990000Y-8745000I-90000J0D01*
G01*
D14*
X12743640Y-5193640D02*
X12743640Y-5066360D01*
X12616360Y-5066360D01*
X12616360Y-5193640D01*
X12743640Y-5193640D01*
D12*
X12590000Y-5115000D02*
X12590000Y-5145000D01*
X12770000Y-5145000D02*
G75*
G02*
X12590000Y-5145000I-90000J0D01*
G01*
X12770000Y-5145000D02*
X12770000Y-5115000D01*
X12770000Y-5115000D02*
G75*
G03*
X12590000Y-5115000I-90000J0D01*
G01*
D14*
X12903640Y-6953640D02*
X12903640Y-6826360D01*
X12776360Y-6826360D01*
X12776360Y-6953640D01*
X12903640Y-6953640D01*
D12*
X12750000Y-6875000D02*
X12750000Y-6905000D01*
X12930000Y-6905000D02*
G75*
G02*
X12750000Y-6905000I-90000J0D01*
G01*
X12930000Y-6905000D02*
X12930000Y-6875000D01*
X12930000Y-6875000D02*
G75*
G03*
X12750000Y-6875000I-90000J0D01*
G01*
D14*
X13023640Y-8823640D02*
X13023640Y-8696360D01*
X12896360Y-8696360D01*
X12896360Y-8823640D01*
X13023640Y-8823640D01*
D12*
X12870000Y-8745000D02*
X12870000Y-8775000D01*
X13050000Y-8775000D02*
G75*
G02*
X12870000Y-8775000I-90000J0D01*
G01*
X13050000Y-8775000D02*
X13050000Y-8745000D01*
X13050000Y-8745000D02*
G75*
G03*
X12870000Y-8745000I-90000J0D01*
G01*
D14*
X13623640Y-5193640D02*
X13623640Y-5066360D01*
X13496360Y-5066360D01*
X13496360Y-5193640D01*
X13623640Y-5193640D01*
D12*
X13470000Y-5115000D02*
X13470000Y-5145000D01*
X13650000Y-5145000D02*
G75*
G02*
X13470000Y-5145000I-90000J0D01*
G01*
X13650000Y-5145000D02*
X13650000Y-5115000D01*
X13650000Y-5115000D02*
G75*
G03*
X13470000Y-5115000I-90000J0D01*
G01*
D14*
X14383640Y-6938640D02*
X14383640Y-6811360D01*
X14256360Y-6811360D01*
X14256360Y-6938640D01*
X14383640Y-6938640D01*
D12*
X14230000Y-6860000D02*
X14230000Y-6890000D01*
X14410000Y-6890000D02*
G75*
G02*
X14230000Y-6890000I-90000J0D01*
G01*
X14410000Y-6890000D02*
X14410000Y-6860000D01*
X14410000Y-6860000D02*
G75*
G03*
X14230000Y-6860000I-90000J0D01*
G01*
D14*
X14473640Y-8813640D02*
X14473640Y-8686360D01*
X14346360Y-8686360D01*
X14346360Y-8813640D01*
X14473640Y-8813640D01*
D12*
X14320000Y-8735000D02*
X14320000Y-8765000D01*
X14500000Y-8765000D02*
G75*
G02*
X14320000Y-8765000I-90000J0D01*
G01*
X14500000Y-8765000D02*
X14500000Y-8735000D01*
X14500000Y-8735000D02*
G75*
G03*
X14320000Y-8735000I-90000J0D01*
G01*
D14*
X15263640Y-6938640D02*
X15263640Y-6811360D01*
X15136360Y-6811360D01*
X15136360Y-6938640D01*
X15263640Y-6938640D01*
D12*
X15110000Y-6860000D02*
X15110000Y-6890000D01*
X15290000Y-6890000D02*
G75*
G02*
X15110000Y-6890000I-90000J0D01*
G01*
X15290000Y-6890000D02*
X15290000Y-6860000D01*
X15290000Y-6860000D02*
G75*
G03*
X15110000Y-6860000I-90000J0D01*
G01*
D14*
X15353640Y-8813640D02*
X15353640Y-8686360D01*
X15226360Y-8686360D01*
X15226360Y-8813640D01*
X15353640Y-8813640D01*
D12*
X15200000Y-8735000D02*
X15200000Y-8765000D01*
X15380000Y-8765000D02*
G75*
G02*
X15200000Y-8765000I-90000J0D01*
G01*
X15380000Y-8765000D02*
X15380000Y-8735000D01*
X15380000Y-8735000D02*
G75*
G03*
X15200000Y-8735000I-90000J0D01*
G01*
D11*
X6653277Y-14438984D02*
X6653277Y-14238984D01*
X6653277Y-14238984D02*
X6700896Y-14238984D01*
X6700896Y-14238984D02*
X6729467Y-14248508D01*
X6729467Y-14248508D02*
X6748515Y-14267555D01*
X6748515Y-14267555D02*
X6758039Y-14286603D01*
X6758039Y-14286603D02*
X6767562Y-14324698D01*
X6767562Y-14324698D02*
X6767562Y-14353269D01*
X6767562Y-14353269D02*
X6758039Y-14391365D01*
X6758039Y-14391365D02*
X6748515Y-14410412D01*
X6748515Y-14410412D02*
X6729467Y-14429460D01*
X6729467Y-14429460D02*
X6700896Y-14438984D01*
X6700896Y-14438984D02*
X6653277Y-14438984D01*
X6853277Y-14438984D02*
X6853277Y-14305650D01*
X6853277Y-14343746D02*
X6862801Y-14324698D01*
X6862801Y-14324698D02*
X6872324Y-14315174D01*
X6872324Y-14315174D02*
X6891372Y-14305650D01*
X6891372Y-14305650D02*
X6910420Y-14305650D01*
X6977086Y-14438984D02*
X6977086Y-14305650D01*
X6977086Y-14238984D02*
X6967562Y-14248508D01*
X6967562Y-14248508D02*
X6977086Y-14258031D01*
X6977086Y-14258031D02*
X6986610Y-14248508D01*
X6986610Y-14248508D02*
X6977086Y-14238984D01*
X6977086Y-14238984D02*
X6977086Y-14258031D01*
X7100896Y-14438984D02*
X7081848Y-14429460D01*
X7081848Y-14429460D02*
X7072324Y-14410412D01*
X7072324Y-14410412D02*
X7072324Y-14238984D01*
X7205658Y-14438984D02*
X7186610Y-14429460D01*
X7186610Y-14429460D02*
X7177086Y-14410412D01*
X7177086Y-14410412D02*
X7177086Y-14238984D01*
X7434229Y-14438984D02*
X7434229Y-14238984D01*
X7434229Y-14238984D02*
X7500896Y-14381841D01*
X7500896Y-14381841D02*
X7567562Y-14238984D01*
X7567562Y-14238984D02*
X7567562Y-14438984D01*
X7748515Y-14438984D02*
X7748515Y-14334222D01*
X7748515Y-14334222D02*
X7738991Y-14315174D01*
X7738991Y-14315174D02*
X7719943Y-14305650D01*
X7719943Y-14305650D02*
X7681848Y-14305650D01*
X7681848Y-14305650D02*
X7662801Y-14315174D01*
X7748515Y-14429460D02*
X7729467Y-14438984D01*
X7729467Y-14438984D02*
X7681848Y-14438984D01*
X7681848Y-14438984D02*
X7662801Y-14429460D01*
X7662801Y-14429460D02*
X7653277Y-14410412D01*
X7653277Y-14410412D02*
X7653277Y-14391365D01*
X7653277Y-14391365D02*
X7662801Y-14372317D01*
X7662801Y-14372317D02*
X7681848Y-14362793D01*
X7681848Y-14362793D02*
X7729467Y-14362793D01*
X7729467Y-14362793D02*
X7748515Y-14353269D01*
X7843753Y-14305650D02*
X7843753Y-14505650D01*
X7843753Y-14315174D02*
X7862801Y-14305650D01*
X7862801Y-14305650D02*
X7900896Y-14305650D01*
X7900896Y-14305650D02*
X7919943Y-14315174D01*
X7919943Y-14315174D02*
X7929467Y-14324698D01*
X7929467Y-14324698D02*
X7938991Y-14343746D01*
X7938991Y-14343746D02*
X7938991Y-14400888D01*
X7938991Y-14400888D02*
X7929467Y-14419936D01*
X7929467Y-14419936D02*
X7919943Y-14429460D01*
X7919943Y-14429460D02*
X7900896Y-14438984D01*
X7900896Y-14438984D02*
X7862801Y-14438984D01*
X7862801Y-14438984D02*
X7843753Y-14429460D01*
X8024705Y-14419936D02*
X8034229Y-14429460D01*
X8034229Y-14429460D02*
X8024705Y-14438984D01*
X8024705Y-14438984D02*
X8015182Y-14429460D01*
X8015182Y-14429460D02*
X8024705Y-14419936D01*
X8024705Y-14419936D02*
X8024705Y-14438984D01*
X8024705Y-14315174D02*
X8034229Y-14324698D01*
X8034229Y-14324698D02*
X8024705Y-14334222D01*
X8024705Y-14334222D02*
X8015182Y-14324698D01*
X8015182Y-14324698D02*
X8024705Y-14315174D01*
X8024705Y-14315174D02*
X8024705Y-14334222D01*
D12*
X6362500Y-14752500D02*
X6392500Y-14782500D01*
X6392500Y-14752500D02*
X6362500Y-14782500D01*
D11*
X6691372Y-14658984D02*
X6710420Y-14658984D01*
X6710420Y-14658984D02*
X6729467Y-14668508D01*
X6729467Y-14668508D02*
X6738991Y-14678031D01*
X6738991Y-14678031D02*
X6748515Y-14697079D01*
X6748515Y-14697079D02*
X6758039Y-14735174D01*
X6758039Y-14735174D02*
X6758039Y-14782793D01*
X6758039Y-14782793D02*
X6748515Y-14820888D01*
X6748515Y-14820888D02*
X6738991Y-14839936D01*
X6738991Y-14839936D02*
X6729467Y-14849460D01*
X6729467Y-14849460D02*
X6710420Y-14858984D01*
X6710420Y-14858984D02*
X6691372Y-14858984D01*
X6691372Y-14858984D02*
X6672324Y-14849460D01*
X6672324Y-14849460D02*
X6662801Y-14839936D01*
X6662801Y-14839936D02*
X6653277Y-14820888D01*
X6653277Y-14820888D02*
X6643753Y-14782793D01*
X6643753Y-14782793D02*
X6643753Y-14735174D01*
X6643753Y-14735174D02*
X6653277Y-14697079D01*
X6653277Y-14697079D02*
X6662801Y-14678031D01*
X6662801Y-14678031D02*
X6672324Y-14668508D01*
X6672324Y-14668508D02*
X6691372Y-14658984D01*
X6843753Y-14839936D02*
X6853277Y-14849460D01*
X6853277Y-14849460D02*
X6843753Y-14858984D01*
X6843753Y-14858984D02*
X6834229Y-14849460D01*
X6834229Y-14849460D02*
X6843753Y-14839936D01*
X6843753Y-14839936D02*
X6843753Y-14858984D01*
X6919943Y-14658984D02*
X7043753Y-14658984D01*
X7043753Y-14658984D02*
X6977086Y-14735174D01*
X6977086Y-14735174D02*
X7005658Y-14735174D01*
X7005658Y-14735174D02*
X7024705Y-14744698D01*
X7024705Y-14744698D02*
X7034229Y-14754222D01*
X7034229Y-14754222D02*
X7043753Y-14773269D01*
X7043753Y-14773269D02*
X7043753Y-14820888D01*
X7043753Y-14820888D02*
X7034229Y-14839936D01*
X7034229Y-14839936D02*
X7024705Y-14849460D01*
X7024705Y-14849460D02*
X7005658Y-14858984D01*
X7005658Y-14858984D02*
X6948515Y-14858984D01*
X6948515Y-14858984D02*
X6929467Y-14849460D01*
X6929467Y-14849460D02*
X6919943Y-14839936D01*
X7167562Y-14658984D02*
X7186610Y-14658984D01*
X7186610Y-14658984D02*
X7205658Y-14668508D01*
X7205658Y-14668508D02*
X7215182Y-14678031D01*
X7215182Y-14678031D02*
X7224705Y-14697079D01*
X7224705Y-14697079D02*
X7234229Y-14735174D01*
X7234229Y-14735174D02*
X7234229Y-14782793D01*
X7234229Y-14782793D02*
X7224705Y-14820888D01*
X7224705Y-14820888D02*
X7215182Y-14839936D01*
X7215182Y-14839936D02*
X7205658Y-14849460D01*
X7205658Y-14849460D02*
X7186610Y-14858984D01*
X7186610Y-14858984D02*
X7167562Y-14858984D01*
X7167562Y-14858984D02*
X7148515Y-14849460D01*
X7148515Y-14849460D02*
X7138991Y-14839936D01*
X7138991Y-14839936D02*
X7129467Y-14820888D01*
X7129467Y-14820888D02*
X7119943Y-14782793D01*
X7119943Y-14782793D02*
X7119943Y-14735174D01*
X7119943Y-14735174D02*
X7129467Y-14697079D01*
X7129467Y-14697079D02*
X7138991Y-14678031D01*
X7138991Y-14678031D02*
X7148515Y-14668508D01*
X7148515Y-14668508D02*
X7167562Y-14658984D01*
X7358039Y-14658984D02*
X7377086Y-14658984D01*
X7377086Y-14658984D02*
X7396134Y-14668508D01*
X7396134Y-14668508D02*
X7405658Y-14678031D01*
X7405658Y-14678031D02*
X7415182Y-14697079D01*
X7415182Y-14697079D02*
X7424705Y-14735174D01*
X7424705Y-14735174D02*
X7424705Y-14782793D01*
X7424705Y-14782793D02*
X7415182Y-14820888D01*
X7415182Y-14820888D02*
X7405658Y-14839936D01*
X7405658Y-14839936D02*
X7396134Y-14849460D01*
X7396134Y-14849460D02*
X7377086Y-14858984D01*
X7377086Y-14858984D02*
X7358039Y-14858984D01*
X7358039Y-14858984D02*
X7338991Y-14849460D01*
X7338991Y-14849460D02*
X7329467Y-14839936D01*
X7329467Y-14839936D02*
X7319943Y-14820888D01*
X7319943Y-14820888D02*
X7310420Y-14782793D01*
X7310420Y-14782793D02*
X7310420Y-14735174D01*
X7310420Y-14735174D02*
X7319943Y-14697079D01*
X7319943Y-14697079D02*
X7329467Y-14678031D01*
X7329467Y-14678031D02*
X7338991Y-14668508D01*
X7338991Y-14668508D02*
X7358039Y-14658984D01*
X7510420Y-14858984D02*
X7510420Y-14725650D01*
X7510420Y-14744698D02*
X7519943Y-14735174D01*
X7519943Y-14735174D02*
X7538991Y-14725650D01*
X7538991Y-14725650D02*
X7567563Y-14725650D01*
X7567563Y-14725650D02*
X7586610Y-14735174D01*
X7586610Y-14735174D02*
X7596134Y-14754222D01*
X7596134Y-14754222D02*
X7596134Y-14858984D01*
X7596134Y-14754222D02*
X7605658Y-14735174D01*
X7605658Y-14735174D02*
X7624705Y-14725650D01*
X7624705Y-14725650D02*
X7653277Y-14725650D01*
X7653277Y-14725650D02*
X7672324Y-14735174D01*
X7672324Y-14735174D02*
X7681848Y-14754222D01*
X7681848Y-14754222D02*
X7681848Y-14858984D01*
X7777086Y-14858984D02*
X7777086Y-14725650D01*
X7777086Y-14744698D02*
X7786610Y-14735174D01*
X7786610Y-14735174D02*
X7805658Y-14725650D01*
X7805658Y-14725650D02*
X7834229Y-14725650D01*
X7834229Y-14725650D02*
X7853277Y-14735174D01*
X7853277Y-14735174D02*
X7862801Y-14754222D01*
X7862801Y-14754222D02*
X7862801Y-14858984D01*
X7862801Y-14754222D02*
X7872324Y-14735174D01*
X7872324Y-14735174D02*
X7891372Y-14725650D01*
X7891372Y-14725650D02*
X7919943Y-14725650D01*
X7919943Y-14725650D02*
X7938991Y-14735174D01*
X7938991Y-14735174D02*
X7948515Y-14754222D01*
X7948515Y-14754222D02*
X7948515Y-14858984D01*
X8338991Y-14649460D02*
X8167563Y-14906603D01*
X8596134Y-14658984D02*
X8615182Y-14658984D01*
X8615182Y-14658984D02*
X8634229Y-14668508D01*
X8634229Y-14668508D02*
X8643753Y-14678031D01*
X8643753Y-14678031D02*
X8653277Y-14697079D01*
X8653277Y-14697079D02*
X8662801Y-14735174D01*
X8662801Y-14735174D02*
X8662801Y-14782793D01*
X8662801Y-14782793D02*
X8653277Y-14820888D01*
X8653277Y-14820888D02*
X8643753Y-14839936D01*
X8643753Y-14839936D02*
X8634229Y-14849460D01*
X8634229Y-14849460D02*
X8615182Y-14858984D01*
X8615182Y-14858984D02*
X8596134Y-14858984D01*
X8596134Y-14858984D02*
X8577087Y-14849460D01*
X8577087Y-14849460D02*
X8567563Y-14839936D01*
X8567563Y-14839936D02*
X8558039Y-14820888D01*
X8558039Y-14820888D02*
X8548515Y-14782793D01*
X8548515Y-14782793D02*
X8548515Y-14735174D01*
X8548515Y-14735174D02*
X8558039Y-14697079D01*
X8558039Y-14697079D02*
X8567563Y-14678031D01*
X8567563Y-14678031D02*
X8577087Y-14668508D01*
X8577087Y-14668508D02*
X8596134Y-14658984D01*
X8748515Y-14839936D02*
X8758039Y-14849460D01*
X8758039Y-14849460D02*
X8748515Y-14858984D01*
X8748515Y-14858984D02*
X8738991Y-14849460D01*
X8738991Y-14849460D02*
X8748515Y-14839936D01*
X8748515Y-14839936D02*
X8748515Y-14858984D01*
X8881848Y-14658984D02*
X8900896Y-14658984D01*
X8900896Y-14658984D02*
X8919944Y-14668508D01*
X8919944Y-14668508D02*
X8929468Y-14678031D01*
X8929468Y-14678031D02*
X8938991Y-14697079D01*
X8938991Y-14697079D02*
X8948515Y-14735174D01*
X8948515Y-14735174D02*
X8948515Y-14782793D01*
X8948515Y-14782793D02*
X8938991Y-14820888D01*
X8938991Y-14820888D02*
X8929468Y-14839936D01*
X8929468Y-14839936D02*
X8919944Y-14849460D01*
X8919944Y-14849460D02*
X8900896Y-14858984D01*
X8900896Y-14858984D02*
X8881848Y-14858984D01*
X8881848Y-14858984D02*
X8862801Y-14849460D01*
X8862801Y-14849460D02*
X8853277Y-14839936D01*
X8853277Y-14839936D02*
X8843753Y-14820888D01*
X8843753Y-14820888D02*
X8834229Y-14782793D01*
X8834229Y-14782793D02*
X8834229Y-14735174D01*
X8834229Y-14735174D02*
X8843753Y-14697079D01*
X8843753Y-14697079D02*
X8853277Y-14678031D01*
X8853277Y-14678031D02*
X8862801Y-14668508D01*
X8862801Y-14668508D02*
X8881848Y-14658984D01*
X9138991Y-14858984D02*
X9024706Y-14858984D01*
X9081848Y-14858984D02*
X9081848Y-14658984D01*
X9081848Y-14658984D02*
X9062801Y-14687555D01*
X9062801Y-14687555D02*
X9043753Y-14706603D01*
X9043753Y-14706603D02*
X9024706Y-14716127D01*
X9329468Y-14858984D02*
X9215182Y-14858984D01*
X9272325Y-14858984D02*
X9272325Y-14658984D01*
X9272325Y-14658984D02*
X9253277Y-14687555D01*
X9253277Y-14687555D02*
X9234229Y-14706603D01*
X9234229Y-14706603D02*
X9215182Y-14716127D01*
X9443753Y-14744698D02*
X9424706Y-14735174D01*
X9424706Y-14735174D02*
X9415182Y-14725650D01*
X9415182Y-14725650D02*
X9405658Y-14706603D01*
X9405658Y-14706603D02*
X9405658Y-14697079D01*
X9405658Y-14697079D02*
X9415182Y-14678031D01*
X9415182Y-14678031D02*
X9424706Y-14668508D01*
X9424706Y-14668508D02*
X9443753Y-14658984D01*
X9443753Y-14658984D02*
X9481849Y-14658984D01*
X9481849Y-14658984D02*
X9500896Y-14668508D01*
X9500896Y-14668508D02*
X9510420Y-14678031D01*
X9510420Y-14678031D02*
X9519944Y-14697079D01*
X9519944Y-14697079D02*
X9519944Y-14706603D01*
X9519944Y-14706603D02*
X9510420Y-14725650D01*
X9510420Y-14725650D02*
X9500896Y-14735174D01*
X9500896Y-14735174D02*
X9481849Y-14744698D01*
X9481849Y-14744698D02*
X9443753Y-14744698D01*
X9443753Y-14744698D02*
X9424706Y-14754222D01*
X9424706Y-14754222D02*
X9415182Y-14763746D01*
X9415182Y-14763746D02*
X9405658Y-14782793D01*
X9405658Y-14782793D02*
X9405658Y-14820888D01*
X9405658Y-14820888D02*
X9415182Y-14839936D01*
X9415182Y-14839936D02*
X9424706Y-14849460D01*
X9424706Y-14849460D02*
X9443753Y-14858984D01*
X9443753Y-14858984D02*
X9481849Y-14858984D01*
X9481849Y-14858984D02*
X9500896Y-14849460D01*
X9500896Y-14849460D02*
X9510420Y-14839936D01*
X9510420Y-14839936D02*
X9519944Y-14820888D01*
X9519944Y-14820888D02*
X9519944Y-14782793D01*
X9519944Y-14782793D02*
X9510420Y-14763746D01*
X9510420Y-14763746D02*
X9500896Y-14754222D01*
X9500896Y-14754222D02*
X9481849Y-14744698D01*
X9596134Y-14658984D02*
X9596134Y-14697079D01*
X9672325Y-14658984D02*
X9672325Y-14697079D01*
X9967563Y-14935174D02*
X9958039Y-14925650D01*
X9958039Y-14925650D02*
X9938991Y-14897079D01*
X9938991Y-14897079D02*
X9929468Y-14878031D01*
X9929468Y-14878031D02*
X9919944Y-14849460D01*
X9919944Y-14849460D02*
X9910420Y-14801841D01*
X9910420Y-14801841D02*
X9910420Y-14763746D01*
X9910420Y-14763746D02*
X9919944Y-14716127D01*
X9919944Y-14716127D02*
X9929468Y-14687555D01*
X9929468Y-14687555D02*
X9938991Y-14668508D01*
X9938991Y-14668508D02*
X9958039Y-14639936D01*
X9958039Y-14639936D02*
X9967563Y-14630412D01*
X10138991Y-14658984D02*
X10043753Y-14658984D01*
X10043753Y-14658984D02*
X10034230Y-14754222D01*
X10034230Y-14754222D02*
X10043753Y-14744698D01*
X10043753Y-14744698D02*
X10062801Y-14735174D01*
X10062801Y-14735174D02*
X10110420Y-14735174D01*
X10110420Y-14735174D02*
X10129468Y-14744698D01*
X10129468Y-14744698D02*
X10138991Y-14754222D01*
X10138991Y-14754222D02*
X10148515Y-14773269D01*
X10148515Y-14773269D02*
X10148515Y-14820888D01*
X10148515Y-14820888D02*
X10138991Y-14839936D01*
X10138991Y-14839936D02*
X10129468Y-14849460D01*
X10129468Y-14849460D02*
X10110420Y-14858984D01*
X10110420Y-14858984D02*
X10062801Y-14858984D01*
X10062801Y-14858984D02*
X10043753Y-14849460D01*
X10043753Y-14849460D02*
X10034230Y-14839936D01*
X10338991Y-14858984D02*
X10224706Y-14858984D01*
X10281849Y-14858984D02*
X10281849Y-14658984D01*
X10281849Y-14658984D02*
X10262801Y-14687555D01*
X10262801Y-14687555D02*
X10243753Y-14706603D01*
X10243753Y-14706603D02*
X10224706Y-14716127D01*
X10577087Y-14858984D02*
X10577087Y-14658984D01*
X10662801Y-14858984D02*
X10662801Y-14754222D01*
X10662801Y-14754222D02*
X10653277Y-14735174D01*
X10653277Y-14735174D02*
X10634230Y-14725650D01*
X10634230Y-14725650D02*
X10605658Y-14725650D01*
X10605658Y-14725650D02*
X10586611Y-14735174D01*
X10586611Y-14735174D02*
X10577087Y-14744698D01*
X10786611Y-14858984D02*
X10767563Y-14849460D01*
X10767563Y-14849460D02*
X10758039Y-14839936D01*
X10758039Y-14839936D02*
X10748515Y-14820888D01*
X10748515Y-14820888D02*
X10748515Y-14763746D01*
X10748515Y-14763746D02*
X10758039Y-14744698D01*
X10758039Y-14744698D02*
X10767563Y-14735174D01*
X10767563Y-14735174D02*
X10786611Y-14725650D01*
X10786611Y-14725650D02*
X10815182Y-14725650D01*
X10815182Y-14725650D02*
X10834230Y-14735174D01*
X10834230Y-14735174D02*
X10843753Y-14744698D01*
X10843753Y-14744698D02*
X10853277Y-14763746D01*
X10853277Y-14763746D02*
X10853277Y-14820888D01*
X10853277Y-14820888D02*
X10843753Y-14839936D01*
X10843753Y-14839936D02*
X10834230Y-14849460D01*
X10834230Y-14849460D02*
X10815182Y-14858984D01*
X10815182Y-14858984D02*
X10786611Y-14858984D01*
X10967563Y-14858984D02*
X10948515Y-14849460D01*
X10948515Y-14849460D02*
X10938992Y-14830412D01*
X10938992Y-14830412D02*
X10938992Y-14658984D01*
X11119944Y-14849460D02*
X11100896Y-14858984D01*
X11100896Y-14858984D02*
X11062801Y-14858984D01*
X11062801Y-14858984D02*
X11043753Y-14849460D01*
X11043753Y-14849460D02*
X11034230Y-14830412D01*
X11034230Y-14830412D02*
X11034230Y-14754222D01*
X11034230Y-14754222D02*
X11043753Y-14735174D01*
X11043753Y-14735174D02*
X11062801Y-14725650D01*
X11062801Y-14725650D02*
X11100896Y-14725650D01*
X11100896Y-14725650D02*
X11119944Y-14735174D01*
X11119944Y-14735174D02*
X11129468Y-14754222D01*
X11129468Y-14754222D02*
X11129468Y-14773269D01*
X11129468Y-14773269D02*
X11034230Y-14792317D01*
X11205658Y-14849460D02*
X11224706Y-14858984D01*
X11224706Y-14858984D02*
X11262801Y-14858984D01*
X11262801Y-14858984D02*
X11281849Y-14849460D01*
X11281849Y-14849460D02*
X11291372Y-14830412D01*
X11291372Y-14830412D02*
X11291372Y-14820888D01*
X11291372Y-14820888D02*
X11281849Y-14801841D01*
X11281849Y-14801841D02*
X11262801Y-14792317D01*
X11262801Y-14792317D02*
X11234230Y-14792317D01*
X11234230Y-14792317D02*
X11215182Y-14782793D01*
X11215182Y-14782793D02*
X11205658Y-14763746D01*
X11205658Y-14763746D02*
X11205658Y-14754222D01*
X11205658Y-14754222D02*
X11215182Y-14735174D01*
X11215182Y-14735174D02*
X11234230Y-14725650D01*
X11234230Y-14725650D02*
X11262801Y-14725650D01*
X11262801Y-14725650D02*
X11281849Y-14735174D01*
X11358039Y-14935174D02*
X11367563Y-14925650D01*
X11367563Y-14925650D02*
X11386611Y-14897079D01*
X11386611Y-14897079D02*
X11396134Y-14878031D01*
X11396134Y-14878031D02*
X11405658Y-14849460D01*
X11405658Y-14849460D02*
X11415182Y-14801841D01*
X11415182Y-14801841D02*
X11415182Y-14763746D01*
X11415182Y-14763746D02*
X11405658Y-14716127D01*
X11405658Y-14716127D02*
X11396134Y-14687555D01*
X11396134Y-14687555D02*
X11386611Y-14668508D01*
X11386611Y-14668508D02*
X11367563Y-14639936D01*
X11367563Y-14639936D02*
X11358039Y-14630412D01*
D12*
X6392500Y-15031500D02*
G75*
G02*
X6292500Y-15031500I-50000J0D01*
G01*
X6292500Y-15031500D02*
G75*
G02*
X6392500Y-15031500I50000J0D01*
G01*
D11*
X6758039Y-15122984D02*
X6643753Y-15122984D01*
X6700896Y-15122984D02*
X6700896Y-14922984D01*
X6700896Y-14922984D02*
X6681848Y-14951555D01*
X6681848Y-14951555D02*
X6662801Y-14970603D01*
X6662801Y-14970603D02*
X6643753Y-14980127D01*
X6843753Y-15103936D02*
X6853277Y-15113460D01*
X6853277Y-15113460D02*
X6843753Y-15122984D01*
X6843753Y-15122984D02*
X6834229Y-15113460D01*
X6834229Y-15113460D02*
X6843753Y-15103936D01*
X6843753Y-15103936D02*
X6843753Y-15122984D01*
X6977086Y-14922984D02*
X6996134Y-14922984D01*
X6996134Y-14922984D02*
X7015182Y-14932508D01*
X7015182Y-14932508D02*
X7024705Y-14942031D01*
X7024705Y-14942031D02*
X7034229Y-14961079D01*
X7034229Y-14961079D02*
X7043753Y-14999174D01*
X7043753Y-14999174D02*
X7043753Y-15046793D01*
X7043753Y-15046793D02*
X7034229Y-15084888D01*
X7034229Y-15084888D02*
X7024705Y-15103936D01*
X7024705Y-15103936D02*
X7015182Y-15113460D01*
X7015182Y-15113460D02*
X6996134Y-15122984D01*
X6996134Y-15122984D02*
X6977086Y-15122984D01*
X6977086Y-15122984D02*
X6958039Y-15113460D01*
X6958039Y-15113460D02*
X6948515Y-15103936D01*
X6948515Y-15103936D02*
X6938991Y-15084888D01*
X6938991Y-15084888D02*
X6929467Y-15046793D01*
X6929467Y-15046793D02*
X6929467Y-14999174D01*
X6929467Y-14999174D02*
X6938991Y-14961079D01*
X6938991Y-14961079D02*
X6948515Y-14942031D01*
X6948515Y-14942031D02*
X6958039Y-14932508D01*
X6958039Y-14932508D02*
X6977086Y-14922984D01*
X7167562Y-14922984D02*
X7186610Y-14922984D01*
X7186610Y-14922984D02*
X7205658Y-14932508D01*
X7205658Y-14932508D02*
X7215182Y-14942031D01*
X7215182Y-14942031D02*
X7224705Y-14961079D01*
X7224705Y-14961079D02*
X7234229Y-14999174D01*
X7234229Y-14999174D02*
X7234229Y-15046793D01*
X7234229Y-15046793D02*
X7224705Y-15084888D01*
X7224705Y-15084888D02*
X7215182Y-15103936D01*
X7215182Y-15103936D02*
X7205658Y-15113460D01*
X7205658Y-15113460D02*
X7186610Y-15122984D01*
X7186610Y-15122984D02*
X7167562Y-15122984D01*
X7167562Y-15122984D02*
X7148515Y-15113460D01*
X7148515Y-15113460D02*
X7138991Y-15103936D01*
X7138991Y-15103936D02*
X7129467Y-15084888D01*
X7129467Y-15084888D02*
X7119943Y-15046793D01*
X7119943Y-15046793D02*
X7119943Y-14999174D01*
X7119943Y-14999174D02*
X7129467Y-14961079D01*
X7129467Y-14961079D02*
X7138991Y-14942031D01*
X7138991Y-14942031D02*
X7148515Y-14932508D01*
X7148515Y-14932508D02*
X7167562Y-14922984D01*
X7358039Y-14922984D02*
X7377086Y-14922984D01*
X7377086Y-14922984D02*
X7396134Y-14932508D01*
X7396134Y-14932508D02*
X7405658Y-14942031D01*
X7405658Y-14942031D02*
X7415182Y-14961079D01*
X7415182Y-14961079D02*
X7424705Y-14999174D01*
X7424705Y-14999174D02*
X7424705Y-15046793D01*
X7424705Y-15046793D02*
X7415182Y-15084888D01*
X7415182Y-15084888D02*
X7405658Y-15103936D01*
X7405658Y-15103936D02*
X7396134Y-15113460D01*
X7396134Y-15113460D02*
X7377086Y-15122984D01*
X7377086Y-15122984D02*
X7358039Y-15122984D01*
X7358039Y-15122984D02*
X7338991Y-15113460D01*
X7338991Y-15113460D02*
X7329467Y-15103936D01*
X7329467Y-15103936D02*
X7319943Y-15084888D01*
X7319943Y-15084888D02*
X7310420Y-15046793D01*
X7310420Y-15046793D02*
X7310420Y-14999174D01*
X7310420Y-14999174D02*
X7319943Y-14961079D01*
X7319943Y-14961079D02*
X7329467Y-14942031D01*
X7329467Y-14942031D02*
X7338991Y-14932508D01*
X7338991Y-14932508D02*
X7358039Y-14922984D01*
X7510420Y-15122984D02*
X7510420Y-14989650D01*
X7510420Y-15008698D02*
X7519943Y-14999174D01*
X7519943Y-14999174D02*
X7538991Y-14989650D01*
X7538991Y-14989650D02*
X7567563Y-14989650D01*
X7567563Y-14989650D02*
X7586610Y-14999174D01*
X7586610Y-14999174D02*
X7596134Y-15018222D01*
X7596134Y-15018222D02*
X7596134Y-15122984D01*
X7596134Y-15018222D02*
X7605658Y-14999174D01*
X7605658Y-14999174D02*
X7624705Y-14989650D01*
X7624705Y-14989650D02*
X7653277Y-14989650D01*
X7653277Y-14989650D02*
X7672324Y-14999174D01*
X7672324Y-14999174D02*
X7681848Y-15018222D01*
X7681848Y-15018222D02*
X7681848Y-15122984D01*
X7777086Y-15122984D02*
X7777086Y-14989650D01*
X7777086Y-15008698D02*
X7786610Y-14999174D01*
X7786610Y-14999174D02*
X7805658Y-14989650D01*
X7805658Y-14989650D02*
X7834229Y-14989650D01*
X7834229Y-14989650D02*
X7853277Y-14999174D01*
X7853277Y-14999174D02*
X7862801Y-15018222D01*
X7862801Y-15018222D02*
X7862801Y-15122984D01*
X7862801Y-15018222D02*
X7872324Y-14999174D01*
X7872324Y-14999174D02*
X7891372Y-14989650D01*
X7891372Y-14989650D02*
X7919943Y-14989650D01*
X7919943Y-14989650D02*
X7938991Y-14999174D01*
X7938991Y-14999174D02*
X7948515Y-15018222D01*
X7948515Y-15018222D02*
X7948515Y-15122984D01*
X8338991Y-14913460D02*
X8167563Y-15170603D01*
X8596134Y-14922984D02*
X8615182Y-14922984D01*
X8615182Y-14922984D02*
X8634229Y-14932508D01*
X8634229Y-14932508D02*
X8643753Y-14942031D01*
X8643753Y-14942031D02*
X8653277Y-14961079D01*
X8653277Y-14961079D02*
X8662801Y-14999174D01*
X8662801Y-14999174D02*
X8662801Y-15046793D01*
X8662801Y-15046793D02*
X8653277Y-15084888D01*
X8653277Y-15084888D02*
X8643753Y-15103936D01*
X8643753Y-15103936D02*
X8634229Y-15113460D01*
X8634229Y-15113460D02*
X8615182Y-15122984D01*
X8615182Y-15122984D02*
X8596134Y-15122984D01*
X8596134Y-15122984D02*
X8577087Y-15113460D01*
X8577087Y-15113460D02*
X8567563Y-15103936D01*
X8567563Y-15103936D02*
X8558039Y-15084888D01*
X8558039Y-15084888D02*
X8548515Y-15046793D01*
X8548515Y-15046793D02*
X8548515Y-14999174D01*
X8548515Y-14999174D02*
X8558039Y-14961079D01*
X8558039Y-14961079D02*
X8567563Y-14942031D01*
X8567563Y-14942031D02*
X8577087Y-14932508D01*
X8577087Y-14932508D02*
X8596134Y-14922984D01*
X8748515Y-15103936D02*
X8758039Y-15113460D01*
X8758039Y-15113460D02*
X8748515Y-15122984D01*
X8748515Y-15122984D02*
X8738991Y-15113460D01*
X8738991Y-15113460D02*
X8748515Y-15103936D01*
X8748515Y-15103936D02*
X8748515Y-15122984D01*
X8881848Y-14922984D02*
X8900896Y-14922984D01*
X8900896Y-14922984D02*
X8919944Y-14932508D01*
X8919944Y-14932508D02*
X8929468Y-14942031D01*
X8929468Y-14942031D02*
X8938991Y-14961079D01*
X8938991Y-14961079D02*
X8948515Y-14999174D01*
X8948515Y-14999174D02*
X8948515Y-15046793D01*
X8948515Y-15046793D02*
X8938991Y-15084888D01*
X8938991Y-15084888D02*
X8929468Y-15103936D01*
X8929468Y-15103936D02*
X8919944Y-15113460D01*
X8919944Y-15113460D02*
X8900896Y-15122984D01*
X8900896Y-15122984D02*
X8881848Y-15122984D01*
X8881848Y-15122984D02*
X8862801Y-15113460D01*
X8862801Y-15113460D02*
X8853277Y-15103936D01*
X8853277Y-15103936D02*
X8843753Y-15084888D01*
X8843753Y-15084888D02*
X8834229Y-15046793D01*
X8834229Y-15046793D02*
X8834229Y-14999174D01*
X8834229Y-14999174D02*
X8843753Y-14961079D01*
X8843753Y-14961079D02*
X8853277Y-14942031D01*
X8853277Y-14942031D02*
X8862801Y-14932508D01*
X8862801Y-14932508D02*
X8881848Y-14922984D01*
X9015182Y-14922984D02*
X9138991Y-14922984D01*
X9138991Y-14922984D02*
X9072325Y-14999174D01*
X9072325Y-14999174D02*
X9100896Y-14999174D01*
X9100896Y-14999174D02*
X9119944Y-15008698D01*
X9119944Y-15008698D02*
X9129468Y-15018222D01*
X9129468Y-15018222D02*
X9138991Y-15037269D01*
X9138991Y-15037269D02*
X9138991Y-15084888D01*
X9138991Y-15084888D02*
X9129468Y-15103936D01*
X9129468Y-15103936D02*
X9119944Y-15113460D01*
X9119944Y-15113460D02*
X9100896Y-15122984D01*
X9100896Y-15122984D02*
X9043753Y-15122984D01*
X9043753Y-15122984D02*
X9024706Y-15113460D01*
X9024706Y-15113460D02*
X9015182Y-15103936D01*
X9234229Y-15122984D02*
X9272325Y-15122984D01*
X9272325Y-15122984D02*
X9291372Y-15113460D01*
X9291372Y-15113460D02*
X9300896Y-15103936D01*
X9300896Y-15103936D02*
X9319944Y-15075365D01*
X9319944Y-15075365D02*
X9329468Y-15037269D01*
X9329468Y-15037269D02*
X9329468Y-14961079D01*
X9329468Y-14961079D02*
X9319944Y-14942031D01*
X9319944Y-14942031D02*
X9310420Y-14932508D01*
X9310420Y-14932508D02*
X9291372Y-14922984D01*
X9291372Y-14922984D02*
X9253277Y-14922984D01*
X9253277Y-14922984D02*
X9234229Y-14932508D01*
X9234229Y-14932508D02*
X9224706Y-14942031D01*
X9224706Y-14942031D02*
X9215182Y-14961079D01*
X9215182Y-14961079D02*
X9215182Y-15008698D01*
X9215182Y-15008698D02*
X9224706Y-15027746D01*
X9224706Y-15027746D02*
X9234229Y-15037269D01*
X9234229Y-15037269D02*
X9253277Y-15046793D01*
X9253277Y-15046793D02*
X9291372Y-15046793D01*
X9291372Y-15046793D02*
X9310420Y-15037269D01*
X9310420Y-15037269D02*
X9319944Y-15027746D01*
X9319944Y-15027746D02*
X9329468Y-15008698D01*
X9500896Y-14989650D02*
X9500896Y-15122984D01*
X9453277Y-14913460D02*
X9405658Y-15056317D01*
X9405658Y-15056317D02*
X9529468Y-15056317D01*
X9596134Y-14922984D02*
X9596134Y-14961079D01*
X9672325Y-14922984D02*
X9672325Y-14961079D01*
X9967563Y-15199174D02*
X9958039Y-15189650D01*
X9958039Y-15189650D02*
X9938991Y-15161079D01*
X9938991Y-15161079D02*
X9929468Y-15142031D01*
X9929468Y-15142031D02*
X9919944Y-15113460D01*
X9919944Y-15113460D02*
X9910420Y-15065841D01*
X9910420Y-15065841D02*
X9910420Y-15027746D01*
X9910420Y-15027746D02*
X9919944Y-14980127D01*
X9919944Y-14980127D02*
X9929468Y-14951555D01*
X9929468Y-14951555D02*
X9938991Y-14932508D01*
X9938991Y-14932508D02*
X9958039Y-14903936D01*
X9958039Y-14903936D02*
X9967563Y-14894412D01*
X10129468Y-14989650D02*
X10129468Y-15122984D01*
X10081849Y-14913460D02*
X10034230Y-15056317D01*
X10034230Y-15056317D02*
X10158039Y-15056317D01*
X10215182Y-14922984D02*
X10338991Y-14922984D01*
X10338991Y-14922984D02*
X10272325Y-14999174D01*
X10272325Y-14999174D02*
X10300896Y-14999174D01*
X10300896Y-14999174D02*
X10319944Y-15008698D01*
X10319944Y-15008698D02*
X10329468Y-15018222D01*
X10329468Y-15018222D02*
X10338991Y-15037269D01*
X10338991Y-15037269D02*
X10338991Y-15084888D01*
X10338991Y-15084888D02*
X10329468Y-15103936D01*
X10329468Y-15103936D02*
X10319944Y-15113460D01*
X10319944Y-15113460D02*
X10300896Y-15122984D01*
X10300896Y-15122984D02*
X10243753Y-15122984D01*
X10243753Y-15122984D02*
X10224706Y-15113460D01*
X10224706Y-15113460D02*
X10215182Y-15103936D01*
X10577087Y-15122984D02*
X10577087Y-14922984D01*
X10662801Y-15122984D02*
X10662801Y-15018222D01*
X10662801Y-15018222D02*
X10653277Y-14999174D01*
X10653277Y-14999174D02*
X10634230Y-14989650D01*
X10634230Y-14989650D02*
X10605658Y-14989650D01*
X10605658Y-14989650D02*
X10586611Y-14999174D01*
X10586611Y-14999174D02*
X10577087Y-15008698D01*
X10786611Y-15122984D02*
X10767563Y-15113460D01*
X10767563Y-15113460D02*
X10758039Y-15103936D01*
X10758039Y-15103936D02*
X10748515Y-15084888D01*
X10748515Y-15084888D02*
X10748515Y-15027746D01*
X10748515Y-15027746D02*
X10758039Y-15008698D01*
X10758039Y-15008698D02*
X10767563Y-14999174D01*
X10767563Y-14999174D02*
X10786611Y-14989650D01*
X10786611Y-14989650D02*
X10815182Y-14989650D01*
X10815182Y-14989650D02*
X10834230Y-14999174D01*
X10834230Y-14999174D02*
X10843753Y-15008698D01*
X10843753Y-15008698D02*
X10853277Y-15027746D01*
X10853277Y-15027746D02*
X10853277Y-15084888D01*
X10853277Y-15084888D02*
X10843753Y-15103936D01*
X10843753Y-15103936D02*
X10834230Y-15113460D01*
X10834230Y-15113460D02*
X10815182Y-15122984D01*
X10815182Y-15122984D02*
X10786611Y-15122984D01*
X10967563Y-15122984D02*
X10948515Y-15113460D01*
X10948515Y-15113460D02*
X10938992Y-15094412D01*
X10938992Y-15094412D02*
X10938992Y-14922984D01*
X11119944Y-15113460D02*
X11100896Y-15122984D01*
X11100896Y-15122984D02*
X11062801Y-15122984D01*
X11062801Y-15122984D02*
X11043753Y-15113460D01*
X11043753Y-15113460D02*
X11034230Y-15094412D01*
X11034230Y-15094412D02*
X11034230Y-15018222D01*
X11034230Y-15018222D02*
X11043753Y-14999174D01*
X11043753Y-14999174D02*
X11062801Y-14989650D01*
X11062801Y-14989650D02*
X11100896Y-14989650D01*
X11100896Y-14989650D02*
X11119944Y-14999174D01*
X11119944Y-14999174D02*
X11129468Y-15018222D01*
X11129468Y-15018222D02*
X11129468Y-15037269D01*
X11129468Y-15037269D02*
X11034230Y-15056317D01*
X11205658Y-15113460D02*
X11224706Y-15122984D01*
X11224706Y-15122984D02*
X11262801Y-15122984D01*
X11262801Y-15122984D02*
X11281849Y-15113460D01*
X11281849Y-15113460D02*
X11291372Y-15094412D01*
X11291372Y-15094412D02*
X11291372Y-15084888D01*
X11291372Y-15084888D02*
X11281849Y-15065841D01*
X11281849Y-15065841D02*
X11262801Y-15056317D01*
X11262801Y-15056317D02*
X11234230Y-15056317D01*
X11234230Y-15056317D02*
X11215182Y-15046793D01*
X11215182Y-15046793D02*
X11205658Y-15027746D01*
X11205658Y-15027746D02*
X11205658Y-15018222D01*
X11205658Y-15018222D02*
X11215182Y-14999174D01*
X11215182Y-14999174D02*
X11234230Y-14989650D01*
X11234230Y-14989650D02*
X11262801Y-14989650D01*
X11262801Y-14989650D02*
X11281849Y-14999174D01*
X11358039Y-15199174D02*
X11367563Y-15189650D01*
X11367563Y-15189650D02*
X11386611Y-15161079D01*
X11386611Y-15161079D02*
X11396134Y-15142031D01*
X11396134Y-15142031D02*
X11405658Y-15113460D01*
X11405658Y-15113460D02*
X11415182Y-15065841D01*
X11415182Y-15065841D02*
X11415182Y-15027746D01*
X11415182Y-15027746D02*
X11405658Y-14980127D01*
X11405658Y-14980127D02*
X11396134Y-14951555D01*
X11396134Y-14951555D02*
X11386611Y-14932508D01*
X11386611Y-14932508D02*
X11367563Y-14903936D01*
X11367563Y-14903936D02*
X11358039Y-14894412D01*
D13*
X6341500Y-15244500D02*
X6341500Y-15346500D01*
X6290500Y-15295500D02*
X6392500Y-15295500D01*
D11*
X6758039Y-15386984D02*
X6643753Y-15386984D01*
X6700896Y-15386984D02*
X6700896Y-15186984D01*
X6700896Y-15186984D02*
X6681848Y-15215555D01*
X6681848Y-15215555D02*
X6662801Y-15234603D01*
X6662801Y-15234603D02*
X6643753Y-15244127D01*
X6843753Y-15367936D02*
X6853277Y-15377460D01*
X6853277Y-15377460D02*
X6843753Y-15386984D01*
X6843753Y-15386984D02*
X6834229Y-15377460D01*
X6834229Y-15377460D02*
X6843753Y-15367936D01*
X6843753Y-15367936D02*
X6843753Y-15386984D01*
X6977086Y-15186984D02*
X6996134Y-15186984D01*
X6996134Y-15186984D02*
X7015182Y-15196508D01*
X7015182Y-15196508D02*
X7024705Y-15206031D01*
X7024705Y-15206031D02*
X7034229Y-15225079D01*
X7034229Y-15225079D02*
X7043753Y-15263174D01*
X7043753Y-15263174D02*
X7043753Y-15310793D01*
X7043753Y-15310793D02*
X7034229Y-15348888D01*
X7034229Y-15348888D02*
X7024705Y-15367936D01*
X7024705Y-15367936D02*
X7015182Y-15377460D01*
X7015182Y-15377460D02*
X6996134Y-15386984D01*
X6996134Y-15386984D02*
X6977086Y-15386984D01*
X6977086Y-15386984D02*
X6958039Y-15377460D01*
X6958039Y-15377460D02*
X6948515Y-15367936D01*
X6948515Y-15367936D02*
X6938991Y-15348888D01*
X6938991Y-15348888D02*
X6929467Y-15310793D01*
X6929467Y-15310793D02*
X6929467Y-15263174D01*
X6929467Y-15263174D02*
X6938991Y-15225079D01*
X6938991Y-15225079D02*
X6948515Y-15206031D01*
X6948515Y-15206031D02*
X6958039Y-15196508D01*
X6958039Y-15196508D02*
X6977086Y-15186984D01*
X7119943Y-15206031D02*
X7129467Y-15196508D01*
X7129467Y-15196508D02*
X7148515Y-15186984D01*
X7148515Y-15186984D02*
X7196134Y-15186984D01*
X7196134Y-15186984D02*
X7215182Y-15196508D01*
X7215182Y-15196508D02*
X7224705Y-15206031D01*
X7224705Y-15206031D02*
X7234229Y-15225079D01*
X7234229Y-15225079D02*
X7234229Y-15244127D01*
X7234229Y-15244127D02*
X7224705Y-15272698D01*
X7224705Y-15272698D02*
X7110420Y-15386984D01*
X7110420Y-15386984D02*
X7234229Y-15386984D01*
X7358039Y-15186984D02*
X7377086Y-15186984D01*
X7377086Y-15186984D02*
X7396134Y-15196508D01*
X7396134Y-15196508D02*
X7405658Y-15206031D01*
X7405658Y-15206031D02*
X7415182Y-15225079D01*
X7415182Y-15225079D02*
X7424705Y-15263174D01*
X7424705Y-15263174D02*
X7424705Y-15310793D01*
X7424705Y-15310793D02*
X7415182Y-15348888D01*
X7415182Y-15348888D02*
X7405658Y-15367936D01*
X7405658Y-15367936D02*
X7396134Y-15377460D01*
X7396134Y-15377460D02*
X7377086Y-15386984D01*
X7377086Y-15386984D02*
X7358039Y-15386984D01*
X7358039Y-15386984D02*
X7338991Y-15377460D01*
X7338991Y-15377460D02*
X7329467Y-15367936D01*
X7329467Y-15367936D02*
X7319943Y-15348888D01*
X7319943Y-15348888D02*
X7310420Y-15310793D01*
X7310420Y-15310793D02*
X7310420Y-15263174D01*
X7310420Y-15263174D02*
X7319943Y-15225079D01*
X7319943Y-15225079D02*
X7329467Y-15206031D01*
X7329467Y-15206031D02*
X7338991Y-15196508D01*
X7338991Y-15196508D02*
X7358039Y-15186984D01*
X7510420Y-15386984D02*
X7510420Y-15253650D01*
X7510420Y-15272698D02*
X7519943Y-15263174D01*
X7519943Y-15263174D02*
X7538991Y-15253650D01*
X7538991Y-15253650D02*
X7567563Y-15253650D01*
X7567563Y-15253650D02*
X7586610Y-15263174D01*
X7586610Y-15263174D02*
X7596134Y-15282222D01*
X7596134Y-15282222D02*
X7596134Y-15386984D01*
X7596134Y-15282222D02*
X7605658Y-15263174D01*
X7605658Y-15263174D02*
X7624705Y-15253650D01*
X7624705Y-15253650D02*
X7653277Y-15253650D01*
X7653277Y-15253650D02*
X7672324Y-15263174D01*
X7672324Y-15263174D02*
X7681848Y-15282222D01*
X7681848Y-15282222D02*
X7681848Y-15386984D01*
X7777086Y-15386984D02*
X7777086Y-15253650D01*
X7777086Y-15272698D02*
X7786610Y-15263174D01*
X7786610Y-15263174D02*
X7805658Y-15253650D01*
X7805658Y-15253650D02*
X7834229Y-15253650D01*
X7834229Y-15253650D02*
X7853277Y-15263174D01*
X7853277Y-15263174D02*
X7862801Y-15282222D01*
X7862801Y-15282222D02*
X7862801Y-15386984D01*
X7862801Y-15282222D02*
X7872324Y-15263174D01*
X7872324Y-15263174D02*
X7891372Y-15253650D01*
X7891372Y-15253650D02*
X7919943Y-15253650D01*
X7919943Y-15253650D02*
X7938991Y-15263174D01*
X7938991Y-15263174D02*
X7948515Y-15282222D01*
X7948515Y-15282222D02*
X7948515Y-15386984D01*
X8338991Y-15177460D02*
X8167563Y-15434603D01*
X8596134Y-15186984D02*
X8615182Y-15186984D01*
X8615182Y-15186984D02*
X8634229Y-15196508D01*
X8634229Y-15196508D02*
X8643753Y-15206031D01*
X8643753Y-15206031D02*
X8653277Y-15225079D01*
X8653277Y-15225079D02*
X8662801Y-15263174D01*
X8662801Y-15263174D02*
X8662801Y-15310793D01*
X8662801Y-15310793D02*
X8653277Y-15348888D01*
X8653277Y-15348888D02*
X8643753Y-15367936D01*
X8643753Y-15367936D02*
X8634229Y-15377460D01*
X8634229Y-15377460D02*
X8615182Y-15386984D01*
X8615182Y-15386984D02*
X8596134Y-15386984D01*
X8596134Y-15386984D02*
X8577087Y-15377460D01*
X8577087Y-15377460D02*
X8567563Y-15367936D01*
X8567563Y-15367936D02*
X8558039Y-15348888D01*
X8558039Y-15348888D02*
X8548515Y-15310793D01*
X8548515Y-15310793D02*
X8548515Y-15263174D01*
X8548515Y-15263174D02*
X8558039Y-15225079D01*
X8558039Y-15225079D02*
X8567563Y-15206031D01*
X8567563Y-15206031D02*
X8577087Y-15196508D01*
X8577087Y-15196508D02*
X8596134Y-15186984D01*
X8748515Y-15367936D02*
X8758039Y-15377460D01*
X8758039Y-15377460D02*
X8748515Y-15386984D01*
X8748515Y-15386984D02*
X8738991Y-15377460D01*
X8738991Y-15377460D02*
X8748515Y-15367936D01*
X8748515Y-15367936D02*
X8748515Y-15386984D01*
X8881848Y-15186984D02*
X8900896Y-15186984D01*
X8900896Y-15186984D02*
X8919944Y-15196508D01*
X8919944Y-15196508D02*
X8929468Y-15206031D01*
X8929468Y-15206031D02*
X8938991Y-15225079D01*
X8938991Y-15225079D02*
X8948515Y-15263174D01*
X8948515Y-15263174D02*
X8948515Y-15310793D01*
X8948515Y-15310793D02*
X8938991Y-15348888D01*
X8938991Y-15348888D02*
X8929468Y-15367936D01*
X8929468Y-15367936D02*
X8919944Y-15377460D01*
X8919944Y-15377460D02*
X8900896Y-15386984D01*
X8900896Y-15386984D02*
X8881848Y-15386984D01*
X8881848Y-15386984D02*
X8862801Y-15377460D01*
X8862801Y-15377460D02*
X8853277Y-15367936D01*
X8853277Y-15367936D02*
X8843753Y-15348888D01*
X8843753Y-15348888D02*
X8834229Y-15310793D01*
X8834229Y-15310793D02*
X8834229Y-15263174D01*
X8834229Y-15263174D02*
X8843753Y-15225079D01*
X8843753Y-15225079D02*
X8853277Y-15206031D01*
X8853277Y-15206031D02*
X8862801Y-15196508D01*
X8862801Y-15196508D02*
X8881848Y-15186984D01*
X9119944Y-15253650D02*
X9119944Y-15386984D01*
X9072325Y-15177460D02*
X9024706Y-15320317D01*
X9024706Y-15320317D02*
X9148515Y-15320317D01*
X9262801Y-15186984D02*
X9281849Y-15186984D01*
X9281849Y-15186984D02*
X9300896Y-15196508D01*
X9300896Y-15196508D02*
X9310420Y-15206031D01*
X9310420Y-15206031D02*
X9319944Y-15225079D01*
X9319944Y-15225079D02*
X9329468Y-15263174D01*
X9329468Y-15263174D02*
X9329468Y-15310793D01*
X9329468Y-15310793D02*
X9319944Y-15348888D01*
X9319944Y-15348888D02*
X9310420Y-15367936D01*
X9310420Y-15367936D02*
X9300896Y-15377460D01*
X9300896Y-15377460D02*
X9281849Y-15386984D01*
X9281849Y-15386984D02*
X9262801Y-15386984D01*
X9262801Y-15386984D02*
X9243753Y-15377460D01*
X9243753Y-15377460D02*
X9234229Y-15367936D01*
X9234229Y-15367936D02*
X9224706Y-15348888D01*
X9224706Y-15348888D02*
X9215182Y-15310793D01*
X9215182Y-15310793D02*
X9215182Y-15263174D01*
X9215182Y-15263174D02*
X9224706Y-15225079D01*
X9224706Y-15225079D02*
X9234229Y-15206031D01*
X9234229Y-15206031D02*
X9243753Y-15196508D01*
X9243753Y-15196508D02*
X9262801Y-15186984D01*
X9405658Y-15206031D02*
X9415182Y-15196508D01*
X9415182Y-15196508D02*
X9434229Y-15186984D01*
X9434229Y-15186984D02*
X9481849Y-15186984D01*
X9481849Y-15186984D02*
X9500896Y-15196508D01*
X9500896Y-15196508D02*
X9510420Y-15206031D01*
X9510420Y-15206031D02*
X9519944Y-15225079D01*
X9519944Y-15225079D02*
X9519944Y-15244127D01*
X9519944Y-15244127D02*
X9510420Y-15272698D01*
X9510420Y-15272698D02*
X9396134Y-15386984D01*
X9396134Y-15386984D02*
X9519944Y-15386984D01*
X9596134Y-15186984D02*
X9596134Y-15225079D01*
X9672325Y-15186984D02*
X9672325Y-15225079D01*
X9967563Y-15463174D02*
X9958039Y-15453650D01*
X9958039Y-15453650D02*
X9938991Y-15425079D01*
X9938991Y-15425079D02*
X9929468Y-15406031D01*
X9929468Y-15406031D02*
X9919944Y-15377460D01*
X9919944Y-15377460D02*
X9910420Y-15329841D01*
X9910420Y-15329841D02*
X9910420Y-15291746D01*
X9910420Y-15291746D02*
X9919944Y-15244127D01*
X9919944Y-15244127D02*
X9929468Y-15215555D01*
X9929468Y-15215555D02*
X9938991Y-15196508D01*
X9938991Y-15196508D02*
X9958039Y-15167936D01*
X9958039Y-15167936D02*
X9967563Y-15158412D01*
X10129468Y-15253650D02*
X10129468Y-15386984D01*
X10081849Y-15177460D02*
X10034230Y-15320317D01*
X10034230Y-15320317D02*
X10158039Y-15320317D01*
X10215182Y-15186984D02*
X10338991Y-15186984D01*
X10338991Y-15186984D02*
X10272325Y-15263174D01*
X10272325Y-15263174D02*
X10300896Y-15263174D01*
X10300896Y-15263174D02*
X10319944Y-15272698D01*
X10319944Y-15272698D02*
X10329468Y-15282222D01*
X10329468Y-15282222D02*
X10338991Y-15301269D01*
X10338991Y-15301269D02*
X10338991Y-15348888D01*
X10338991Y-15348888D02*
X10329468Y-15367936D01*
X10329468Y-15367936D02*
X10319944Y-15377460D01*
X10319944Y-15377460D02*
X10300896Y-15386984D01*
X10300896Y-15386984D02*
X10243753Y-15386984D01*
X10243753Y-15386984D02*
X10224706Y-15377460D01*
X10224706Y-15377460D02*
X10215182Y-15367936D01*
X10577087Y-15386984D02*
X10577087Y-15186984D01*
X10662801Y-15386984D02*
X10662801Y-15282222D01*
X10662801Y-15282222D02*
X10653277Y-15263174D01*
X10653277Y-15263174D02*
X10634230Y-15253650D01*
X10634230Y-15253650D02*
X10605658Y-15253650D01*
X10605658Y-15253650D02*
X10586611Y-15263174D01*
X10586611Y-15263174D02*
X10577087Y-15272698D01*
X10786611Y-15386984D02*
X10767563Y-15377460D01*
X10767563Y-15377460D02*
X10758039Y-15367936D01*
X10758039Y-15367936D02*
X10748515Y-15348888D01*
X10748515Y-15348888D02*
X10748515Y-15291746D01*
X10748515Y-15291746D02*
X10758039Y-15272698D01*
X10758039Y-15272698D02*
X10767563Y-15263174D01*
X10767563Y-15263174D02*
X10786611Y-15253650D01*
X10786611Y-15253650D02*
X10815182Y-15253650D01*
X10815182Y-15253650D02*
X10834230Y-15263174D01*
X10834230Y-15263174D02*
X10843753Y-15272698D01*
X10843753Y-15272698D02*
X10853277Y-15291746D01*
X10853277Y-15291746D02*
X10853277Y-15348888D01*
X10853277Y-15348888D02*
X10843753Y-15367936D01*
X10843753Y-15367936D02*
X10834230Y-15377460D01*
X10834230Y-15377460D02*
X10815182Y-15386984D01*
X10815182Y-15386984D02*
X10786611Y-15386984D01*
X10967563Y-15386984D02*
X10948515Y-15377460D01*
X10948515Y-15377460D02*
X10938992Y-15358412D01*
X10938992Y-15358412D02*
X10938992Y-15186984D01*
X11119944Y-15377460D02*
X11100896Y-15386984D01*
X11100896Y-15386984D02*
X11062801Y-15386984D01*
X11062801Y-15386984D02*
X11043753Y-15377460D01*
X11043753Y-15377460D02*
X11034230Y-15358412D01*
X11034230Y-15358412D02*
X11034230Y-15282222D01*
X11034230Y-15282222D02*
X11043753Y-15263174D01*
X11043753Y-15263174D02*
X11062801Y-15253650D01*
X11062801Y-15253650D02*
X11100896Y-15253650D01*
X11100896Y-15253650D02*
X11119944Y-15263174D01*
X11119944Y-15263174D02*
X11129468Y-15282222D01*
X11129468Y-15282222D02*
X11129468Y-15301269D01*
X11129468Y-15301269D02*
X11034230Y-15320317D01*
X11205658Y-15377460D02*
X11224706Y-15386984D01*
X11224706Y-15386984D02*
X11262801Y-15386984D01*
X11262801Y-15386984D02*
X11281849Y-15377460D01*
X11281849Y-15377460D02*
X11291372Y-15358412D01*
X11291372Y-15358412D02*
X11291372Y-15348888D01*
X11291372Y-15348888D02*
X11281849Y-15329841D01*
X11281849Y-15329841D02*
X11262801Y-15320317D01*
X11262801Y-15320317D02*
X11234230Y-15320317D01*
X11234230Y-15320317D02*
X11215182Y-15310793D01*
X11215182Y-15310793D02*
X11205658Y-15291746D01*
X11205658Y-15291746D02*
X11205658Y-15282222D01*
X11205658Y-15282222D02*
X11215182Y-15263174D01*
X11215182Y-15263174D02*
X11234230Y-15253650D01*
X11234230Y-15253650D02*
X11262801Y-15253650D01*
X11262801Y-15253650D02*
X11281849Y-15263174D01*
X11358039Y-15463174D02*
X11367563Y-15453650D01*
X11367563Y-15453650D02*
X11386611Y-15425079D01*
X11386611Y-15425079D02*
X11396134Y-15406031D01*
X11396134Y-15406031D02*
X11405658Y-15377460D01*
X11405658Y-15377460D02*
X11415182Y-15329841D01*
X11415182Y-15329841D02*
X11415182Y-15291746D01*
X11415182Y-15291746D02*
X11405658Y-15244127D01*
X11405658Y-15244127D02*
X11396134Y-15215555D01*
X11396134Y-15215555D02*
X11386611Y-15196508D01*
X11386611Y-15196508D02*
X11367563Y-15167936D01*
X11367563Y-15167936D02*
X11358039Y-15158412D01*
D14*
X6366140Y-15623140D02*
X6366140Y-15495860D01*
X6238860Y-15495860D01*
X6238860Y-15623140D01*
X6366140Y-15623140D01*
D11*
X6758039Y-15650984D02*
X6643753Y-15650984D01*
X6700896Y-15650984D02*
X6700896Y-15450984D01*
X6700896Y-15450984D02*
X6681848Y-15479555D01*
X6681848Y-15479555D02*
X6662801Y-15498603D01*
X6662801Y-15498603D02*
X6643753Y-15508127D01*
X6843753Y-15631936D02*
X6853277Y-15641460D01*
X6853277Y-15641460D02*
X6843753Y-15650984D01*
X6843753Y-15650984D02*
X6834229Y-15641460D01*
X6834229Y-15641460D02*
X6843753Y-15631936D01*
X6843753Y-15631936D02*
X6843753Y-15650984D01*
X6967562Y-15536698D02*
X6948515Y-15527174D01*
X6948515Y-15527174D02*
X6938991Y-15517650D01*
X6938991Y-15517650D02*
X6929467Y-15498603D01*
X6929467Y-15498603D02*
X6929467Y-15489079D01*
X6929467Y-15489079D02*
X6938991Y-15470031D01*
X6938991Y-15470031D02*
X6948515Y-15460508D01*
X6948515Y-15460508D02*
X6967562Y-15450984D01*
X6967562Y-15450984D02*
X7005658Y-15450984D01*
X7005658Y-15450984D02*
X7024705Y-15460508D01*
X7024705Y-15460508D02*
X7034229Y-15470031D01*
X7034229Y-15470031D02*
X7043753Y-15489079D01*
X7043753Y-15489079D02*
X7043753Y-15498603D01*
X7043753Y-15498603D02*
X7034229Y-15517650D01*
X7034229Y-15517650D02*
X7024705Y-15527174D01*
X7024705Y-15527174D02*
X7005658Y-15536698D01*
X7005658Y-15536698D02*
X6967562Y-15536698D01*
X6967562Y-15536698D02*
X6948515Y-15546222D01*
X6948515Y-15546222D02*
X6938991Y-15555746D01*
X6938991Y-15555746D02*
X6929467Y-15574793D01*
X6929467Y-15574793D02*
X6929467Y-15612888D01*
X6929467Y-15612888D02*
X6938991Y-15631936D01*
X6938991Y-15631936D02*
X6948515Y-15641460D01*
X6948515Y-15641460D02*
X6967562Y-15650984D01*
X6967562Y-15650984D02*
X7005658Y-15650984D01*
X7005658Y-15650984D02*
X7024705Y-15641460D01*
X7024705Y-15641460D02*
X7034229Y-15631936D01*
X7034229Y-15631936D02*
X7043753Y-15612888D01*
X7043753Y-15612888D02*
X7043753Y-15574793D01*
X7043753Y-15574793D02*
X7034229Y-15555746D01*
X7034229Y-15555746D02*
X7024705Y-15546222D01*
X7024705Y-15546222D02*
X7005658Y-15536698D01*
X7167562Y-15450984D02*
X7186610Y-15450984D01*
X7186610Y-15450984D02*
X7205658Y-15460508D01*
X7205658Y-15460508D02*
X7215182Y-15470031D01*
X7215182Y-15470031D02*
X7224705Y-15489079D01*
X7224705Y-15489079D02*
X7234229Y-15527174D01*
X7234229Y-15527174D02*
X7234229Y-15574793D01*
X7234229Y-15574793D02*
X7224705Y-15612888D01*
X7224705Y-15612888D02*
X7215182Y-15631936D01*
X7215182Y-15631936D02*
X7205658Y-15641460D01*
X7205658Y-15641460D02*
X7186610Y-15650984D01*
X7186610Y-15650984D02*
X7167562Y-15650984D01*
X7167562Y-15650984D02*
X7148515Y-15641460D01*
X7148515Y-15641460D02*
X7138991Y-15631936D01*
X7138991Y-15631936D02*
X7129467Y-15612888D01*
X7129467Y-15612888D02*
X7119943Y-15574793D01*
X7119943Y-15574793D02*
X7119943Y-15527174D01*
X7119943Y-15527174D02*
X7129467Y-15489079D01*
X7129467Y-15489079D02*
X7138991Y-15470031D01*
X7138991Y-15470031D02*
X7148515Y-15460508D01*
X7148515Y-15460508D02*
X7167562Y-15450984D01*
X7358039Y-15450984D02*
X7377086Y-15450984D01*
X7377086Y-15450984D02*
X7396134Y-15460508D01*
X7396134Y-15460508D02*
X7405658Y-15470031D01*
X7405658Y-15470031D02*
X7415182Y-15489079D01*
X7415182Y-15489079D02*
X7424705Y-15527174D01*
X7424705Y-15527174D02*
X7424705Y-15574793D01*
X7424705Y-15574793D02*
X7415182Y-15612888D01*
X7415182Y-15612888D02*
X7405658Y-15631936D01*
X7405658Y-15631936D02*
X7396134Y-15641460D01*
X7396134Y-15641460D02*
X7377086Y-15650984D01*
X7377086Y-15650984D02*
X7358039Y-15650984D01*
X7358039Y-15650984D02*
X7338991Y-15641460D01*
X7338991Y-15641460D02*
X7329467Y-15631936D01*
X7329467Y-15631936D02*
X7319943Y-15612888D01*
X7319943Y-15612888D02*
X7310420Y-15574793D01*
X7310420Y-15574793D02*
X7310420Y-15527174D01*
X7310420Y-15527174D02*
X7319943Y-15489079D01*
X7319943Y-15489079D02*
X7329467Y-15470031D01*
X7329467Y-15470031D02*
X7338991Y-15460508D01*
X7338991Y-15460508D02*
X7358039Y-15450984D01*
X7510420Y-15650984D02*
X7510420Y-15517650D01*
X7510420Y-15536698D02*
X7519943Y-15527174D01*
X7519943Y-15527174D02*
X7538991Y-15517650D01*
X7538991Y-15517650D02*
X7567563Y-15517650D01*
X7567563Y-15517650D02*
X7586610Y-15527174D01*
X7586610Y-15527174D02*
X7596134Y-15546222D01*
X7596134Y-15546222D02*
X7596134Y-15650984D01*
X7596134Y-15546222D02*
X7605658Y-15527174D01*
X7605658Y-15527174D02*
X7624705Y-15517650D01*
X7624705Y-15517650D02*
X7653277Y-15517650D01*
X7653277Y-15517650D02*
X7672324Y-15527174D01*
X7672324Y-15527174D02*
X7681848Y-15546222D01*
X7681848Y-15546222D02*
X7681848Y-15650984D01*
X7777086Y-15650984D02*
X7777086Y-15517650D01*
X7777086Y-15536698D02*
X7786610Y-15527174D01*
X7786610Y-15527174D02*
X7805658Y-15517650D01*
X7805658Y-15517650D02*
X7834229Y-15517650D01*
X7834229Y-15517650D02*
X7853277Y-15527174D01*
X7853277Y-15527174D02*
X7862801Y-15546222D01*
X7862801Y-15546222D02*
X7862801Y-15650984D01*
X7862801Y-15546222D02*
X7872324Y-15527174D01*
X7872324Y-15527174D02*
X7891372Y-15517650D01*
X7891372Y-15517650D02*
X7919943Y-15517650D01*
X7919943Y-15517650D02*
X7938991Y-15527174D01*
X7938991Y-15527174D02*
X7948515Y-15546222D01*
X7948515Y-15546222D02*
X7948515Y-15650984D01*
X8338991Y-15441460D02*
X8167563Y-15698603D01*
X8596134Y-15450984D02*
X8615182Y-15450984D01*
X8615182Y-15450984D02*
X8634229Y-15460508D01*
X8634229Y-15460508D02*
X8643753Y-15470031D01*
X8643753Y-15470031D02*
X8653277Y-15489079D01*
X8653277Y-15489079D02*
X8662801Y-15527174D01*
X8662801Y-15527174D02*
X8662801Y-15574793D01*
X8662801Y-15574793D02*
X8653277Y-15612888D01*
X8653277Y-15612888D02*
X8643753Y-15631936D01*
X8643753Y-15631936D02*
X8634229Y-15641460D01*
X8634229Y-15641460D02*
X8615182Y-15650984D01*
X8615182Y-15650984D02*
X8596134Y-15650984D01*
X8596134Y-15650984D02*
X8577087Y-15641460D01*
X8577087Y-15641460D02*
X8567563Y-15631936D01*
X8567563Y-15631936D02*
X8558039Y-15612888D01*
X8558039Y-15612888D02*
X8548515Y-15574793D01*
X8548515Y-15574793D02*
X8548515Y-15527174D01*
X8548515Y-15527174D02*
X8558039Y-15489079D01*
X8558039Y-15489079D02*
X8567563Y-15470031D01*
X8567563Y-15470031D02*
X8577087Y-15460508D01*
X8577087Y-15460508D02*
X8596134Y-15450984D01*
X8748515Y-15631936D02*
X8758039Y-15641460D01*
X8758039Y-15641460D02*
X8748515Y-15650984D01*
X8748515Y-15650984D02*
X8738991Y-15641460D01*
X8738991Y-15641460D02*
X8748515Y-15631936D01*
X8748515Y-15631936D02*
X8748515Y-15650984D01*
X8881848Y-15450984D02*
X8900896Y-15450984D01*
X8900896Y-15450984D02*
X8919944Y-15460508D01*
X8919944Y-15460508D02*
X8929468Y-15470031D01*
X8929468Y-15470031D02*
X8938991Y-15489079D01*
X8938991Y-15489079D02*
X8948515Y-15527174D01*
X8948515Y-15527174D02*
X8948515Y-15574793D01*
X8948515Y-15574793D02*
X8938991Y-15612888D01*
X8938991Y-15612888D02*
X8929468Y-15631936D01*
X8929468Y-15631936D02*
X8919944Y-15641460D01*
X8919944Y-15641460D02*
X8900896Y-15650984D01*
X8900896Y-15650984D02*
X8881848Y-15650984D01*
X8881848Y-15650984D02*
X8862801Y-15641460D01*
X8862801Y-15641460D02*
X8853277Y-15631936D01*
X8853277Y-15631936D02*
X8843753Y-15612888D01*
X8843753Y-15612888D02*
X8834229Y-15574793D01*
X8834229Y-15574793D02*
X8834229Y-15527174D01*
X8834229Y-15527174D02*
X8843753Y-15489079D01*
X8843753Y-15489079D02*
X8853277Y-15470031D01*
X8853277Y-15470031D02*
X8862801Y-15460508D01*
X8862801Y-15460508D02*
X8881848Y-15450984D01*
X9015182Y-15450984D02*
X9148515Y-15450984D01*
X9148515Y-15450984D02*
X9062801Y-15650984D01*
X9262801Y-15450984D02*
X9281849Y-15450984D01*
X9281849Y-15450984D02*
X9300896Y-15460508D01*
X9300896Y-15460508D02*
X9310420Y-15470031D01*
X9310420Y-15470031D02*
X9319944Y-15489079D01*
X9319944Y-15489079D02*
X9329468Y-15527174D01*
X9329468Y-15527174D02*
X9329468Y-15574793D01*
X9329468Y-15574793D02*
X9319944Y-15612888D01*
X9319944Y-15612888D02*
X9310420Y-15631936D01*
X9310420Y-15631936D02*
X9300896Y-15641460D01*
X9300896Y-15641460D02*
X9281849Y-15650984D01*
X9281849Y-15650984D02*
X9262801Y-15650984D01*
X9262801Y-15650984D02*
X9243753Y-15641460D01*
X9243753Y-15641460D02*
X9234229Y-15631936D01*
X9234229Y-15631936D02*
X9224706Y-15612888D01*
X9224706Y-15612888D02*
X9215182Y-15574793D01*
X9215182Y-15574793D02*
X9215182Y-15527174D01*
X9215182Y-15527174D02*
X9224706Y-15489079D01*
X9224706Y-15489079D02*
X9234229Y-15470031D01*
X9234229Y-15470031D02*
X9243753Y-15460508D01*
X9243753Y-15460508D02*
X9262801Y-15450984D01*
X9424706Y-15650984D02*
X9462801Y-15650984D01*
X9462801Y-15650984D02*
X9481849Y-15641460D01*
X9481849Y-15641460D02*
X9491372Y-15631936D01*
X9491372Y-15631936D02*
X9510420Y-15603365D01*
X9510420Y-15603365D02*
X9519944Y-15565269D01*
X9519944Y-15565269D02*
X9519944Y-15489079D01*
X9519944Y-15489079D02*
X9510420Y-15470031D01*
X9510420Y-15470031D02*
X9500896Y-15460508D01*
X9500896Y-15460508D02*
X9481849Y-15450984D01*
X9481849Y-15450984D02*
X9443753Y-15450984D01*
X9443753Y-15450984D02*
X9424706Y-15460508D01*
X9424706Y-15460508D02*
X9415182Y-15470031D01*
X9415182Y-15470031D02*
X9405658Y-15489079D01*
X9405658Y-15489079D02*
X9405658Y-15536698D01*
X9405658Y-15536698D02*
X9415182Y-15555746D01*
X9415182Y-15555746D02*
X9424706Y-15565269D01*
X9424706Y-15565269D02*
X9443753Y-15574793D01*
X9443753Y-15574793D02*
X9481849Y-15574793D01*
X9481849Y-15574793D02*
X9500896Y-15565269D01*
X9500896Y-15565269D02*
X9510420Y-15555746D01*
X9510420Y-15555746D02*
X9519944Y-15536698D01*
X9596134Y-15450984D02*
X9596134Y-15489079D01*
X9672325Y-15450984D02*
X9672325Y-15489079D01*
X9967563Y-15727174D02*
X9958039Y-15717650D01*
X9958039Y-15717650D02*
X9938991Y-15689079D01*
X9938991Y-15689079D02*
X9929468Y-15670031D01*
X9929468Y-15670031D02*
X9919944Y-15641460D01*
X9919944Y-15641460D02*
X9910420Y-15593841D01*
X9910420Y-15593841D02*
X9910420Y-15555746D01*
X9910420Y-15555746D02*
X9919944Y-15508127D01*
X9919944Y-15508127D02*
X9929468Y-15479555D01*
X9929468Y-15479555D02*
X9938991Y-15460508D01*
X9938991Y-15460508D02*
X9958039Y-15431936D01*
X9958039Y-15431936D02*
X9967563Y-15422412D01*
X10081849Y-15450984D02*
X10100896Y-15450984D01*
X10100896Y-15450984D02*
X10119944Y-15460508D01*
X10119944Y-15460508D02*
X10129468Y-15470031D01*
X10129468Y-15470031D02*
X10138991Y-15489079D01*
X10138991Y-15489079D02*
X10148515Y-15527174D01*
X10148515Y-15527174D02*
X10148515Y-15574793D01*
X10148515Y-15574793D02*
X10138991Y-15612888D01*
X10138991Y-15612888D02*
X10129468Y-15631936D01*
X10129468Y-15631936D02*
X10119944Y-15641460D01*
X10119944Y-15641460D02*
X10100896Y-15650984D01*
X10100896Y-15650984D02*
X10081849Y-15650984D01*
X10081849Y-15650984D02*
X10062801Y-15641460D01*
X10062801Y-15641460D02*
X10053277Y-15631936D01*
X10053277Y-15631936D02*
X10043753Y-15612888D01*
X10043753Y-15612888D02*
X10034230Y-15574793D01*
X10034230Y-15574793D02*
X10034230Y-15527174D01*
X10034230Y-15527174D02*
X10043753Y-15489079D01*
X10043753Y-15489079D02*
X10053277Y-15470031D01*
X10053277Y-15470031D02*
X10062801Y-15460508D01*
X10062801Y-15460508D02*
X10081849Y-15450984D01*
X10386611Y-15650984D02*
X10386611Y-15450984D01*
X10472325Y-15650984D02*
X10472325Y-15546222D01*
X10472325Y-15546222D02*
X10462801Y-15527174D01*
X10462801Y-15527174D02*
X10443753Y-15517650D01*
X10443753Y-15517650D02*
X10415182Y-15517650D01*
X10415182Y-15517650D02*
X10396134Y-15527174D01*
X10396134Y-15527174D02*
X10386611Y-15536698D01*
X10596134Y-15650984D02*
X10577087Y-15641460D01*
X10577087Y-15641460D02*
X10567563Y-15631936D01*
X10567563Y-15631936D02*
X10558039Y-15612888D01*
X10558039Y-15612888D02*
X10558039Y-15555746D01*
X10558039Y-15555746D02*
X10567563Y-15536698D01*
X10567563Y-15536698D02*
X10577087Y-15527174D01*
X10577087Y-15527174D02*
X10596134Y-15517650D01*
X10596134Y-15517650D02*
X10624706Y-15517650D01*
X10624706Y-15517650D02*
X10643753Y-15527174D01*
X10643753Y-15527174D02*
X10653277Y-15536698D01*
X10653277Y-15536698D02*
X10662801Y-15555746D01*
X10662801Y-15555746D02*
X10662801Y-15612888D01*
X10662801Y-15612888D02*
X10653277Y-15631936D01*
X10653277Y-15631936D02*
X10643753Y-15641460D01*
X10643753Y-15641460D02*
X10624706Y-15650984D01*
X10624706Y-15650984D02*
X10596134Y-15650984D01*
X10777087Y-15650984D02*
X10758039Y-15641460D01*
X10758039Y-15641460D02*
X10748515Y-15622412D01*
X10748515Y-15622412D02*
X10748515Y-15450984D01*
X10929468Y-15641460D02*
X10910420Y-15650984D01*
X10910420Y-15650984D02*
X10872325Y-15650984D01*
X10872325Y-15650984D02*
X10853277Y-15641460D01*
X10853277Y-15641460D02*
X10843753Y-15622412D01*
X10843753Y-15622412D02*
X10843753Y-15546222D01*
X10843753Y-15546222D02*
X10853277Y-15527174D01*
X10853277Y-15527174D02*
X10872325Y-15517650D01*
X10872325Y-15517650D02*
X10910420Y-15517650D01*
X10910420Y-15517650D02*
X10929468Y-15527174D01*
X10929468Y-15527174D02*
X10938992Y-15546222D01*
X10938992Y-15546222D02*
X10938992Y-15565269D01*
X10938992Y-15565269D02*
X10843753Y-15584317D01*
X11015182Y-15641460D02*
X11034230Y-15650984D01*
X11034230Y-15650984D02*
X11072325Y-15650984D01*
X11072325Y-15650984D02*
X11091373Y-15641460D01*
X11091373Y-15641460D02*
X11100896Y-15622412D01*
X11100896Y-15622412D02*
X11100896Y-15612888D01*
X11100896Y-15612888D02*
X11091373Y-15593841D01*
X11091373Y-15593841D02*
X11072325Y-15584317D01*
X11072325Y-15584317D02*
X11043753Y-15584317D01*
X11043753Y-15584317D02*
X11024706Y-15574793D01*
X11024706Y-15574793D02*
X11015182Y-15555746D01*
X11015182Y-15555746D02*
X11015182Y-15546222D01*
X11015182Y-15546222D02*
X11024706Y-15527174D01*
X11024706Y-15527174D02*
X11043753Y-15517650D01*
X11043753Y-15517650D02*
X11072325Y-15517650D01*
X11072325Y-15517650D02*
X11091373Y-15527174D01*
X11338992Y-15574793D02*
X11491373Y-15574793D01*
X11415182Y-15650984D02*
X11415182Y-15498603D01*
X11843753Y-15650984D02*
X11729468Y-15650984D01*
X11786611Y-15650984D02*
X11786611Y-15450984D01*
X11786611Y-15450984D02*
X11767563Y-15479555D01*
X11767563Y-15479555D02*
X11748515Y-15498603D01*
X11748515Y-15498603D02*
X11729468Y-15508127D01*
X12015182Y-15450984D02*
X11977087Y-15450984D01*
X11977087Y-15450984D02*
X11958039Y-15460508D01*
X11958039Y-15460508D02*
X11948515Y-15470031D01*
X11948515Y-15470031D02*
X11929468Y-15498603D01*
X11929468Y-15498603D02*
X11919944Y-15536698D01*
X11919944Y-15536698D02*
X11919944Y-15612888D01*
X11919944Y-15612888D02*
X11929468Y-15631936D01*
X11929468Y-15631936D02*
X11938992Y-15641460D01*
X11938992Y-15641460D02*
X11958039Y-15650984D01*
X11958039Y-15650984D02*
X11996134Y-15650984D01*
X11996134Y-15650984D02*
X12015182Y-15641460D01*
X12015182Y-15641460D02*
X12024706Y-15631936D01*
X12024706Y-15631936D02*
X12034230Y-15612888D01*
X12034230Y-15612888D02*
X12034230Y-15565269D01*
X12034230Y-15565269D02*
X12024706Y-15546222D01*
X12024706Y-15546222D02*
X12015182Y-15536698D01*
X12015182Y-15536698D02*
X11996134Y-15527174D01*
X11996134Y-15527174D02*
X11958039Y-15527174D01*
X11958039Y-15527174D02*
X11938992Y-15536698D01*
X11938992Y-15536698D02*
X11929468Y-15546222D01*
X11929468Y-15546222D02*
X11919944Y-15565269D01*
X12262801Y-15641460D02*
X12281849Y-15650984D01*
X12281849Y-15650984D02*
X12319944Y-15650984D01*
X12319944Y-15650984D02*
X12338992Y-15641460D01*
X12338992Y-15641460D02*
X12348515Y-15622412D01*
X12348515Y-15622412D02*
X12348515Y-15612888D01*
X12348515Y-15612888D02*
X12338992Y-15593841D01*
X12338992Y-15593841D02*
X12319944Y-15584317D01*
X12319944Y-15584317D02*
X12291373Y-15584317D01*
X12291373Y-15584317D02*
X12272325Y-15574793D01*
X12272325Y-15574793D02*
X12262801Y-15555746D01*
X12262801Y-15555746D02*
X12262801Y-15546222D01*
X12262801Y-15546222D02*
X12272325Y-15527174D01*
X12272325Y-15527174D02*
X12291373Y-15517650D01*
X12291373Y-15517650D02*
X12319944Y-15517650D01*
X12319944Y-15517650D02*
X12338992Y-15527174D01*
X12462801Y-15650984D02*
X12443754Y-15641460D01*
X12443754Y-15641460D02*
X12434230Y-15622412D01*
X12434230Y-15622412D02*
X12434230Y-15450984D01*
X12567563Y-15650984D02*
X12548515Y-15641460D01*
X12548515Y-15641460D02*
X12538992Y-15631936D01*
X12538992Y-15631936D02*
X12529468Y-15612888D01*
X12529468Y-15612888D02*
X12529468Y-15555746D01*
X12529468Y-15555746D02*
X12538992Y-15536698D01*
X12538992Y-15536698D02*
X12548515Y-15527174D01*
X12548515Y-15527174D02*
X12567563Y-15517650D01*
X12567563Y-15517650D02*
X12596135Y-15517650D01*
X12596135Y-15517650D02*
X12615182Y-15527174D01*
X12615182Y-15527174D02*
X12624706Y-15536698D01*
X12624706Y-15536698D02*
X12634230Y-15555746D01*
X12634230Y-15555746D02*
X12634230Y-15612888D01*
X12634230Y-15612888D02*
X12624706Y-15631936D01*
X12624706Y-15631936D02*
X12615182Y-15641460D01*
X12615182Y-15641460D02*
X12596135Y-15650984D01*
X12596135Y-15650984D02*
X12567563Y-15650984D01*
X12691373Y-15517650D02*
X12767563Y-15517650D01*
X12719944Y-15450984D02*
X12719944Y-15622412D01*
X12719944Y-15622412D02*
X12729468Y-15641460D01*
X12729468Y-15641460D02*
X12748515Y-15650984D01*
X12748515Y-15650984D02*
X12767563Y-15650984D01*
X12824706Y-15641460D02*
X12843754Y-15650984D01*
X12843754Y-15650984D02*
X12881849Y-15650984D01*
X12881849Y-15650984D02*
X12900896Y-15641460D01*
X12900896Y-15641460D02*
X12910420Y-15622412D01*
X12910420Y-15622412D02*
X12910420Y-15612888D01*
X12910420Y-15612888D02*
X12900896Y-15593841D01*
X12900896Y-15593841D02*
X12881849Y-15584317D01*
X12881849Y-15584317D02*
X12853277Y-15584317D01*
X12853277Y-15584317D02*
X12834230Y-15574793D01*
X12834230Y-15574793D02*
X12824706Y-15555746D01*
X12824706Y-15555746D02*
X12824706Y-15546222D01*
X12824706Y-15546222D02*
X12834230Y-15527174D01*
X12834230Y-15527174D02*
X12853277Y-15517650D01*
X12853277Y-15517650D02*
X12881849Y-15517650D01*
X12881849Y-15517650D02*
X12900896Y-15527174D01*
X12977087Y-15727174D02*
X12986611Y-15717650D01*
X12986611Y-15717650D02*
X13005658Y-15689079D01*
X13005658Y-15689079D02*
X13015182Y-15670031D01*
X13015182Y-15670031D02*
X13024706Y-15641460D01*
X13024706Y-15641460D02*
X13034230Y-15593841D01*
X13034230Y-15593841D02*
X13034230Y-15555746D01*
X13034230Y-15555746D02*
X13024706Y-15508127D01*
X13024706Y-15508127D02*
X13015182Y-15479555D01*
X13015182Y-15479555D02*
X13005658Y-15460508D01*
X13005658Y-15460508D02*
X12986611Y-15431936D01*
X12986611Y-15431936D02*
X12977087Y-15422412D01*
M02*
