%TF.GenerationSoftware,KiCad,Pcbnew,8.0.3*%
%TF.CreationDate,2024-07-12T18:25:32-05:00*%
%TF.ProjectId,controller,636f6e74-726f-46c6-9c65-722e6b696361,rev?*%
%TF.SameCoordinates,Original*%
%TF.FileFunction,Copper,L1,Top*%
%TF.FilePolarity,Positive*%
%FSLAX46Y46*%
G04 Gerber Fmt 4.6, Leading zero omitted, Abs format (unit mm)*
G04 Created by KiCad (PCBNEW 8.0.3) date 2024-07-12 18:25:32*
%MOMM*%
%LPD*%
G01*
G04 APERTURE LIST*
G04 Aperture macros list*
%AMRoundRect*
0 Rectangle with rounded corners*
0 $1 Rounding radius*
0 $2 $3 $4 $5 $6 $7 $8 $9 X,Y pos of 4 corners*
0 Add a 4 corners polygon primitive as box body*
4,1,4,$2,$3,$4,$5,$6,$7,$8,$9,$2,$3,0*
0 Add four circle primitives for the rounded corners*
1,1,$1+$1,$2,$3*
1,1,$1+$1,$4,$5*
1,1,$1+$1,$6,$7*
1,1,$1+$1,$8,$9*
0 Add four rect primitives between the rounded corners*
20,1,$1+$1,$2,$3,$4,$5,0*
20,1,$1+$1,$4,$5,$6,$7,0*
20,1,$1+$1,$6,$7,$8,$9,0*
20,1,$1+$1,$8,$9,$2,$3,0*%
%AMOutline5P*
0 Free polygon, 5 corners , with rotation*
0 The origin of the aperture is its center*
0 number of corners: always 5*
0 $1 to $10 corner X, Y*
0 $11 Rotation angle, in degrees counterclockwise*
0 create outline with 5 corners*
4,1,5,$1,$2,$3,$4,$5,$6,$7,$8,$9,$10,$1,$2,$11*%
%AMOutline6P*
0 Free polygon, 6 corners , with rotation*
0 The origin of the aperture is its center*
0 number of corners: always 6*
0 $1 to $12 corner X, Y*
0 $13 Rotation angle, in degrees counterclockwise*
0 create outline with 6 corners*
4,1,6,$1,$2,$3,$4,$5,$6,$7,$8,$9,$10,$11,$12,$1,$2,$13*%
%AMOutline7P*
0 Free polygon, 7 corners , with rotation*
0 The origin of the aperture is its center*
0 number of corners: always 7*
0 $1 to $14 corner X, Y*
0 $15 Rotation angle, in degrees counterclockwise*
0 create outline with 7 corners*
4,1,7,$1,$2,$3,$4,$5,$6,$7,$8,$9,$10,$11,$12,$13,$14,$1,$2,$15*%
%AMOutline8P*
0 Free polygon, 8 corners , with rotation*
0 The origin of the aperture is its center*
0 number of corners: always 8*
0 $1 to $16 corner X, Y*
0 $17 Rotation angle, in degrees counterclockwise*
0 create outline with 8 corners*
4,1,8,$1,$2,$3,$4,$5,$6,$7,$8,$9,$10,$11,$12,$13,$14,$15,$16,$1,$2,$17*%
G04 Aperture macros list end*
%TA.AperFunction,SMDPad,CuDef*%
%ADD10RoundRect,0.250000X0.450000X-0.262500X0.450000X0.262500X-0.450000X0.262500X-0.450000X-0.262500X0*%
%TD*%
%TA.AperFunction,ComponentPad*%
%ADD11RoundRect,0.750000X-0.750000X1.250000X-0.750000X-1.250000X0.750000X-1.250000X0.750000X1.250000X0*%
%TD*%
%TA.AperFunction,ComponentPad*%
%ADD12C,1.800000*%
%TD*%
%TA.AperFunction,ComponentPad*%
%ADD13R,1.800000X1.800000*%
%TD*%
%TA.AperFunction,SMDPad,CuDef*%
%ADD14RoundRect,0.250000X-0.450000X0.262500X-0.450000X-0.262500X0.450000X-0.262500X0.450000X0.262500X0*%
%TD*%
%TA.AperFunction,SMDPad,CuDef*%
%ADD15Outline8P,-6.250000X3.750000X-3.750000X6.250000X3.750000X6.250000X6.250000X3.750000X6.250000X-3.750000X3.750000X-6.250000X-3.750000X-6.250000X-6.250000X-3.750000X0.000000*%
%TD*%
%TA.AperFunction,SMDPad,CuDef*%
%ADD16RoundRect,0.218750X-0.218750X-0.256250X0.218750X-0.256250X0.218750X0.256250X-0.218750X0.256250X0*%
%TD*%
%TA.AperFunction,SMDPad,CuDef*%
%ADD17R,2.800000X1.600000*%
%TD*%
%TA.AperFunction,SMDPad,CuDef*%
%ADD18R,2.800000X1.400000*%
%TD*%
%TA.AperFunction,SMDPad,CuDef*%
%ADD19R,1.400000X1.600000*%
%TD*%
%TA.AperFunction,ComponentPad*%
%ADD20C,1.676400*%
%TD*%
%TA.AperFunction,SMDPad,CuDef*%
%ADD21R,1.780000X2.000000*%
%TD*%
%TA.AperFunction,SMDPad,CuDef*%
%ADD22RoundRect,0.250000X-0.262500X-0.450000X0.262500X-0.450000X0.262500X0.450000X-0.262500X0.450000X0*%
%TD*%
%TA.AperFunction,SMDPad,CuDef*%
%ADD23R,1.700000X3.500000*%
%TD*%
%TA.AperFunction,ComponentPad*%
%ADD24O,1.700000X1.700000*%
%TD*%
%TA.AperFunction,ComponentPad*%
%ADD25R,1.700000X1.700000*%
%TD*%
%TA.AperFunction,SMDPad,CuDef*%
%ADD26R,3.500000X1.700000*%
%TD*%
%TA.AperFunction,SMDPad,CuDef*%
%ADD27RoundRect,0.225000X0.225000X0.250000X-0.225000X0.250000X-0.225000X-0.250000X0.225000X-0.250000X0*%
%TD*%
%TA.AperFunction,SMDPad,CuDef*%
%ADD28RoundRect,0.150000X-0.825000X-0.150000X0.825000X-0.150000X0.825000X0.150000X-0.825000X0.150000X0*%
%TD*%
%TA.AperFunction,ComponentPad*%
%ADD29C,1.508000*%
%TD*%
%TA.AperFunction,ComponentPad*%
%ADD30R,1.508000X1.508000*%
%TD*%
%TA.AperFunction,SMDPad,CuDef*%
%ADD31RoundRect,0.112500X-0.187500X-0.112500X0.187500X-0.112500X0.187500X0.112500X-0.187500X0.112500X0*%
%TD*%
%TA.AperFunction,ViaPad*%
%ADD32C,0.600000*%
%TD*%
%TA.AperFunction,Conductor*%
%ADD33C,0.200000*%
%TD*%
%TA.AperFunction,Conductor*%
%ADD34C,0.400000*%
%TD*%
G04 APERTURE END LIST*
D10*
%TO.P,R3,2*%
%TO.N,unconnected-(R3-Pad2)*%
X123700000Y-34400000D03*
%TO.P,R3,1*%
%TO.N,+3V3*%
X123700000Y-36225000D03*
%TD*%
D11*
%TO.P,RV8,MP*%
%TO.N,N/C*%
X126800000Y-51300000D03*
X135600000Y-51300000D03*
D12*
%TO.P,RV8,3,3*%
%TO.N,GND*%
X128700000Y-44300000D03*
%TO.P,RV8,2,2*%
%TO.N,/POT8*%
X131200000Y-44300000D03*
D13*
%TO.P,RV8,1,1*%
%TO.N,+3V3*%
X133700000Y-44300000D03*
%TD*%
%TO.P,RV7,1,1*%
%TO.N,+3V3*%
X79600000Y-80700000D03*
D12*
%TO.P,RV7,2,2*%
%TO.N,/POT7*%
X77100000Y-80700000D03*
%TO.P,RV7,3,3*%
%TO.N,GND*%
X74600000Y-80700000D03*
D11*
%TO.P,RV7,MP*%
%TO.N,N/C*%
X81500000Y-87700000D03*
X72700000Y-87700000D03*
%TD*%
D13*
%TO.P,RV6,1,1*%
%TO.N,+3V3*%
X103500000Y-80600000D03*
D12*
%TO.P,RV6,2,2*%
%TO.N,/POT6*%
X101000000Y-80600000D03*
%TO.P,RV6,3,3*%
%TO.N,GND*%
X98500000Y-80600000D03*
D11*
%TO.P,RV6,MP*%
%TO.N,N/C*%
X105400000Y-87600000D03*
X96600000Y-87600000D03*
%TD*%
D13*
%TO.P,RV5,1,1*%
%TO.N,+3V3*%
X127700000Y-80600000D03*
D12*
%TO.P,RV5,2,2*%
%TO.N,/POT5*%
X125200000Y-80600000D03*
%TO.P,RV5,3,3*%
%TO.N,GND*%
X122700000Y-80600000D03*
D11*
%TO.P,RV5,MP*%
%TO.N,N/C*%
X129600000Y-87600000D03*
X120800000Y-87600000D03*
%TD*%
D13*
%TO.P,RV4,1,1*%
%TO.N,+3V3*%
X151000000Y-80500000D03*
D12*
%TO.P,RV4,2,2*%
%TO.N,/POT4*%
X148500000Y-80500000D03*
%TO.P,RV4,3,3*%
%TO.N,GND*%
X146000000Y-80500000D03*
D11*
%TO.P,RV4,MP*%
%TO.N,N/C*%
X152900000Y-87500000D03*
X144100000Y-87500000D03*
%TD*%
%TO.P,RV3,MP*%
%TO.N,N/C*%
X96900000Y-68900000D03*
X105700000Y-68900000D03*
D12*
%TO.P,RV3,3,3*%
%TO.N,GND*%
X98800000Y-61900000D03*
%TO.P,RV3,2,2*%
%TO.N,/POT3*%
X101300000Y-61900000D03*
D13*
%TO.P,RV3,1,1*%
%TO.N,+3V3*%
X103800000Y-61900000D03*
%TD*%
D11*
%TO.P,RV2,MP*%
%TO.N,N/C*%
X143200000Y-68750000D03*
X152000000Y-68750000D03*
D12*
%TO.P,RV2,3,3*%
%TO.N,GND*%
X145100000Y-61750000D03*
%TO.P,RV2,2,2*%
%TO.N,/POT2*%
X147600000Y-61750000D03*
D13*
%TO.P,RV2,1,1*%
%TO.N,+3V3*%
X150100000Y-61750000D03*
%TD*%
D11*
%TO.P,RV1,MP*%
%TO.N,N/C*%
X119600000Y-68900000D03*
X128400000Y-68900000D03*
D12*
%TO.P,RV1,3,3*%
%TO.N,GND*%
X121500000Y-61900000D03*
%TO.P,RV1,2,2*%
%TO.N,/POT1*%
X124000000Y-61900000D03*
D13*
%TO.P,RV1,1,1*%
%TO.N,+3V3*%
X126500000Y-61900000D03*
%TD*%
D14*
%TO.P,R11,1,1*%
%TO.N,/TPAD3*%
X124827577Y-76400000D03*
%TO.P,R11,2,2*%
%TO.N,GND*%
X124827577Y-78225000D03*
%TD*%
D15*
%TO.P,TP9,1,TOUCH*%
%TO.N,/TPAD9*%
X77416663Y-131483034D03*
%TD*%
D10*
%TO.P,R6,1*%
%TO.N,+3V3*%
X110800000Y-36125000D03*
%TO.P,R6,2*%
%TO.N,unconnected-(DR1-A-Pad2)*%
X110800000Y-34300000D03*
%TD*%
D16*
%TO.P,DT1,2,A*%
%TO.N,unconnected-(R3-Pad2)*%
X111787500Y-25200000D03*
%TO.P,DT1,1,K*%
%TO.N,/Midi Output 1/TX*%
X110212500Y-25200000D03*
%TD*%
D17*
%TO.P,J1-I1,4*%
%TO.N,unconnected-(J1-I1-Pad4)*%
X104932000Y-42900000D03*
D18*
%TO.P,J1-I1,3*%
%TO.N,unconnected-(J1-I1-Pad3)*%
X107882000Y-31500000D03*
%TO.P,J1-I1,2*%
%TO.N,Net-(D1-A)*%
X100482000Y-38900000D03*
%TO.P,J1-I1,1*%
%TO.N,unconnected-(J1-I1-Pad1)*%
X100482000Y-29500000D03*
%TD*%
D19*
%TO.P,SW1,1,1*%
%TO.N,/SW*%
X142000000Y-54200000D03*
X142000000Y-46200000D03*
%TO.P,SW1,2,2*%
%TO.N,GND*%
X146500000Y-54200000D03*
X146500000Y-46200000D03*
%TD*%
D14*
%TO.P,R15,1,1*%
%TO.N,/TPAD7*%
X119400000Y-76400000D03*
%TO.P,R15,2,2*%
%TO.N,GND*%
X119400000Y-78225000D03*
%TD*%
%TO.P,R9,1,1*%
%TO.N,/TPAD1*%
X77516663Y-76400000D03*
%TO.P,R9,2,2*%
%TO.N,GND*%
X77516663Y-78225000D03*
%TD*%
D20*
%TO.P,U4,1,1*%
%TO.N,unconnected-(U4-Pad1)*%
X148640000Y-38800000D03*
%TO.P,U4,2,2*%
%TO.N,unconnected-(U4-Pad2)*%
X146100000Y-38800000D03*
%TO.P,U4,3,3*%
%TO.N,unconnected-(U4-Pad3)*%
X143560000Y-38800000D03*
%TO.P,U4,4,4*%
%TO.N,unconnected-(U4-Pad4)*%
X141020000Y-38800000D03*
%TO.P,U4,5,5*%
%TO.N,unconnected-(U4-Pad5)*%
X138480000Y-38800000D03*
%TO.P,U4,BCK,BCK*%
%TO.N,/I2S_BCK*%
X155140000Y-35510000D03*
%TO.P,U4,DIN,DIN*%
%TO.N,/I2S_DATA*%
X155140000Y-32970000D03*
%TO.P,U4,G1,G1*%
%TO.N,unconnected-(U4-PadG1)*%
X135940000Y-38800000D03*
%TO.P,U4,G2,G2*%
%TO.N,unconnected-(U4-PadG2)*%
X130860000Y-38800000D03*
%TO.P,U4,GND,GND*%
%TO.N,GND*%
X155140000Y-27890000D03*
%TO.P,U4,L,L*%
%TO.N,unconnected-(U4-PadL)*%
X128320000Y-38800000D03*
%TO.P,U4,LCK,LCK*%
%TO.N,/I2S_LRCK*%
X155140000Y-30430000D03*
%TO.P,U4,R,R*%
%TO.N,unconnected-(U4-PadR)*%
X133400000Y-38800000D03*
%TO.P,U4,SCK,SCK*%
%TO.N,GND*%
X155140000Y-38050000D03*
%TO.P,U4,VIN,VIN*%
%TO.N,+3V3*%
X155140000Y-25350000D03*
%TD*%
D14*
%TO.P,R5,1*%
%TO.N,/MIDI input 1/RX*%
X97400000Y-28387500D03*
%TO.P,R5,2*%
%TO.N,+3V3*%
X97400000Y-30212500D03*
%TD*%
D15*
%TO.P,TP5,1,TOUCH*%
%TO.N,/TPAD5*%
X77489086Y-116183034D03*
%TD*%
%TO.P,TP10,1,TOUCH*%
%TO.N,/TPAD10*%
X101072120Y-131483034D03*
%TD*%
D21*
%TO.P,U1,6*%
%TO.N,+3V3*%
X151100000Y-46170000D03*
%TO.P,U1,5*%
%TO.N,GND*%
X153640000Y-46170000D03*
%TO.P,U1,4*%
%TO.N,/MIDI input 1/RX*%
X156180000Y-46170000D03*
%TO.P,U1,3*%
%TO.N,N/C*%
X156180000Y-55700000D03*
%TO.P,U1,2*%
%TO.N,Net-(D1-A)*%
X153640000Y-55700000D03*
%TO.P,U1,1*%
%TO.N,unconnected-(D1-K-Pad1)*%
X151100000Y-55700000D03*
%TD*%
D14*
%TO.P,R8,1,1*%
%TO.N,+3V3*%
X105800000Y-46087500D03*
%TO.P,R8,2,2*%
%TO.N,/SDA*%
X105800000Y-47912500D03*
%TD*%
D15*
%TO.P,TP11,1,TOUCH*%
%TO.N,/TPAD11*%
X124727577Y-131483034D03*
%TD*%
D14*
%TO.P,R18,1,1*%
%TO.N,/TPAD10*%
X106700000Y-76387500D03*
%TO.P,R18,2,2*%
%TO.N,GND*%
X106700000Y-78212500D03*
%TD*%
D15*
%TO.P,TP3,1,TOUCH*%
%TO.N,/TPAD3*%
X124827577Y-101083034D03*
%TD*%
%TO.P,TP12,1,TOUCH*%
%TO.N,/TPAD12*%
X148383034Y-131783034D03*
%TD*%
D22*
%TO.P,R2,1*%
%TO.N,/Midi Output 1/TX*%
X108687500Y-27300000D03*
%TO.P,R2,2*%
%TO.N,unconnected-(J11-O1-Pad2)*%
X110512500Y-27300000D03*
%TD*%
D14*
%TO.P,R20,1,1*%
%TO.N,/TPAD12*%
X154000000Y-76387500D03*
%TO.P,R20,2,2*%
%TO.N,GND*%
X154000000Y-78212500D03*
%TD*%
%TO.P,R7,1,1*%
%TO.N,+3V3*%
X108300000Y-46087500D03*
%TO.P,R7,2,2*%
%TO.N,/SCL*%
X108300000Y-47912500D03*
%TD*%
%TO.P,R13,1,1*%
%TO.N,/TPAD5*%
X72100000Y-76400000D03*
%TO.P,R13,2,2*%
%TO.N,GND*%
X72100000Y-78225000D03*
%TD*%
%TO.P,R17,1,1*%
%TO.N,/TPAD9*%
X83000000Y-76387500D03*
%TO.P,R17,2,2*%
%TO.N,GND*%
X83000000Y-78212500D03*
%TD*%
D15*
%TO.P,TP7,1,TOUCH*%
%TO.N,/TPAD7*%
X124800000Y-116183034D03*
%TD*%
D14*
%TO.P,R19,1,1*%
%TO.N,/TPAD11*%
X130300000Y-76387500D03*
%TO.P,R19,2,2*%
%TO.N,GND*%
X130300000Y-78212500D03*
%TD*%
%TO.P,R10,1,1*%
%TO.N,/TPAD2*%
X101172120Y-76400000D03*
%TO.P,R10,2,2*%
%TO.N,GND*%
X101172120Y-78225000D03*
%TD*%
D15*
%TO.P,TP6,1,TOUCH*%
%TO.N,/TPAD6*%
X101144543Y-116183034D03*
%TD*%
%TO.P,TP1,1,TOUCH*%
%TO.N,/TPAD1*%
X77516663Y-101083034D03*
%TD*%
D14*
%TO.P,R16,1,1*%
%TO.N,/TPAD8*%
X143000000Y-76400000D03*
%TO.P,R16,2,2*%
%TO.N,GND*%
X143000000Y-78225000D03*
%TD*%
%TO.P,R12,1,1*%
%TO.N,/TPAD4*%
X148483034Y-76400000D03*
%TO.P,R12,2,2*%
%TO.N,GND*%
X148483034Y-78225000D03*
%TD*%
D15*
%TO.P,TP2,1,TOUCH*%
%TO.N,/TPAD2*%
X101172120Y-101083034D03*
%TD*%
D23*
%TO.P,U3,43,SWDIO*%
%TO.N,unconnected-(U3-SWDIO-Pad43)*%
X82330000Y-72030000D03*
D24*
X82330000Y-71130000D03*
D23*
%TO.P,U3,42,GND*%
%TO.N,unconnected-(U3-GND-Pad42)*%
X79790000Y-72030000D03*
D25*
X79790000Y-71130000D03*
D23*
%TO.P,U3,41,SWCLK*%
%TO.N,unconnected-(U3-SWCLK-Pad41)*%
X77250000Y-72030000D03*
D24*
X77250000Y-71130000D03*
D26*
%TO.P,U3,40,VBUS*%
%TO.N,unconnected-(U3-VBUS-Pad40)*%
X89580000Y-23100000D03*
D24*
X88680000Y-23100000D03*
D26*
%TO.P,U3,39,VSYS*%
%TO.N,unconnected-(U3-VSYS-Pad39)*%
X89580000Y-25640000D03*
D24*
X88680000Y-25640000D03*
D26*
%TO.P,U3,38,GND*%
%TO.N,GND*%
X89580000Y-28180000D03*
D25*
X88680000Y-28180000D03*
D26*
%TO.P,U3,37,3V3_EN*%
%TO.N,unconnected-(U3-3V3_EN-Pad37)*%
X89580000Y-30720000D03*
D24*
X88680000Y-30720000D03*
D26*
%TO.P,U3,36,3V3*%
%TO.N,+3V3*%
X89580000Y-33260000D03*
D24*
X88680000Y-33260000D03*
D26*
%TO.P,U3,35,ADC_VREF*%
%TO.N,unconnected-(U3-ADC_VREF-Pad35)*%
X89580000Y-35800000D03*
D24*
X88680000Y-35800000D03*
D26*
%TO.P,U3,34,GPIO28_ADC2*%
%TO.N,/AIN*%
X89580000Y-38340000D03*
D24*
X88680000Y-38340000D03*
D26*
%TO.P,U3,33,AGND*%
%TO.N,unconnected-(U3-AGND-Pad33)*%
X89580000Y-40880000D03*
D25*
X88680000Y-40880000D03*
D26*
%TO.P,U3,32,GPIO27_ADC1*%
%TO.N,unconnected-(U3-GPIO27_ADC1-Pad32)*%
X89580000Y-43420000D03*
D24*
X88680000Y-43420000D03*
D26*
%TO.P,U3,31,GPIO26_ADC0*%
%TO.N,unconnected-(U3-GPIO26_ADC0-Pad31)*%
X89580000Y-45960000D03*
D24*
X88680000Y-45960000D03*
D26*
%TO.P,U3,30,RUN*%
%TO.N,unconnected-(U3-RUN-Pad30)*%
X89580000Y-48500000D03*
D24*
X88680000Y-48500000D03*
D26*
%TO.P,U3,29,GPIO22*%
%TO.N,/I2S_DATA*%
X89580000Y-51040000D03*
D24*
X88680000Y-51040000D03*
D26*
%TO.P,U3,28,GND*%
%TO.N,GND*%
X89580000Y-53580000D03*
D25*
X88680000Y-53580000D03*
D26*
%TO.P,U3,27,GPIO21*%
%TO.N,/I2S_BCK*%
X89580000Y-56120000D03*
D24*
X88680000Y-56120000D03*
D26*
%TO.P,U3,26,GPIO20*%
%TO.N,/I2S_LRCK*%
X89580000Y-58660000D03*
D24*
X88680000Y-58660000D03*
D26*
%TO.P,U3,25,GPIO19*%
%TO.N,/SCL*%
X89580000Y-61200000D03*
D24*
X88680000Y-61200000D03*
D26*
%TO.P,U3,24,GPIO18*%
%TO.N,/SDA*%
X89580000Y-63740000D03*
D24*
X88680000Y-63740000D03*
D26*
%TO.P,U3,23,GND*%
%TO.N,GND*%
X89580000Y-66280000D03*
D25*
X88680000Y-66280000D03*
D26*
%TO.P,U3,22,GPIO17*%
%TO.N,/TPAD12*%
X89580000Y-68820000D03*
D24*
X88680000Y-68820000D03*
D26*
%TO.P,U3,21,GPIO16*%
%TO.N,/TPAD4*%
X89580000Y-71360000D03*
D24*
X88680000Y-71360000D03*
D26*
%TO.P,U3,20,GPIO15*%
%TO.N,/TPAD5*%
X70000000Y-71360000D03*
D24*
X70900000Y-71360000D03*
D26*
%TO.P,U3,19,GPIO14*%
%TO.N,/TPAD1*%
X70000000Y-68820000D03*
D24*
X70900000Y-68820000D03*
D26*
%TO.P,U3,18,GND*%
%TO.N,unconnected-(U3-GND-Pad18)*%
X70000000Y-66280000D03*
D25*
X70900000Y-66280000D03*
D26*
%TO.P,U3,17,GPIO13*%
%TO.N,/TPAD9*%
X70000000Y-63740000D03*
D24*
X70900000Y-63740000D03*
D26*
%TO.P,U3,16,GPIO12*%
%TO.N,/TPAD6*%
X70000000Y-61200000D03*
D24*
X70900000Y-61200000D03*
D26*
%TO.P,U3,15,GPIO11*%
%TO.N,/TPAD2*%
X70000000Y-58660000D03*
D24*
X70900000Y-58660000D03*
D26*
%TO.P,U3,14,GPIO10*%
%TO.N,/TPAD10*%
X70000000Y-56120000D03*
D24*
X70900000Y-56120000D03*
D26*
%TO.P,U3,13,GND*%
%TO.N,unconnected-(U3-GND-Pad13)*%
X70000000Y-53580000D03*
D25*
X70900000Y-53580000D03*
D26*
%TO.P,U3,12,GPIO9*%
%TO.N,/TPAD7*%
X70000000Y-51040000D03*
D24*
X70900000Y-51040000D03*
D26*
%TO.P,U3,11,GPIO8*%
%TO.N,/TPAD3*%
X70000000Y-48500000D03*
D24*
X70900000Y-48500000D03*
D26*
%TO.P,U3,10,GPIO7*%
%TO.N,/TPAD11*%
X70000000Y-45960000D03*
D24*
X70900000Y-45960000D03*
D26*
%TO.P,U3,9,GPIO6*%
%TO.N,/TPAD8*%
X70000000Y-43420000D03*
D24*
X70900000Y-43420000D03*
D26*
%TO.P,U3,8,GND*%
%TO.N,unconnected-(U3-GND-Pad8)*%
X70000000Y-40880000D03*
D25*
X70900000Y-40880000D03*
D26*
%TO.P,U3,7,GPIO5*%
%TO.N,/SW*%
X70000000Y-38340000D03*
D24*
X70900000Y-38340000D03*
D26*
%TO.P,U3,6,GPIO4*%
%TO.N,/AS2*%
X70000000Y-35800000D03*
D24*
X70900000Y-35800000D03*
D26*
%TO.P,U3,5,GPIO3*%
%TO.N,/AS1*%
X70000000Y-33260000D03*
D24*
X70900000Y-33260000D03*
D26*
%TO.P,U3,4,GPIO2*%
%TO.N,/AS0*%
X70000000Y-30720000D03*
D24*
X70900000Y-30720000D03*
D26*
%TO.P,U3,3,GND*%
%TO.N,unconnected-(U3-GND-Pad3)*%
X70000000Y-28180000D03*
D25*
X70900000Y-28180000D03*
D26*
%TO.P,U3,2,GPIO1*%
%TO.N,/MIDI input 1/RX*%
X70000000Y-25640000D03*
D24*
X70900000Y-25640000D03*
D26*
%TO.P,U3,1,GPIO0*%
%TO.N,/Midi Output 1/TX*%
X70000000Y-23100000D03*
D24*
X70900000Y-23100000D03*
%TD*%
D27*
%TO.P,C1,1*%
%TO.N,+3V3*%
X117400000Y-49900000D03*
%TO.P,C1,2*%
%TO.N,GND*%
X115850000Y-49900000D03*
%TD*%
D17*
%TO.P,J11-O1,4*%
%TO.N,unconnected-(J11-O1-Pad4)*%
X117200000Y-42300000D03*
D18*
%TO.P,J11-O1,3*%
%TO.N,unconnected-(J11-O1-Pad3)*%
X120150000Y-30900000D03*
%TO.P,J11-O1,2*%
%TO.N,unconnected-(J11-O1-Pad2)*%
X112750000Y-38300000D03*
%TO.P,J11-O1,1*%
%TO.N,GND*%
X112750000Y-28900000D03*
%TD*%
D28*
%TO.P,U2,16,VCC*%
%TO.N,+3V3*%
X116120000Y-52030000D03*
%TO.P,U2,15,A2*%
%TO.N,/POT5*%
X116120000Y-53300000D03*
%TO.P,U2,14,A1*%
%TO.N,/POT4*%
X116120000Y-54570000D03*
%TO.P,U2,13,A0*%
%TO.N,/POT2*%
X116120000Y-55840000D03*
%TO.P,U2,12,A3*%
%TO.N,/POT1*%
X116120000Y-57110000D03*
%TO.P,U2,11,S0*%
%TO.N,/AS0*%
X116120000Y-58380000D03*
%TO.P,U2,10,S1*%
%TO.N,/AS1*%
X116120000Y-59650000D03*
%TO.P,U2,9,S2*%
%TO.N,/AS2*%
X116120000Y-60920000D03*
%TO.P,U2,8,GND*%
%TO.N,GND*%
X111170000Y-60920000D03*
%TO.P,U2,7,VEE*%
X111170000Y-59650000D03*
%TO.P,U2,6,~{E}*%
X111170000Y-58380000D03*
%TO.P,U2,5,A5*%
%TO.N,/POT3*%
X111170000Y-57110000D03*
%TO.P,U2,4,A7*%
%TO.N,/POT8*%
X111170000Y-55840000D03*
%TO.P,U2,3,A*%
%TO.N,/AIN*%
X111170000Y-54570000D03*
%TO.P,U2,2,A6*%
%TO.N,/POT6*%
X111170000Y-53300000D03*
%TO.P,U2,1,A4*%
%TO.N,/POT7*%
X111170000Y-52030000D03*
%TD*%
D15*
%TO.P,TP8,1,TOUCH*%
%TO.N,/TPAD8*%
X148455457Y-116483034D03*
%TD*%
D14*
%TO.P,R14,1,1*%
%TO.N,/TPAD6*%
X95700000Y-76387500D03*
%TO.P,R14,2,2*%
%TO.N,GND*%
X95700000Y-78212500D03*
%TD*%
%TO.P,R4,1*%
%TO.N,unconnected-(J1-I1-Pad3)*%
X108700000Y-34300000D03*
%TO.P,R4,2*%
%TO.N,unconnected-(D1-K-Pad1)*%
X108700000Y-36125000D03*
%TD*%
D29*
%TO.P,DISP1,4,SDA*%
%TO.N,/SDA*%
X105706000Y-50007000D03*
%TO.P,DISP1,3,SCL*%
%TO.N,/SCL*%
X108246000Y-50007000D03*
%TO.P,DISP1,2,VCC*%
%TO.N,+3V3*%
X110786000Y-50007000D03*
D30*
%TO.P,DISP1,1,GND*%
%TO.N,GND*%
X113326000Y-50007000D03*
%TD*%
D16*
%TO.P,DR1,1,K*%
%TO.N,/MIDI input 1/RX*%
X99812500Y-25400000D03*
%TO.P,DR1,2,A*%
%TO.N,unconnected-(DR1-A-Pad2)*%
X101387500Y-25400000D03*
%TD*%
D10*
%TO.P,R1,2*%
%TO.N,unconnected-(J11-O1-Pad3)*%
X121700000Y-34387500D03*
%TO.P,R1,1*%
%TO.N,+3V3*%
X121700000Y-36212500D03*
%TD*%
D15*
%TO.P,TP4,1,TOUCH*%
%TO.N,/TPAD4*%
X148483034Y-101383034D03*
%TD*%
D31*
%TO.P,D1,1,K*%
%TO.N,unconnected-(D1-K-Pad1)*%
X151550000Y-58500000D03*
%TO.P,D1,2,A*%
%TO.N,Net-(D1-A)*%
X153650000Y-58500000D03*
%TD*%
D32*
%TO.N,GND*%
X93500000Y-51800000D03*
%TO.N,unconnected-(R3-Pad2)*%
X113000000Y-25000000D03*
X118300000Y-27700000D03*
%TO.N,GND*%
X112700000Y-55504080D03*
X100800000Y-59400000D03*
X115000000Y-27300000D03*
%TO.N,/AS0*%
X120000000Y-60300000D03*
X81300000Y-61300000D03*
%TO.N,/AS1*%
X78900000Y-61300000D03*
X119000000Y-61200000D03*
%TO.N,/AS2*%
X117995000Y-62094808D03*
X76800000Y-61400000D03*
%TO.N,+3V3*%
X110000000Y-63900000D03*
%TO.N,/TPAD12*%
X148700000Y-132000000D03*
%TO.N,/TPAD4*%
X148400000Y-101500000D03*
%TO.N,/TPAD8*%
X148100000Y-116500000D03*
%TO.N,/TPAD11*%
X125000000Y-131500000D03*
%TO.N,/TPAD3*%
X124600000Y-100700000D03*
%TO.N,/TPAD7*%
X124800000Y-116400000D03*
%TO.N,/TPAD10*%
X101100000Y-131500000D03*
%TO.N,/TPAD6*%
X101200000Y-116000000D03*
%TO.N,/TPAD1*%
X76100000Y-76400000D03*
%TO.N,/TPAD2*%
X101172120Y-100910914D03*
%TO.N,/TPAD9*%
X77416663Y-131483034D03*
%TO.N,/TPAD5*%
X77400000Y-115100000D03*
%TO.N,/TPAD1*%
X77516663Y-101083034D03*
%TO.N,GND*%
X108800000Y-60400000D03*
X145900000Y-78225000D03*
X122400000Y-78225000D03*
X98500000Y-78212500D03*
%TO.N,unconnected-(J11-O1-Pad2)*%
X112600000Y-36300000D03*
X112000000Y-27300000D03*
%TO.N,/SW*%
X122515710Y-46884290D03*
%TO.N,Net-(D1-A)*%
X152300000Y-51900000D03*
X149700000Y-43100000D03*
%TO.N,unconnected-(D1-K-Pad1)*%
X112300000Y-44600000D03*
X151300000Y-53500000D03*
%TO.N,unconnected-(DR1-A-Pad2)*%
X106800000Y-27100000D03*
X109600000Y-32800000D03*
%TO.N,/AIN*%
X108500000Y-54300000D03*
%TO.N,/TPAD7*%
X117600000Y-76400000D03*
%TO.N,/TPAD3*%
X123500000Y-76400000D03*
%TO.N,/TPAD8*%
X140200000Y-76200000D03*
%TO.N,/TPAD9*%
X84800000Y-76400000D03*
%TO.N,/TPAD11*%
X132000000Y-76400000D03*
%TO.N,/TPAD2*%
X99700000Y-76400000D03*
%TO.N,/TPAD10*%
X109000000Y-76400000D03*
%TO.N,/TPAD6*%
X93800000Y-76500000D03*
%TO.N,/TPAD4*%
X147000000Y-76300000D03*
%TO.N,/TPAD5*%
X70600000Y-76400000D03*
%TO.N,/TPAD12*%
X156100000Y-76400000D03*
%TD*%
D33*
%TO.N,GND*%
X91720000Y-53580000D02*
X93500000Y-51800000D01*
X88680000Y-53580000D02*
X91720000Y-53580000D01*
%TO.N,unconnected-(R3-Pad2)*%
X123800000Y-34475000D02*
X123800000Y-31850000D01*
X111987500Y-25000000D02*
X111787500Y-25200000D01*
X123800000Y-31850000D02*
X119650000Y-27700000D01*
X119650000Y-27700000D02*
X118300000Y-27700000D01*
X113000000Y-25000000D02*
X111987500Y-25000000D01*
%TO.N,+3V3*%
X121700000Y-36212500D02*
X123712500Y-36212500D01*
X123712500Y-36212500D02*
X123800000Y-36300000D01*
X122300000Y-36212500D02*
X122300000Y-39700000D01*
X122300000Y-39700000D02*
X125200000Y-42600000D01*
X125200000Y-42600000D02*
X128500000Y-42600000D01*
%TO.N,Net-(D1-A)*%
X100482000Y-38900000D02*
X104090548Y-35291452D01*
X104090548Y-35291452D02*
X124791452Y-35291452D01*
X124791452Y-35291452D02*
X124900000Y-35400000D01*
X124900000Y-35400000D02*
X124900000Y-36989658D01*
X124900000Y-36989658D02*
X130010342Y-42100000D01*
X130010342Y-42100000D02*
X148700000Y-42100000D01*
X148700000Y-42100000D02*
X149700000Y-43100000D01*
%TO.N,GND*%
X112700000Y-55504080D02*
X112700000Y-57824999D01*
X112700000Y-57824999D02*
X112144999Y-58380000D01*
X112144999Y-58380000D02*
X111170000Y-58380000D01*
X98800000Y-61400000D02*
X100800000Y-59400000D01*
X98800000Y-61900000D02*
X98800000Y-61400000D01*
X113326000Y-50007000D02*
X113493000Y-50007000D01*
X114350000Y-27300000D02*
X115000000Y-27300000D01*
X112750000Y-28900000D02*
X114350000Y-27300000D01*
%TO.N,/AS0*%
X70900000Y-30720000D02*
X81300000Y-41120000D01*
X120000000Y-60300000D02*
X118080000Y-58380000D01*
X81300000Y-41120000D02*
X81300000Y-61300000D01*
X118080000Y-58380000D02*
X116120000Y-58380000D01*
%TO.N,/AS1*%
X78900000Y-41260000D02*
X78900000Y-61300000D01*
X119000000Y-61200000D02*
X117450000Y-59650000D01*
X70900000Y-33260000D02*
X78900000Y-41260000D01*
X117450000Y-59650000D02*
X116120000Y-59650000D01*
%TO.N,/AS2*%
X116120000Y-60920000D02*
X117294808Y-62094808D01*
X117294808Y-62094808D02*
X117995000Y-62094808D01*
X70900000Y-35800000D02*
X76800000Y-41700000D01*
X76800000Y-41700000D02*
X76800000Y-61400000D01*
%TO.N,GND*%
X155140000Y-27890000D02*
X154001800Y-29028200D01*
X154001800Y-36911800D02*
X155140000Y-38050000D01*
X154001800Y-29028200D02*
X154001800Y-36911800D01*
X145100000Y-61750000D02*
X145100000Y-55600000D01*
X145100000Y-55600000D02*
X146500000Y-54200000D01*
%TO.N,/POT2*%
X116120000Y-55590000D02*
X137090000Y-55590000D01*
X137090000Y-55590000D02*
X144450000Y-62950000D01*
X144450000Y-62950000D02*
X146400000Y-62950000D01*
X146400000Y-62950000D02*
X147600000Y-61750000D01*
%TO.N,+3V3*%
X126500000Y-61900000D02*
X128500000Y-63900000D01*
X128500000Y-63900000D02*
X147950000Y-63900000D01*
X147950000Y-63900000D02*
X150100000Y-61750000D01*
%TO.N,GND*%
X153640000Y-46170000D02*
X153640000Y-39550000D01*
X153640000Y-39550000D02*
X155140000Y-38050000D01*
X146500000Y-54200000D02*
X146500000Y-46200000D01*
X83000000Y-78212500D02*
X83836029Y-78212500D01*
X83836029Y-78212500D02*
X87530000Y-74518529D01*
X87530000Y-74518529D02*
X87530000Y-67430000D01*
X87530000Y-67430000D02*
X88680000Y-66280000D01*
X77516663Y-78225000D02*
X82987500Y-78225000D01*
X82987500Y-78225000D02*
X83000000Y-78212500D01*
X72100000Y-78225000D02*
X77516663Y-78225000D01*
X72100000Y-78225000D02*
X72125000Y-78225000D01*
X72125000Y-78225000D02*
X74600000Y-80700000D01*
%TO.N,/MIDI input 1/RX*%
X156180000Y-46170000D02*
X156278200Y-46071800D01*
X114450000Y-29900000D02*
X106500000Y-29900000D01*
X102775000Y-26175000D02*
X100587500Y-26175000D01*
X156278200Y-46071800D02*
X156278200Y-24878200D01*
X156278200Y-24878200D02*
X155260907Y-23860907D01*
X120489093Y-23860907D02*
X114450000Y-29900000D01*
X106500000Y-29900000D02*
X102775000Y-26175000D01*
X155260907Y-23860907D02*
X120489093Y-23860907D01*
X100587500Y-26175000D02*
X99812500Y-25400000D01*
%TO.N,/POT4*%
X116120000Y-54320000D02*
X115145001Y-54320000D01*
X147300000Y-79300000D02*
X148500000Y-80500000D01*
X115145001Y-54320000D02*
X114200000Y-55265001D01*
X114200000Y-55265001D02*
X114200000Y-65700000D01*
X114200000Y-65700000D02*
X128851471Y-65700000D01*
X128851471Y-65700000D02*
X142451471Y-79300000D01*
X142451471Y-79300000D02*
X147300000Y-79300000D01*
%TO.N,+3V3*%
X104700000Y-81800000D02*
X111600000Y-81800000D01*
X111600000Y-81800000D02*
X126500000Y-81800000D01*
X103800000Y-61900000D02*
X111600000Y-69700000D01*
X111600000Y-69700000D02*
X111600000Y-81800000D01*
X108000000Y-61900000D02*
X110000000Y-63900000D01*
X103800000Y-61900000D02*
X108000000Y-61900000D01*
%TO.N,GND*%
X113326000Y-50007000D02*
X115743000Y-50007000D01*
X115743000Y-50007000D02*
X115850000Y-49900000D01*
%TO.N,+3V3*%
X108300000Y-46087500D02*
X111514500Y-46087500D01*
X111514500Y-46087500D02*
X113127000Y-47700000D01*
X113127000Y-47700000D02*
X116300000Y-47700000D01*
X116300000Y-47700000D02*
X117500000Y-48900000D01*
X117500000Y-48900000D02*
X117500000Y-50400000D01*
X117500000Y-50400000D02*
X116800000Y-51100000D01*
%TO.N,/POT8*%
X111170000Y-55840000D02*
X111515552Y-55840000D01*
X111515552Y-55840000D02*
X114725552Y-52630000D01*
X119300000Y-47900000D02*
X121700000Y-45500000D01*
X114725552Y-52630000D02*
X117135552Y-52630000D01*
X118665552Y-51100000D02*
X119300000Y-51100000D01*
X117135552Y-52630000D02*
X118665552Y-51100000D01*
X119300000Y-51100000D02*
X119300000Y-47900000D01*
X130000000Y-45500000D02*
X131200000Y-44300000D01*
X121700000Y-45500000D02*
X130000000Y-45500000D01*
%TO.N,/POT5*%
X125200000Y-80600000D02*
X124000000Y-79400000D01*
X124000000Y-79400000D02*
X118700000Y-79400000D01*
X118700000Y-79400000D02*
X113300000Y-74000000D01*
X113300000Y-74000000D02*
X113300000Y-54709448D01*
X113300000Y-54709448D02*
X114900000Y-53109448D01*
X114900000Y-53109448D02*
X116060552Y-53109448D01*
X116060552Y-53109448D02*
X116120000Y-53050000D01*
%TO.N,/POT6*%
X101000000Y-80600000D02*
X99425000Y-79025000D01*
X99425000Y-79025000D02*
X95015256Y-79025000D01*
X95015256Y-79025000D02*
X92975182Y-76984926D01*
X92975182Y-76309744D02*
X100000000Y-69284926D01*
X92975182Y-76984926D02*
X92975182Y-76309744D01*
X100000000Y-69284926D02*
X100000000Y-61180000D01*
X100000000Y-61180000D02*
X108130000Y-53050000D01*
X108130000Y-53050000D02*
X111170000Y-53050000D01*
%TO.N,/POT7*%
X77100000Y-80700000D02*
X78300000Y-79500000D01*
X78300000Y-79500000D02*
X85500000Y-79500000D01*
X85500000Y-79500000D02*
X95100000Y-69900000D01*
X95100000Y-69900000D02*
X95100000Y-63800000D01*
X95100000Y-63800000D02*
X107120000Y-51780000D01*
X107120000Y-51780000D02*
X111170000Y-51780000D01*
%TO.N,+3V3*%
X127700000Y-80600000D02*
X128800000Y-81700000D01*
X128800000Y-81700000D02*
X149800000Y-81700000D01*
X149800000Y-81700000D02*
X151000000Y-80500000D01*
X103500000Y-80600000D02*
X104700000Y-81800000D01*
X126500000Y-81800000D02*
X127700000Y-80600000D01*
X79600000Y-80700000D02*
X80700000Y-81800000D01*
X80700000Y-81800000D02*
X102300000Y-81800000D01*
X102300000Y-81800000D02*
X103500000Y-80600000D01*
%TO.N,/TPAD1*%
X76100000Y-76400000D02*
X77516663Y-76400000D01*
%TO.N,/TPAD2*%
X101172120Y-101083034D02*
X101172120Y-100910914D01*
%TO.N,/TPAD5*%
X77489086Y-115189086D02*
X77400000Y-115100000D01*
X77489086Y-116183034D02*
X77489086Y-115189086D01*
%TO.N,/MIDI input 1/RX*%
X99812500Y-25400000D02*
X99812500Y-26675000D01*
X99812500Y-26675000D02*
X98100000Y-28387500D01*
X98100000Y-28387500D02*
X97400000Y-28387500D01*
X99812500Y-25400000D02*
X98112500Y-23700000D01*
X98112500Y-23700000D02*
X92180000Y-23700000D01*
X72060000Y-24480000D02*
X70900000Y-25640000D01*
X91400000Y-24480000D02*
X72060000Y-24480000D01*
X92180000Y-23700000D02*
X91400000Y-24480000D01*
%TO.N,/Midi Output 1/TX*%
X106962500Y-21950000D02*
X110212500Y-25200000D01*
X72050000Y-21950000D02*
X106962500Y-21950000D01*
X110212500Y-25775000D02*
X108687500Y-27300000D01*
X70900000Y-23100000D02*
X72050000Y-21950000D01*
X110212500Y-25200000D02*
X110212500Y-25775000D01*
%TO.N,GND*%
X106687500Y-78225000D02*
X106700000Y-78212500D01*
X143000000Y-78225000D02*
X148483034Y-78225000D01*
X119400000Y-78225000D02*
X124827577Y-78225000D01*
X95700000Y-78212500D02*
X98500000Y-78212500D01*
X148483034Y-78225000D02*
X153987500Y-78225000D01*
X111170000Y-59400000D02*
X109800000Y-59400000D01*
X98500000Y-78212500D02*
X101159620Y-78212500D01*
X111170000Y-58130000D02*
X111170000Y-59400000D01*
X101172120Y-78225000D02*
X106687500Y-78225000D01*
X153987500Y-78225000D02*
X154000000Y-78212500D01*
X101159620Y-78212500D02*
X101172120Y-78225000D01*
X130287500Y-78225000D02*
X130300000Y-78212500D01*
X111170000Y-59400000D02*
X111170000Y-60670000D01*
X109800000Y-59400000D02*
X108800000Y-60400000D01*
X124827577Y-78225000D02*
X130287500Y-78225000D01*
D34*
%TO.N,+3V3*%
X151100000Y-46170000D02*
X151100000Y-29390000D01*
X108300000Y-46087500D02*
X112512500Y-46087500D01*
X114600000Y-44000000D02*
X115200000Y-44000000D01*
X105800000Y-46087500D02*
X108300000Y-46087500D01*
X149200000Y-60850000D02*
X150100000Y-61750000D01*
X149230000Y-44300000D02*
X151100000Y-46170000D01*
D33*
X110800000Y-40200000D02*
X114600000Y-44000000D01*
D34*
X128500000Y-42600000D02*
X132000000Y-42600000D01*
X112512500Y-46087500D02*
X114600000Y-44000000D01*
D33*
X110786000Y-48573500D02*
X110786000Y-50007000D01*
D34*
X151100000Y-46170000D02*
X151100000Y-51900000D01*
X132000000Y-42600000D02*
X133700000Y-44300000D01*
X103067500Y-46087500D02*
X105800000Y-46087500D01*
D33*
X108300000Y-46087500D02*
X110786000Y-48573500D01*
X88680000Y-33260000D02*
X90240000Y-33260000D01*
D34*
X90240000Y-33260000D02*
X103067500Y-46087500D01*
X115200000Y-44000000D02*
X127100000Y-44000000D01*
D33*
X97400000Y-30212500D02*
X94352500Y-33260000D01*
D34*
X127100000Y-44000000D02*
X128500000Y-42600000D01*
X133700000Y-44300000D02*
X149230000Y-44300000D01*
D33*
X94352500Y-33260000D02*
X88680000Y-33260000D01*
D34*
X151100000Y-29390000D02*
X155140000Y-25350000D01*
X151100000Y-51900000D02*
X149200000Y-53800000D01*
D33*
X116800000Y-51100000D02*
X116120000Y-51780000D01*
D34*
X149200000Y-53800000D02*
X149200000Y-60850000D01*
D33*
X110800000Y-36125000D02*
X110800000Y-40200000D01*
%TO.N,/POT1*%
X116120000Y-56860000D02*
X118960000Y-56860000D01*
X118960000Y-56860000D02*
X124000000Y-61900000D01*
%TO.N,/POT3*%
X106340000Y-56860000D02*
X101300000Y-61900000D01*
X111170000Y-56860000D02*
X106340000Y-56860000D01*
%TO.N,/TPAD1*%
X70900000Y-68820000D02*
X77516663Y-75436663D01*
X77516663Y-75436663D02*
X77516663Y-76400000D01*
%TO.N,unconnected-(J1-I1-Pad3)*%
X108700000Y-32318000D02*
X107882000Y-31500000D01*
X108700000Y-34300000D02*
X108700000Y-32318000D01*
%TO.N,unconnected-(J11-O1-Pad2)*%
X112750000Y-36450000D02*
X112600000Y-36300000D01*
X112750000Y-38300000D02*
X112750000Y-36450000D01*
X112000000Y-27300000D02*
X110512500Y-27300000D01*
%TO.N,unconnected-(J11-O1-Pad3)*%
X120150000Y-30900000D02*
X120150000Y-32237500D01*
X120150000Y-32237500D02*
X122300000Y-34387500D01*
%TO.N,/SCL*%
X108300000Y-47912500D02*
X108300000Y-49953000D01*
X108300000Y-49953000D02*
X108246000Y-50007000D01*
X107487500Y-47100000D02*
X108300000Y-47912500D01*
X91015256Y-61200000D02*
X105115256Y-47100000D01*
X88680000Y-61200000D02*
X91015256Y-61200000D01*
X105115256Y-47100000D02*
X107487500Y-47100000D01*
%TO.N,/SDA*%
X105800000Y-47912500D02*
X105800000Y-49913000D01*
X91973000Y-63740000D02*
X105706000Y-50007000D01*
X88680000Y-63740000D02*
X91973000Y-63740000D01*
X105800000Y-49913000D02*
X105706000Y-50007000D01*
%TO.N,/SW*%
X142000000Y-46200000D02*
X142000000Y-54200000D01*
X142000000Y-46200000D02*
X123200000Y-46200000D01*
X123200000Y-46200000D02*
X122515710Y-46884290D01*
%TO.N,/TPAD5*%
X70900000Y-71360000D02*
X72100000Y-72560000D01*
X72100000Y-72560000D02*
X72100000Y-76400000D01*
%TO.N,/TPAD9*%
X70900000Y-63740000D02*
X72160000Y-63740000D01*
X72160000Y-63740000D02*
X78640000Y-70220000D01*
X78640000Y-70220000D02*
X78640000Y-74080000D01*
X78640000Y-74080000D02*
X80947500Y-76387500D01*
X80947500Y-76387500D02*
X83000000Y-76387500D01*
%TO.N,Net-(D1-A)*%
X153640000Y-53740000D02*
X153640000Y-55700000D01*
X152300000Y-52400000D02*
X153640000Y-53740000D01*
X153640000Y-58490000D02*
X153650000Y-58500000D01*
X152300000Y-51900000D02*
X152300000Y-52400000D01*
X153640000Y-55700000D02*
X153640000Y-58490000D01*
%TO.N,unconnected-(D1-K-Pad1)*%
X151300000Y-54000000D02*
X151100000Y-54200000D01*
X151100000Y-55700000D02*
X151100000Y-58050000D01*
X151100000Y-58050000D02*
X151550000Y-58500000D01*
X108700000Y-36125000D02*
X108700000Y-41000000D01*
X151100000Y-54200000D02*
X151100000Y-55700000D01*
X151300000Y-53500000D02*
X151300000Y-54000000D01*
X108700000Y-41000000D02*
X112300000Y-44600000D01*
%TO.N,unconnected-(DR1-A-Pad2)*%
X101387500Y-25400000D02*
X105100000Y-25400000D01*
X110800000Y-34300000D02*
X110800000Y-34000000D01*
X105100000Y-25400000D02*
X106800000Y-27100000D01*
X110800000Y-34000000D02*
X109600000Y-32800000D01*
%TO.N,/AIN*%
X108520000Y-54320000D02*
X108500000Y-54300000D01*
X111170000Y-54320000D02*
X108520000Y-54320000D01*
X88680000Y-38340000D02*
X90240000Y-38340000D01*
%TO.N,/TPAD8*%
X140200000Y-76200000D02*
X140400000Y-76400000D01*
%TO.N,/TPAD4*%
X148483034Y-101000000D02*
X148500000Y-100983034D01*
%TO.N,/TPAD3*%
X124827577Y-101083034D02*
X124827577Y-101055457D01*
X124827577Y-101055457D02*
X124900000Y-100983034D01*
X123500000Y-76400000D02*
X124827577Y-76400000D01*
%TO.N,/TPAD9*%
X77416663Y-131483034D02*
X77500000Y-131483034D01*
X83012500Y-76400000D02*
X83000000Y-76387500D01*
%TO.N,/TPAD5*%
X70600000Y-76400000D02*
X72100000Y-76400000D01*
%TO.N,/TPAD4*%
X147000000Y-76300000D02*
X148383034Y-76300000D01*
%TO.N,/TPAD8*%
X148455457Y-116483034D02*
X148400000Y-116483034D01*
%TO.N,/TPAD4*%
X148483034Y-101383034D02*
X148483034Y-101000000D01*
%TO.N,/TPAD8*%
X140400000Y-76400000D02*
X143000000Y-76400000D01*
%TO.N,/TPAD4*%
X148383034Y-76300000D02*
X148483034Y-76400000D01*
%TO.N,/TPAD5*%
X77489086Y-116093948D02*
X77500000Y-116083034D01*
%TO.N,/TPAD7*%
X124800000Y-116183034D02*
X124600000Y-115983034D01*
X117600000Y-76400000D02*
X119400000Y-76400000D01*
%TO.N,/TPAD10*%
X101072120Y-131483034D02*
X101072120Y-131510914D01*
%TO.N,/TPAD6*%
X101144543Y-116183034D02*
X101144543Y-116138491D01*
%TO.N,/TPAD11*%
X132000000Y-76400000D02*
X130312500Y-76400000D01*
X124727577Y-131483034D02*
X124500000Y-131483034D01*
%TO.N,/TPAD2*%
X101172120Y-100910914D02*
X101200000Y-100883034D01*
%TO.N,/TPAD10*%
X101072120Y-131510914D02*
X101000000Y-131583034D01*
X108987500Y-76387500D02*
X106700000Y-76387500D01*
%TO.N,/TPAD1*%
X77516663Y-101083034D02*
X77600000Y-101083034D01*
%TO.N,/TPAD5*%
X77489086Y-116183034D02*
X77489086Y-116093948D01*
%TO.N,/TPAD11*%
X130312500Y-76400000D02*
X130300000Y-76387500D01*
%TO.N,/TPAD2*%
X99700000Y-76400000D02*
X101172120Y-76400000D01*
%TO.N,/TPAD10*%
X109000000Y-76400000D02*
X108987500Y-76387500D01*
%TO.N,/TPAD9*%
X84800000Y-76400000D02*
X83012500Y-76400000D01*
%TO.N,/TPAD6*%
X95587500Y-76500000D02*
X95700000Y-76387500D01*
X93800000Y-76500000D02*
X95587500Y-76500000D01*
X101144543Y-116138491D02*
X101200000Y-116083034D01*
%TO.N,/TPAD12*%
X156087500Y-76387500D02*
X154000000Y-76387500D01*
X156100000Y-76400000D02*
X156087500Y-76387500D01*
X148383034Y-131783034D02*
X148400000Y-131783034D01*
%TD*%
M02*
