%TF.GenerationSoftware,KiCad,Pcbnew,8.0.3*%
%TF.CreationDate,2024-07-12T18:25:32-05:00*%
%TF.ProjectId,controller,636f6e74-726f-46c6-9c65-722e6b696361,rev?*%
%TF.SameCoordinates,Original*%
%TF.FileFunction,Legend,Top*%
%TF.FilePolarity,Positive*%
%FSLAX46Y46*%
G04 Gerber Fmt 4.6, Leading zero omitted, Abs format (unit mm)*
G04 Created by KiCad (PCBNEW 8.0.3) date 2024-07-12 18:25:32*
%MOMM*%
%LPD*%
G01*
G04 APERTURE LIST*
G04 Aperture macros list*
%AMRoundRect*
0 Rectangle with rounded corners*
0 $1 Rounding radius*
0 $2 $3 $4 $5 $6 $7 $8 $9 X,Y pos of 4 corners*
0 Add a 4 corners polygon primitive as box body*
4,1,4,$2,$3,$4,$5,$6,$7,$8,$9,$2,$3,0*
0 Add four circle primitives for the rounded corners*
1,1,$1+$1,$2,$3*
1,1,$1+$1,$4,$5*
1,1,$1+$1,$6,$7*
1,1,$1+$1,$8,$9*
0 Add four rect primitives between the rounded corners*
20,1,$1+$1,$2,$3,$4,$5,0*
20,1,$1+$1,$4,$5,$6,$7,0*
20,1,$1+$1,$6,$7,$8,$9,0*
20,1,$1+$1,$8,$9,$2,$3,0*%
G04 Aperture macros list end*
%ADD10C,0.150000*%
%ADD11C,0.100000*%
%ADD12C,0.101600*%
%ADD13C,0.081280*%
%ADD14C,0.120000*%
%ADD15C,0.200000*%
%ADD16C,0.127000*%
%ADD17RoundRect,0.250000X0.450000X-0.262500X0.450000X0.262500X-0.450000X0.262500X-0.450000X-0.262500X0*%
%ADD18RoundRect,0.750000X-0.750000X1.250000X-0.750000X-1.250000X0.750000X-1.250000X0.750000X1.250000X0*%
%ADD19C,1.800000*%
%ADD20R,1.800000X1.800000*%
%ADD21RoundRect,0.250000X-0.450000X0.262500X-0.450000X-0.262500X0.450000X-0.262500X0.450000X0.262500X0*%
%ADD22RoundRect,0.218750X-0.218750X-0.256250X0.218750X-0.256250X0.218750X0.256250X-0.218750X0.256250X0*%
%ADD23RoundRect,0.102000X-1.400000X0.800000X-1.400000X-0.800000X1.400000X-0.800000X1.400000X0.800000X0*%
%ADD24RoundRect,0.102000X-1.400000X0.700000X-1.400000X-0.700000X1.400000X-0.700000X1.400000X0.700000X0*%
%ADD25C,1.700000*%
%ADD26R,1.400000X1.600000*%
%ADD27C,1.879600*%
%ADD28R,1.780000X2.000000*%
%ADD29RoundRect,0.250000X-0.262500X-0.450000X0.262500X-0.450000X0.262500X0.450000X-0.262500X0.450000X0*%
%ADD30R,1.700000X3.500000*%
%ADD31O,1.700000X1.700000*%
%ADD32R,1.700000X1.700000*%
%ADD33R,3.500000X1.700000*%
%ADD34O,1.800000X1.800000*%
%ADD35O,1.500000X1.500000*%
%ADD36RoundRect,0.225000X0.225000X0.250000X-0.225000X0.250000X-0.225000X-0.250000X0.225000X-0.250000X0*%
%ADD37RoundRect,0.150000X-0.825000X-0.150000X0.825000X-0.150000X0.825000X0.150000X-0.825000X0.150000X0*%
%ADD38C,1.711200*%
%ADD39RoundRect,0.101600X0.754000X0.754000X-0.754000X0.754000X-0.754000X-0.754000X0.754000X-0.754000X0*%
%ADD40C,2.540000*%
%ADD41RoundRect,0.112500X-0.187500X-0.112500X0.187500X-0.112500X0.187500X0.112500X-0.187500X0.112500X0*%
G04 APERTURE END LIST*
D10*
X124554819Y-38166666D02*
X124078628Y-38499999D01*
X124554819Y-38738094D02*
X123554819Y-38738094D01*
X123554819Y-38738094D02*
X123554819Y-38357142D01*
X123554819Y-38357142D02*
X123602438Y-38261904D01*
X123602438Y-38261904D02*
X123650057Y-38214285D01*
X123650057Y-38214285D02*
X123745295Y-38166666D01*
X123745295Y-38166666D02*
X123888152Y-38166666D01*
X123888152Y-38166666D02*
X123983390Y-38214285D01*
X123983390Y-38214285D02*
X124031009Y-38261904D01*
X124031009Y-38261904D02*
X124078628Y-38357142D01*
X124078628Y-38357142D02*
X124078628Y-38738094D01*
X123554819Y-37833332D02*
X123554819Y-37214285D01*
X123554819Y-37214285D02*
X123935771Y-37547618D01*
X123935771Y-37547618D02*
X123935771Y-37404761D01*
X123935771Y-37404761D02*
X123983390Y-37309523D01*
X123983390Y-37309523D02*
X124031009Y-37261904D01*
X124031009Y-37261904D02*
X124126247Y-37214285D01*
X124126247Y-37214285D02*
X124364342Y-37214285D01*
X124364342Y-37214285D02*
X124459580Y-37261904D01*
X124459580Y-37261904D02*
X124507200Y-37309523D01*
X124507200Y-37309523D02*
X124554819Y-37404761D01*
X124554819Y-37404761D02*
X124554819Y-37690475D01*
X124554819Y-37690475D02*
X124507200Y-37785713D01*
X124507200Y-37785713D02*
X124459580Y-37833332D01*
X138854819Y-50945238D02*
X138378628Y-51278571D01*
X138854819Y-51516666D02*
X137854819Y-51516666D01*
X137854819Y-51516666D02*
X137854819Y-51135714D01*
X137854819Y-51135714D02*
X137902438Y-51040476D01*
X137902438Y-51040476D02*
X137950057Y-50992857D01*
X137950057Y-50992857D02*
X138045295Y-50945238D01*
X138045295Y-50945238D02*
X138188152Y-50945238D01*
X138188152Y-50945238D02*
X138283390Y-50992857D01*
X138283390Y-50992857D02*
X138331009Y-51040476D01*
X138331009Y-51040476D02*
X138378628Y-51135714D01*
X138378628Y-51135714D02*
X138378628Y-51516666D01*
X137854819Y-50659523D02*
X138854819Y-50326190D01*
X138854819Y-50326190D02*
X137854819Y-49992857D01*
X138283390Y-49516666D02*
X138235771Y-49611904D01*
X138235771Y-49611904D02*
X138188152Y-49659523D01*
X138188152Y-49659523D02*
X138092914Y-49707142D01*
X138092914Y-49707142D02*
X138045295Y-49707142D01*
X138045295Y-49707142D02*
X137950057Y-49659523D01*
X137950057Y-49659523D02*
X137902438Y-49611904D01*
X137902438Y-49611904D02*
X137854819Y-49516666D01*
X137854819Y-49516666D02*
X137854819Y-49326190D01*
X137854819Y-49326190D02*
X137902438Y-49230952D01*
X137902438Y-49230952D02*
X137950057Y-49183333D01*
X137950057Y-49183333D02*
X138045295Y-49135714D01*
X138045295Y-49135714D02*
X138092914Y-49135714D01*
X138092914Y-49135714D02*
X138188152Y-49183333D01*
X138188152Y-49183333D02*
X138235771Y-49230952D01*
X138235771Y-49230952D02*
X138283390Y-49326190D01*
X138283390Y-49326190D02*
X138283390Y-49516666D01*
X138283390Y-49516666D02*
X138331009Y-49611904D01*
X138331009Y-49611904D02*
X138378628Y-49659523D01*
X138378628Y-49659523D02*
X138473866Y-49707142D01*
X138473866Y-49707142D02*
X138664342Y-49707142D01*
X138664342Y-49707142D02*
X138759580Y-49659523D01*
X138759580Y-49659523D02*
X138807200Y-49611904D01*
X138807200Y-49611904D02*
X138854819Y-49516666D01*
X138854819Y-49516666D02*
X138854819Y-49326190D01*
X138854819Y-49326190D02*
X138807200Y-49230952D01*
X138807200Y-49230952D02*
X138759580Y-49183333D01*
X138759580Y-49183333D02*
X138664342Y-49135714D01*
X138664342Y-49135714D02*
X138473866Y-49135714D01*
X138473866Y-49135714D02*
X138378628Y-49183333D01*
X138378628Y-49183333D02*
X138331009Y-49230952D01*
X138331009Y-49230952D02*
X138283390Y-49326190D01*
X85204819Y-87345238D02*
X84728628Y-87678571D01*
X85204819Y-87916666D02*
X84204819Y-87916666D01*
X84204819Y-87916666D02*
X84204819Y-87535714D01*
X84204819Y-87535714D02*
X84252438Y-87440476D01*
X84252438Y-87440476D02*
X84300057Y-87392857D01*
X84300057Y-87392857D02*
X84395295Y-87345238D01*
X84395295Y-87345238D02*
X84538152Y-87345238D01*
X84538152Y-87345238D02*
X84633390Y-87392857D01*
X84633390Y-87392857D02*
X84681009Y-87440476D01*
X84681009Y-87440476D02*
X84728628Y-87535714D01*
X84728628Y-87535714D02*
X84728628Y-87916666D01*
X84204819Y-87059523D02*
X85204819Y-86726190D01*
X85204819Y-86726190D02*
X84204819Y-86392857D01*
X84204819Y-86154761D02*
X84204819Y-85488095D01*
X84204819Y-85488095D02*
X85204819Y-85916666D01*
X109104819Y-87245238D02*
X108628628Y-87578571D01*
X109104819Y-87816666D02*
X108104819Y-87816666D01*
X108104819Y-87816666D02*
X108104819Y-87435714D01*
X108104819Y-87435714D02*
X108152438Y-87340476D01*
X108152438Y-87340476D02*
X108200057Y-87292857D01*
X108200057Y-87292857D02*
X108295295Y-87245238D01*
X108295295Y-87245238D02*
X108438152Y-87245238D01*
X108438152Y-87245238D02*
X108533390Y-87292857D01*
X108533390Y-87292857D02*
X108581009Y-87340476D01*
X108581009Y-87340476D02*
X108628628Y-87435714D01*
X108628628Y-87435714D02*
X108628628Y-87816666D01*
X108104819Y-86959523D02*
X109104819Y-86626190D01*
X109104819Y-86626190D02*
X108104819Y-86292857D01*
X108104819Y-85530952D02*
X108104819Y-85721428D01*
X108104819Y-85721428D02*
X108152438Y-85816666D01*
X108152438Y-85816666D02*
X108200057Y-85864285D01*
X108200057Y-85864285D02*
X108342914Y-85959523D01*
X108342914Y-85959523D02*
X108533390Y-86007142D01*
X108533390Y-86007142D02*
X108914342Y-86007142D01*
X108914342Y-86007142D02*
X109009580Y-85959523D01*
X109009580Y-85959523D02*
X109057200Y-85911904D01*
X109057200Y-85911904D02*
X109104819Y-85816666D01*
X109104819Y-85816666D02*
X109104819Y-85626190D01*
X109104819Y-85626190D02*
X109057200Y-85530952D01*
X109057200Y-85530952D02*
X109009580Y-85483333D01*
X109009580Y-85483333D02*
X108914342Y-85435714D01*
X108914342Y-85435714D02*
X108676247Y-85435714D01*
X108676247Y-85435714D02*
X108581009Y-85483333D01*
X108581009Y-85483333D02*
X108533390Y-85530952D01*
X108533390Y-85530952D02*
X108485771Y-85626190D01*
X108485771Y-85626190D02*
X108485771Y-85816666D01*
X108485771Y-85816666D02*
X108533390Y-85911904D01*
X108533390Y-85911904D02*
X108581009Y-85959523D01*
X108581009Y-85959523D02*
X108676247Y-86007142D01*
X133304819Y-87245238D02*
X132828628Y-87578571D01*
X133304819Y-87816666D02*
X132304819Y-87816666D01*
X132304819Y-87816666D02*
X132304819Y-87435714D01*
X132304819Y-87435714D02*
X132352438Y-87340476D01*
X132352438Y-87340476D02*
X132400057Y-87292857D01*
X132400057Y-87292857D02*
X132495295Y-87245238D01*
X132495295Y-87245238D02*
X132638152Y-87245238D01*
X132638152Y-87245238D02*
X132733390Y-87292857D01*
X132733390Y-87292857D02*
X132781009Y-87340476D01*
X132781009Y-87340476D02*
X132828628Y-87435714D01*
X132828628Y-87435714D02*
X132828628Y-87816666D01*
X132304819Y-86959523D02*
X133304819Y-86626190D01*
X133304819Y-86626190D02*
X132304819Y-86292857D01*
X132304819Y-85483333D02*
X132304819Y-85959523D01*
X132304819Y-85959523D02*
X132781009Y-86007142D01*
X132781009Y-86007142D02*
X132733390Y-85959523D01*
X132733390Y-85959523D02*
X132685771Y-85864285D01*
X132685771Y-85864285D02*
X132685771Y-85626190D01*
X132685771Y-85626190D02*
X132733390Y-85530952D01*
X132733390Y-85530952D02*
X132781009Y-85483333D01*
X132781009Y-85483333D02*
X132876247Y-85435714D01*
X132876247Y-85435714D02*
X133114342Y-85435714D01*
X133114342Y-85435714D02*
X133209580Y-85483333D01*
X133209580Y-85483333D02*
X133257200Y-85530952D01*
X133257200Y-85530952D02*
X133304819Y-85626190D01*
X133304819Y-85626190D02*
X133304819Y-85864285D01*
X133304819Y-85864285D02*
X133257200Y-85959523D01*
X133257200Y-85959523D02*
X133209580Y-86007142D01*
X156604819Y-87145238D02*
X156128628Y-87478571D01*
X156604819Y-87716666D02*
X155604819Y-87716666D01*
X155604819Y-87716666D02*
X155604819Y-87335714D01*
X155604819Y-87335714D02*
X155652438Y-87240476D01*
X155652438Y-87240476D02*
X155700057Y-87192857D01*
X155700057Y-87192857D02*
X155795295Y-87145238D01*
X155795295Y-87145238D02*
X155938152Y-87145238D01*
X155938152Y-87145238D02*
X156033390Y-87192857D01*
X156033390Y-87192857D02*
X156081009Y-87240476D01*
X156081009Y-87240476D02*
X156128628Y-87335714D01*
X156128628Y-87335714D02*
X156128628Y-87716666D01*
X155604819Y-86859523D02*
X156604819Y-86526190D01*
X156604819Y-86526190D02*
X155604819Y-86192857D01*
X155938152Y-85430952D02*
X156604819Y-85430952D01*
X155557200Y-85669047D02*
X156271485Y-85907142D01*
X156271485Y-85907142D02*
X156271485Y-85288095D01*
X109404819Y-68545238D02*
X108928628Y-68878571D01*
X109404819Y-69116666D02*
X108404819Y-69116666D01*
X108404819Y-69116666D02*
X108404819Y-68735714D01*
X108404819Y-68735714D02*
X108452438Y-68640476D01*
X108452438Y-68640476D02*
X108500057Y-68592857D01*
X108500057Y-68592857D02*
X108595295Y-68545238D01*
X108595295Y-68545238D02*
X108738152Y-68545238D01*
X108738152Y-68545238D02*
X108833390Y-68592857D01*
X108833390Y-68592857D02*
X108881009Y-68640476D01*
X108881009Y-68640476D02*
X108928628Y-68735714D01*
X108928628Y-68735714D02*
X108928628Y-69116666D01*
X108404819Y-68259523D02*
X109404819Y-67926190D01*
X109404819Y-67926190D02*
X108404819Y-67592857D01*
X108404819Y-67354761D02*
X108404819Y-66735714D01*
X108404819Y-66735714D02*
X108785771Y-67069047D01*
X108785771Y-67069047D02*
X108785771Y-66926190D01*
X108785771Y-66926190D02*
X108833390Y-66830952D01*
X108833390Y-66830952D02*
X108881009Y-66783333D01*
X108881009Y-66783333D02*
X108976247Y-66735714D01*
X108976247Y-66735714D02*
X109214342Y-66735714D01*
X109214342Y-66735714D02*
X109309580Y-66783333D01*
X109309580Y-66783333D02*
X109357200Y-66830952D01*
X109357200Y-66830952D02*
X109404819Y-66926190D01*
X109404819Y-66926190D02*
X109404819Y-67211904D01*
X109404819Y-67211904D02*
X109357200Y-67307142D01*
X109357200Y-67307142D02*
X109309580Y-67354761D01*
X155704819Y-68395238D02*
X155228628Y-68728571D01*
X155704819Y-68966666D02*
X154704819Y-68966666D01*
X154704819Y-68966666D02*
X154704819Y-68585714D01*
X154704819Y-68585714D02*
X154752438Y-68490476D01*
X154752438Y-68490476D02*
X154800057Y-68442857D01*
X154800057Y-68442857D02*
X154895295Y-68395238D01*
X154895295Y-68395238D02*
X155038152Y-68395238D01*
X155038152Y-68395238D02*
X155133390Y-68442857D01*
X155133390Y-68442857D02*
X155181009Y-68490476D01*
X155181009Y-68490476D02*
X155228628Y-68585714D01*
X155228628Y-68585714D02*
X155228628Y-68966666D01*
X154704819Y-68109523D02*
X155704819Y-67776190D01*
X155704819Y-67776190D02*
X154704819Y-67442857D01*
X154800057Y-67157142D02*
X154752438Y-67109523D01*
X154752438Y-67109523D02*
X154704819Y-67014285D01*
X154704819Y-67014285D02*
X154704819Y-66776190D01*
X154704819Y-66776190D02*
X154752438Y-66680952D01*
X154752438Y-66680952D02*
X154800057Y-66633333D01*
X154800057Y-66633333D02*
X154895295Y-66585714D01*
X154895295Y-66585714D02*
X154990533Y-66585714D01*
X154990533Y-66585714D02*
X155133390Y-66633333D01*
X155133390Y-66633333D02*
X155704819Y-67204761D01*
X155704819Y-67204761D02*
X155704819Y-66585714D01*
X132104819Y-68545238D02*
X131628628Y-68878571D01*
X132104819Y-69116666D02*
X131104819Y-69116666D01*
X131104819Y-69116666D02*
X131104819Y-68735714D01*
X131104819Y-68735714D02*
X131152438Y-68640476D01*
X131152438Y-68640476D02*
X131200057Y-68592857D01*
X131200057Y-68592857D02*
X131295295Y-68545238D01*
X131295295Y-68545238D02*
X131438152Y-68545238D01*
X131438152Y-68545238D02*
X131533390Y-68592857D01*
X131533390Y-68592857D02*
X131581009Y-68640476D01*
X131581009Y-68640476D02*
X131628628Y-68735714D01*
X131628628Y-68735714D02*
X131628628Y-69116666D01*
X131104819Y-68259523D02*
X132104819Y-67926190D01*
X132104819Y-67926190D02*
X131104819Y-67592857D01*
X132104819Y-66735714D02*
X132104819Y-67307142D01*
X132104819Y-67021428D02*
X131104819Y-67021428D01*
X131104819Y-67021428D02*
X131247676Y-67116666D01*
X131247676Y-67116666D02*
X131342914Y-67211904D01*
X131342914Y-67211904D02*
X131390533Y-67307142D01*
X126932396Y-77955357D02*
X126456205Y-78288690D01*
X126932396Y-78526785D02*
X125932396Y-78526785D01*
X125932396Y-78526785D02*
X125932396Y-78145833D01*
X125932396Y-78145833D02*
X125980015Y-78050595D01*
X125980015Y-78050595D02*
X126027634Y-78002976D01*
X126027634Y-78002976D02*
X126122872Y-77955357D01*
X126122872Y-77955357D02*
X126265729Y-77955357D01*
X126265729Y-77955357D02*
X126360967Y-78002976D01*
X126360967Y-78002976D02*
X126408586Y-78050595D01*
X126408586Y-78050595D02*
X126456205Y-78145833D01*
X126456205Y-78145833D02*
X126456205Y-78526785D01*
X126932396Y-77002976D02*
X126932396Y-77574404D01*
X126932396Y-77288690D02*
X125932396Y-77288690D01*
X125932396Y-77288690D02*
X126075253Y-77383928D01*
X126075253Y-77383928D02*
X126170491Y-77479166D01*
X126170491Y-77479166D02*
X126218110Y-77574404D01*
X126932396Y-76050595D02*
X126932396Y-76622023D01*
X126932396Y-76336309D02*
X125932396Y-76336309D01*
X125932396Y-76336309D02*
X126075253Y-76431547D01*
X126075253Y-76431547D02*
X126170491Y-76526785D01*
X126170491Y-76526785D02*
X126218110Y-76622023D01*
D11*
X76154758Y-130440453D02*
X76726186Y-130440453D01*
X76440472Y-131440453D02*
X76440472Y-130440453D01*
X77059520Y-131440453D02*
X77059520Y-130440453D01*
X77059520Y-130440453D02*
X77440472Y-130440453D01*
X77440472Y-130440453D02*
X77535710Y-130488072D01*
X77535710Y-130488072D02*
X77583329Y-130535691D01*
X77583329Y-130535691D02*
X77630948Y-130630929D01*
X77630948Y-130630929D02*
X77630948Y-130773786D01*
X77630948Y-130773786D02*
X77583329Y-130869024D01*
X77583329Y-130869024D02*
X77535710Y-130916643D01*
X77535710Y-130916643D02*
X77440472Y-130964262D01*
X77440472Y-130964262D02*
X77059520Y-130964262D01*
X78107139Y-131440453D02*
X78297615Y-131440453D01*
X78297615Y-131440453D02*
X78392853Y-131392834D01*
X78392853Y-131392834D02*
X78440472Y-131345214D01*
X78440472Y-131345214D02*
X78535710Y-131202357D01*
X78535710Y-131202357D02*
X78583329Y-131011881D01*
X78583329Y-131011881D02*
X78583329Y-130630929D01*
X78583329Y-130630929D02*
X78535710Y-130535691D01*
X78535710Y-130535691D02*
X78488091Y-130488072D01*
X78488091Y-130488072D02*
X78392853Y-130440453D01*
X78392853Y-130440453D02*
X78202377Y-130440453D01*
X78202377Y-130440453D02*
X78107139Y-130488072D01*
X78107139Y-130488072D02*
X78059520Y-130535691D01*
X78059520Y-130535691D02*
X78011901Y-130630929D01*
X78011901Y-130630929D02*
X78011901Y-130869024D01*
X78011901Y-130869024D02*
X78059520Y-130964262D01*
X78059520Y-130964262D02*
X78107139Y-131011881D01*
X78107139Y-131011881D02*
X78202377Y-131059500D01*
X78202377Y-131059500D02*
X78392853Y-131059500D01*
X78392853Y-131059500D02*
X78488091Y-131011881D01*
X78488091Y-131011881D02*
X78535710Y-130964262D01*
X78535710Y-130964262D02*
X78583329Y-130869024D01*
D10*
X110954819Y-38166666D02*
X110478628Y-38499999D01*
X110954819Y-38738094D02*
X109954819Y-38738094D01*
X109954819Y-38738094D02*
X109954819Y-38357142D01*
X109954819Y-38357142D02*
X110002438Y-38261904D01*
X110002438Y-38261904D02*
X110050057Y-38214285D01*
X110050057Y-38214285D02*
X110145295Y-38166666D01*
X110145295Y-38166666D02*
X110288152Y-38166666D01*
X110288152Y-38166666D02*
X110383390Y-38214285D01*
X110383390Y-38214285D02*
X110431009Y-38261904D01*
X110431009Y-38261904D02*
X110478628Y-38357142D01*
X110478628Y-38357142D02*
X110478628Y-38738094D01*
X109954819Y-37309523D02*
X109954819Y-37499999D01*
X109954819Y-37499999D02*
X110002438Y-37595237D01*
X110002438Y-37595237D02*
X110050057Y-37642856D01*
X110050057Y-37642856D02*
X110192914Y-37738094D01*
X110192914Y-37738094D02*
X110383390Y-37785713D01*
X110383390Y-37785713D02*
X110764342Y-37785713D01*
X110764342Y-37785713D02*
X110859580Y-37738094D01*
X110859580Y-37738094D02*
X110907200Y-37690475D01*
X110907200Y-37690475D02*
X110954819Y-37595237D01*
X110954819Y-37595237D02*
X110954819Y-37404761D01*
X110954819Y-37404761D02*
X110907200Y-37309523D01*
X110907200Y-37309523D02*
X110859580Y-37261904D01*
X110859580Y-37261904D02*
X110764342Y-37214285D01*
X110764342Y-37214285D02*
X110526247Y-37214285D01*
X110526247Y-37214285D02*
X110431009Y-37261904D01*
X110431009Y-37261904D02*
X110383390Y-37309523D01*
X110383390Y-37309523D02*
X110335771Y-37404761D01*
X110335771Y-37404761D02*
X110335771Y-37595237D01*
X110335771Y-37595237D02*
X110383390Y-37690475D01*
X110383390Y-37690475D02*
X110431009Y-37738094D01*
X110431009Y-37738094D02*
X110526247Y-37785713D01*
X106980952Y-24754819D02*
X106980952Y-23754819D01*
X106980952Y-23754819D02*
X107219047Y-23754819D01*
X107219047Y-23754819D02*
X107361904Y-23802438D01*
X107361904Y-23802438D02*
X107457142Y-23897676D01*
X107457142Y-23897676D02*
X107504761Y-23992914D01*
X107504761Y-23992914D02*
X107552380Y-24183390D01*
X107552380Y-24183390D02*
X107552380Y-24326247D01*
X107552380Y-24326247D02*
X107504761Y-24516723D01*
X107504761Y-24516723D02*
X107457142Y-24611961D01*
X107457142Y-24611961D02*
X107361904Y-24707200D01*
X107361904Y-24707200D02*
X107219047Y-24754819D01*
X107219047Y-24754819D02*
X106980952Y-24754819D01*
X107838095Y-23754819D02*
X108409523Y-23754819D01*
X108123809Y-24754819D02*
X108123809Y-23754819D01*
X109266666Y-24754819D02*
X108695238Y-24754819D01*
X108980952Y-24754819D02*
X108980952Y-23754819D01*
X108980952Y-23754819D02*
X108885714Y-23897676D01*
X108885714Y-23897676D02*
X108790476Y-23992914D01*
X108790476Y-23992914D02*
X108695238Y-24040533D01*
X107553909Y-43669487D02*
X108269404Y-43669487D01*
X108269404Y-43669487D02*
X108412503Y-43717187D01*
X108412503Y-43717187D02*
X108507903Y-43812586D01*
X108507903Y-43812586D02*
X108555602Y-43955685D01*
X108555602Y-43955685D02*
X108555602Y-44051085D01*
X108555602Y-42667794D02*
X108555602Y-43240190D01*
X108555602Y-42953992D02*
X107553909Y-42953992D01*
X107553909Y-42953992D02*
X107697008Y-43049391D01*
X107697008Y-43049391D02*
X107792408Y-43144791D01*
X107792408Y-43144791D02*
X107840107Y-43240190D01*
X108174005Y-42238497D02*
X108174005Y-41475303D01*
X108555602Y-40998306D02*
X107553909Y-40998306D01*
X108555602Y-39996613D02*
X108555602Y-40569009D01*
X108555602Y-40282811D02*
X107553909Y-40282811D01*
X107553909Y-40282811D02*
X107697008Y-40378210D01*
X107697008Y-40378210D02*
X107792408Y-40473610D01*
X107792408Y-40473610D02*
X107840107Y-40569009D01*
X140357200Y-51533332D02*
X140404819Y-51390475D01*
X140404819Y-51390475D02*
X140404819Y-51152380D01*
X140404819Y-51152380D02*
X140357200Y-51057142D01*
X140357200Y-51057142D02*
X140309580Y-51009523D01*
X140309580Y-51009523D02*
X140214342Y-50961904D01*
X140214342Y-50961904D02*
X140119104Y-50961904D01*
X140119104Y-50961904D02*
X140023866Y-51009523D01*
X140023866Y-51009523D02*
X139976247Y-51057142D01*
X139976247Y-51057142D02*
X139928628Y-51152380D01*
X139928628Y-51152380D02*
X139881009Y-51342856D01*
X139881009Y-51342856D02*
X139833390Y-51438094D01*
X139833390Y-51438094D02*
X139785771Y-51485713D01*
X139785771Y-51485713D02*
X139690533Y-51533332D01*
X139690533Y-51533332D02*
X139595295Y-51533332D01*
X139595295Y-51533332D02*
X139500057Y-51485713D01*
X139500057Y-51485713D02*
X139452438Y-51438094D01*
X139452438Y-51438094D02*
X139404819Y-51342856D01*
X139404819Y-51342856D02*
X139404819Y-51104761D01*
X139404819Y-51104761D02*
X139452438Y-50961904D01*
X139404819Y-50628570D02*
X140404819Y-50390475D01*
X140404819Y-50390475D02*
X139690533Y-50199999D01*
X139690533Y-50199999D02*
X140404819Y-50009523D01*
X140404819Y-50009523D02*
X139404819Y-49771428D01*
X140404819Y-48866666D02*
X140404819Y-49438094D01*
X140404819Y-49152380D02*
X139404819Y-49152380D01*
X139404819Y-49152380D02*
X139547676Y-49247618D01*
X139547676Y-49247618D02*
X139642914Y-49342856D01*
X139642914Y-49342856D02*
X139690533Y-49438094D01*
X121504819Y-77955357D02*
X121028628Y-78288690D01*
X121504819Y-78526785D02*
X120504819Y-78526785D01*
X120504819Y-78526785D02*
X120504819Y-78145833D01*
X120504819Y-78145833D02*
X120552438Y-78050595D01*
X120552438Y-78050595D02*
X120600057Y-78002976D01*
X120600057Y-78002976D02*
X120695295Y-77955357D01*
X120695295Y-77955357D02*
X120838152Y-77955357D01*
X120838152Y-77955357D02*
X120933390Y-78002976D01*
X120933390Y-78002976D02*
X120981009Y-78050595D01*
X120981009Y-78050595D02*
X121028628Y-78145833D01*
X121028628Y-78145833D02*
X121028628Y-78526785D01*
X121504819Y-77002976D02*
X121504819Y-77574404D01*
X121504819Y-77288690D02*
X120504819Y-77288690D01*
X120504819Y-77288690D02*
X120647676Y-77383928D01*
X120647676Y-77383928D02*
X120742914Y-77479166D01*
X120742914Y-77479166D02*
X120790533Y-77574404D01*
X120504819Y-76098214D02*
X120504819Y-76574404D01*
X120504819Y-76574404D02*
X120981009Y-76622023D01*
X120981009Y-76622023D02*
X120933390Y-76574404D01*
X120933390Y-76574404D02*
X120885771Y-76479166D01*
X120885771Y-76479166D02*
X120885771Y-76241071D01*
X120885771Y-76241071D02*
X120933390Y-76145833D01*
X120933390Y-76145833D02*
X120981009Y-76098214D01*
X120981009Y-76098214D02*
X121076247Y-76050595D01*
X121076247Y-76050595D02*
X121314342Y-76050595D01*
X121314342Y-76050595D02*
X121409580Y-76098214D01*
X121409580Y-76098214D02*
X121457200Y-76145833D01*
X121457200Y-76145833D02*
X121504819Y-76241071D01*
X121504819Y-76241071D02*
X121504819Y-76479166D01*
X121504819Y-76479166D02*
X121457200Y-76574404D01*
X121457200Y-76574404D02*
X121409580Y-76622023D01*
X79621482Y-77479166D02*
X79145291Y-77812499D01*
X79621482Y-78050594D02*
X78621482Y-78050594D01*
X78621482Y-78050594D02*
X78621482Y-77669642D01*
X78621482Y-77669642D02*
X78669101Y-77574404D01*
X78669101Y-77574404D02*
X78716720Y-77526785D01*
X78716720Y-77526785D02*
X78811958Y-77479166D01*
X78811958Y-77479166D02*
X78954815Y-77479166D01*
X78954815Y-77479166D02*
X79050053Y-77526785D01*
X79050053Y-77526785D02*
X79097672Y-77574404D01*
X79097672Y-77574404D02*
X79145291Y-77669642D01*
X79145291Y-77669642D02*
X79145291Y-78050594D01*
X79621482Y-77002975D02*
X79621482Y-76812499D01*
X79621482Y-76812499D02*
X79573863Y-76717261D01*
X79573863Y-76717261D02*
X79526243Y-76669642D01*
X79526243Y-76669642D02*
X79383386Y-76574404D01*
X79383386Y-76574404D02*
X79192910Y-76526785D01*
X79192910Y-76526785D02*
X78811958Y-76526785D01*
X78811958Y-76526785D02*
X78716720Y-76574404D01*
X78716720Y-76574404D02*
X78669101Y-76622023D01*
X78669101Y-76622023D02*
X78621482Y-76717261D01*
X78621482Y-76717261D02*
X78621482Y-76907737D01*
X78621482Y-76907737D02*
X78669101Y-77002975D01*
X78669101Y-77002975D02*
X78716720Y-77050594D01*
X78716720Y-77050594D02*
X78811958Y-77098213D01*
X78811958Y-77098213D02*
X79050053Y-77098213D01*
X79050053Y-77098213D02*
X79145291Y-77050594D01*
X79145291Y-77050594D02*
X79192910Y-77002975D01*
X79192910Y-77002975D02*
X79240529Y-76907737D01*
X79240529Y-76907737D02*
X79240529Y-76717261D01*
X79240529Y-76717261D02*
X79192910Y-76622023D01*
X79192910Y-76622023D02*
X79145291Y-76574404D01*
X79145291Y-76574404D02*
X79050053Y-76526785D01*
X140809726Y-30167619D02*
X141837821Y-30167619D01*
X141837821Y-30167619D02*
X141958773Y-30107142D01*
X141958773Y-30107142D02*
X142019250Y-30046666D01*
X142019250Y-30046666D02*
X142079726Y-29925714D01*
X142079726Y-29925714D02*
X142079726Y-29683809D01*
X142079726Y-29683809D02*
X142019250Y-29562857D01*
X142019250Y-29562857D02*
X141958773Y-29502380D01*
X141958773Y-29502380D02*
X141837821Y-29441904D01*
X141837821Y-29441904D02*
X140809726Y-29441904D01*
X141233059Y-28292857D02*
X142079726Y-28292857D01*
X140749250Y-28595238D02*
X141656392Y-28897619D01*
X141656392Y-28897619D02*
X141656392Y-28111428D01*
D12*
X137733326Y-36648586D02*
X137733326Y-37204967D01*
X137733326Y-37204967D02*
X138289707Y-37260605D01*
X138289707Y-37260605D02*
X138234068Y-37204967D01*
X138234068Y-37204967D02*
X138178430Y-37093691D01*
X138178430Y-37093691D02*
X138178430Y-36815500D01*
X138178430Y-36815500D02*
X138234068Y-36704224D01*
X138234068Y-36704224D02*
X138289707Y-36648586D01*
X138289707Y-36648586D02*
X138400983Y-36592948D01*
X138400983Y-36592948D02*
X138679173Y-36592948D01*
X138679173Y-36592948D02*
X138790449Y-36648586D01*
X138790449Y-36648586D02*
X138846088Y-36704224D01*
X138846088Y-36704224D02*
X138901726Y-36815500D01*
X138901726Y-36815500D02*
X138901726Y-37093691D01*
X138901726Y-37093691D02*
X138846088Y-37204967D01*
X138846088Y-37204967D02*
X138790449Y-37260605D01*
X130168964Y-36592948D02*
X130113326Y-36704224D01*
X130113326Y-36704224D02*
X130113326Y-36871138D01*
X130113326Y-36871138D02*
X130168964Y-37038053D01*
X130168964Y-37038053D02*
X130280240Y-37149329D01*
X130280240Y-37149329D02*
X130391516Y-37204967D01*
X130391516Y-37204967D02*
X130614068Y-37260605D01*
X130614068Y-37260605D02*
X130780983Y-37260605D01*
X130780983Y-37260605D02*
X131003535Y-37204967D01*
X131003535Y-37204967D02*
X131114811Y-37149329D01*
X131114811Y-37149329D02*
X131226088Y-37038053D01*
X131226088Y-37038053D02*
X131281726Y-36871138D01*
X131281726Y-36871138D02*
X131281726Y-36759862D01*
X131281726Y-36759862D02*
X131226088Y-36592948D01*
X131226088Y-36592948D02*
X131170449Y-36537310D01*
X131170449Y-36537310D02*
X130780983Y-36537310D01*
X130780983Y-36537310D02*
X130780983Y-36759862D01*
X151152529Y-33708754D02*
X151152529Y-32540354D01*
X151152529Y-32540354D02*
X151430719Y-32540354D01*
X151430719Y-32540354D02*
X151597634Y-32595992D01*
X151597634Y-32595992D02*
X151708910Y-32707268D01*
X151708910Y-32707268D02*
X151764548Y-32818544D01*
X151764548Y-32818544D02*
X151820186Y-33041096D01*
X151820186Y-33041096D02*
X151820186Y-33208011D01*
X151820186Y-33208011D02*
X151764548Y-33430563D01*
X151764548Y-33430563D02*
X151708910Y-33541839D01*
X151708910Y-33541839D02*
X151597634Y-33653116D01*
X151597634Y-33653116D02*
X151430719Y-33708754D01*
X151430719Y-33708754D02*
X151152529Y-33708754D01*
X152320929Y-33708754D02*
X152320929Y-32540354D01*
X152877310Y-33708754D02*
X152877310Y-32540354D01*
X152877310Y-32540354D02*
X153544967Y-33708754D01*
X153544967Y-33708754D02*
X153544967Y-32540354D01*
X145464602Y-37260605D02*
X145408964Y-37204967D01*
X145408964Y-37204967D02*
X145353326Y-37093691D01*
X145353326Y-37093691D02*
X145353326Y-36815500D01*
X145353326Y-36815500D02*
X145408964Y-36704224D01*
X145408964Y-36704224D02*
X145464602Y-36648586D01*
X145464602Y-36648586D02*
X145575878Y-36592948D01*
X145575878Y-36592948D02*
X145687154Y-36592948D01*
X145687154Y-36592948D02*
X145854068Y-36648586D01*
X145854068Y-36648586D02*
X146521726Y-37316243D01*
X146521726Y-37316243D02*
X146521726Y-36592948D01*
X140662792Y-36704224D02*
X141441726Y-36704224D01*
X140217688Y-36982415D02*
X141052259Y-37260605D01*
X141052259Y-37260605D02*
X141052259Y-36537310D01*
X151152529Y-24920354D02*
X151541995Y-26088754D01*
X151541995Y-26088754D02*
X151931462Y-24920354D01*
X152320929Y-26088754D02*
X152320929Y-24920354D01*
X152877310Y-26088754D02*
X152877310Y-24920354D01*
X152877310Y-24920354D02*
X153544967Y-26088754D01*
X153544967Y-26088754D02*
X153544967Y-24920354D01*
X149061726Y-36592948D02*
X149061726Y-37260605D01*
X149061726Y-36926777D02*
X147893326Y-36926777D01*
X147893326Y-36926777D02*
X148060240Y-37038053D01*
X148060240Y-37038053D02*
X148171516Y-37149329D01*
X148171516Y-37149329D02*
X148227154Y-37260605D01*
X142813326Y-37316243D02*
X142813326Y-36592948D01*
X142813326Y-36592948D02*
X143258430Y-36982415D01*
X143258430Y-36982415D02*
X143258430Y-36815500D01*
X143258430Y-36815500D02*
X143314068Y-36704224D01*
X143314068Y-36704224D02*
X143369707Y-36648586D01*
X143369707Y-36648586D02*
X143480983Y-36592948D01*
X143480983Y-36592948D02*
X143759173Y-36592948D01*
X143759173Y-36592948D02*
X143870449Y-36648586D01*
X143870449Y-36648586D02*
X143926088Y-36704224D01*
X143926088Y-36704224D02*
X143981726Y-36815500D01*
X143981726Y-36815500D02*
X143981726Y-37149329D01*
X143981726Y-37149329D02*
X143926088Y-37260605D01*
X143926088Y-37260605D02*
X143870449Y-37316243D01*
X135248964Y-36592948D02*
X135193326Y-36704224D01*
X135193326Y-36704224D02*
X135193326Y-36871138D01*
X135193326Y-36871138D02*
X135248964Y-37038053D01*
X135248964Y-37038053D02*
X135360240Y-37149329D01*
X135360240Y-37149329D02*
X135471516Y-37204967D01*
X135471516Y-37204967D02*
X135694068Y-37260605D01*
X135694068Y-37260605D02*
X135860983Y-37260605D01*
X135860983Y-37260605D02*
X136083535Y-37204967D01*
X136083535Y-37204967D02*
X136194811Y-37149329D01*
X136194811Y-37149329D02*
X136306088Y-37038053D01*
X136306088Y-37038053D02*
X136361726Y-36871138D01*
X136361726Y-36871138D02*
X136361726Y-36759862D01*
X136361726Y-36759862D02*
X136306088Y-36592948D01*
X136306088Y-36592948D02*
X136250449Y-36537310D01*
X136250449Y-36537310D02*
X135860983Y-36537310D01*
X135860983Y-36537310D02*
X135860983Y-36759862D01*
X151375081Y-31168754D02*
X150818700Y-31168754D01*
X150818700Y-31168754D02*
X150818700Y-30000354D01*
X152432205Y-31057477D02*
X152376567Y-31113116D01*
X152376567Y-31113116D02*
X152209653Y-31168754D01*
X152209653Y-31168754D02*
X152098377Y-31168754D01*
X152098377Y-31168754D02*
X151931462Y-31113116D01*
X151931462Y-31113116D02*
X151820186Y-31001839D01*
X151820186Y-31001839D02*
X151764548Y-30890563D01*
X151764548Y-30890563D02*
X151708910Y-30668011D01*
X151708910Y-30668011D02*
X151708910Y-30501096D01*
X151708910Y-30501096D02*
X151764548Y-30278544D01*
X151764548Y-30278544D02*
X151820186Y-30167268D01*
X151820186Y-30167268D02*
X151931462Y-30055992D01*
X151931462Y-30055992D02*
X152098377Y-30000354D01*
X152098377Y-30000354D02*
X152209653Y-30000354D01*
X152209653Y-30000354D02*
X152376567Y-30055992D01*
X152376567Y-30055992D02*
X152432205Y-30111630D01*
X152932948Y-31168754D02*
X152932948Y-30000354D01*
X153600605Y-31168754D02*
X153099862Y-30501096D01*
X153600605Y-30000354D02*
X152932948Y-30668011D01*
X151152529Y-27515992D02*
X151041253Y-27460354D01*
X151041253Y-27460354D02*
X150874339Y-27460354D01*
X150874339Y-27460354D02*
X150707424Y-27515992D01*
X150707424Y-27515992D02*
X150596148Y-27627268D01*
X150596148Y-27627268D02*
X150540510Y-27738544D01*
X150540510Y-27738544D02*
X150484872Y-27961096D01*
X150484872Y-27961096D02*
X150484872Y-28128011D01*
X150484872Y-28128011D02*
X150540510Y-28350563D01*
X150540510Y-28350563D02*
X150596148Y-28461839D01*
X150596148Y-28461839D02*
X150707424Y-28573116D01*
X150707424Y-28573116D02*
X150874339Y-28628754D01*
X150874339Y-28628754D02*
X150985615Y-28628754D01*
X150985615Y-28628754D02*
X151152529Y-28573116D01*
X151152529Y-28573116D02*
X151208167Y-28517477D01*
X151208167Y-28517477D02*
X151208167Y-28128011D01*
X151208167Y-28128011D02*
X150985615Y-28128011D01*
X151708910Y-28628754D02*
X151708910Y-27460354D01*
X151708910Y-27460354D02*
X152376567Y-28628754D01*
X152376567Y-28628754D02*
X152376567Y-27460354D01*
X152932948Y-28628754D02*
X152932948Y-27460354D01*
X152932948Y-27460354D02*
X153211138Y-27460354D01*
X153211138Y-27460354D02*
X153378053Y-27515992D01*
X153378053Y-27515992D02*
X153489329Y-27627268D01*
X153489329Y-27627268D02*
X153544967Y-27738544D01*
X153544967Y-27738544D02*
X153600605Y-27961096D01*
X153600605Y-27961096D02*
X153600605Y-28128011D01*
X153600605Y-28128011D02*
X153544967Y-28350563D01*
X153544967Y-28350563D02*
X153489329Y-28461839D01*
X153489329Y-28461839D02*
X153378053Y-28573116D01*
X153378053Y-28573116D02*
X153211138Y-28628754D01*
X153211138Y-28628754D02*
X152932948Y-28628754D01*
X150596148Y-38733116D02*
X150763062Y-38788754D01*
X150763062Y-38788754D02*
X151041253Y-38788754D01*
X151041253Y-38788754D02*
X151152529Y-38733116D01*
X151152529Y-38733116D02*
X151208167Y-38677477D01*
X151208167Y-38677477D02*
X151263805Y-38566201D01*
X151263805Y-38566201D02*
X151263805Y-38454925D01*
X151263805Y-38454925D02*
X151208167Y-38343649D01*
X151208167Y-38343649D02*
X151152529Y-38288011D01*
X151152529Y-38288011D02*
X151041253Y-38232373D01*
X151041253Y-38232373D02*
X150818700Y-38176735D01*
X150818700Y-38176735D02*
X150707424Y-38121096D01*
X150707424Y-38121096D02*
X150651786Y-38065458D01*
X150651786Y-38065458D02*
X150596148Y-37954182D01*
X150596148Y-37954182D02*
X150596148Y-37842906D01*
X150596148Y-37842906D02*
X150651786Y-37731630D01*
X150651786Y-37731630D02*
X150707424Y-37675992D01*
X150707424Y-37675992D02*
X150818700Y-37620354D01*
X150818700Y-37620354D02*
X151096891Y-37620354D01*
X151096891Y-37620354D02*
X151263805Y-37675992D01*
X152432205Y-38677477D02*
X152376567Y-38733116D01*
X152376567Y-38733116D02*
X152209653Y-38788754D01*
X152209653Y-38788754D02*
X152098377Y-38788754D01*
X152098377Y-38788754D02*
X151931462Y-38733116D01*
X151931462Y-38733116D02*
X151820186Y-38621839D01*
X151820186Y-38621839D02*
X151764548Y-38510563D01*
X151764548Y-38510563D02*
X151708910Y-38288011D01*
X151708910Y-38288011D02*
X151708910Y-38121096D01*
X151708910Y-38121096D02*
X151764548Y-37898544D01*
X151764548Y-37898544D02*
X151820186Y-37787268D01*
X151820186Y-37787268D02*
X151931462Y-37675992D01*
X151931462Y-37675992D02*
X152098377Y-37620354D01*
X152098377Y-37620354D02*
X152209653Y-37620354D01*
X152209653Y-37620354D02*
X152376567Y-37675992D01*
X152376567Y-37675992D02*
X152432205Y-37731630D01*
X152932948Y-38788754D02*
X152932948Y-37620354D01*
X153600605Y-38788754D02*
X153099862Y-38121096D01*
X153600605Y-37620354D02*
X152932948Y-38288011D01*
X133821726Y-36537310D02*
X133265345Y-36926777D01*
X133821726Y-37204967D02*
X132653326Y-37204967D01*
X132653326Y-37204967D02*
X132653326Y-36759862D01*
X132653326Y-36759862D02*
X132708964Y-36648586D01*
X132708964Y-36648586D02*
X132764602Y-36592948D01*
X132764602Y-36592948D02*
X132875878Y-36537310D01*
X132875878Y-36537310D02*
X133042792Y-36537310D01*
X133042792Y-36537310D02*
X133154068Y-36592948D01*
X133154068Y-36592948D02*
X133209707Y-36648586D01*
X133209707Y-36648586D02*
X133265345Y-36759862D01*
X133265345Y-36759862D02*
X133265345Y-37204967D01*
X128741726Y-36648586D02*
X128741726Y-37204967D01*
X128741726Y-37204967D02*
X127573326Y-37204967D01*
X150985615Y-35636735D02*
X151152529Y-35692373D01*
X151152529Y-35692373D02*
X151208167Y-35748011D01*
X151208167Y-35748011D02*
X151263805Y-35859287D01*
X151263805Y-35859287D02*
X151263805Y-36026201D01*
X151263805Y-36026201D02*
X151208167Y-36137477D01*
X151208167Y-36137477D02*
X151152529Y-36193116D01*
X151152529Y-36193116D02*
X151041253Y-36248754D01*
X151041253Y-36248754D02*
X150596148Y-36248754D01*
X150596148Y-36248754D02*
X150596148Y-35080354D01*
X150596148Y-35080354D02*
X150985615Y-35080354D01*
X150985615Y-35080354D02*
X151096891Y-35135992D01*
X151096891Y-35135992D02*
X151152529Y-35191630D01*
X151152529Y-35191630D02*
X151208167Y-35302906D01*
X151208167Y-35302906D02*
X151208167Y-35414182D01*
X151208167Y-35414182D02*
X151152529Y-35525458D01*
X151152529Y-35525458D02*
X151096891Y-35581096D01*
X151096891Y-35581096D02*
X150985615Y-35636735D01*
X150985615Y-35636735D02*
X150596148Y-35636735D01*
X152432205Y-36137477D02*
X152376567Y-36193116D01*
X152376567Y-36193116D02*
X152209653Y-36248754D01*
X152209653Y-36248754D02*
X152098377Y-36248754D01*
X152098377Y-36248754D02*
X151931462Y-36193116D01*
X151931462Y-36193116D02*
X151820186Y-36081839D01*
X151820186Y-36081839D02*
X151764548Y-35970563D01*
X151764548Y-35970563D02*
X151708910Y-35748011D01*
X151708910Y-35748011D02*
X151708910Y-35581096D01*
X151708910Y-35581096D02*
X151764548Y-35358544D01*
X151764548Y-35358544D02*
X151820186Y-35247268D01*
X151820186Y-35247268D02*
X151931462Y-35135992D01*
X151931462Y-35135992D02*
X152098377Y-35080354D01*
X152098377Y-35080354D02*
X152209653Y-35080354D01*
X152209653Y-35080354D02*
X152376567Y-35135992D01*
X152376567Y-35135992D02*
X152432205Y-35191630D01*
X152932948Y-36248754D02*
X152932948Y-35080354D01*
X153600605Y-36248754D02*
X153099862Y-35581096D01*
X153600605Y-35080354D02*
X152932948Y-35748011D01*
D10*
X99233333Y-31454819D02*
X98900000Y-30978628D01*
X98661905Y-31454819D02*
X98661905Y-30454819D01*
X98661905Y-30454819D02*
X99042857Y-30454819D01*
X99042857Y-30454819D02*
X99138095Y-30502438D01*
X99138095Y-30502438D02*
X99185714Y-30550057D01*
X99185714Y-30550057D02*
X99233333Y-30645295D01*
X99233333Y-30645295D02*
X99233333Y-30788152D01*
X99233333Y-30788152D02*
X99185714Y-30883390D01*
X99185714Y-30883390D02*
X99138095Y-30931009D01*
X99138095Y-30931009D02*
X99042857Y-30978628D01*
X99042857Y-30978628D02*
X98661905Y-30978628D01*
X100138095Y-30454819D02*
X99661905Y-30454819D01*
X99661905Y-30454819D02*
X99614286Y-30931009D01*
X99614286Y-30931009D02*
X99661905Y-30883390D01*
X99661905Y-30883390D02*
X99757143Y-30835771D01*
X99757143Y-30835771D02*
X99995238Y-30835771D01*
X99995238Y-30835771D02*
X100090476Y-30883390D01*
X100090476Y-30883390D02*
X100138095Y-30931009D01*
X100138095Y-30931009D02*
X100185714Y-31026247D01*
X100185714Y-31026247D02*
X100185714Y-31264342D01*
X100185714Y-31264342D02*
X100138095Y-31359580D01*
X100138095Y-31359580D02*
X100090476Y-31407200D01*
X100090476Y-31407200D02*
X99995238Y-31454819D01*
X99995238Y-31454819D02*
X99757143Y-31454819D01*
X99757143Y-31454819D02*
X99661905Y-31407200D01*
X99661905Y-31407200D02*
X99614286Y-31359580D01*
D11*
X76227181Y-115140453D02*
X76798609Y-115140453D01*
X76512895Y-116140453D02*
X76512895Y-115140453D01*
X77131943Y-116140453D02*
X77131943Y-115140453D01*
X77131943Y-115140453D02*
X77512895Y-115140453D01*
X77512895Y-115140453D02*
X77608133Y-115188072D01*
X77608133Y-115188072D02*
X77655752Y-115235691D01*
X77655752Y-115235691D02*
X77703371Y-115330929D01*
X77703371Y-115330929D02*
X77703371Y-115473786D01*
X77703371Y-115473786D02*
X77655752Y-115569024D01*
X77655752Y-115569024D02*
X77608133Y-115616643D01*
X77608133Y-115616643D02*
X77512895Y-115664262D01*
X77512895Y-115664262D02*
X77131943Y-115664262D01*
X78608133Y-115140453D02*
X78131943Y-115140453D01*
X78131943Y-115140453D02*
X78084324Y-115616643D01*
X78084324Y-115616643D02*
X78131943Y-115569024D01*
X78131943Y-115569024D02*
X78227181Y-115521405D01*
X78227181Y-115521405D02*
X78465276Y-115521405D01*
X78465276Y-115521405D02*
X78560514Y-115569024D01*
X78560514Y-115569024D02*
X78608133Y-115616643D01*
X78608133Y-115616643D02*
X78655752Y-115711881D01*
X78655752Y-115711881D02*
X78655752Y-115949976D01*
X78655752Y-115949976D02*
X78608133Y-116045214D01*
X78608133Y-116045214D02*
X78560514Y-116092834D01*
X78560514Y-116092834D02*
X78465276Y-116140453D01*
X78465276Y-116140453D02*
X78227181Y-116140453D01*
X78227181Y-116140453D02*
X78131943Y-116092834D01*
X78131943Y-116092834D02*
X78084324Y-116045214D01*
X99334025Y-130440453D02*
X99905453Y-130440453D01*
X99619739Y-131440453D02*
X99619739Y-130440453D01*
X100238787Y-131440453D02*
X100238787Y-130440453D01*
X100238787Y-130440453D02*
X100619739Y-130440453D01*
X100619739Y-130440453D02*
X100714977Y-130488072D01*
X100714977Y-130488072D02*
X100762596Y-130535691D01*
X100762596Y-130535691D02*
X100810215Y-130630929D01*
X100810215Y-130630929D02*
X100810215Y-130773786D01*
X100810215Y-130773786D02*
X100762596Y-130869024D01*
X100762596Y-130869024D02*
X100714977Y-130916643D01*
X100714977Y-130916643D02*
X100619739Y-130964262D01*
X100619739Y-130964262D02*
X100238787Y-130964262D01*
X101762596Y-131440453D02*
X101191168Y-131440453D01*
X101476882Y-131440453D02*
X101476882Y-130440453D01*
X101476882Y-130440453D02*
X101381644Y-130583310D01*
X101381644Y-130583310D02*
X101286406Y-130678548D01*
X101286406Y-130678548D02*
X101191168Y-130726167D01*
X102381644Y-130440453D02*
X102476882Y-130440453D01*
X102476882Y-130440453D02*
X102572120Y-130488072D01*
X102572120Y-130488072D02*
X102619739Y-130535691D01*
X102619739Y-130535691D02*
X102667358Y-130630929D01*
X102667358Y-130630929D02*
X102714977Y-130821405D01*
X102714977Y-130821405D02*
X102714977Y-131059500D01*
X102714977Y-131059500D02*
X102667358Y-131249976D01*
X102667358Y-131249976D02*
X102619739Y-131345214D01*
X102619739Y-131345214D02*
X102572120Y-131392834D01*
X102572120Y-131392834D02*
X102476882Y-131440453D01*
X102476882Y-131440453D02*
X102381644Y-131440453D01*
X102381644Y-131440453D02*
X102286406Y-131392834D01*
X102286406Y-131392834D02*
X102238787Y-131345214D01*
X102238787Y-131345214D02*
X102191168Y-131249976D01*
X102191168Y-131249976D02*
X102143549Y-131059500D01*
X102143549Y-131059500D02*
X102143549Y-130821405D01*
X102143549Y-130821405D02*
X102191168Y-130630929D01*
X102191168Y-130630929D02*
X102238787Y-130535691D01*
X102238787Y-130535691D02*
X102286406Y-130488072D01*
X102286406Y-130488072D02*
X102381644Y-130440453D01*
D10*
X148224819Y-51696904D02*
X149034342Y-51696904D01*
X149034342Y-51696904D02*
X149129580Y-51649285D01*
X149129580Y-51649285D02*
X149177200Y-51601666D01*
X149177200Y-51601666D02*
X149224819Y-51506428D01*
X149224819Y-51506428D02*
X149224819Y-51315952D01*
X149224819Y-51315952D02*
X149177200Y-51220714D01*
X149177200Y-51220714D02*
X149129580Y-51173095D01*
X149129580Y-51173095D02*
X149034342Y-51125476D01*
X149034342Y-51125476D02*
X148224819Y-51125476D01*
X149224819Y-50125476D02*
X149224819Y-50696904D01*
X149224819Y-50411190D02*
X148224819Y-50411190D01*
X148224819Y-50411190D02*
X148367676Y-50506428D01*
X148367676Y-50506428D02*
X148462914Y-50601666D01*
X148462914Y-50601666D02*
X148510533Y-50696904D01*
X104654819Y-47066666D02*
X104178628Y-47399999D01*
X104654819Y-47638094D02*
X103654819Y-47638094D01*
X103654819Y-47638094D02*
X103654819Y-47257142D01*
X103654819Y-47257142D02*
X103702438Y-47161904D01*
X103702438Y-47161904D02*
X103750057Y-47114285D01*
X103750057Y-47114285D02*
X103845295Y-47066666D01*
X103845295Y-47066666D02*
X103988152Y-47066666D01*
X103988152Y-47066666D02*
X104083390Y-47114285D01*
X104083390Y-47114285D02*
X104131009Y-47161904D01*
X104131009Y-47161904D02*
X104178628Y-47257142D01*
X104178628Y-47257142D02*
X104178628Y-47638094D01*
X104083390Y-46495237D02*
X104035771Y-46590475D01*
X104035771Y-46590475D02*
X103988152Y-46638094D01*
X103988152Y-46638094D02*
X103892914Y-46685713D01*
X103892914Y-46685713D02*
X103845295Y-46685713D01*
X103845295Y-46685713D02*
X103750057Y-46638094D01*
X103750057Y-46638094D02*
X103702438Y-46590475D01*
X103702438Y-46590475D02*
X103654819Y-46495237D01*
X103654819Y-46495237D02*
X103654819Y-46304761D01*
X103654819Y-46304761D02*
X103702438Y-46209523D01*
X103702438Y-46209523D02*
X103750057Y-46161904D01*
X103750057Y-46161904D02*
X103845295Y-46114285D01*
X103845295Y-46114285D02*
X103892914Y-46114285D01*
X103892914Y-46114285D02*
X103988152Y-46161904D01*
X103988152Y-46161904D02*
X104035771Y-46209523D01*
X104035771Y-46209523D02*
X104083390Y-46304761D01*
X104083390Y-46304761D02*
X104083390Y-46495237D01*
X104083390Y-46495237D02*
X104131009Y-46590475D01*
X104131009Y-46590475D02*
X104178628Y-46638094D01*
X104178628Y-46638094D02*
X104273866Y-46685713D01*
X104273866Y-46685713D02*
X104464342Y-46685713D01*
X104464342Y-46685713D02*
X104559580Y-46638094D01*
X104559580Y-46638094D02*
X104607200Y-46590475D01*
X104607200Y-46590475D02*
X104654819Y-46495237D01*
X104654819Y-46495237D02*
X104654819Y-46304761D01*
X104654819Y-46304761D02*
X104607200Y-46209523D01*
X104607200Y-46209523D02*
X104559580Y-46161904D01*
X104559580Y-46161904D02*
X104464342Y-46114285D01*
X104464342Y-46114285D02*
X104273866Y-46114285D01*
X104273866Y-46114285D02*
X104178628Y-46161904D01*
X104178628Y-46161904D02*
X104131009Y-46209523D01*
X104131009Y-46209523D02*
X104083390Y-46304761D01*
D11*
X122989482Y-130440453D02*
X123560910Y-130440453D01*
X123275196Y-131440453D02*
X123275196Y-130440453D01*
X123894244Y-131440453D02*
X123894244Y-130440453D01*
X123894244Y-130440453D02*
X124275196Y-130440453D01*
X124275196Y-130440453D02*
X124370434Y-130488072D01*
X124370434Y-130488072D02*
X124418053Y-130535691D01*
X124418053Y-130535691D02*
X124465672Y-130630929D01*
X124465672Y-130630929D02*
X124465672Y-130773786D01*
X124465672Y-130773786D02*
X124418053Y-130869024D01*
X124418053Y-130869024D02*
X124370434Y-130916643D01*
X124370434Y-130916643D02*
X124275196Y-130964262D01*
X124275196Y-130964262D02*
X123894244Y-130964262D01*
X125418053Y-131440453D02*
X124846625Y-131440453D01*
X125132339Y-131440453D02*
X125132339Y-130440453D01*
X125132339Y-130440453D02*
X125037101Y-130583310D01*
X125037101Y-130583310D02*
X124941863Y-130678548D01*
X124941863Y-130678548D02*
X124846625Y-130726167D01*
X126370434Y-131440453D02*
X125799006Y-131440453D01*
X126084720Y-131440453D02*
X126084720Y-130440453D01*
X126084720Y-130440453D02*
X125989482Y-130583310D01*
X125989482Y-130583310D02*
X125894244Y-130678548D01*
X125894244Y-130678548D02*
X125799006Y-130726167D01*
D10*
X108804819Y-77942857D02*
X108328628Y-78276190D01*
X108804819Y-78514285D02*
X107804819Y-78514285D01*
X107804819Y-78514285D02*
X107804819Y-78133333D01*
X107804819Y-78133333D02*
X107852438Y-78038095D01*
X107852438Y-78038095D02*
X107900057Y-77990476D01*
X107900057Y-77990476D02*
X107995295Y-77942857D01*
X107995295Y-77942857D02*
X108138152Y-77942857D01*
X108138152Y-77942857D02*
X108233390Y-77990476D01*
X108233390Y-77990476D02*
X108281009Y-78038095D01*
X108281009Y-78038095D02*
X108328628Y-78133333D01*
X108328628Y-78133333D02*
X108328628Y-78514285D01*
X108804819Y-76990476D02*
X108804819Y-77561904D01*
X108804819Y-77276190D02*
X107804819Y-77276190D01*
X107804819Y-77276190D02*
X107947676Y-77371428D01*
X107947676Y-77371428D02*
X108042914Y-77466666D01*
X108042914Y-77466666D02*
X108090533Y-77561904D01*
X108233390Y-76419047D02*
X108185771Y-76514285D01*
X108185771Y-76514285D02*
X108138152Y-76561904D01*
X108138152Y-76561904D02*
X108042914Y-76609523D01*
X108042914Y-76609523D02*
X107995295Y-76609523D01*
X107995295Y-76609523D02*
X107900057Y-76561904D01*
X107900057Y-76561904D02*
X107852438Y-76514285D01*
X107852438Y-76514285D02*
X107804819Y-76419047D01*
X107804819Y-76419047D02*
X107804819Y-76228571D01*
X107804819Y-76228571D02*
X107852438Y-76133333D01*
X107852438Y-76133333D02*
X107900057Y-76085714D01*
X107900057Y-76085714D02*
X107995295Y-76038095D01*
X107995295Y-76038095D02*
X108042914Y-76038095D01*
X108042914Y-76038095D02*
X108138152Y-76085714D01*
X108138152Y-76085714D02*
X108185771Y-76133333D01*
X108185771Y-76133333D02*
X108233390Y-76228571D01*
X108233390Y-76228571D02*
X108233390Y-76419047D01*
X108233390Y-76419047D02*
X108281009Y-76514285D01*
X108281009Y-76514285D02*
X108328628Y-76561904D01*
X108328628Y-76561904D02*
X108423866Y-76609523D01*
X108423866Y-76609523D02*
X108614342Y-76609523D01*
X108614342Y-76609523D02*
X108709580Y-76561904D01*
X108709580Y-76561904D02*
X108757200Y-76514285D01*
X108757200Y-76514285D02*
X108804819Y-76419047D01*
X108804819Y-76419047D02*
X108804819Y-76228571D01*
X108804819Y-76228571D02*
X108757200Y-76133333D01*
X108757200Y-76133333D02*
X108709580Y-76085714D01*
X108709580Y-76085714D02*
X108614342Y-76038095D01*
X108614342Y-76038095D02*
X108423866Y-76038095D01*
X108423866Y-76038095D02*
X108328628Y-76085714D01*
X108328628Y-76085714D02*
X108281009Y-76133333D01*
X108281009Y-76133333D02*
X108233390Y-76228571D01*
D11*
X123565672Y-100040453D02*
X124137100Y-100040453D01*
X123851386Y-101040453D02*
X123851386Y-100040453D01*
X124470434Y-101040453D02*
X124470434Y-100040453D01*
X124470434Y-100040453D02*
X124851386Y-100040453D01*
X124851386Y-100040453D02*
X124946624Y-100088072D01*
X124946624Y-100088072D02*
X124994243Y-100135691D01*
X124994243Y-100135691D02*
X125041862Y-100230929D01*
X125041862Y-100230929D02*
X125041862Y-100373786D01*
X125041862Y-100373786D02*
X124994243Y-100469024D01*
X124994243Y-100469024D02*
X124946624Y-100516643D01*
X124946624Y-100516643D02*
X124851386Y-100564262D01*
X124851386Y-100564262D02*
X124470434Y-100564262D01*
X125375196Y-100040453D02*
X125994243Y-100040453D01*
X125994243Y-100040453D02*
X125660910Y-100421405D01*
X125660910Y-100421405D02*
X125803767Y-100421405D01*
X125803767Y-100421405D02*
X125899005Y-100469024D01*
X125899005Y-100469024D02*
X125946624Y-100516643D01*
X125946624Y-100516643D02*
X125994243Y-100611881D01*
X125994243Y-100611881D02*
X125994243Y-100849976D01*
X125994243Y-100849976D02*
X125946624Y-100945214D01*
X125946624Y-100945214D02*
X125899005Y-100992834D01*
X125899005Y-100992834D02*
X125803767Y-101040453D01*
X125803767Y-101040453D02*
X125518053Y-101040453D01*
X125518053Y-101040453D02*
X125422815Y-100992834D01*
X125422815Y-100992834D02*
X125375196Y-100945214D01*
X146644939Y-130740453D02*
X147216367Y-130740453D01*
X146930653Y-131740453D02*
X146930653Y-130740453D01*
X147549701Y-131740453D02*
X147549701Y-130740453D01*
X147549701Y-130740453D02*
X147930653Y-130740453D01*
X147930653Y-130740453D02*
X148025891Y-130788072D01*
X148025891Y-130788072D02*
X148073510Y-130835691D01*
X148073510Y-130835691D02*
X148121129Y-130930929D01*
X148121129Y-130930929D02*
X148121129Y-131073786D01*
X148121129Y-131073786D02*
X148073510Y-131169024D01*
X148073510Y-131169024D02*
X148025891Y-131216643D01*
X148025891Y-131216643D02*
X147930653Y-131264262D01*
X147930653Y-131264262D02*
X147549701Y-131264262D01*
X149073510Y-131740453D02*
X148502082Y-131740453D01*
X148787796Y-131740453D02*
X148787796Y-130740453D01*
X148787796Y-130740453D02*
X148692558Y-130883310D01*
X148692558Y-130883310D02*
X148597320Y-130978548D01*
X148597320Y-130978548D02*
X148502082Y-131026167D01*
X149454463Y-130835691D02*
X149502082Y-130788072D01*
X149502082Y-130788072D02*
X149597320Y-130740453D01*
X149597320Y-130740453D02*
X149835415Y-130740453D01*
X149835415Y-130740453D02*
X149930653Y-130788072D01*
X149930653Y-130788072D02*
X149978272Y-130835691D01*
X149978272Y-130835691D02*
X150025891Y-130930929D01*
X150025891Y-130930929D02*
X150025891Y-131026167D01*
X150025891Y-131026167D02*
X149978272Y-131169024D01*
X149978272Y-131169024D02*
X149406844Y-131740453D01*
X149406844Y-131740453D02*
X150025891Y-131740453D01*
D10*
X108133333Y-26454819D02*
X107800000Y-25978628D01*
X107561905Y-26454819D02*
X107561905Y-25454819D01*
X107561905Y-25454819D02*
X107942857Y-25454819D01*
X107942857Y-25454819D02*
X108038095Y-25502438D01*
X108038095Y-25502438D02*
X108085714Y-25550057D01*
X108085714Y-25550057D02*
X108133333Y-25645295D01*
X108133333Y-25645295D02*
X108133333Y-25788152D01*
X108133333Y-25788152D02*
X108085714Y-25883390D01*
X108085714Y-25883390D02*
X108038095Y-25931009D01*
X108038095Y-25931009D02*
X107942857Y-25978628D01*
X107942857Y-25978628D02*
X107561905Y-25978628D01*
X108514286Y-25550057D02*
X108561905Y-25502438D01*
X108561905Y-25502438D02*
X108657143Y-25454819D01*
X108657143Y-25454819D02*
X108895238Y-25454819D01*
X108895238Y-25454819D02*
X108990476Y-25502438D01*
X108990476Y-25502438D02*
X109038095Y-25550057D01*
X109038095Y-25550057D02*
X109085714Y-25645295D01*
X109085714Y-25645295D02*
X109085714Y-25740533D01*
X109085714Y-25740533D02*
X109038095Y-25883390D01*
X109038095Y-25883390D02*
X108466667Y-26454819D01*
X108466667Y-26454819D02*
X109085714Y-26454819D01*
X156104819Y-77942857D02*
X155628628Y-78276190D01*
X156104819Y-78514285D02*
X155104819Y-78514285D01*
X155104819Y-78514285D02*
X155104819Y-78133333D01*
X155104819Y-78133333D02*
X155152438Y-78038095D01*
X155152438Y-78038095D02*
X155200057Y-77990476D01*
X155200057Y-77990476D02*
X155295295Y-77942857D01*
X155295295Y-77942857D02*
X155438152Y-77942857D01*
X155438152Y-77942857D02*
X155533390Y-77990476D01*
X155533390Y-77990476D02*
X155581009Y-78038095D01*
X155581009Y-78038095D02*
X155628628Y-78133333D01*
X155628628Y-78133333D02*
X155628628Y-78514285D01*
X155200057Y-77561904D02*
X155152438Y-77514285D01*
X155152438Y-77514285D02*
X155104819Y-77419047D01*
X155104819Y-77419047D02*
X155104819Y-77180952D01*
X155104819Y-77180952D02*
X155152438Y-77085714D01*
X155152438Y-77085714D02*
X155200057Y-77038095D01*
X155200057Y-77038095D02*
X155295295Y-76990476D01*
X155295295Y-76990476D02*
X155390533Y-76990476D01*
X155390533Y-76990476D02*
X155533390Y-77038095D01*
X155533390Y-77038095D02*
X156104819Y-77609523D01*
X156104819Y-77609523D02*
X156104819Y-76990476D01*
X155104819Y-76371428D02*
X155104819Y-76276190D01*
X155104819Y-76276190D02*
X155152438Y-76180952D01*
X155152438Y-76180952D02*
X155200057Y-76133333D01*
X155200057Y-76133333D02*
X155295295Y-76085714D01*
X155295295Y-76085714D02*
X155485771Y-76038095D01*
X155485771Y-76038095D02*
X155723866Y-76038095D01*
X155723866Y-76038095D02*
X155914342Y-76085714D01*
X155914342Y-76085714D02*
X156009580Y-76133333D01*
X156009580Y-76133333D02*
X156057200Y-76180952D01*
X156057200Y-76180952D02*
X156104819Y-76276190D01*
X156104819Y-76276190D02*
X156104819Y-76371428D01*
X156104819Y-76371428D02*
X156057200Y-76466666D01*
X156057200Y-76466666D02*
X156009580Y-76514285D01*
X156009580Y-76514285D02*
X155914342Y-76561904D01*
X155914342Y-76561904D02*
X155723866Y-76609523D01*
X155723866Y-76609523D02*
X155485771Y-76609523D01*
X155485771Y-76609523D02*
X155295295Y-76561904D01*
X155295295Y-76561904D02*
X155200057Y-76514285D01*
X155200057Y-76514285D02*
X155152438Y-76466666D01*
X155152438Y-76466666D02*
X155104819Y-76371428D01*
X110404819Y-47166666D02*
X109928628Y-47499999D01*
X110404819Y-47738094D02*
X109404819Y-47738094D01*
X109404819Y-47738094D02*
X109404819Y-47357142D01*
X109404819Y-47357142D02*
X109452438Y-47261904D01*
X109452438Y-47261904D02*
X109500057Y-47214285D01*
X109500057Y-47214285D02*
X109595295Y-47166666D01*
X109595295Y-47166666D02*
X109738152Y-47166666D01*
X109738152Y-47166666D02*
X109833390Y-47214285D01*
X109833390Y-47214285D02*
X109881009Y-47261904D01*
X109881009Y-47261904D02*
X109928628Y-47357142D01*
X109928628Y-47357142D02*
X109928628Y-47738094D01*
X109404819Y-46833332D02*
X109404819Y-46166666D01*
X109404819Y-46166666D02*
X110404819Y-46595237D01*
X74204819Y-77955357D02*
X73728628Y-78288690D01*
X74204819Y-78526785D02*
X73204819Y-78526785D01*
X73204819Y-78526785D02*
X73204819Y-78145833D01*
X73204819Y-78145833D02*
X73252438Y-78050595D01*
X73252438Y-78050595D02*
X73300057Y-78002976D01*
X73300057Y-78002976D02*
X73395295Y-77955357D01*
X73395295Y-77955357D02*
X73538152Y-77955357D01*
X73538152Y-77955357D02*
X73633390Y-78002976D01*
X73633390Y-78002976D02*
X73681009Y-78050595D01*
X73681009Y-78050595D02*
X73728628Y-78145833D01*
X73728628Y-78145833D02*
X73728628Y-78526785D01*
X74204819Y-77002976D02*
X74204819Y-77574404D01*
X74204819Y-77288690D02*
X73204819Y-77288690D01*
X73204819Y-77288690D02*
X73347676Y-77383928D01*
X73347676Y-77383928D02*
X73442914Y-77479166D01*
X73442914Y-77479166D02*
X73490533Y-77574404D01*
X73204819Y-76669642D02*
X73204819Y-76050595D01*
X73204819Y-76050595D02*
X73585771Y-76383928D01*
X73585771Y-76383928D02*
X73585771Y-76241071D01*
X73585771Y-76241071D02*
X73633390Y-76145833D01*
X73633390Y-76145833D02*
X73681009Y-76098214D01*
X73681009Y-76098214D02*
X73776247Y-76050595D01*
X73776247Y-76050595D02*
X74014342Y-76050595D01*
X74014342Y-76050595D02*
X74109580Y-76098214D01*
X74109580Y-76098214D02*
X74157200Y-76145833D01*
X74157200Y-76145833D02*
X74204819Y-76241071D01*
X74204819Y-76241071D02*
X74204819Y-76526785D01*
X74204819Y-76526785D02*
X74157200Y-76622023D01*
X74157200Y-76622023D02*
X74109580Y-76669642D01*
X85104819Y-77942857D02*
X84628628Y-78276190D01*
X85104819Y-78514285D02*
X84104819Y-78514285D01*
X84104819Y-78514285D02*
X84104819Y-78133333D01*
X84104819Y-78133333D02*
X84152438Y-78038095D01*
X84152438Y-78038095D02*
X84200057Y-77990476D01*
X84200057Y-77990476D02*
X84295295Y-77942857D01*
X84295295Y-77942857D02*
X84438152Y-77942857D01*
X84438152Y-77942857D02*
X84533390Y-77990476D01*
X84533390Y-77990476D02*
X84581009Y-78038095D01*
X84581009Y-78038095D02*
X84628628Y-78133333D01*
X84628628Y-78133333D02*
X84628628Y-78514285D01*
X85104819Y-76990476D02*
X85104819Y-77561904D01*
X85104819Y-77276190D02*
X84104819Y-77276190D01*
X84104819Y-77276190D02*
X84247676Y-77371428D01*
X84247676Y-77371428D02*
X84342914Y-77466666D01*
X84342914Y-77466666D02*
X84390533Y-77561904D01*
X84104819Y-76657142D02*
X84104819Y-75990476D01*
X84104819Y-75990476D02*
X85104819Y-76419047D01*
D11*
X123538095Y-115140453D02*
X124109523Y-115140453D01*
X123823809Y-116140453D02*
X123823809Y-115140453D01*
X124442857Y-116140453D02*
X124442857Y-115140453D01*
X124442857Y-115140453D02*
X124823809Y-115140453D01*
X124823809Y-115140453D02*
X124919047Y-115188072D01*
X124919047Y-115188072D02*
X124966666Y-115235691D01*
X124966666Y-115235691D02*
X125014285Y-115330929D01*
X125014285Y-115330929D02*
X125014285Y-115473786D01*
X125014285Y-115473786D02*
X124966666Y-115569024D01*
X124966666Y-115569024D02*
X124919047Y-115616643D01*
X124919047Y-115616643D02*
X124823809Y-115664262D01*
X124823809Y-115664262D02*
X124442857Y-115664262D01*
X125347619Y-115140453D02*
X126014285Y-115140453D01*
X126014285Y-115140453D02*
X125585714Y-116140453D01*
D10*
X132404819Y-77942857D02*
X131928628Y-78276190D01*
X132404819Y-78514285D02*
X131404819Y-78514285D01*
X131404819Y-78514285D02*
X131404819Y-78133333D01*
X131404819Y-78133333D02*
X131452438Y-78038095D01*
X131452438Y-78038095D02*
X131500057Y-77990476D01*
X131500057Y-77990476D02*
X131595295Y-77942857D01*
X131595295Y-77942857D02*
X131738152Y-77942857D01*
X131738152Y-77942857D02*
X131833390Y-77990476D01*
X131833390Y-77990476D02*
X131881009Y-78038095D01*
X131881009Y-78038095D02*
X131928628Y-78133333D01*
X131928628Y-78133333D02*
X131928628Y-78514285D01*
X132404819Y-76990476D02*
X132404819Y-77561904D01*
X132404819Y-77276190D02*
X131404819Y-77276190D01*
X131404819Y-77276190D02*
X131547676Y-77371428D01*
X131547676Y-77371428D02*
X131642914Y-77466666D01*
X131642914Y-77466666D02*
X131690533Y-77561904D01*
X132404819Y-76514285D02*
X132404819Y-76323809D01*
X132404819Y-76323809D02*
X132357200Y-76228571D01*
X132357200Y-76228571D02*
X132309580Y-76180952D01*
X132309580Y-76180952D02*
X132166723Y-76085714D01*
X132166723Y-76085714D02*
X131976247Y-76038095D01*
X131976247Y-76038095D02*
X131595295Y-76038095D01*
X131595295Y-76038095D02*
X131500057Y-76085714D01*
X131500057Y-76085714D02*
X131452438Y-76133333D01*
X131452438Y-76133333D02*
X131404819Y-76228571D01*
X131404819Y-76228571D02*
X131404819Y-76419047D01*
X131404819Y-76419047D02*
X131452438Y-76514285D01*
X131452438Y-76514285D02*
X131500057Y-76561904D01*
X131500057Y-76561904D02*
X131595295Y-76609523D01*
X131595295Y-76609523D02*
X131833390Y-76609523D01*
X131833390Y-76609523D02*
X131928628Y-76561904D01*
X131928628Y-76561904D02*
X131976247Y-76514285D01*
X131976247Y-76514285D02*
X132023866Y-76419047D01*
X132023866Y-76419047D02*
X132023866Y-76228571D01*
X132023866Y-76228571D02*
X131976247Y-76133333D01*
X131976247Y-76133333D02*
X131928628Y-76085714D01*
X131928628Y-76085714D02*
X131833390Y-76038095D01*
X103276939Y-77955357D02*
X102800748Y-78288690D01*
X103276939Y-78526785D02*
X102276939Y-78526785D01*
X102276939Y-78526785D02*
X102276939Y-78145833D01*
X102276939Y-78145833D02*
X102324558Y-78050595D01*
X102324558Y-78050595D02*
X102372177Y-78002976D01*
X102372177Y-78002976D02*
X102467415Y-77955357D01*
X102467415Y-77955357D02*
X102610272Y-77955357D01*
X102610272Y-77955357D02*
X102705510Y-78002976D01*
X102705510Y-78002976D02*
X102753129Y-78050595D01*
X102753129Y-78050595D02*
X102800748Y-78145833D01*
X102800748Y-78145833D02*
X102800748Y-78526785D01*
X103276939Y-77002976D02*
X103276939Y-77574404D01*
X103276939Y-77288690D02*
X102276939Y-77288690D01*
X102276939Y-77288690D02*
X102419796Y-77383928D01*
X102419796Y-77383928D02*
X102515034Y-77479166D01*
X102515034Y-77479166D02*
X102562653Y-77574404D01*
X102276939Y-76383928D02*
X102276939Y-76288690D01*
X102276939Y-76288690D02*
X102324558Y-76193452D01*
X102324558Y-76193452D02*
X102372177Y-76145833D01*
X102372177Y-76145833D02*
X102467415Y-76098214D01*
X102467415Y-76098214D02*
X102657891Y-76050595D01*
X102657891Y-76050595D02*
X102895986Y-76050595D01*
X102895986Y-76050595D02*
X103086462Y-76098214D01*
X103086462Y-76098214D02*
X103181700Y-76145833D01*
X103181700Y-76145833D02*
X103229320Y-76193452D01*
X103229320Y-76193452D02*
X103276939Y-76288690D01*
X103276939Y-76288690D02*
X103276939Y-76383928D01*
X103276939Y-76383928D02*
X103229320Y-76479166D01*
X103229320Y-76479166D02*
X103181700Y-76526785D01*
X103181700Y-76526785D02*
X103086462Y-76574404D01*
X103086462Y-76574404D02*
X102895986Y-76622023D01*
X102895986Y-76622023D02*
X102657891Y-76622023D01*
X102657891Y-76622023D02*
X102467415Y-76574404D01*
X102467415Y-76574404D02*
X102372177Y-76526785D01*
X102372177Y-76526785D02*
X102324558Y-76479166D01*
X102324558Y-76479166D02*
X102276939Y-76383928D01*
D11*
X99882638Y-115140453D02*
X100454066Y-115140453D01*
X100168352Y-116140453D02*
X100168352Y-115140453D01*
X100787400Y-116140453D02*
X100787400Y-115140453D01*
X100787400Y-115140453D02*
X101168352Y-115140453D01*
X101168352Y-115140453D02*
X101263590Y-115188072D01*
X101263590Y-115188072D02*
X101311209Y-115235691D01*
X101311209Y-115235691D02*
X101358828Y-115330929D01*
X101358828Y-115330929D02*
X101358828Y-115473786D01*
X101358828Y-115473786D02*
X101311209Y-115569024D01*
X101311209Y-115569024D02*
X101263590Y-115616643D01*
X101263590Y-115616643D02*
X101168352Y-115664262D01*
X101168352Y-115664262D02*
X100787400Y-115664262D01*
X102215971Y-115140453D02*
X102025495Y-115140453D01*
X102025495Y-115140453D02*
X101930257Y-115188072D01*
X101930257Y-115188072D02*
X101882638Y-115235691D01*
X101882638Y-115235691D02*
X101787400Y-115378548D01*
X101787400Y-115378548D02*
X101739781Y-115569024D01*
X101739781Y-115569024D02*
X101739781Y-115949976D01*
X101739781Y-115949976D02*
X101787400Y-116045214D01*
X101787400Y-116045214D02*
X101835019Y-116092834D01*
X101835019Y-116092834D02*
X101930257Y-116140453D01*
X101930257Y-116140453D02*
X102120733Y-116140453D01*
X102120733Y-116140453D02*
X102215971Y-116092834D01*
X102215971Y-116092834D02*
X102263590Y-116045214D01*
X102263590Y-116045214D02*
X102311209Y-115949976D01*
X102311209Y-115949976D02*
X102311209Y-115711881D01*
X102311209Y-115711881D02*
X102263590Y-115616643D01*
X102263590Y-115616643D02*
X102215971Y-115569024D01*
X102215971Y-115569024D02*
X102120733Y-115521405D01*
X102120733Y-115521405D02*
X101930257Y-115521405D01*
X101930257Y-115521405D02*
X101835019Y-115569024D01*
X101835019Y-115569024D02*
X101787400Y-115616643D01*
X101787400Y-115616643D02*
X101739781Y-115711881D01*
X76254758Y-100040453D02*
X76826186Y-100040453D01*
X76540472Y-101040453D02*
X76540472Y-100040453D01*
X77159520Y-101040453D02*
X77159520Y-100040453D01*
X77159520Y-100040453D02*
X77540472Y-100040453D01*
X77540472Y-100040453D02*
X77635710Y-100088072D01*
X77635710Y-100088072D02*
X77683329Y-100135691D01*
X77683329Y-100135691D02*
X77730948Y-100230929D01*
X77730948Y-100230929D02*
X77730948Y-100373786D01*
X77730948Y-100373786D02*
X77683329Y-100469024D01*
X77683329Y-100469024D02*
X77635710Y-100516643D01*
X77635710Y-100516643D02*
X77540472Y-100564262D01*
X77540472Y-100564262D02*
X77159520Y-100564262D01*
X78683329Y-101040453D02*
X78111901Y-101040453D01*
X78397615Y-101040453D02*
X78397615Y-100040453D01*
X78397615Y-100040453D02*
X78302377Y-100183310D01*
X78302377Y-100183310D02*
X78207139Y-100278548D01*
X78207139Y-100278548D02*
X78111901Y-100326167D01*
D10*
X145104819Y-77955357D02*
X144628628Y-78288690D01*
X145104819Y-78526785D02*
X144104819Y-78526785D01*
X144104819Y-78526785D02*
X144104819Y-78145833D01*
X144104819Y-78145833D02*
X144152438Y-78050595D01*
X144152438Y-78050595D02*
X144200057Y-78002976D01*
X144200057Y-78002976D02*
X144295295Y-77955357D01*
X144295295Y-77955357D02*
X144438152Y-77955357D01*
X144438152Y-77955357D02*
X144533390Y-78002976D01*
X144533390Y-78002976D02*
X144581009Y-78050595D01*
X144581009Y-78050595D02*
X144628628Y-78145833D01*
X144628628Y-78145833D02*
X144628628Y-78526785D01*
X145104819Y-77002976D02*
X145104819Y-77574404D01*
X145104819Y-77288690D02*
X144104819Y-77288690D01*
X144104819Y-77288690D02*
X144247676Y-77383928D01*
X144247676Y-77383928D02*
X144342914Y-77479166D01*
X144342914Y-77479166D02*
X144390533Y-77574404D01*
X144104819Y-76145833D02*
X144104819Y-76336309D01*
X144104819Y-76336309D02*
X144152438Y-76431547D01*
X144152438Y-76431547D02*
X144200057Y-76479166D01*
X144200057Y-76479166D02*
X144342914Y-76574404D01*
X144342914Y-76574404D02*
X144533390Y-76622023D01*
X144533390Y-76622023D02*
X144914342Y-76622023D01*
X144914342Y-76622023D02*
X145009580Y-76574404D01*
X145009580Y-76574404D02*
X145057200Y-76526785D01*
X145057200Y-76526785D02*
X145104819Y-76431547D01*
X145104819Y-76431547D02*
X145104819Y-76241071D01*
X145104819Y-76241071D02*
X145057200Y-76145833D01*
X145057200Y-76145833D02*
X145009580Y-76098214D01*
X145009580Y-76098214D02*
X144914342Y-76050595D01*
X144914342Y-76050595D02*
X144676247Y-76050595D01*
X144676247Y-76050595D02*
X144581009Y-76098214D01*
X144581009Y-76098214D02*
X144533390Y-76145833D01*
X144533390Y-76145833D02*
X144485771Y-76241071D01*
X144485771Y-76241071D02*
X144485771Y-76431547D01*
X144485771Y-76431547D02*
X144533390Y-76526785D01*
X144533390Y-76526785D02*
X144581009Y-76574404D01*
X144581009Y-76574404D02*
X144676247Y-76622023D01*
X150587853Y-77955357D02*
X150111662Y-78288690D01*
X150587853Y-78526785D02*
X149587853Y-78526785D01*
X149587853Y-78526785D02*
X149587853Y-78145833D01*
X149587853Y-78145833D02*
X149635472Y-78050595D01*
X149635472Y-78050595D02*
X149683091Y-78002976D01*
X149683091Y-78002976D02*
X149778329Y-77955357D01*
X149778329Y-77955357D02*
X149921186Y-77955357D01*
X149921186Y-77955357D02*
X150016424Y-78002976D01*
X150016424Y-78002976D02*
X150064043Y-78050595D01*
X150064043Y-78050595D02*
X150111662Y-78145833D01*
X150111662Y-78145833D02*
X150111662Y-78526785D01*
X150587853Y-77002976D02*
X150587853Y-77574404D01*
X150587853Y-77288690D02*
X149587853Y-77288690D01*
X149587853Y-77288690D02*
X149730710Y-77383928D01*
X149730710Y-77383928D02*
X149825948Y-77479166D01*
X149825948Y-77479166D02*
X149873567Y-77574404D01*
X149683091Y-76622023D02*
X149635472Y-76574404D01*
X149635472Y-76574404D02*
X149587853Y-76479166D01*
X149587853Y-76479166D02*
X149587853Y-76241071D01*
X149587853Y-76241071D02*
X149635472Y-76145833D01*
X149635472Y-76145833D02*
X149683091Y-76098214D01*
X149683091Y-76098214D02*
X149778329Y-76050595D01*
X149778329Y-76050595D02*
X149873567Y-76050595D01*
X149873567Y-76050595D02*
X150016424Y-76098214D01*
X150016424Y-76098214D02*
X150587853Y-76669642D01*
X150587853Y-76669642D02*
X150587853Y-76050595D01*
D11*
X99910215Y-100040453D02*
X100481643Y-100040453D01*
X100195929Y-101040453D02*
X100195929Y-100040453D01*
X100814977Y-101040453D02*
X100814977Y-100040453D01*
X100814977Y-100040453D02*
X101195929Y-100040453D01*
X101195929Y-100040453D02*
X101291167Y-100088072D01*
X101291167Y-100088072D02*
X101338786Y-100135691D01*
X101338786Y-100135691D02*
X101386405Y-100230929D01*
X101386405Y-100230929D02*
X101386405Y-100373786D01*
X101386405Y-100373786D02*
X101338786Y-100469024D01*
X101338786Y-100469024D02*
X101291167Y-100516643D01*
X101291167Y-100516643D02*
X101195929Y-100564262D01*
X101195929Y-100564262D02*
X100814977Y-100564262D01*
X101767358Y-100135691D02*
X101814977Y-100088072D01*
X101814977Y-100088072D02*
X101910215Y-100040453D01*
X101910215Y-100040453D02*
X102148310Y-100040453D01*
X102148310Y-100040453D02*
X102243548Y-100088072D01*
X102243548Y-100088072D02*
X102291167Y-100135691D01*
X102291167Y-100135691D02*
X102338786Y-100230929D01*
X102338786Y-100230929D02*
X102338786Y-100326167D01*
X102338786Y-100326167D02*
X102291167Y-100469024D01*
X102291167Y-100469024D02*
X101719739Y-101040453D01*
X101719739Y-101040453D02*
X102338786Y-101040453D01*
D10*
X79028095Y-46684819D02*
X79028095Y-47494342D01*
X79028095Y-47494342D02*
X79075714Y-47589580D01*
X79075714Y-47589580D02*
X79123333Y-47637200D01*
X79123333Y-47637200D02*
X79218571Y-47684819D01*
X79218571Y-47684819D02*
X79409047Y-47684819D01*
X79409047Y-47684819D02*
X79504285Y-47637200D01*
X79504285Y-47637200D02*
X79551904Y-47589580D01*
X79551904Y-47589580D02*
X79599523Y-47494342D01*
X79599523Y-47494342D02*
X79599523Y-46684819D01*
X79980476Y-46684819D02*
X80599523Y-46684819D01*
X80599523Y-46684819D02*
X80266190Y-47065771D01*
X80266190Y-47065771D02*
X80409047Y-47065771D01*
X80409047Y-47065771D02*
X80504285Y-47113390D01*
X80504285Y-47113390D02*
X80551904Y-47161009D01*
X80551904Y-47161009D02*
X80599523Y-47256247D01*
X80599523Y-47256247D02*
X80599523Y-47494342D01*
X80599523Y-47494342D02*
X80551904Y-47589580D01*
X80551904Y-47589580D02*
X80504285Y-47637200D01*
X80504285Y-47637200D02*
X80409047Y-47684819D01*
X80409047Y-47684819D02*
X80123333Y-47684819D01*
X80123333Y-47684819D02*
X80028095Y-47637200D01*
X80028095Y-47637200D02*
X79980476Y-47589580D01*
X66303372Y-48621494D02*
X66222560Y-48648431D01*
X66222560Y-48648431D02*
X66141748Y-48729243D01*
X66141748Y-48729243D02*
X66087873Y-48836993D01*
X66087873Y-48836993D02*
X66087873Y-48944742D01*
X66087873Y-48944742D02*
X66114810Y-49025555D01*
X66114810Y-49025555D02*
X66195623Y-49160242D01*
X66195623Y-49160242D02*
X66276435Y-49241054D01*
X66276435Y-49241054D02*
X66411122Y-49321866D01*
X66411122Y-49321866D02*
X66491934Y-49348803D01*
X66491934Y-49348803D02*
X66599684Y-49348803D01*
X66599684Y-49348803D02*
X66707433Y-49294929D01*
X66707433Y-49294929D02*
X66761308Y-49241054D01*
X66761308Y-49241054D02*
X66815183Y-49133304D01*
X66815183Y-49133304D02*
X66815183Y-49079429D01*
X66815183Y-49079429D02*
X66626621Y-48890868D01*
X66626621Y-48890868D02*
X66518871Y-48998617D01*
X67111494Y-48890868D02*
X66545809Y-48325182D01*
X66545809Y-48325182D02*
X66761308Y-48109683D01*
X66761308Y-48109683D02*
X66842120Y-48082746D01*
X66842120Y-48082746D02*
X66895995Y-48082746D01*
X66895995Y-48082746D02*
X66976807Y-48109683D01*
X66976807Y-48109683D02*
X67057619Y-48190495D01*
X67057619Y-48190495D02*
X67084557Y-48271307D01*
X67084557Y-48271307D02*
X67084557Y-48325182D01*
X67084557Y-48325182D02*
X67057619Y-48405994D01*
X67057619Y-48405994D02*
X66842120Y-48621494D01*
X67434743Y-47921121D02*
X67353931Y-47948059D01*
X67353931Y-47948059D02*
X67300056Y-47948059D01*
X67300056Y-47948059D02*
X67219244Y-47921121D01*
X67219244Y-47921121D02*
X67192306Y-47894184D01*
X67192306Y-47894184D02*
X67165369Y-47813372D01*
X67165369Y-47813372D02*
X67165369Y-47759497D01*
X67165369Y-47759497D02*
X67192306Y-47678685D01*
X67192306Y-47678685D02*
X67300056Y-47570935D01*
X67300056Y-47570935D02*
X67380868Y-47543998D01*
X67380868Y-47543998D02*
X67434743Y-47543998D01*
X67434743Y-47543998D02*
X67515555Y-47570935D01*
X67515555Y-47570935D02*
X67542493Y-47597872D01*
X67542493Y-47597872D02*
X67569430Y-47678685D01*
X67569430Y-47678685D02*
X67569430Y-47732559D01*
X67569430Y-47732559D02*
X67542493Y-47813372D01*
X67542493Y-47813372D02*
X67434743Y-47921121D01*
X67434743Y-47921121D02*
X67407806Y-48001933D01*
X67407806Y-48001933D02*
X67407806Y-48055808D01*
X67407806Y-48055808D02*
X67434743Y-48136620D01*
X67434743Y-48136620D02*
X67542493Y-48244370D01*
X67542493Y-48244370D02*
X67623305Y-48271307D01*
X67623305Y-48271307D02*
X67677180Y-48271307D01*
X67677180Y-48271307D02*
X67757992Y-48244370D01*
X67757992Y-48244370D02*
X67865741Y-48136620D01*
X67865741Y-48136620D02*
X67892679Y-48055808D01*
X67892679Y-48055808D02*
X67892679Y-48001933D01*
X67892679Y-48001933D02*
X67865741Y-47921121D01*
X67865741Y-47921121D02*
X67757992Y-47813372D01*
X67757992Y-47813372D02*
X67677180Y-47786434D01*
X67677180Y-47786434D02*
X67623305Y-47786434D01*
X67623305Y-47786434D02*
X67542493Y-47813372D01*
X66276435Y-53728431D02*
X66195623Y-53755368D01*
X66195623Y-53755368D02*
X66114811Y-53836180D01*
X66114811Y-53836180D02*
X66060936Y-53943930D01*
X66060936Y-53943930D02*
X66060936Y-54051680D01*
X66060936Y-54051680D02*
X66087873Y-54132492D01*
X66087873Y-54132492D02*
X66168685Y-54267179D01*
X66168685Y-54267179D02*
X66249498Y-54347991D01*
X66249498Y-54347991D02*
X66384185Y-54428803D01*
X66384185Y-54428803D02*
X66464997Y-54455741D01*
X66464997Y-54455741D02*
X66572746Y-54455741D01*
X66572746Y-54455741D02*
X66680496Y-54401866D01*
X66680496Y-54401866D02*
X66734371Y-54347991D01*
X66734371Y-54347991D02*
X66788246Y-54240241D01*
X66788246Y-54240241D02*
X66788246Y-54186367D01*
X66788246Y-54186367D02*
X66599684Y-53997805D01*
X66599684Y-53997805D02*
X66491934Y-54105554D01*
X67084557Y-53997805D02*
X66518872Y-53432119D01*
X66518872Y-53432119D02*
X67407806Y-53674556D01*
X67407806Y-53674556D02*
X66842120Y-53108871D01*
X67677180Y-53405182D02*
X67111494Y-52839497D01*
X67111494Y-52839497D02*
X67246181Y-52704810D01*
X67246181Y-52704810D02*
X67353931Y-52650935D01*
X67353931Y-52650935D02*
X67461680Y-52650935D01*
X67461680Y-52650935D02*
X67542493Y-52677872D01*
X67542493Y-52677872D02*
X67677180Y-52758685D01*
X67677180Y-52758685D02*
X67757992Y-52839497D01*
X67757992Y-52839497D02*
X67838804Y-52974184D01*
X67838804Y-52974184D02*
X67865741Y-53054996D01*
X67865741Y-53054996D02*
X67865741Y-53162746D01*
X67865741Y-53162746D02*
X67811867Y-53270495D01*
X67811867Y-53270495D02*
X67677180Y-53405182D01*
X91887998Y-71750868D02*
X91807185Y-71777805D01*
X91807185Y-71777805D02*
X91726373Y-71858618D01*
X91726373Y-71858618D02*
X91672498Y-71966367D01*
X91672498Y-71966367D02*
X91672498Y-72074117D01*
X91672498Y-72074117D02*
X91699436Y-72154929D01*
X91699436Y-72154929D02*
X91780248Y-72289616D01*
X91780248Y-72289616D02*
X91861060Y-72370428D01*
X91861060Y-72370428D02*
X91995747Y-72451241D01*
X91995747Y-72451241D02*
X92076560Y-72478178D01*
X92076560Y-72478178D02*
X92184309Y-72478178D01*
X92184309Y-72478178D02*
X92292059Y-72424303D01*
X92292059Y-72424303D02*
X92345934Y-72370428D01*
X92345934Y-72370428D02*
X92399808Y-72262679D01*
X92399808Y-72262679D02*
X92399808Y-72208804D01*
X92399808Y-72208804D02*
X92211247Y-72020242D01*
X92211247Y-72020242D02*
X92103497Y-72127992D01*
X92696120Y-72020242D02*
X92130434Y-71454557D01*
X92130434Y-71454557D02*
X92345934Y-71239057D01*
X92345934Y-71239057D02*
X92426746Y-71212120D01*
X92426746Y-71212120D02*
X92480621Y-71212120D01*
X92480621Y-71212120D02*
X92561433Y-71239057D01*
X92561433Y-71239057D02*
X92642245Y-71319870D01*
X92642245Y-71319870D02*
X92669182Y-71400682D01*
X92669182Y-71400682D02*
X92669182Y-71454557D01*
X92669182Y-71454557D02*
X92642245Y-71535369D01*
X92642245Y-71535369D02*
X92426746Y-71750868D01*
X93558117Y-71158245D02*
X93234868Y-71481494D01*
X93396492Y-71319870D02*
X92830807Y-70754184D01*
X92830807Y-70754184D02*
X92857744Y-70888871D01*
X92857744Y-70888871D02*
X92857744Y-70996621D01*
X92857744Y-70996621D02*
X92830807Y-71077433D01*
X93477305Y-70107686D02*
X93369555Y-70215436D01*
X93369555Y-70215436D02*
X93342618Y-70296248D01*
X93342618Y-70296248D02*
X93342618Y-70350123D01*
X93342618Y-70350123D02*
X93369555Y-70484810D01*
X93369555Y-70484810D02*
X93450367Y-70619497D01*
X93450367Y-70619497D02*
X93665866Y-70834996D01*
X93665866Y-70834996D02*
X93746679Y-70861934D01*
X93746679Y-70861934D02*
X93800553Y-70861934D01*
X93800553Y-70861934D02*
X93881366Y-70834996D01*
X93881366Y-70834996D02*
X93989115Y-70727247D01*
X93989115Y-70727247D02*
X94016053Y-70646434D01*
X94016053Y-70646434D02*
X94016053Y-70592560D01*
X94016053Y-70592560D02*
X93989115Y-70511747D01*
X93989115Y-70511747D02*
X93854428Y-70377060D01*
X93854428Y-70377060D02*
X93773616Y-70350123D01*
X93773616Y-70350123D02*
X93719741Y-70350123D01*
X93719741Y-70350123D02*
X93638929Y-70377060D01*
X93638929Y-70377060D02*
X93531179Y-70484810D01*
X93531179Y-70484810D02*
X93504242Y-70565622D01*
X93504242Y-70565622D02*
X93504242Y-70619497D01*
X93504242Y-70619497D02*
X93531179Y-70700309D01*
X66276435Y-28328431D02*
X66195623Y-28355368D01*
X66195623Y-28355368D02*
X66114811Y-28436180D01*
X66114811Y-28436180D02*
X66060936Y-28543930D01*
X66060936Y-28543930D02*
X66060936Y-28651680D01*
X66060936Y-28651680D02*
X66087873Y-28732492D01*
X66087873Y-28732492D02*
X66168685Y-28867179D01*
X66168685Y-28867179D02*
X66249498Y-28947991D01*
X66249498Y-28947991D02*
X66384185Y-29028803D01*
X66384185Y-29028803D02*
X66464997Y-29055741D01*
X66464997Y-29055741D02*
X66572746Y-29055741D01*
X66572746Y-29055741D02*
X66680496Y-29001866D01*
X66680496Y-29001866D02*
X66734371Y-28947991D01*
X66734371Y-28947991D02*
X66788246Y-28840241D01*
X66788246Y-28840241D02*
X66788246Y-28786367D01*
X66788246Y-28786367D02*
X66599684Y-28597805D01*
X66599684Y-28597805D02*
X66491934Y-28705554D01*
X67084557Y-28597805D02*
X66518872Y-28032119D01*
X66518872Y-28032119D02*
X67407806Y-28274556D01*
X67407806Y-28274556D02*
X66842120Y-27708871D01*
X67677180Y-28005182D02*
X67111494Y-27439497D01*
X67111494Y-27439497D02*
X67246181Y-27304810D01*
X67246181Y-27304810D02*
X67353931Y-27250935D01*
X67353931Y-27250935D02*
X67461680Y-27250935D01*
X67461680Y-27250935D02*
X67542493Y-27277872D01*
X67542493Y-27277872D02*
X67677180Y-27358685D01*
X67677180Y-27358685D02*
X67757992Y-27439497D01*
X67757992Y-27439497D02*
X67838804Y-27574184D01*
X67838804Y-27574184D02*
X67865741Y-27654996D01*
X67865741Y-27654996D02*
X67865741Y-27762746D01*
X67865741Y-27762746D02*
X67811867Y-27870495D01*
X67811867Y-27870495D02*
X67677180Y-28005182D01*
X91887998Y-51430868D02*
X91807185Y-51457805D01*
X91807185Y-51457805D02*
X91726373Y-51538618D01*
X91726373Y-51538618D02*
X91672498Y-51646367D01*
X91672498Y-51646367D02*
X91672498Y-51754117D01*
X91672498Y-51754117D02*
X91699436Y-51834929D01*
X91699436Y-51834929D02*
X91780248Y-51969616D01*
X91780248Y-51969616D02*
X91861060Y-52050428D01*
X91861060Y-52050428D02*
X91995747Y-52131241D01*
X91995747Y-52131241D02*
X92076560Y-52158178D01*
X92076560Y-52158178D02*
X92184309Y-52158178D01*
X92184309Y-52158178D02*
X92292059Y-52104303D01*
X92292059Y-52104303D02*
X92345934Y-52050428D01*
X92345934Y-52050428D02*
X92399808Y-51942679D01*
X92399808Y-51942679D02*
X92399808Y-51888804D01*
X92399808Y-51888804D02*
X92211247Y-51700242D01*
X92211247Y-51700242D02*
X92103497Y-51807992D01*
X92696120Y-51700242D02*
X92130434Y-51134557D01*
X92130434Y-51134557D02*
X92345934Y-50919057D01*
X92345934Y-50919057D02*
X92426746Y-50892120D01*
X92426746Y-50892120D02*
X92480621Y-50892120D01*
X92480621Y-50892120D02*
X92561433Y-50919057D01*
X92561433Y-50919057D02*
X92642245Y-50999870D01*
X92642245Y-50999870D02*
X92669182Y-51080682D01*
X92669182Y-51080682D02*
X92669182Y-51134557D01*
X92669182Y-51134557D02*
X92642245Y-51215369D01*
X92642245Y-51215369D02*
X92426746Y-51430868D01*
X92723057Y-50649683D02*
X92723057Y-50595809D01*
X92723057Y-50595809D02*
X92749995Y-50514996D01*
X92749995Y-50514996D02*
X92884682Y-50380309D01*
X92884682Y-50380309D02*
X92965494Y-50353372D01*
X92965494Y-50353372D02*
X93019369Y-50353372D01*
X93019369Y-50353372D02*
X93100181Y-50380309D01*
X93100181Y-50380309D02*
X93154056Y-50434184D01*
X93154056Y-50434184D02*
X93207930Y-50541934D01*
X93207930Y-50541934D02*
X93207930Y-51188431D01*
X93207930Y-51188431D02*
X93558117Y-50838245D01*
X93261805Y-50110935D02*
X93261805Y-50057060D01*
X93261805Y-50057060D02*
X93288743Y-49976248D01*
X93288743Y-49976248D02*
X93423430Y-49841561D01*
X93423430Y-49841561D02*
X93504242Y-49814624D01*
X93504242Y-49814624D02*
X93558117Y-49814624D01*
X93558117Y-49814624D02*
X93638929Y-49841561D01*
X93638929Y-49841561D02*
X93692804Y-49895436D01*
X93692804Y-49895436D02*
X93746679Y-50003186D01*
X93746679Y-50003186D02*
X93746679Y-50649683D01*
X93746679Y-50649683D02*
X94096865Y-50299497D01*
X66203372Y-30841494D02*
X66122560Y-30868431D01*
X66122560Y-30868431D02*
X66041748Y-30949243D01*
X66041748Y-30949243D02*
X65987873Y-31056993D01*
X65987873Y-31056993D02*
X65987873Y-31164742D01*
X65987873Y-31164742D02*
X66014810Y-31245555D01*
X66014810Y-31245555D02*
X66095623Y-31380242D01*
X66095623Y-31380242D02*
X66176435Y-31461054D01*
X66176435Y-31461054D02*
X66311122Y-31541866D01*
X66311122Y-31541866D02*
X66391934Y-31568803D01*
X66391934Y-31568803D02*
X66499684Y-31568803D01*
X66499684Y-31568803D02*
X66607433Y-31514929D01*
X66607433Y-31514929D02*
X66661308Y-31461054D01*
X66661308Y-31461054D02*
X66715183Y-31353304D01*
X66715183Y-31353304D02*
X66715183Y-31299429D01*
X66715183Y-31299429D02*
X66526621Y-31110868D01*
X66526621Y-31110868D02*
X66418871Y-31218617D01*
X67011494Y-31110868D02*
X66445809Y-30545182D01*
X66445809Y-30545182D02*
X66661308Y-30329683D01*
X66661308Y-30329683D02*
X66742120Y-30302746D01*
X66742120Y-30302746D02*
X66795995Y-30302746D01*
X66795995Y-30302746D02*
X66876807Y-30329683D01*
X66876807Y-30329683D02*
X66957619Y-30410495D01*
X66957619Y-30410495D02*
X66984557Y-30491307D01*
X66984557Y-30491307D02*
X66984557Y-30545182D01*
X66984557Y-30545182D02*
X66957619Y-30625994D01*
X66957619Y-30625994D02*
X66742120Y-30841494D01*
X67038432Y-30060309D02*
X67038432Y-30006434D01*
X67038432Y-30006434D02*
X67065369Y-29925622D01*
X67065369Y-29925622D02*
X67200056Y-29790935D01*
X67200056Y-29790935D02*
X67280868Y-29763998D01*
X67280868Y-29763998D02*
X67334743Y-29763998D01*
X67334743Y-29763998D02*
X67415555Y-29790935D01*
X67415555Y-29790935D02*
X67469430Y-29844810D01*
X67469430Y-29844810D02*
X67523305Y-29952559D01*
X67523305Y-29952559D02*
X67523305Y-30599057D01*
X67523305Y-30599057D02*
X67873491Y-30248871D01*
X65779998Y-71750868D02*
X65699185Y-71777805D01*
X65699185Y-71777805D02*
X65618373Y-71858618D01*
X65618373Y-71858618D02*
X65564498Y-71966367D01*
X65564498Y-71966367D02*
X65564498Y-72074117D01*
X65564498Y-72074117D02*
X65591436Y-72154929D01*
X65591436Y-72154929D02*
X65672248Y-72289616D01*
X65672248Y-72289616D02*
X65753060Y-72370428D01*
X65753060Y-72370428D02*
X65887747Y-72451241D01*
X65887747Y-72451241D02*
X65968560Y-72478178D01*
X65968560Y-72478178D02*
X66076309Y-72478178D01*
X66076309Y-72478178D02*
X66184059Y-72424303D01*
X66184059Y-72424303D02*
X66237934Y-72370428D01*
X66237934Y-72370428D02*
X66291808Y-72262679D01*
X66291808Y-72262679D02*
X66291808Y-72208804D01*
X66291808Y-72208804D02*
X66103247Y-72020242D01*
X66103247Y-72020242D02*
X65995497Y-72127992D01*
X66588120Y-72020242D02*
X66022434Y-71454557D01*
X66022434Y-71454557D02*
X66237934Y-71239057D01*
X66237934Y-71239057D02*
X66318746Y-71212120D01*
X66318746Y-71212120D02*
X66372621Y-71212120D01*
X66372621Y-71212120D02*
X66453433Y-71239057D01*
X66453433Y-71239057D02*
X66534245Y-71319870D01*
X66534245Y-71319870D02*
X66561182Y-71400682D01*
X66561182Y-71400682D02*
X66561182Y-71454557D01*
X66561182Y-71454557D02*
X66534245Y-71535369D01*
X66534245Y-71535369D02*
X66318746Y-71750868D01*
X67450117Y-71158245D02*
X67126868Y-71481494D01*
X67288492Y-71319870D02*
X66722807Y-70754184D01*
X66722807Y-70754184D02*
X66749744Y-70888871D01*
X66749744Y-70888871D02*
X66749744Y-70996621D01*
X66749744Y-70996621D02*
X66722807Y-71077433D01*
X67396242Y-70080749D02*
X67126868Y-70350123D01*
X67126868Y-70350123D02*
X67369305Y-70646434D01*
X67369305Y-70646434D02*
X67369305Y-70592560D01*
X67369305Y-70592560D02*
X67396242Y-70511747D01*
X67396242Y-70511747D02*
X67530929Y-70377060D01*
X67530929Y-70377060D02*
X67611741Y-70350123D01*
X67611741Y-70350123D02*
X67665616Y-70350123D01*
X67665616Y-70350123D02*
X67746428Y-70377060D01*
X67746428Y-70377060D02*
X67881115Y-70511747D01*
X67881115Y-70511747D02*
X67908053Y-70592560D01*
X67908053Y-70592560D02*
X67908053Y-70646434D01*
X67908053Y-70646434D02*
X67881115Y-70727247D01*
X67881115Y-70727247D02*
X67746428Y-70861934D01*
X67746428Y-70861934D02*
X67665616Y-70888871D01*
X67665616Y-70888871D02*
X67611741Y-70888871D01*
X65779998Y-64130868D02*
X65699185Y-64157805D01*
X65699185Y-64157805D02*
X65618373Y-64238618D01*
X65618373Y-64238618D02*
X65564498Y-64346367D01*
X65564498Y-64346367D02*
X65564498Y-64454117D01*
X65564498Y-64454117D02*
X65591436Y-64534929D01*
X65591436Y-64534929D02*
X65672248Y-64669616D01*
X65672248Y-64669616D02*
X65753060Y-64750428D01*
X65753060Y-64750428D02*
X65887747Y-64831241D01*
X65887747Y-64831241D02*
X65968560Y-64858178D01*
X65968560Y-64858178D02*
X66076309Y-64858178D01*
X66076309Y-64858178D02*
X66184059Y-64804303D01*
X66184059Y-64804303D02*
X66237934Y-64750428D01*
X66237934Y-64750428D02*
X66291808Y-64642679D01*
X66291808Y-64642679D02*
X66291808Y-64588804D01*
X66291808Y-64588804D02*
X66103247Y-64400242D01*
X66103247Y-64400242D02*
X65995497Y-64507992D01*
X66588120Y-64400242D02*
X66022434Y-63834557D01*
X66022434Y-63834557D02*
X66237934Y-63619057D01*
X66237934Y-63619057D02*
X66318746Y-63592120D01*
X66318746Y-63592120D02*
X66372621Y-63592120D01*
X66372621Y-63592120D02*
X66453433Y-63619057D01*
X66453433Y-63619057D02*
X66534245Y-63699870D01*
X66534245Y-63699870D02*
X66561182Y-63780682D01*
X66561182Y-63780682D02*
X66561182Y-63834557D01*
X66561182Y-63834557D02*
X66534245Y-63915369D01*
X66534245Y-63915369D02*
X66318746Y-64130868D01*
X67450117Y-63538245D02*
X67126868Y-63861494D01*
X67288492Y-63699870D02*
X66722807Y-63134184D01*
X66722807Y-63134184D02*
X66749744Y-63268871D01*
X66749744Y-63268871D02*
X66749744Y-63376621D01*
X66749744Y-63376621D02*
X66722807Y-63457433D01*
X67072993Y-62783998D02*
X67423179Y-62433812D01*
X67423179Y-62433812D02*
X67450117Y-62837873D01*
X67450117Y-62837873D02*
X67530929Y-62757060D01*
X67530929Y-62757060D02*
X67611741Y-62730123D01*
X67611741Y-62730123D02*
X67665616Y-62730123D01*
X67665616Y-62730123D02*
X67746428Y-62757060D01*
X67746428Y-62757060D02*
X67881115Y-62891747D01*
X67881115Y-62891747D02*
X67908053Y-62972560D01*
X67908053Y-62972560D02*
X67908053Y-63026434D01*
X67908053Y-63026434D02*
X67881115Y-63107247D01*
X67881115Y-63107247D02*
X67719491Y-63268871D01*
X67719491Y-63268871D02*
X67638679Y-63295808D01*
X67638679Y-63295808D02*
X67584804Y-63295808D01*
X92628651Y-49173710D02*
X92170716Y-49092898D01*
X92305403Y-49496959D02*
X91739717Y-48931274D01*
X91739717Y-48931274D02*
X91955216Y-48715775D01*
X91955216Y-48715775D02*
X92036029Y-48688837D01*
X92036029Y-48688837D02*
X92089903Y-48688837D01*
X92089903Y-48688837D02*
X92170716Y-48715775D01*
X92170716Y-48715775D02*
X92251528Y-48796587D01*
X92251528Y-48796587D02*
X92278465Y-48877399D01*
X92278465Y-48877399D02*
X92278465Y-48931274D01*
X92278465Y-48931274D02*
X92251528Y-49012086D01*
X92251528Y-49012086D02*
X92036029Y-49227585D01*
X92305403Y-48365588D02*
X92763338Y-48823524D01*
X92763338Y-48823524D02*
X92844151Y-48850462D01*
X92844151Y-48850462D02*
X92898025Y-48850462D01*
X92898025Y-48850462D02*
X92978838Y-48823524D01*
X92978838Y-48823524D02*
X93086587Y-48715775D01*
X93086587Y-48715775D02*
X93113525Y-48634962D01*
X93113525Y-48634962D02*
X93113525Y-48581088D01*
X93113525Y-48581088D02*
X93086587Y-48500275D01*
X93086587Y-48500275D02*
X92628651Y-48042340D01*
X93463711Y-48338651D02*
X92898025Y-47772966D01*
X92898025Y-47772966D02*
X93786959Y-48015402D01*
X93786959Y-48015402D02*
X93221274Y-47449717D01*
X66203372Y-25751494D02*
X66122560Y-25778431D01*
X66122560Y-25778431D02*
X66041748Y-25859243D01*
X66041748Y-25859243D02*
X65987873Y-25966993D01*
X65987873Y-25966993D02*
X65987873Y-26074742D01*
X65987873Y-26074742D02*
X66014810Y-26155555D01*
X66014810Y-26155555D02*
X66095623Y-26290242D01*
X66095623Y-26290242D02*
X66176435Y-26371054D01*
X66176435Y-26371054D02*
X66311122Y-26451866D01*
X66311122Y-26451866D02*
X66391934Y-26478803D01*
X66391934Y-26478803D02*
X66499684Y-26478803D01*
X66499684Y-26478803D02*
X66607433Y-26424929D01*
X66607433Y-26424929D02*
X66661308Y-26371054D01*
X66661308Y-26371054D02*
X66715183Y-26263304D01*
X66715183Y-26263304D02*
X66715183Y-26209429D01*
X66715183Y-26209429D02*
X66526621Y-26020868D01*
X66526621Y-26020868D02*
X66418871Y-26128617D01*
X67011494Y-26020868D02*
X66445809Y-25455182D01*
X66445809Y-25455182D02*
X66661308Y-25239683D01*
X66661308Y-25239683D02*
X66742120Y-25212746D01*
X66742120Y-25212746D02*
X66795995Y-25212746D01*
X66795995Y-25212746D02*
X66876807Y-25239683D01*
X66876807Y-25239683D02*
X66957619Y-25320495D01*
X66957619Y-25320495D02*
X66984557Y-25401307D01*
X66984557Y-25401307D02*
X66984557Y-25455182D01*
X66984557Y-25455182D02*
X66957619Y-25535994D01*
X66957619Y-25535994D02*
X66742120Y-25751494D01*
X67873491Y-25158871D02*
X67550242Y-25482120D01*
X67711867Y-25320495D02*
X67146181Y-24754810D01*
X67146181Y-24754810D02*
X67173119Y-24889497D01*
X67173119Y-24889497D02*
X67173119Y-24997246D01*
X67173119Y-24997246D02*
X67146181Y-25078059D01*
X91887998Y-61590868D02*
X91807185Y-61617805D01*
X91807185Y-61617805D02*
X91726373Y-61698618D01*
X91726373Y-61698618D02*
X91672498Y-61806367D01*
X91672498Y-61806367D02*
X91672498Y-61914117D01*
X91672498Y-61914117D02*
X91699436Y-61994929D01*
X91699436Y-61994929D02*
X91780248Y-62129616D01*
X91780248Y-62129616D02*
X91861060Y-62210428D01*
X91861060Y-62210428D02*
X91995747Y-62291241D01*
X91995747Y-62291241D02*
X92076560Y-62318178D01*
X92076560Y-62318178D02*
X92184309Y-62318178D01*
X92184309Y-62318178D02*
X92292059Y-62264303D01*
X92292059Y-62264303D02*
X92345934Y-62210428D01*
X92345934Y-62210428D02*
X92399808Y-62102679D01*
X92399808Y-62102679D02*
X92399808Y-62048804D01*
X92399808Y-62048804D02*
X92211247Y-61860242D01*
X92211247Y-61860242D02*
X92103497Y-61967992D01*
X92696120Y-61860242D02*
X92130434Y-61294557D01*
X92130434Y-61294557D02*
X92345934Y-61079057D01*
X92345934Y-61079057D02*
X92426746Y-61052120D01*
X92426746Y-61052120D02*
X92480621Y-61052120D01*
X92480621Y-61052120D02*
X92561433Y-61079057D01*
X92561433Y-61079057D02*
X92642245Y-61159870D01*
X92642245Y-61159870D02*
X92669182Y-61240682D01*
X92669182Y-61240682D02*
X92669182Y-61294557D01*
X92669182Y-61294557D02*
X92642245Y-61375369D01*
X92642245Y-61375369D02*
X92426746Y-61590868D01*
X93558117Y-60998245D02*
X93234868Y-61321494D01*
X93396492Y-61159870D02*
X92830807Y-60594184D01*
X92830807Y-60594184D02*
X92857744Y-60728871D01*
X92857744Y-60728871D02*
X92857744Y-60836621D01*
X92857744Y-60836621D02*
X92830807Y-60917433D01*
X93827491Y-60728871D02*
X93935240Y-60621121D01*
X93935240Y-60621121D02*
X93962178Y-60540309D01*
X93962178Y-60540309D02*
X93962178Y-60486434D01*
X93962178Y-60486434D02*
X93935240Y-60351747D01*
X93935240Y-60351747D02*
X93854428Y-60217060D01*
X93854428Y-60217060D02*
X93638929Y-60001561D01*
X93638929Y-60001561D02*
X93558117Y-59974624D01*
X93558117Y-59974624D02*
X93504242Y-59974624D01*
X93504242Y-59974624D02*
X93423430Y-60001561D01*
X93423430Y-60001561D02*
X93315680Y-60109311D01*
X93315680Y-60109311D02*
X93288743Y-60190123D01*
X93288743Y-60190123D02*
X93288743Y-60243998D01*
X93288743Y-60243998D02*
X93315680Y-60324810D01*
X93315680Y-60324810D02*
X93450367Y-60459497D01*
X93450367Y-60459497D02*
X93531179Y-60486434D01*
X93531179Y-60486434D02*
X93585054Y-60486434D01*
X93585054Y-60486434D02*
X93665866Y-60459497D01*
X93665866Y-60459497D02*
X93773616Y-60351747D01*
X93773616Y-60351747D02*
X93800553Y-60270935D01*
X93800553Y-60270935D02*
X93800553Y-60217060D01*
X93800553Y-60217060D02*
X93773616Y-60136248D01*
X65779998Y-56510868D02*
X65699185Y-56537805D01*
X65699185Y-56537805D02*
X65618373Y-56618618D01*
X65618373Y-56618618D02*
X65564498Y-56726367D01*
X65564498Y-56726367D02*
X65564498Y-56834117D01*
X65564498Y-56834117D02*
X65591436Y-56914929D01*
X65591436Y-56914929D02*
X65672248Y-57049616D01*
X65672248Y-57049616D02*
X65753060Y-57130428D01*
X65753060Y-57130428D02*
X65887747Y-57211241D01*
X65887747Y-57211241D02*
X65968560Y-57238178D01*
X65968560Y-57238178D02*
X66076309Y-57238178D01*
X66076309Y-57238178D02*
X66184059Y-57184303D01*
X66184059Y-57184303D02*
X66237934Y-57130428D01*
X66237934Y-57130428D02*
X66291808Y-57022679D01*
X66291808Y-57022679D02*
X66291808Y-56968804D01*
X66291808Y-56968804D02*
X66103247Y-56780242D01*
X66103247Y-56780242D02*
X65995497Y-56887992D01*
X66588120Y-56780242D02*
X66022434Y-56214557D01*
X66022434Y-56214557D02*
X66237934Y-55999057D01*
X66237934Y-55999057D02*
X66318746Y-55972120D01*
X66318746Y-55972120D02*
X66372621Y-55972120D01*
X66372621Y-55972120D02*
X66453433Y-55999057D01*
X66453433Y-55999057D02*
X66534245Y-56079870D01*
X66534245Y-56079870D02*
X66561182Y-56160682D01*
X66561182Y-56160682D02*
X66561182Y-56214557D01*
X66561182Y-56214557D02*
X66534245Y-56295369D01*
X66534245Y-56295369D02*
X66318746Y-56510868D01*
X67450117Y-55918245D02*
X67126868Y-56241494D01*
X67288492Y-56079870D02*
X66722807Y-55514184D01*
X66722807Y-55514184D02*
X66749744Y-55648871D01*
X66749744Y-55648871D02*
X66749744Y-55756621D01*
X66749744Y-55756621D02*
X66722807Y-55837433D01*
X67234618Y-55002373D02*
X67288492Y-54948499D01*
X67288492Y-54948499D02*
X67369305Y-54921561D01*
X67369305Y-54921561D02*
X67423179Y-54921561D01*
X67423179Y-54921561D02*
X67503992Y-54948499D01*
X67503992Y-54948499D02*
X67638679Y-55029311D01*
X67638679Y-55029311D02*
X67773366Y-55163998D01*
X67773366Y-55163998D02*
X67854178Y-55298685D01*
X67854178Y-55298685D02*
X67881115Y-55379497D01*
X67881115Y-55379497D02*
X67881115Y-55433372D01*
X67881115Y-55433372D02*
X67854178Y-55514184D01*
X67854178Y-55514184D02*
X67800303Y-55568059D01*
X67800303Y-55568059D02*
X67719491Y-55594996D01*
X67719491Y-55594996D02*
X67665616Y-55594996D01*
X67665616Y-55594996D02*
X67584804Y-55568059D01*
X67584804Y-55568059D02*
X67450117Y-55487247D01*
X67450117Y-55487247D02*
X67315430Y-55352560D01*
X67315430Y-55352560D02*
X67234618Y-55217873D01*
X67234618Y-55217873D02*
X67207680Y-55137060D01*
X67207680Y-55137060D02*
X67207680Y-55083186D01*
X67207680Y-55083186D02*
X67234618Y-55002373D01*
X66303372Y-43541494D02*
X66222560Y-43568431D01*
X66222560Y-43568431D02*
X66141748Y-43649243D01*
X66141748Y-43649243D02*
X66087873Y-43756993D01*
X66087873Y-43756993D02*
X66087873Y-43864742D01*
X66087873Y-43864742D02*
X66114810Y-43945555D01*
X66114810Y-43945555D02*
X66195623Y-44080242D01*
X66195623Y-44080242D02*
X66276435Y-44161054D01*
X66276435Y-44161054D02*
X66411122Y-44241866D01*
X66411122Y-44241866D02*
X66491934Y-44268803D01*
X66491934Y-44268803D02*
X66599684Y-44268803D01*
X66599684Y-44268803D02*
X66707433Y-44214929D01*
X66707433Y-44214929D02*
X66761308Y-44161054D01*
X66761308Y-44161054D02*
X66815183Y-44053304D01*
X66815183Y-44053304D02*
X66815183Y-43999429D01*
X66815183Y-43999429D02*
X66626621Y-43810868D01*
X66626621Y-43810868D02*
X66518871Y-43918617D01*
X67111494Y-43810868D02*
X66545809Y-43245182D01*
X66545809Y-43245182D02*
X66761308Y-43029683D01*
X66761308Y-43029683D02*
X66842120Y-43002746D01*
X66842120Y-43002746D02*
X66895995Y-43002746D01*
X66895995Y-43002746D02*
X66976807Y-43029683D01*
X66976807Y-43029683D02*
X67057619Y-43110495D01*
X67057619Y-43110495D02*
X67084557Y-43191307D01*
X67084557Y-43191307D02*
X67084557Y-43245182D01*
X67084557Y-43245182D02*
X67057619Y-43325994D01*
X67057619Y-43325994D02*
X66842120Y-43541494D01*
X67353931Y-42437060D02*
X67246181Y-42544810D01*
X67246181Y-42544810D02*
X67219244Y-42625622D01*
X67219244Y-42625622D02*
X67219244Y-42679497D01*
X67219244Y-42679497D02*
X67246181Y-42814184D01*
X67246181Y-42814184D02*
X67326993Y-42948871D01*
X67326993Y-42948871D02*
X67542493Y-43164370D01*
X67542493Y-43164370D02*
X67623305Y-43191307D01*
X67623305Y-43191307D02*
X67677180Y-43191307D01*
X67677180Y-43191307D02*
X67757992Y-43164370D01*
X67757992Y-43164370D02*
X67865741Y-43056620D01*
X67865741Y-43056620D02*
X67892679Y-42975808D01*
X67892679Y-42975808D02*
X67892679Y-42921933D01*
X67892679Y-42921933D02*
X67865741Y-42841121D01*
X67865741Y-42841121D02*
X67731054Y-42706434D01*
X67731054Y-42706434D02*
X67650242Y-42679497D01*
X67650242Y-42679497D02*
X67596367Y-42679497D01*
X67596367Y-42679497D02*
X67515555Y-42706434D01*
X67515555Y-42706434D02*
X67407806Y-42814184D01*
X67407806Y-42814184D02*
X67380868Y-42894996D01*
X67380868Y-42894996D02*
X67380868Y-42948871D01*
X67380868Y-42948871D02*
X67407806Y-43029683D01*
X83694761Y-73754200D02*
X83809047Y-73792295D01*
X83809047Y-73792295D02*
X83999523Y-73792295D01*
X83999523Y-73792295D02*
X84075714Y-73754200D01*
X84075714Y-73754200D02*
X84113809Y-73716104D01*
X84113809Y-73716104D02*
X84151904Y-73639914D01*
X84151904Y-73639914D02*
X84151904Y-73563723D01*
X84151904Y-73563723D02*
X84113809Y-73487533D01*
X84113809Y-73487533D02*
X84075714Y-73449438D01*
X84075714Y-73449438D02*
X83999523Y-73411342D01*
X83999523Y-73411342D02*
X83847142Y-73373247D01*
X83847142Y-73373247D02*
X83770952Y-73335152D01*
X83770952Y-73335152D02*
X83732857Y-73297057D01*
X83732857Y-73297057D02*
X83694761Y-73220866D01*
X83694761Y-73220866D02*
X83694761Y-73144676D01*
X83694761Y-73144676D02*
X83732857Y-73068485D01*
X83732857Y-73068485D02*
X83770952Y-73030390D01*
X83770952Y-73030390D02*
X83847142Y-72992295D01*
X83847142Y-72992295D02*
X84037619Y-72992295D01*
X84037619Y-72992295D02*
X84151904Y-73030390D01*
X84418571Y-72992295D02*
X84609047Y-73792295D01*
X84609047Y-73792295D02*
X84761428Y-73220866D01*
X84761428Y-73220866D02*
X84913809Y-73792295D01*
X84913809Y-73792295D02*
X85104286Y-72992295D01*
X85409048Y-73792295D02*
X85409048Y-72992295D01*
X85409048Y-72992295D02*
X85599524Y-72992295D01*
X85599524Y-72992295D02*
X85713810Y-73030390D01*
X85713810Y-73030390D02*
X85790000Y-73106580D01*
X85790000Y-73106580D02*
X85828095Y-73182771D01*
X85828095Y-73182771D02*
X85866191Y-73335152D01*
X85866191Y-73335152D02*
X85866191Y-73449438D01*
X85866191Y-73449438D02*
X85828095Y-73601819D01*
X85828095Y-73601819D02*
X85790000Y-73678009D01*
X85790000Y-73678009D02*
X85713810Y-73754200D01*
X85713810Y-73754200D02*
X85599524Y-73792295D01*
X85599524Y-73792295D02*
X85409048Y-73792295D01*
X86209048Y-73792295D02*
X86209048Y-72992295D01*
X86742381Y-72992295D02*
X86894762Y-72992295D01*
X86894762Y-72992295D02*
X86970952Y-73030390D01*
X86970952Y-73030390D02*
X87047143Y-73106580D01*
X87047143Y-73106580D02*
X87085238Y-73258961D01*
X87085238Y-73258961D02*
X87085238Y-73525628D01*
X87085238Y-73525628D02*
X87047143Y-73678009D01*
X87047143Y-73678009D02*
X86970952Y-73754200D01*
X86970952Y-73754200D02*
X86894762Y-73792295D01*
X86894762Y-73792295D02*
X86742381Y-73792295D01*
X86742381Y-73792295D02*
X86666190Y-73754200D01*
X86666190Y-73754200D02*
X86590000Y-73678009D01*
X86590000Y-73678009D02*
X86551904Y-73525628D01*
X86551904Y-73525628D02*
X86551904Y-73258961D01*
X86551904Y-73258961D02*
X86590000Y-73106580D01*
X86590000Y-73106580D02*
X86666190Y-73030390D01*
X86666190Y-73030390D02*
X86742381Y-72992295D01*
X65733998Y-69210868D02*
X65653185Y-69237805D01*
X65653185Y-69237805D02*
X65572373Y-69318618D01*
X65572373Y-69318618D02*
X65518498Y-69426367D01*
X65518498Y-69426367D02*
X65518498Y-69534117D01*
X65518498Y-69534117D02*
X65545436Y-69614929D01*
X65545436Y-69614929D02*
X65626248Y-69749616D01*
X65626248Y-69749616D02*
X65707060Y-69830428D01*
X65707060Y-69830428D02*
X65841747Y-69911241D01*
X65841747Y-69911241D02*
X65922560Y-69938178D01*
X65922560Y-69938178D02*
X66030309Y-69938178D01*
X66030309Y-69938178D02*
X66138059Y-69884303D01*
X66138059Y-69884303D02*
X66191934Y-69830428D01*
X66191934Y-69830428D02*
X66245808Y-69722679D01*
X66245808Y-69722679D02*
X66245808Y-69668804D01*
X66245808Y-69668804D02*
X66057247Y-69480242D01*
X66057247Y-69480242D02*
X65949497Y-69587992D01*
X66542120Y-69480242D02*
X65976434Y-68914557D01*
X65976434Y-68914557D02*
X66191934Y-68699057D01*
X66191934Y-68699057D02*
X66272746Y-68672120D01*
X66272746Y-68672120D02*
X66326621Y-68672120D01*
X66326621Y-68672120D02*
X66407433Y-68699057D01*
X66407433Y-68699057D02*
X66488245Y-68779870D01*
X66488245Y-68779870D02*
X66515182Y-68860682D01*
X66515182Y-68860682D02*
X66515182Y-68914557D01*
X66515182Y-68914557D02*
X66488245Y-68995369D01*
X66488245Y-68995369D02*
X66272746Y-69210868D01*
X67404117Y-68618245D02*
X67080868Y-68941494D01*
X67242492Y-68779870D02*
X66676807Y-68214184D01*
X66676807Y-68214184D02*
X66703744Y-68348871D01*
X66703744Y-68348871D02*
X66703744Y-68456621D01*
X66703744Y-68456621D02*
X66676807Y-68537433D01*
X67511866Y-67756248D02*
X67888990Y-68133372D01*
X67161680Y-67675436D02*
X67431054Y-68214184D01*
X67431054Y-68214184D02*
X67781240Y-67863998D01*
X66303372Y-35921494D02*
X66222560Y-35948431D01*
X66222560Y-35948431D02*
X66141748Y-36029243D01*
X66141748Y-36029243D02*
X66087873Y-36136993D01*
X66087873Y-36136993D02*
X66087873Y-36244742D01*
X66087873Y-36244742D02*
X66114810Y-36325555D01*
X66114810Y-36325555D02*
X66195623Y-36460242D01*
X66195623Y-36460242D02*
X66276435Y-36541054D01*
X66276435Y-36541054D02*
X66411122Y-36621866D01*
X66411122Y-36621866D02*
X66491934Y-36648803D01*
X66491934Y-36648803D02*
X66599684Y-36648803D01*
X66599684Y-36648803D02*
X66707433Y-36594929D01*
X66707433Y-36594929D02*
X66761308Y-36541054D01*
X66761308Y-36541054D02*
X66815183Y-36433304D01*
X66815183Y-36433304D02*
X66815183Y-36379429D01*
X66815183Y-36379429D02*
X66626621Y-36190868D01*
X66626621Y-36190868D02*
X66518871Y-36298617D01*
X67111494Y-36190868D02*
X66545809Y-35625182D01*
X66545809Y-35625182D02*
X66761308Y-35409683D01*
X66761308Y-35409683D02*
X66842120Y-35382746D01*
X66842120Y-35382746D02*
X66895995Y-35382746D01*
X66895995Y-35382746D02*
X66976807Y-35409683D01*
X66976807Y-35409683D02*
X67057619Y-35490495D01*
X67057619Y-35490495D02*
X67084557Y-35571307D01*
X67084557Y-35571307D02*
X67084557Y-35625182D01*
X67084557Y-35625182D02*
X67057619Y-35705994D01*
X67057619Y-35705994D02*
X66842120Y-35921494D01*
X67542493Y-35005622D02*
X67919616Y-35382746D01*
X67192306Y-34924810D02*
X67461680Y-35463558D01*
X67461680Y-35463558D02*
X67811867Y-35113372D01*
X66276435Y-41028431D02*
X66195623Y-41055368D01*
X66195623Y-41055368D02*
X66114811Y-41136180D01*
X66114811Y-41136180D02*
X66060936Y-41243930D01*
X66060936Y-41243930D02*
X66060936Y-41351680D01*
X66060936Y-41351680D02*
X66087873Y-41432492D01*
X66087873Y-41432492D02*
X66168685Y-41567179D01*
X66168685Y-41567179D02*
X66249498Y-41647991D01*
X66249498Y-41647991D02*
X66384185Y-41728803D01*
X66384185Y-41728803D02*
X66464997Y-41755741D01*
X66464997Y-41755741D02*
X66572746Y-41755741D01*
X66572746Y-41755741D02*
X66680496Y-41701866D01*
X66680496Y-41701866D02*
X66734371Y-41647991D01*
X66734371Y-41647991D02*
X66788246Y-41540241D01*
X66788246Y-41540241D02*
X66788246Y-41486367D01*
X66788246Y-41486367D02*
X66599684Y-41297805D01*
X66599684Y-41297805D02*
X66491934Y-41405554D01*
X67084557Y-41297805D02*
X66518872Y-40732119D01*
X66518872Y-40732119D02*
X67407806Y-40974556D01*
X67407806Y-40974556D02*
X66842120Y-40408871D01*
X67677180Y-40705182D02*
X67111494Y-40139497D01*
X67111494Y-40139497D02*
X67246181Y-40004810D01*
X67246181Y-40004810D02*
X67353931Y-39950935D01*
X67353931Y-39950935D02*
X67461680Y-39950935D01*
X67461680Y-39950935D02*
X67542493Y-39977872D01*
X67542493Y-39977872D02*
X67677180Y-40058685D01*
X67677180Y-40058685D02*
X67757992Y-40139497D01*
X67757992Y-40139497D02*
X67838804Y-40274184D01*
X67838804Y-40274184D02*
X67865741Y-40354996D01*
X67865741Y-40354996D02*
X67865741Y-40462746D01*
X67865741Y-40462746D02*
X67811867Y-40570495D01*
X67811867Y-40570495D02*
X67677180Y-40705182D01*
X66403372Y-46051494D02*
X66322560Y-46078431D01*
X66322560Y-46078431D02*
X66241748Y-46159243D01*
X66241748Y-46159243D02*
X66187873Y-46266993D01*
X66187873Y-46266993D02*
X66187873Y-46374742D01*
X66187873Y-46374742D02*
X66214810Y-46455555D01*
X66214810Y-46455555D02*
X66295623Y-46590242D01*
X66295623Y-46590242D02*
X66376435Y-46671054D01*
X66376435Y-46671054D02*
X66511122Y-46751866D01*
X66511122Y-46751866D02*
X66591934Y-46778803D01*
X66591934Y-46778803D02*
X66699684Y-46778803D01*
X66699684Y-46778803D02*
X66807433Y-46724929D01*
X66807433Y-46724929D02*
X66861308Y-46671054D01*
X66861308Y-46671054D02*
X66915183Y-46563304D01*
X66915183Y-46563304D02*
X66915183Y-46509429D01*
X66915183Y-46509429D02*
X66726621Y-46320868D01*
X66726621Y-46320868D02*
X66618871Y-46428617D01*
X67211494Y-46320868D02*
X66645809Y-45755182D01*
X66645809Y-45755182D02*
X66861308Y-45539683D01*
X66861308Y-45539683D02*
X66942120Y-45512746D01*
X66942120Y-45512746D02*
X66995995Y-45512746D01*
X66995995Y-45512746D02*
X67076807Y-45539683D01*
X67076807Y-45539683D02*
X67157619Y-45620495D01*
X67157619Y-45620495D02*
X67184557Y-45701307D01*
X67184557Y-45701307D02*
X67184557Y-45755182D01*
X67184557Y-45755182D02*
X67157619Y-45835994D01*
X67157619Y-45835994D02*
X66942120Y-46051494D01*
X67157619Y-45243372D02*
X67534743Y-44866248D01*
X67534743Y-44866248D02*
X67857992Y-45674370D01*
X91887998Y-38476868D02*
X91807185Y-38503805D01*
X91807185Y-38503805D02*
X91726373Y-38584618D01*
X91726373Y-38584618D02*
X91672498Y-38692367D01*
X91672498Y-38692367D02*
X91672498Y-38800117D01*
X91672498Y-38800117D02*
X91699436Y-38880929D01*
X91699436Y-38880929D02*
X91780248Y-39015616D01*
X91780248Y-39015616D02*
X91861060Y-39096428D01*
X91861060Y-39096428D02*
X91995747Y-39177241D01*
X91995747Y-39177241D02*
X92076560Y-39204178D01*
X92076560Y-39204178D02*
X92184309Y-39204178D01*
X92184309Y-39204178D02*
X92292059Y-39150303D01*
X92292059Y-39150303D02*
X92345934Y-39096428D01*
X92345934Y-39096428D02*
X92399808Y-38988679D01*
X92399808Y-38988679D02*
X92399808Y-38934804D01*
X92399808Y-38934804D02*
X92211247Y-38746242D01*
X92211247Y-38746242D02*
X92103497Y-38853992D01*
X92696120Y-38746242D02*
X92130434Y-38180557D01*
X92130434Y-38180557D02*
X92345934Y-37965057D01*
X92345934Y-37965057D02*
X92426746Y-37938120D01*
X92426746Y-37938120D02*
X92480621Y-37938120D01*
X92480621Y-37938120D02*
X92561433Y-37965057D01*
X92561433Y-37965057D02*
X92642245Y-38045870D01*
X92642245Y-38045870D02*
X92669182Y-38126682D01*
X92669182Y-38126682D02*
X92669182Y-38180557D01*
X92669182Y-38180557D02*
X92642245Y-38261369D01*
X92642245Y-38261369D02*
X92426746Y-38476868D01*
X92723057Y-37695683D02*
X92723057Y-37641809D01*
X92723057Y-37641809D02*
X92749995Y-37560996D01*
X92749995Y-37560996D02*
X92884682Y-37426309D01*
X92884682Y-37426309D02*
X92965494Y-37399372D01*
X92965494Y-37399372D02*
X93019369Y-37399372D01*
X93019369Y-37399372D02*
X93100181Y-37426309D01*
X93100181Y-37426309D02*
X93154056Y-37480184D01*
X93154056Y-37480184D02*
X93207930Y-37587934D01*
X93207930Y-37587934D02*
X93207930Y-38234431D01*
X93207930Y-38234431D02*
X93558117Y-37884245D01*
X93558117Y-37237747D02*
X93477305Y-37264685D01*
X93477305Y-37264685D02*
X93423430Y-37264685D01*
X93423430Y-37264685D02*
X93342618Y-37237747D01*
X93342618Y-37237747D02*
X93315680Y-37210810D01*
X93315680Y-37210810D02*
X93288743Y-37129998D01*
X93288743Y-37129998D02*
X93288743Y-37076123D01*
X93288743Y-37076123D02*
X93315680Y-36995311D01*
X93315680Y-36995311D02*
X93423430Y-36887561D01*
X93423430Y-36887561D02*
X93504242Y-36860624D01*
X93504242Y-36860624D02*
X93558117Y-36860624D01*
X93558117Y-36860624D02*
X93638929Y-36887561D01*
X93638929Y-36887561D02*
X93665866Y-36914499D01*
X93665866Y-36914499D02*
X93692804Y-36995311D01*
X93692804Y-36995311D02*
X93692804Y-37049186D01*
X93692804Y-37049186D02*
X93665866Y-37129998D01*
X93665866Y-37129998D02*
X93558117Y-37237747D01*
X93558117Y-37237747D02*
X93531179Y-37318560D01*
X93531179Y-37318560D02*
X93531179Y-37372434D01*
X93531179Y-37372434D02*
X93558117Y-37453247D01*
X93558117Y-37453247D02*
X93665866Y-37560996D01*
X93665866Y-37560996D02*
X93746679Y-37587934D01*
X93746679Y-37587934D02*
X93800553Y-37587934D01*
X93800553Y-37587934D02*
X93881366Y-37560996D01*
X93881366Y-37560996D02*
X93989115Y-37453247D01*
X93989115Y-37453247D02*
X94016053Y-37372434D01*
X94016053Y-37372434D02*
X94016053Y-37318560D01*
X94016053Y-37318560D02*
X93989115Y-37237747D01*
X93989115Y-37237747D02*
X93881366Y-37129998D01*
X93881366Y-37129998D02*
X93800553Y-37103060D01*
X93800553Y-37103060D02*
X93746679Y-37103060D01*
X93746679Y-37103060D02*
X93665866Y-37129998D01*
X66276435Y-66428431D02*
X66195623Y-66455368D01*
X66195623Y-66455368D02*
X66114811Y-66536180D01*
X66114811Y-66536180D02*
X66060936Y-66643930D01*
X66060936Y-66643930D02*
X66060936Y-66751680D01*
X66060936Y-66751680D02*
X66087873Y-66832492D01*
X66087873Y-66832492D02*
X66168685Y-66967179D01*
X66168685Y-66967179D02*
X66249498Y-67047991D01*
X66249498Y-67047991D02*
X66384185Y-67128803D01*
X66384185Y-67128803D02*
X66464997Y-67155741D01*
X66464997Y-67155741D02*
X66572746Y-67155741D01*
X66572746Y-67155741D02*
X66680496Y-67101866D01*
X66680496Y-67101866D02*
X66734371Y-67047991D01*
X66734371Y-67047991D02*
X66788246Y-66940241D01*
X66788246Y-66940241D02*
X66788246Y-66886367D01*
X66788246Y-66886367D02*
X66599684Y-66697805D01*
X66599684Y-66697805D02*
X66491934Y-66805554D01*
X67084557Y-66697805D02*
X66518872Y-66132119D01*
X66518872Y-66132119D02*
X67407806Y-66374556D01*
X67407806Y-66374556D02*
X66842120Y-65808871D01*
X67677180Y-66105182D02*
X67111494Y-65539497D01*
X67111494Y-65539497D02*
X67246181Y-65404810D01*
X67246181Y-65404810D02*
X67353931Y-65350935D01*
X67353931Y-65350935D02*
X67461680Y-65350935D01*
X67461680Y-65350935D02*
X67542493Y-65377872D01*
X67542493Y-65377872D02*
X67677180Y-65458685D01*
X67677180Y-65458685D02*
X67757992Y-65539497D01*
X67757992Y-65539497D02*
X67838804Y-65674184D01*
X67838804Y-65674184D02*
X67865741Y-65754996D01*
X67865741Y-65754996D02*
X67865741Y-65862746D01*
X67865741Y-65862746D02*
X67811867Y-65970495D01*
X67811867Y-65970495D02*
X67677180Y-66105182D01*
X91887998Y-56520868D02*
X91807185Y-56547805D01*
X91807185Y-56547805D02*
X91726373Y-56628618D01*
X91726373Y-56628618D02*
X91672498Y-56736367D01*
X91672498Y-56736367D02*
X91672498Y-56844117D01*
X91672498Y-56844117D02*
X91699436Y-56924929D01*
X91699436Y-56924929D02*
X91780248Y-57059616D01*
X91780248Y-57059616D02*
X91861060Y-57140428D01*
X91861060Y-57140428D02*
X91995747Y-57221241D01*
X91995747Y-57221241D02*
X92076560Y-57248178D01*
X92076560Y-57248178D02*
X92184309Y-57248178D01*
X92184309Y-57248178D02*
X92292059Y-57194303D01*
X92292059Y-57194303D02*
X92345934Y-57140428D01*
X92345934Y-57140428D02*
X92399808Y-57032679D01*
X92399808Y-57032679D02*
X92399808Y-56978804D01*
X92399808Y-56978804D02*
X92211247Y-56790242D01*
X92211247Y-56790242D02*
X92103497Y-56897992D01*
X92696120Y-56790242D02*
X92130434Y-56224557D01*
X92130434Y-56224557D02*
X92345934Y-56009057D01*
X92345934Y-56009057D02*
X92426746Y-55982120D01*
X92426746Y-55982120D02*
X92480621Y-55982120D01*
X92480621Y-55982120D02*
X92561433Y-56009057D01*
X92561433Y-56009057D02*
X92642245Y-56089870D01*
X92642245Y-56089870D02*
X92669182Y-56170682D01*
X92669182Y-56170682D02*
X92669182Y-56224557D01*
X92669182Y-56224557D02*
X92642245Y-56305369D01*
X92642245Y-56305369D02*
X92426746Y-56520868D01*
X92723057Y-55739683D02*
X92723057Y-55685809D01*
X92723057Y-55685809D02*
X92749995Y-55604996D01*
X92749995Y-55604996D02*
X92884682Y-55470309D01*
X92884682Y-55470309D02*
X92965494Y-55443372D01*
X92965494Y-55443372D02*
X93019369Y-55443372D01*
X93019369Y-55443372D02*
X93100181Y-55470309D01*
X93100181Y-55470309D02*
X93154056Y-55524184D01*
X93154056Y-55524184D02*
X93207930Y-55631934D01*
X93207930Y-55631934D02*
X93207930Y-56278431D01*
X93207930Y-56278431D02*
X93558117Y-55928245D01*
X94096865Y-55389497D02*
X93773616Y-55712746D01*
X93935240Y-55551121D02*
X93369555Y-54985436D01*
X93369555Y-54985436D02*
X93396492Y-55120123D01*
X93396492Y-55120123D02*
X93396492Y-55227873D01*
X93396492Y-55227873D02*
X93369555Y-55308685D01*
X91945064Y-36764049D02*
X92214438Y-36494675D01*
X92052813Y-36979549D02*
X91675690Y-36225301D01*
X91675690Y-36225301D02*
X92429937Y-36602425D01*
X92618499Y-36413863D02*
X92052813Y-35848178D01*
X92052813Y-35848178D02*
X92187500Y-35713491D01*
X92187500Y-35713491D02*
X92295250Y-35659616D01*
X92295250Y-35659616D02*
X92402999Y-35659616D01*
X92402999Y-35659616D02*
X92483812Y-35686553D01*
X92483812Y-35686553D02*
X92618499Y-35767366D01*
X92618499Y-35767366D02*
X92699311Y-35848178D01*
X92699311Y-35848178D02*
X92780123Y-35982865D01*
X92780123Y-35982865D02*
X92807060Y-36063677D01*
X92807060Y-36063677D02*
X92807060Y-36171427D01*
X92807060Y-36171427D02*
X92753186Y-36279176D01*
X92753186Y-36279176D02*
X92618499Y-36413863D01*
X93453558Y-35471054D02*
X93453558Y-35524929D01*
X93453558Y-35524929D02*
X93399683Y-35632679D01*
X93399683Y-35632679D02*
X93345808Y-35686553D01*
X93345808Y-35686553D02*
X93238059Y-35740428D01*
X93238059Y-35740428D02*
X93130309Y-35740428D01*
X93130309Y-35740428D02*
X93049497Y-35713491D01*
X93049497Y-35713491D02*
X92914810Y-35632679D01*
X92914810Y-35632679D02*
X92833998Y-35551866D01*
X92833998Y-35551866D02*
X92753186Y-35417179D01*
X92753186Y-35417179D02*
X92726248Y-35336367D01*
X92726248Y-35336367D02*
X92726248Y-35228618D01*
X92726248Y-35228618D02*
X92780123Y-35120868D01*
X92780123Y-35120868D02*
X92833998Y-35066993D01*
X92833998Y-35066993D02*
X92941747Y-35013118D01*
X92941747Y-35013118D02*
X92995622Y-35013118D01*
X93669057Y-35471054D02*
X94100056Y-35040056D01*
X93534370Y-34366621D02*
X94288618Y-34743744D01*
X94288618Y-34743744D02*
X93911494Y-33989497D01*
X94988990Y-34043372D02*
X94531054Y-33962560D01*
X94665741Y-34366621D02*
X94100056Y-33800935D01*
X94100056Y-33800935D02*
X94315555Y-33585436D01*
X94315555Y-33585436D02*
X94396367Y-33558499D01*
X94396367Y-33558499D02*
X94450242Y-33558499D01*
X94450242Y-33558499D02*
X94531054Y-33585436D01*
X94531054Y-33585436D02*
X94611866Y-33666248D01*
X94611866Y-33666248D02*
X94638804Y-33747061D01*
X94638804Y-33747061D02*
X94638804Y-33800935D01*
X94638804Y-33800935D02*
X94611866Y-33881748D01*
X94611866Y-33881748D02*
X94396367Y-34097247D01*
X94935115Y-33504624D02*
X95123677Y-33316062D01*
X95500800Y-33531561D02*
X95231426Y-33800935D01*
X95231426Y-33800935D02*
X94665741Y-33235250D01*
X94665741Y-33235250D02*
X94935115Y-32965876D01*
X95635488Y-32804251D02*
X95446926Y-32992813D01*
X95743237Y-33289125D02*
X95177552Y-32723439D01*
X95177552Y-32723439D02*
X95446926Y-32454065D01*
X91876435Y-28328431D02*
X91795623Y-28355368D01*
X91795623Y-28355368D02*
X91714811Y-28436180D01*
X91714811Y-28436180D02*
X91660936Y-28543930D01*
X91660936Y-28543930D02*
X91660936Y-28651680D01*
X91660936Y-28651680D02*
X91687873Y-28732492D01*
X91687873Y-28732492D02*
X91768685Y-28867179D01*
X91768685Y-28867179D02*
X91849498Y-28947991D01*
X91849498Y-28947991D02*
X91984185Y-29028803D01*
X91984185Y-29028803D02*
X92064997Y-29055741D01*
X92064997Y-29055741D02*
X92172746Y-29055741D01*
X92172746Y-29055741D02*
X92280496Y-29001866D01*
X92280496Y-29001866D02*
X92334371Y-28947991D01*
X92334371Y-28947991D02*
X92388246Y-28840241D01*
X92388246Y-28840241D02*
X92388246Y-28786367D01*
X92388246Y-28786367D02*
X92199684Y-28597805D01*
X92199684Y-28597805D02*
X92091934Y-28705554D01*
X92684557Y-28597805D02*
X92118872Y-28032119D01*
X92118872Y-28032119D02*
X93007806Y-28274556D01*
X93007806Y-28274556D02*
X92442120Y-27708871D01*
X93277180Y-28005182D02*
X92711494Y-27439497D01*
X92711494Y-27439497D02*
X92846181Y-27304810D01*
X92846181Y-27304810D02*
X92953931Y-27250935D01*
X92953931Y-27250935D02*
X93061680Y-27250935D01*
X93061680Y-27250935D02*
X93142493Y-27277872D01*
X93142493Y-27277872D02*
X93277180Y-27358685D01*
X93277180Y-27358685D02*
X93357992Y-27439497D01*
X93357992Y-27439497D02*
X93438804Y-27574184D01*
X93438804Y-27574184D02*
X93465741Y-27654996D01*
X93465741Y-27654996D02*
X93465741Y-27762746D01*
X93465741Y-27762746D02*
X93411867Y-27870495D01*
X93411867Y-27870495D02*
X93277180Y-28005182D01*
X91941873Y-41971240D02*
X92211247Y-41701866D01*
X92049623Y-42186739D02*
X91672499Y-41432492D01*
X91672499Y-41432492D02*
X92426746Y-41809615D01*
X92372871Y-40785994D02*
X92292059Y-40812932D01*
X92292059Y-40812932D02*
X92211247Y-40893744D01*
X92211247Y-40893744D02*
X92157372Y-41001494D01*
X92157372Y-41001494D02*
X92157372Y-41109243D01*
X92157372Y-41109243D02*
X92184310Y-41190055D01*
X92184310Y-41190055D02*
X92265122Y-41324742D01*
X92265122Y-41324742D02*
X92345934Y-41405555D01*
X92345934Y-41405555D02*
X92480621Y-41486367D01*
X92480621Y-41486367D02*
X92561433Y-41513304D01*
X92561433Y-41513304D02*
X92669183Y-41513304D01*
X92669183Y-41513304D02*
X92776932Y-41459429D01*
X92776932Y-41459429D02*
X92830807Y-41405555D01*
X92830807Y-41405555D02*
X92884682Y-41297805D01*
X92884682Y-41297805D02*
X92884682Y-41243930D01*
X92884682Y-41243930D02*
X92696120Y-41055368D01*
X92696120Y-41055368D02*
X92588371Y-41163118D01*
X93180993Y-41055368D02*
X92615308Y-40489683D01*
X92615308Y-40489683D02*
X93504242Y-40732120D01*
X93504242Y-40732120D02*
X92938557Y-40166434D01*
X93773616Y-40462746D02*
X93207931Y-39897060D01*
X93207931Y-39897060D02*
X93342618Y-39762373D01*
X93342618Y-39762373D02*
X93450367Y-39708498D01*
X93450367Y-39708498D02*
X93558117Y-39708498D01*
X93558117Y-39708498D02*
X93638929Y-39735436D01*
X93638929Y-39735436D02*
X93773616Y-39816248D01*
X93773616Y-39816248D02*
X93854428Y-39897060D01*
X93854428Y-39897060D02*
X93935241Y-40031747D01*
X93935241Y-40031747D02*
X93962178Y-40112560D01*
X93962178Y-40112560D02*
X93962178Y-40220309D01*
X93962178Y-40220309D02*
X93908303Y-40328059D01*
X93908303Y-40328059D02*
X93773616Y-40462746D01*
X66303372Y-33381494D02*
X66222560Y-33408431D01*
X66222560Y-33408431D02*
X66141748Y-33489243D01*
X66141748Y-33489243D02*
X66087873Y-33596993D01*
X66087873Y-33596993D02*
X66087873Y-33704742D01*
X66087873Y-33704742D02*
X66114810Y-33785555D01*
X66114810Y-33785555D02*
X66195623Y-33920242D01*
X66195623Y-33920242D02*
X66276435Y-34001054D01*
X66276435Y-34001054D02*
X66411122Y-34081866D01*
X66411122Y-34081866D02*
X66491934Y-34108803D01*
X66491934Y-34108803D02*
X66599684Y-34108803D01*
X66599684Y-34108803D02*
X66707433Y-34054929D01*
X66707433Y-34054929D02*
X66761308Y-34001054D01*
X66761308Y-34001054D02*
X66815183Y-33893304D01*
X66815183Y-33893304D02*
X66815183Y-33839429D01*
X66815183Y-33839429D02*
X66626621Y-33650868D01*
X66626621Y-33650868D02*
X66518871Y-33758617D01*
X67111494Y-33650868D02*
X66545809Y-33085182D01*
X66545809Y-33085182D02*
X66761308Y-32869683D01*
X66761308Y-32869683D02*
X66842120Y-32842746D01*
X66842120Y-32842746D02*
X66895995Y-32842746D01*
X66895995Y-32842746D02*
X66976807Y-32869683D01*
X66976807Y-32869683D02*
X67057619Y-32950495D01*
X67057619Y-32950495D02*
X67084557Y-33031307D01*
X67084557Y-33031307D02*
X67084557Y-33085182D01*
X67084557Y-33085182D02*
X67057619Y-33165994D01*
X67057619Y-33165994D02*
X66842120Y-33381494D01*
X67057619Y-32573372D02*
X67407806Y-32223185D01*
X67407806Y-32223185D02*
X67434743Y-32627246D01*
X67434743Y-32627246D02*
X67515555Y-32546434D01*
X67515555Y-32546434D02*
X67596367Y-32519497D01*
X67596367Y-32519497D02*
X67650242Y-32519497D01*
X67650242Y-32519497D02*
X67731054Y-32546434D01*
X67731054Y-32546434D02*
X67865741Y-32681121D01*
X67865741Y-32681121D02*
X67892679Y-32761933D01*
X67892679Y-32761933D02*
X67892679Y-32815808D01*
X67892679Y-32815808D02*
X67865741Y-32896620D01*
X67865741Y-32896620D02*
X67704117Y-33058245D01*
X67704117Y-33058245D02*
X67623305Y-33085182D01*
X67623305Y-33085182D02*
X67569430Y-33085182D01*
X72280475Y-73754200D02*
X72394761Y-73792295D01*
X72394761Y-73792295D02*
X72585237Y-73792295D01*
X72585237Y-73792295D02*
X72661428Y-73754200D01*
X72661428Y-73754200D02*
X72699523Y-73716104D01*
X72699523Y-73716104D02*
X72737618Y-73639914D01*
X72737618Y-73639914D02*
X72737618Y-73563723D01*
X72737618Y-73563723D02*
X72699523Y-73487533D01*
X72699523Y-73487533D02*
X72661428Y-73449438D01*
X72661428Y-73449438D02*
X72585237Y-73411342D01*
X72585237Y-73411342D02*
X72432856Y-73373247D01*
X72432856Y-73373247D02*
X72356666Y-73335152D01*
X72356666Y-73335152D02*
X72318571Y-73297057D01*
X72318571Y-73297057D02*
X72280475Y-73220866D01*
X72280475Y-73220866D02*
X72280475Y-73144676D01*
X72280475Y-73144676D02*
X72318571Y-73068485D01*
X72318571Y-73068485D02*
X72356666Y-73030390D01*
X72356666Y-73030390D02*
X72432856Y-72992295D01*
X72432856Y-72992295D02*
X72623333Y-72992295D01*
X72623333Y-72992295D02*
X72737618Y-73030390D01*
X73004285Y-72992295D02*
X73194761Y-73792295D01*
X73194761Y-73792295D02*
X73347142Y-73220866D01*
X73347142Y-73220866D02*
X73499523Y-73792295D01*
X73499523Y-73792295D02*
X73690000Y-72992295D01*
X74451905Y-73716104D02*
X74413809Y-73754200D01*
X74413809Y-73754200D02*
X74299524Y-73792295D01*
X74299524Y-73792295D02*
X74223333Y-73792295D01*
X74223333Y-73792295D02*
X74109047Y-73754200D01*
X74109047Y-73754200D02*
X74032857Y-73678009D01*
X74032857Y-73678009D02*
X73994762Y-73601819D01*
X73994762Y-73601819D02*
X73956666Y-73449438D01*
X73956666Y-73449438D02*
X73956666Y-73335152D01*
X73956666Y-73335152D02*
X73994762Y-73182771D01*
X73994762Y-73182771D02*
X74032857Y-73106580D01*
X74032857Y-73106580D02*
X74109047Y-73030390D01*
X74109047Y-73030390D02*
X74223333Y-72992295D01*
X74223333Y-72992295D02*
X74299524Y-72992295D01*
X74299524Y-72992295D02*
X74413809Y-73030390D01*
X74413809Y-73030390D02*
X74451905Y-73068485D01*
X75175714Y-73792295D02*
X74794762Y-73792295D01*
X74794762Y-73792295D02*
X74794762Y-72992295D01*
X75442381Y-73792295D02*
X75442381Y-72992295D01*
X75899524Y-73792295D02*
X75556666Y-73335152D01*
X75899524Y-72992295D02*
X75442381Y-73449438D01*
X91887998Y-46350868D02*
X91807185Y-46377805D01*
X91807185Y-46377805D02*
X91726373Y-46458618D01*
X91726373Y-46458618D02*
X91672498Y-46566367D01*
X91672498Y-46566367D02*
X91672498Y-46674117D01*
X91672498Y-46674117D02*
X91699436Y-46754929D01*
X91699436Y-46754929D02*
X91780248Y-46889616D01*
X91780248Y-46889616D02*
X91861060Y-46970428D01*
X91861060Y-46970428D02*
X91995747Y-47051241D01*
X91995747Y-47051241D02*
X92076560Y-47078178D01*
X92076560Y-47078178D02*
X92184309Y-47078178D01*
X92184309Y-47078178D02*
X92292059Y-47024303D01*
X92292059Y-47024303D02*
X92345934Y-46970428D01*
X92345934Y-46970428D02*
X92399808Y-46862679D01*
X92399808Y-46862679D02*
X92399808Y-46808804D01*
X92399808Y-46808804D02*
X92211247Y-46620242D01*
X92211247Y-46620242D02*
X92103497Y-46727992D01*
X92696120Y-46620242D02*
X92130434Y-46054557D01*
X92130434Y-46054557D02*
X92345934Y-45839057D01*
X92345934Y-45839057D02*
X92426746Y-45812120D01*
X92426746Y-45812120D02*
X92480621Y-45812120D01*
X92480621Y-45812120D02*
X92561433Y-45839057D01*
X92561433Y-45839057D02*
X92642245Y-45919870D01*
X92642245Y-45919870D02*
X92669182Y-46000682D01*
X92669182Y-46000682D02*
X92669182Y-46054557D01*
X92669182Y-46054557D02*
X92642245Y-46135369D01*
X92642245Y-46135369D02*
X92426746Y-46350868D01*
X92723057Y-45569683D02*
X92723057Y-45515809D01*
X92723057Y-45515809D02*
X92749995Y-45434996D01*
X92749995Y-45434996D02*
X92884682Y-45300309D01*
X92884682Y-45300309D02*
X92965494Y-45273372D01*
X92965494Y-45273372D02*
X93019369Y-45273372D01*
X93019369Y-45273372D02*
X93100181Y-45300309D01*
X93100181Y-45300309D02*
X93154056Y-45354184D01*
X93154056Y-45354184D02*
X93207930Y-45461934D01*
X93207930Y-45461934D02*
X93207930Y-46108431D01*
X93207930Y-46108431D02*
X93558117Y-45758245D01*
X93477305Y-44707686D02*
X93369555Y-44815436D01*
X93369555Y-44815436D02*
X93342618Y-44896248D01*
X93342618Y-44896248D02*
X93342618Y-44950123D01*
X93342618Y-44950123D02*
X93369555Y-45084810D01*
X93369555Y-45084810D02*
X93450367Y-45219497D01*
X93450367Y-45219497D02*
X93665866Y-45434996D01*
X93665866Y-45434996D02*
X93746679Y-45461934D01*
X93746679Y-45461934D02*
X93800553Y-45461934D01*
X93800553Y-45461934D02*
X93881366Y-45434996D01*
X93881366Y-45434996D02*
X93989115Y-45327247D01*
X93989115Y-45327247D02*
X94016053Y-45246434D01*
X94016053Y-45246434D02*
X94016053Y-45192560D01*
X94016053Y-45192560D02*
X93989115Y-45111747D01*
X93989115Y-45111747D02*
X93854428Y-44977060D01*
X93854428Y-44977060D02*
X93773616Y-44950123D01*
X93773616Y-44950123D02*
X93719741Y-44950123D01*
X93719741Y-44950123D02*
X93638929Y-44977060D01*
X93638929Y-44977060D02*
X93531179Y-45084810D01*
X93531179Y-45084810D02*
X93504242Y-45165622D01*
X93504242Y-45165622D02*
X93504242Y-45219497D01*
X93504242Y-45219497D02*
X93531179Y-45300309D01*
X91887998Y-64130868D02*
X91807185Y-64157805D01*
X91807185Y-64157805D02*
X91726373Y-64238618D01*
X91726373Y-64238618D02*
X91672498Y-64346367D01*
X91672498Y-64346367D02*
X91672498Y-64454117D01*
X91672498Y-64454117D02*
X91699436Y-64534929D01*
X91699436Y-64534929D02*
X91780248Y-64669616D01*
X91780248Y-64669616D02*
X91861060Y-64750428D01*
X91861060Y-64750428D02*
X91995747Y-64831241D01*
X91995747Y-64831241D02*
X92076560Y-64858178D01*
X92076560Y-64858178D02*
X92184309Y-64858178D01*
X92184309Y-64858178D02*
X92292059Y-64804303D01*
X92292059Y-64804303D02*
X92345934Y-64750428D01*
X92345934Y-64750428D02*
X92399808Y-64642679D01*
X92399808Y-64642679D02*
X92399808Y-64588804D01*
X92399808Y-64588804D02*
X92211247Y-64400242D01*
X92211247Y-64400242D02*
X92103497Y-64507992D01*
X92696120Y-64400242D02*
X92130434Y-63834557D01*
X92130434Y-63834557D02*
X92345934Y-63619057D01*
X92345934Y-63619057D02*
X92426746Y-63592120D01*
X92426746Y-63592120D02*
X92480621Y-63592120D01*
X92480621Y-63592120D02*
X92561433Y-63619057D01*
X92561433Y-63619057D02*
X92642245Y-63699870D01*
X92642245Y-63699870D02*
X92669182Y-63780682D01*
X92669182Y-63780682D02*
X92669182Y-63834557D01*
X92669182Y-63834557D02*
X92642245Y-63915369D01*
X92642245Y-63915369D02*
X92426746Y-64130868D01*
X93558117Y-63538245D02*
X93234868Y-63861494D01*
X93396492Y-63699870D02*
X92830807Y-63134184D01*
X92830807Y-63134184D02*
X92857744Y-63268871D01*
X92857744Y-63268871D02*
X92857744Y-63376621D01*
X92857744Y-63376621D02*
X92830807Y-63457433D01*
X93558117Y-62891747D02*
X93477305Y-62918685D01*
X93477305Y-62918685D02*
X93423430Y-62918685D01*
X93423430Y-62918685D02*
X93342618Y-62891747D01*
X93342618Y-62891747D02*
X93315680Y-62864810D01*
X93315680Y-62864810D02*
X93288743Y-62783998D01*
X93288743Y-62783998D02*
X93288743Y-62730123D01*
X93288743Y-62730123D02*
X93315680Y-62649311D01*
X93315680Y-62649311D02*
X93423430Y-62541561D01*
X93423430Y-62541561D02*
X93504242Y-62514624D01*
X93504242Y-62514624D02*
X93558117Y-62514624D01*
X93558117Y-62514624D02*
X93638929Y-62541561D01*
X93638929Y-62541561D02*
X93665866Y-62568499D01*
X93665866Y-62568499D02*
X93692804Y-62649311D01*
X93692804Y-62649311D02*
X93692804Y-62703186D01*
X93692804Y-62703186D02*
X93665866Y-62783998D01*
X93665866Y-62783998D02*
X93558117Y-62891747D01*
X93558117Y-62891747D02*
X93531179Y-62972560D01*
X93531179Y-62972560D02*
X93531179Y-63026434D01*
X93531179Y-63026434D02*
X93558117Y-63107247D01*
X93558117Y-63107247D02*
X93665866Y-63214996D01*
X93665866Y-63214996D02*
X93746679Y-63241934D01*
X93746679Y-63241934D02*
X93800553Y-63241934D01*
X93800553Y-63241934D02*
X93881366Y-63214996D01*
X93881366Y-63214996D02*
X93989115Y-63107247D01*
X93989115Y-63107247D02*
X94016053Y-63026434D01*
X94016053Y-63026434D02*
X94016053Y-62972560D01*
X94016053Y-62972560D02*
X93989115Y-62891747D01*
X93989115Y-62891747D02*
X93881366Y-62783998D01*
X93881366Y-62783998D02*
X93800553Y-62757060D01*
X93800553Y-62757060D02*
X93746679Y-62757060D01*
X93746679Y-62757060D02*
X93665866Y-62783998D01*
X66303372Y-23221494D02*
X66222560Y-23248431D01*
X66222560Y-23248431D02*
X66141748Y-23329243D01*
X66141748Y-23329243D02*
X66087873Y-23436993D01*
X66087873Y-23436993D02*
X66087873Y-23544742D01*
X66087873Y-23544742D02*
X66114810Y-23625555D01*
X66114810Y-23625555D02*
X66195623Y-23760242D01*
X66195623Y-23760242D02*
X66276435Y-23841054D01*
X66276435Y-23841054D02*
X66411122Y-23921866D01*
X66411122Y-23921866D02*
X66491934Y-23948803D01*
X66491934Y-23948803D02*
X66599684Y-23948803D01*
X66599684Y-23948803D02*
X66707433Y-23894929D01*
X66707433Y-23894929D02*
X66761308Y-23841054D01*
X66761308Y-23841054D02*
X66815183Y-23733304D01*
X66815183Y-23733304D02*
X66815183Y-23679429D01*
X66815183Y-23679429D02*
X66626621Y-23490868D01*
X66626621Y-23490868D02*
X66518871Y-23598617D01*
X67111494Y-23490868D02*
X66545809Y-22925182D01*
X66545809Y-22925182D02*
X66761308Y-22709683D01*
X66761308Y-22709683D02*
X66842120Y-22682746D01*
X66842120Y-22682746D02*
X66895995Y-22682746D01*
X66895995Y-22682746D02*
X66976807Y-22709683D01*
X66976807Y-22709683D02*
X67057619Y-22790495D01*
X67057619Y-22790495D02*
X67084557Y-22871307D01*
X67084557Y-22871307D02*
X67084557Y-22925182D01*
X67084557Y-22925182D02*
X67057619Y-23005994D01*
X67057619Y-23005994D02*
X66842120Y-23221494D01*
X67219244Y-22251747D02*
X67273119Y-22197872D01*
X67273119Y-22197872D02*
X67353931Y-22170935D01*
X67353931Y-22170935D02*
X67407806Y-22170935D01*
X67407806Y-22170935D02*
X67488618Y-22197872D01*
X67488618Y-22197872D02*
X67623305Y-22278685D01*
X67623305Y-22278685D02*
X67757992Y-22413372D01*
X67757992Y-22413372D02*
X67838804Y-22548059D01*
X67838804Y-22548059D02*
X67865741Y-22628871D01*
X67865741Y-22628871D02*
X67865741Y-22682746D01*
X67865741Y-22682746D02*
X67838804Y-22763558D01*
X67838804Y-22763558D02*
X67784929Y-22817433D01*
X67784929Y-22817433D02*
X67704117Y-22844370D01*
X67704117Y-22844370D02*
X67650242Y-22844370D01*
X67650242Y-22844370D02*
X67569430Y-22817433D01*
X67569430Y-22817433D02*
X67434743Y-22736620D01*
X67434743Y-22736620D02*
X67300056Y-22601933D01*
X67300056Y-22601933D02*
X67219244Y-22467246D01*
X67219244Y-22467246D02*
X67192306Y-22386434D01*
X67192306Y-22386434D02*
X67192306Y-22332559D01*
X67192306Y-22332559D02*
X67219244Y-22251747D01*
X91712407Y-31188584D02*
X92062593Y-30838398D01*
X92062593Y-30838398D02*
X92089531Y-31242459D01*
X92089531Y-31242459D02*
X92170343Y-31161646D01*
X92170343Y-31161646D02*
X92251155Y-31134709D01*
X92251155Y-31134709D02*
X92305030Y-31134709D01*
X92305030Y-31134709D02*
X92385842Y-31161646D01*
X92385842Y-31161646D02*
X92520529Y-31296333D01*
X92520529Y-31296333D02*
X92547467Y-31377146D01*
X92547467Y-31377146D02*
X92547467Y-31431020D01*
X92547467Y-31431020D02*
X92520529Y-31511833D01*
X92520529Y-31511833D02*
X92358905Y-31673457D01*
X92358905Y-31673457D02*
X92278093Y-31700394D01*
X92278093Y-31700394D02*
X92224218Y-31700394D01*
X92224218Y-30676773D02*
X92978465Y-31053897D01*
X92978465Y-31053897D02*
X92601342Y-30299649D01*
X92736028Y-30164963D02*
X93086215Y-29814776D01*
X93086215Y-29814776D02*
X93113152Y-30218837D01*
X93113152Y-30218837D02*
X93193964Y-30138025D01*
X93193964Y-30138025D02*
X93274776Y-30111088D01*
X93274776Y-30111088D02*
X93328651Y-30111088D01*
X93328651Y-30111088D02*
X93409464Y-30138025D01*
X93409464Y-30138025D02*
X93544151Y-30272712D01*
X93544151Y-30272712D02*
X93571088Y-30353524D01*
X93571088Y-30353524D02*
X93571088Y-30407399D01*
X93571088Y-30407399D02*
X93544151Y-30488211D01*
X93544151Y-30488211D02*
X93382526Y-30649836D01*
X93382526Y-30649836D02*
X93301714Y-30676773D01*
X93301714Y-30676773D02*
X93247839Y-30676773D01*
X93813525Y-30326587D02*
X94244523Y-29895588D01*
X94029024Y-29410715D02*
X94217586Y-29222153D01*
X94594709Y-29437652D02*
X94325335Y-29707026D01*
X94325335Y-29707026D02*
X93759650Y-29141341D01*
X93759650Y-29141341D02*
X94029024Y-28871967D01*
X94837146Y-29195215D02*
X94271461Y-28629530D01*
X94271461Y-28629530D02*
X95160395Y-28871967D01*
X95160395Y-28871967D02*
X94594710Y-28306281D01*
X65633998Y-61590868D02*
X65553185Y-61617805D01*
X65553185Y-61617805D02*
X65472373Y-61698618D01*
X65472373Y-61698618D02*
X65418498Y-61806367D01*
X65418498Y-61806367D02*
X65418498Y-61914117D01*
X65418498Y-61914117D02*
X65445436Y-61994929D01*
X65445436Y-61994929D02*
X65526248Y-62129616D01*
X65526248Y-62129616D02*
X65607060Y-62210428D01*
X65607060Y-62210428D02*
X65741747Y-62291241D01*
X65741747Y-62291241D02*
X65822560Y-62318178D01*
X65822560Y-62318178D02*
X65930309Y-62318178D01*
X65930309Y-62318178D02*
X66038059Y-62264303D01*
X66038059Y-62264303D02*
X66091934Y-62210428D01*
X66091934Y-62210428D02*
X66145808Y-62102679D01*
X66145808Y-62102679D02*
X66145808Y-62048804D01*
X66145808Y-62048804D02*
X65957247Y-61860242D01*
X65957247Y-61860242D02*
X65849497Y-61967992D01*
X66442120Y-61860242D02*
X65876434Y-61294557D01*
X65876434Y-61294557D02*
X66091934Y-61079057D01*
X66091934Y-61079057D02*
X66172746Y-61052120D01*
X66172746Y-61052120D02*
X66226621Y-61052120D01*
X66226621Y-61052120D02*
X66307433Y-61079057D01*
X66307433Y-61079057D02*
X66388245Y-61159870D01*
X66388245Y-61159870D02*
X66415182Y-61240682D01*
X66415182Y-61240682D02*
X66415182Y-61294557D01*
X66415182Y-61294557D02*
X66388245Y-61375369D01*
X66388245Y-61375369D02*
X66172746Y-61590868D01*
X67304117Y-60998245D02*
X66980868Y-61321494D01*
X67142492Y-61159870D02*
X66576807Y-60594184D01*
X66576807Y-60594184D02*
X66603744Y-60728871D01*
X66603744Y-60728871D02*
X66603744Y-60836621D01*
X66603744Y-60836621D02*
X66576807Y-60917433D01*
X67007805Y-60270935D02*
X67007805Y-60217060D01*
X67007805Y-60217060D02*
X67034743Y-60136248D01*
X67034743Y-60136248D02*
X67169430Y-60001561D01*
X67169430Y-60001561D02*
X67250242Y-59974624D01*
X67250242Y-59974624D02*
X67304117Y-59974624D01*
X67304117Y-59974624D02*
X67384929Y-60001561D01*
X67384929Y-60001561D02*
X67438804Y-60055436D01*
X67438804Y-60055436D02*
X67492679Y-60163186D01*
X67492679Y-60163186D02*
X67492679Y-60809683D01*
X67492679Y-60809683D02*
X67842865Y-60459497D01*
X91887998Y-43820868D02*
X91807185Y-43847805D01*
X91807185Y-43847805D02*
X91726373Y-43928618D01*
X91726373Y-43928618D02*
X91672498Y-44036367D01*
X91672498Y-44036367D02*
X91672498Y-44144117D01*
X91672498Y-44144117D02*
X91699436Y-44224929D01*
X91699436Y-44224929D02*
X91780248Y-44359616D01*
X91780248Y-44359616D02*
X91861060Y-44440428D01*
X91861060Y-44440428D02*
X91995747Y-44521241D01*
X91995747Y-44521241D02*
X92076560Y-44548178D01*
X92076560Y-44548178D02*
X92184309Y-44548178D01*
X92184309Y-44548178D02*
X92292059Y-44494303D01*
X92292059Y-44494303D02*
X92345934Y-44440428D01*
X92345934Y-44440428D02*
X92399808Y-44332679D01*
X92399808Y-44332679D02*
X92399808Y-44278804D01*
X92399808Y-44278804D02*
X92211247Y-44090242D01*
X92211247Y-44090242D02*
X92103497Y-44197992D01*
X92696120Y-44090242D02*
X92130434Y-43524557D01*
X92130434Y-43524557D02*
X92345934Y-43309057D01*
X92345934Y-43309057D02*
X92426746Y-43282120D01*
X92426746Y-43282120D02*
X92480621Y-43282120D01*
X92480621Y-43282120D02*
X92561433Y-43309057D01*
X92561433Y-43309057D02*
X92642245Y-43389870D01*
X92642245Y-43389870D02*
X92669182Y-43470682D01*
X92669182Y-43470682D02*
X92669182Y-43524557D01*
X92669182Y-43524557D02*
X92642245Y-43605369D01*
X92642245Y-43605369D02*
X92426746Y-43820868D01*
X92723057Y-43039683D02*
X92723057Y-42985809D01*
X92723057Y-42985809D02*
X92749995Y-42904996D01*
X92749995Y-42904996D02*
X92884682Y-42770309D01*
X92884682Y-42770309D02*
X92965494Y-42743372D01*
X92965494Y-42743372D02*
X93019369Y-42743372D01*
X93019369Y-42743372D02*
X93100181Y-42770309D01*
X93100181Y-42770309D02*
X93154056Y-42824184D01*
X93154056Y-42824184D02*
X93207930Y-42931934D01*
X93207930Y-42931934D02*
X93207930Y-43578431D01*
X93207930Y-43578431D02*
X93558117Y-43228245D01*
X93180993Y-42473998D02*
X93558117Y-42096874D01*
X93558117Y-42096874D02*
X93881366Y-42904996D01*
X91710749Y-26300242D02*
X92464996Y-26677366D01*
X92464996Y-26677366D02*
X92087873Y-25923118D01*
X92788245Y-26300242D02*
X92895995Y-26246367D01*
X92895995Y-26246367D02*
X93030682Y-26111680D01*
X93030682Y-26111680D02*
X93057619Y-26030868D01*
X93057619Y-26030868D02*
X93057619Y-25976993D01*
X93057619Y-25976993D02*
X93030682Y-25896181D01*
X93030682Y-25896181D02*
X92976807Y-25842306D01*
X92976807Y-25842306D02*
X92895995Y-25815369D01*
X92895995Y-25815369D02*
X92842120Y-25815369D01*
X92842120Y-25815369D02*
X92761308Y-25842306D01*
X92761308Y-25842306D02*
X92626621Y-25923118D01*
X92626621Y-25923118D02*
X92545808Y-25950056D01*
X92545808Y-25950056D02*
X92491934Y-25950056D01*
X92491934Y-25950056D02*
X92411121Y-25923118D01*
X92411121Y-25923118D02*
X92357247Y-25869244D01*
X92357247Y-25869244D02*
X92330309Y-25788431D01*
X92330309Y-25788431D02*
X92330309Y-25734557D01*
X92330309Y-25734557D02*
X92357247Y-25653744D01*
X92357247Y-25653744D02*
X92491934Y-25519057D01*
X92491934Y-25519057D02*
X92599683Y-25465183D01*
X93219244Y-25384370D02*
X93488618Y-25653744D01*
X92734370Y-25276621D02*
X93219244Y-25384370D01*
X93219244Y-25384370D02*
X93111494Y-24899497D01*
X93811866Y-25276621D02*
X93919616Y-25222746D01*
X93919616Y-25222746D02*
X94054303Y-25088059D01*
X94054303Y-25088059D02*
X94081240Y-25007247D01*
X94081240Y-25007247D02*
X94081240Y-24953372D01*
X94081240Y-24953372D02*
X94054303Y-24872560D01*
X94054303Y-24872560D02*
X94000428Y-24818685D01*
X94000428Y-24818685D02*
X93919616Y-24791748D01*
X93919616Y-24791748D02*
X93865741Y-24791748D01*
X93865741Y-24791748D02*
X93784929Y-24818685D01*
X93784929Y-24818685D02*
X93650242Y-24899497D01*
X93650242Y-24899497D02*
X93569430Y-24926435D01*
X93569430Y-24926435D02*
X93515555Y-24926435D01*
X93515555Y-24926435D02*
X93434743Y-24899497D01*
X93434743Y-24899497D02*
X93380868Y-24845622D01*
X93380868Y-24845622D02*
X93353930Y-24764810D01*
X93353930Y-24764810D02*
X93353930Y-24710935D01*
X93353930Y-24710935D02*
X93380868Y-24630123D01*
X93380868Y-24630123D02*
X93515555Y-24495436D01*
X93515555Y-24495436D02*
X93623304Y-24441561D01*
X65633998Y-59050868D02*
X65553185Y-59077805D01*
X65553185Y-59077805D02*
X65472373Y-59158618D01*
X65472373Y-59158618D02*
X65418498Y-59266367D01*
X65418498Y-59266367D02*
X65418498Y-59374117D01*
X65418498Y-59374117D02*
X65445436Y-59454929D01*
X65445436Y-59454929D02*
X65526248Y-59589616D01*
X65526248Y-59589616D02*
X65607060Y-59670428D01*
X65607060Y-59670428D02*
X65741747Y-59751241D01*
X65741747Y-59751241D02*
X65822560Y-59778178D01*
X65822560Y-59778178D02*
X65930309Y-59778178D01*
X65930309Y-59778178D02*
X66038059Y-59724303D01*
X66038059Y-59724303D02*
X66091934Y-59670428D01*
X66091934Y-59670428D02*
X66145808Y-59562679D01*
X66145808Y-59562679D02*
X66145808Y-59508804D01*
X66145808Y-59508804D02*
X65957247Y-59320242D01*
X65957247Y-59320242D02*
X65849497Y-59427992D01*
X66442120Y-59320242D02*
X65876434Y-58754557D01*
X65876434Y-58754557D02*
X66091934Y-58539057D01*
X66091934Y-58539057D02*
X66172746Y-58512120D01*
X66172746Y-58512120D02*
X66226621Y-58512120D01*
X66226621Y-58512120D02*
X66307433Y-58539057D01*
X66307433Y-58539057D02*
X66388245Y-58619870D01*
X66388245Y-58619870D02*
X66415182Y-58700682D01*
X66415182Y-58700682D02*
X66415182Y-58754557D01*
X66415182Y-58754557D02*
X66388245Y-58835369D01*
X66388245Y-58835369D02*
X66172746Y-59050868D01*
X67304117Y-58458245D02*
X66980868Y-58781494D01*
X67142492Y-58619870D02*
X66576807Y-58054184D01*
X66576807Y-58054184D02*
X66603744Y-58188871D01*
X66603744Y-58188871D02*
X66603744Y-58296621D01*
X66603744Y-58296621D02*
X66576807Y-58377433D01*
X67842865Y-57919497D02*
X67519616Y-58242746D01*
X67681240Y-58081121D02*
X67115555Y-57515436D01*
X67115555Y-57515436D02*
X67142492Y-57650123D01*
X67142492Y-57650123D02*
X67142492Y-57757873D01*
X67142492Y-57757873D02*
X67115555Y-57838685D01*
X91876435Y-53728431D02*
X91795623Y-53755368D01*
X91795623Y-53755368D02*
X91714811Y-53836180D01*
X91714811Y-53836180D02*
X91660936Y-53943930D01*
X91660936Y-53943930D02*
X91660936Y-54051680D01*
X91660936Y-54051680D02*
X91687873Y-54132492D01*
X91687873Y-54132492D02*
X91768685Y-54267179D01*
X91768685Y-54267179D02*
X91849498Y-54347991D01*
X91849498Y-54347991D02*
X91984185Y-54428803D01*
X91984185Y-54428803D02*
X92064997Y-54455741D01*
X92064997Y-54455741D02*
X92172746Y-54455741D01*
X92172746Y-54455741D02*
X92280496Y-54401866D01*
X92280496Y-54401866D02*
X92334371Y-54347991D01*
X92334371Y-54347991D02*
X92388246Y-54240241D01*
X92388246Y-54240241D02*
X92388246Y-54186367D01*
X92388246Y-54186367D02*
X92199684Y-53997805D01*
X92199684Y-53997805D02*
X92091934Y-54105554D01*
X92684557Y-53997805D02*
X92118872Y-53432119D01*
X92118872Y-53432119D02*
X93007806Y-53674556D01*
X93007806Y-53674556D02*
X92442120Y-53108871D01*
X93277180Y-53405182D02*
X92711494Y-52839497D01*
X92711494Y-52839497D02*
X92846181Y-52704810D01*
X92846181Y-52704810D02*
X92953931Y-52650935D01*
X92953931Y-52650935D02*
X93061680Y-52650935D01*
X93061680Y-52650935D02*
X93142493Y-52677872D01*
X93142493Y-52677872D02*
X93277180Y-52758685D01*
X93277180Y-52758685D02*
X93357992Y-52839497D01*
X93357992Y-52839497D02*
X93438804Y-52974184D01*
X93438804Y-52974184D02*
X93465741Y-53054996D01*
X93465741Y-53054996D02*
X93465741Y-53162746D01*
X93465741Y-53162746D02*
X93411867Y-53270495D01*
X93411867Y-53270495D02*
X93277180Y-53405182D01*
X91876435Y-66428431D02*
X91795623Y-66455368D01*
X91795623Y-66455368D02*
X91714811Y-66536180D01*
X91714811Y-66536180D02*
X91660936Y-66643930D01*
X91660936Y-66643930D02*
X91660936Y-66751680D01*
X91660936Y-66751680D02*
X91687873Y-66832492D01*
X91687873Y-66832492D02*
X91768685Y-66967179D01*
X91768685Y-66967179D02*
X91849498Y-67047991D01*
X91849498Y-67047991D02*
X91984185Y-67128803D01*
X91984185Y-67128803D02*
X92064997Y-67155741D01*
X92064997Y-67155741D02*
X92172746Y-67155741D01*
X92172746Y-67155741D02*
X92280496Y-67101866D01*
X92280496Y-67101866D02*
X92334371Y-67047991D01*
X92334371Y-67047991D02*
X92388246Y-66940241D01*
X92388246Y-66940241D02*
X92388246Y-66886367D01*
X92388246Y-66886367D02*
X92199684Y-66697805D01*
X92199684Y-66697805D02*
X92091934Y-66805554D01*
X92684557Y-66697805D02*
X92118872Y-66132119D01*
X92118872Y-66132119D02*
X93007806Y-66374556D01*
X93007806Y-66374556D02*
X92442120Y-65808871D01*
X93277180Y-66105182D02*
X92711494Y-65539497D01*
X92711494Y-65539497D02*
X92846181Y-65404810D01*
X92846181Y-65404810D02*
X92953931Y-65350935D01*
X92953931Y-65350935D02*
X93061680Y-65350935D01*
X93061680Y-65350935D02*
X93142493Y-65377872D01*
X93142493Y-65377872D02*
X93277180Y-65458685D01*
X93277180Y-65458685D02*
X93357992Y-65539497D01*
X93357992Y-65539497D02*
X93438804Y-65674184D01*
X93438804Y-65674184D02*
X93465741Y-65754996D01*
X93465741Y-65754996D02*
X93465741Y-65862746D01*
X93465741Y-65862746D02*
X93411867Y-65970495D01*
X93411867Y-65970495D02*
X93277180Y-66105182D01*
X66303372Y-51161494D02*
X66222560Y-51188431D01*
X66222560Y-51188431D02*
X66141748Y-51269243D01*
X66141748Y-51269243D02*
X66087873Y-51376993D01*
X66087873Y-51376993D02*
X66087873Y-51484742D01*
X66087873Y-51484742D02*
X66114810Y-51565555D01*
X66114810Y-51565555D02*
X66195623Y-51700242D01*
X66195623Y-51700242D02*
X66276435Y-51781054D01*
X66276435Y-51781054D02*
X66411122Y-51861866D01*
X66411122Y-51861866D02*
X66491934Y-51888803D01*
X66491934Y-51888803D02*
X66599684Y-51888803D01*
X66599684Y-51888803D02*
X66707433Y-51834929D01*
X66707433Y-51834929D02*
X66761308Y-51781054D01*
X66761308Y-51781054D02*
X66815183Y-51673304D01*
X66815183Y-51673304D02*
X66815183Y-51619429D01*
X66815183Y-51619429D02*
X66626621Y-51430868D01*
X66626621Y-51430868D02*
X66518871Y-51538617D01*
X67111494Y-51430868D02*
X66545809Y-50865182D01*
X66545809Y-50865182D02*
X66761308Y-50649683D01*
X66761308Y-50649683D02*
X66842120Y-50622746D01*
X66842120Y-50622746D02*
X66895995Y-50622746D01*
X66895995Y-50622746D02*
X66976807Y-50649683D01*
X66976807Y-50649683D02*
X67057619Y-50730495D01*
X67057619Y-50730495D02*
X67084557Y-50811307D01*
X67084557Y-50811307D02*
X67084557Y-50865182D01*
X67084557Y-50865182D02*
X67057619Y-50945994D01*
X67057619Y-50945994D02*
X66842120Y-51161494D01*
X67704117Y-50838245D02*
X67811867Y-50730495D01*
X67811867Y-50730495D02*
X67838804Y-50649683D01*
X67838804Y-50649683D02*
X67838804Y-50595808D01*
X67838804Y-50595808D02*
X67811867Y-50461121D01*
X67811867Y-50461121D02*
X67731054Y-50326434D01*
X67731054Y-50326434D02*
X67515555Y-50110935D01*
X67515555Y-50110935D02*
X67434743Y-50083998D01*
X67434743Y-50083998D02*
X67380868Y-50083998D01*
X67380868Y-50083998D02*
X67300056Y-50110935D01*
X67300056Y-50110935D02*
X67192306Y-50218685D01*
X67192306Y-50218685D02*
X67165369Y-50299497D01*
X67165369Y-50299497D02*
X67165369Y-50353372D01*
X67165369Y-50353372D02*
X67192306Y-50434184D01*
X67192306Y-50434184D02*
X67326993Y-50568871D01*
X67326993Y-50568871D02*
X67407806Y-50595808D01*
X67407806Y-50595808D02*
X67461680Y-50595808D01*
X67461680Y-50595808D02*
X67542493Y-50568871D01*
X67542493Y-50568871D02*
X67650242Y-50461121D01*
X67650242Y-50461121D02*
X67677180Y-50380309D01*
X67677180Y-50380309D02*
X67677180Y-50326434D01*
X67677180Y-50326434D02*
X67650242Y-50245622D01*
X91887998Y-59050868D02*
X91807185Y-59077805D01*
X91807185Y-59077805D02*
X91726373Y-59158618D01*
X91726373Y-59158618D02*
X91672498Y-59266367D01*
X91672498Y-59266367D02*
X91672498Y-59374117D01*
X91672498Y-59374117D02*
X91699436Y-59454929D01*
X91699436Y-59454929D02*
X91780248Y-59589616D01*
X91780248Y-59589616D02*
X91861060Y-59670428D01*
X91861060Y-59670428D02*
X91995747Y-59751241D01*
X91995747Y-59751241D02*
X92076560Y-59778178D01*
X92076560Y-59778178D02*
X92184309Y-59778178D01*
X92184309Y-59778178D02*
X92292059Y-59724303D01*
X92292059Y-59724303D02*
X92345934Y-59670428D01*
X92345934Y-59670428D02*
X92399808Y-59562679D01*
X92399808Y-59562679D02*
X92399808Y-59508804D01*
X92399808Y-59508804D02*
X92211247Y-59320242D01*
X92211247Y-59320242D02*
X92103497Y-59427992D01*
X92696120Y-59320242D02*
X92130434Y-58754557D01*
X92130434Y-58754557D02*
X92345934Y-58539057D01*
X92345934Y-58539057D02*
X92426746Y-58512120D01*
X92426746Y-58512120D02*
X92480621Y-58512120D01*
X92480621Y-58512120D02*
X92561433Y-58539057D01*
X92561433Y-58539057D02*
X92642245Y-58619870D01*
X92642245Y-58619870D02*
X92669182Y-58700682D01*
X92669182Y-58700682D02*
X92669182Y-58754557D01*
X92669182Y-58754557D02*
X92642245Y-58835369D01*
X92642245Y-58835369D02*
X92426746Y-59050868D01*
X92723057Y-58269683D02*
X92723057Y-58215809D01*
X92723057Y-58215809D02*
X92749995Y-58134996D01*
X92749995Y-58134996D02*
X92884682Y-58000309D01*
X92884682Y-58000309D02*
X92965494Y-57973372D01*
X92965494Y-57973372D02*
X93019369Y-57973372D01*
X93019369Y-57973372D02*
X93100181Y-58000309D01*
X93100181Y-58000309D02*
X93154056Y-58054184D01*
X93154056Y-58054184D02*
X93207930Y-58161934D01*
X93207930Y-58161934D02*
X93207930Y-58808431D01*
X93207930Y-58808431D02*
X93558117Y-58458245D01*
X93342618Y-57542373D02*
X93396492Y-57488499D01*
X93396492Y-57488499D02*
X93477305Y-57461561D01*
X93477305Y-57461561D02*
X93531179Y-57461561D01*
X93531179Y-57461561D02*
X93611992Y-57488499D01*
X93611992Y-57488499D02*
X93746679Y-57569311D01*
X93746679Y-57569311D02*
X93881366Y-57703998D01*
X93881366Y-57703998D02*
X93962178Y-57838685D01*
X93962178Y-57838685D02*
X93989115Y-57919497D01*
X93989115Y-57919497D02*
X93989115Y-57973372D01*
X93989115Y-57973372D02*
X93962178Y-58054184D01*
X93962178Y-58054184D02*
X93908303Y-58108059D01*
X93908303Y-58108059D02*
X93827491Y-58134996D01*
X93827491Y-58134996D02*
X93773616Y-58134996D01*
X93773616Y-58134996D02*
X93692804Y-58108059D01*
X93692804Y-58108059D02*
X93558117Y-58027247D01*
X93558117Y-58027247D02*
X93423430Y-57892560D01*
X93423430Y-57892560D02*
X93342618Y-57757873D01*
X93342618Y-57757873D02*
X93315680Y-57677060D01*
X93315680Y-57677060D02*
X93315680Y-57623186D01*
X93315680Y-57623186D02*
X93342618Y-57542373D01*
X91743406Y-23757585D02*
X92497653Y-24134709D01*
X92497653Y-24134709D02*
X92120529Y-23380462D01*
X92767027Y-23272712D02*
X92874776Y-23218838D01*
X92874776Y-23218838D02*
X92928651Y-23218838D01*
X92928651Y-23218838D02*
X93009463Y-23245775D01*
X93009463Y-23245775D02*
X93090276Y-23326587D01*
X93090276Y-23326587D02*
X93117213Y-23407399D01*
X93117213Y-23407399D02*
X93117213Y-23461274D01*
X93117213Y-23461274D02*
X93090276Y-23542086D01*
X93090276Y-23542086D02*
X92874776Y-23757586D01*
X92874776Y-23757586D02*
X92309091Y-23191900D01*
X92309091Y-23191900D02*
X92497653Y-23003338D01*
X92497653Y-23003338D02*
X92578465Y-22976401D01*
X92578465Y-22976401D02*
X92632340Y-22976401D01*
X92632340Y-22976401D02*
X92713152Y-23003338D01*
X92713152Y-23003338D02*
X92767027Y-23057213D01*
X92767027Y-23057213D02*
X92793964Y-23138025D01*
X92793964Y-23138025D02*
X92793964Y-23191900D01*
X92793964Y-23191900D02*
X92767027Y-23272712D01*
X92767027Y-23272712D02*
X92578465Y-23461274D01*
X92874776Y-22626215D02*
X93332712Y-23084151D01*
X93332712Y-23084151D02*
X93413524Y-23111088D01*
X93413524Y-23111088D02*
X93467399Y-23111088D01*
X93467399Y-23111088D02*
X93548211Y-23084151D01*
X93548211Y-23084151D02*
X93655961Y-22976401D01*
X93655961Y-22976401D02*
X93682898Y-22895589D01*
X93682898Y-22895589D02*
X93682898Y-22841714D01*
X93682898Y-22841714D02*
X93655961Y-22760902D01*
X93655961Y-22760902D02*
X93198025Y-22302966D01*
X93979210Y-22599277D02*
X94086959Y-22545403D01*
X94086959Y-22545403D02*
X94221646Y-22410716D01*
X94221646Y-22410716D02*
X94248584Y-22329903D01*
X94248584Y-22329903D02*
X94248584Y-22276029D01*
X94248584Y-22276029D02*
X94221646Y-22195216D01*
X94221646Y-22195216D02*
X94167771Y-22141342D01*
X94167771Y-22141342D02*
X94086959Y-22114404D01*
X94086959Y-22114404D02*
X94033084Y-22114404D01*
X94033084Y-22114404D02*
X93952272Y-22141342D01*
X93952272Y-22141342D02*
X93817585Y-22222154D01*
X93817585Y-22222154D02*
X93736773Y-22249091D01*
X93736773Y-22249091D02*
X93682898Y-22249091D01*
X93682898Y-22249091D02*
X93602086Y-22222154D01*
X93602086Y-22222154D02*
X93548211Y-22168279D01*
X93548211Y-22168279D02*
X93521274Y-22087467D01*
X93521274Y-22087467D02*
X93521274Y-22033592D01*
X93521274Y-22033592D02*
X93548211Y-21952780D01*
X93548211Y-21952780D02*
X93682898Y-21818093D01*
X93682898Y-21818093D02*
X93790648Y-21764218D01*
X91680123Y-33720868D02*
X92030309Y-33370682D01*
X92030309Y-33370682D02*
X92057247Y-33774743D01*
X92057247Y-33774743D02*
X92138059Y-33693931D01*
X92138059Y-33693931D02*
X92218871Y-33666993D01*
X92218871Y-33666993D02*
X92272746Y-33666993D01*
X92272746Y-33666993D02*
X92353558Y-33693931D01*
X92353558Y-33693931D02*
X92488245Y-33828618D01*
X92488245Y-33828618D02*
X92515182Y-33909430D01*
X92515182Y-33909430D02*
X92515182Y-33963305D01*
X92515182Y-33963305D02*
X92488245Y-34044117D01*
X92488245Y-34044117D02*
X92326621Y-34205741D01*
X92326621Y-34205741D02*
X92245808Y-34232679D01*
X92245808Y-34232679D02*
X92191934Y-34232679D01*
X92191934Y-33209057D02*
X92946181Y-33586181D01*
X92946181Y-33586181D02*
X92569057Y-32831934D01*
X92703744Y-32697247D02*
X93053930Y-32347061D01*
X93053930Y-32347061D02*
X93080868Y-32751122D01*
X93080868Y-32751122D02*
X93161680Y-32670309D01*
X93161680Y-32670309D02*
X93242492Y-32643372D01*
X93242492Y-32643372D02*
X93296367Y-32643372D01*
X93296367Y-32643372D02*
X93377179Y-32670309D01*
X93377179Y-32670309D02*
X93511866Y-32804996D01*
X93511866Y-32804996D02*
X93538804Y-32885809D01*
X93538804Y-32885809D02*
X93538804Y-32939683D01*
X93538804Y-32939683D02*
X93511866Y-33020496D01*
X93511866Y-33020496D02*
X93350242Y-33182120D01*
X93350242Y-33182120D02*
X93269430Y-33209057D01*
X93269430Y-33209057D02*
X93215555Y-33209057D01*
X66303372Y-38461494D02*
X66222560Y-38488431D01*
X66222560Y-38488431D02*
X66141748Y-38569243D01*
X66141748Y-38569243D02*
X66087873Y-38676993D01*
X66087873Y-38676993D02*
X66087873Y-38784742D01*
X66087873Y-38784742D02*
X66114810Y-38865555D01*
X66114810Y-38865555D02*
X66195623Y-39000242D01*
X66195623Y-39000242D02*
X66276435Y-39081054D01*
X66276435Y-39081054D02*
X66411122Y-39161866D01*
X66411122Y-39161866D02*
X66491934Y-39188803D01*
X66491934Y-39188803D02*
X66599684Y-39188803D01*
X66599684Y-39188803D02*
X66707433Y-39134929D01*
X66707433Y-39134929D02*
X66761308Y-39081054D01*
X66761308Y-39081054D02*
X66815183Y-38973304D01*
X66815183Y-38973304D02*
X66815183Y-38919429D01*
X66815183Y-38919429D02*
X66626621Y-38730868D01*
X66626621Y-38730868D02*
X66518871Y-38838617D01*
X67111494Y-38730868D02*
X66545809Y-38165182D01*
X66545809Y-38165182D02*
X66761308Y-37949683D01*
X66761308Y-37949683D02*
X66842120Y-37922746D01*
X66842120Y-37922746D02*
X66895995Y-37922746D01*
X66895995Y-37922746D02*
X66976807Y-37949683D01*
X66976807Y-37949683D02*
X67057619Y-38030495D01*
X67057619Y-38030495D02*
X67084557Y-38111307D01*
X67084557Y-38111307D02*
X67084557Y-38165182D01*
X67084557Y-38165182D02*
X67057619Y-38245994D01*
X67057619Y-38245994D02*
X66842120Y-38461494D01*
X67380868Y-37330123D02*
X67111494Y-37599497D01*
X67111494Y-37599497D02*
X67353931Y-37895808D01*
X67353931Y-37895808D02*
X67353931Y-37841933D01*
X67353931Y-37841933D02*
X67380868Y-37761121D01*
X67380868Y-37761121D02*
X67515555Y-37626434D01*
X67515555Y-37626434D02*
X67596367Y-37599497D01*
X67596367Y-37599497D02*
X67650242Y-37599497D01*
X67650242Y-37599497D02*
X67731054Y-37626434D01*
X67731054Y-37626434D02*
X67865741Y-37761121D01*
X67865741Y-37761121D02*
X67892679Y-37841933D01*
X67892679Y-37841933D02*
X67892679Y-37895808D01*
X67892679Y-37895808D02*
X67865741Y-37976620D01*
X67865741Y-37976620D02*
X67731054Y-38111307D01*
X67731054Y-38111307D02*
X67650242Y-38138245D01*
X67650242Y-38138245D02*
X67596367Y-38138245D01*
X91887998Y-69210868D02*
X91807185Y-69237805D01*
X91807185Y-69237805D02*
X91726373Y-69318618D01*
X91726373Y-69318618D02*
X91672498Y-69426367D01*
X91672498Y-69426367D02*
X91672498Y-69534117D01*
X91672498Y-69534117D02*
X91699436Y-69614929D01*
X91699436Y-69614929D02*
X91780248Y-69749616D01*
X91780248Y-69749616D02*
X91861060Y-69830428D01*
X91861060Y-69830428D02*
X91995747Y-69911241D01*
X91995747Y-69911241D02*
X92076560Y-69938178D01*
X92076560Y-69938178D02*
X92184309Y-69938178D01*
X92184309Y-69938178D02*
X92292059Y-69884303D01*
X92292059Y-69884303D02*
X92345934Y-69830428D01*
X92345934Y-69830428D02*
X92399808Y-69722679D01*
X92399808Y-69722679D02*
X92399808Y-69668804D01*
X92399808Y-69668804D02*
X92211247Y-69480242D01*
X92211247Y-69480242D02*
X92103497Y-69587992D01*
X92696120Y-69480242D02*
X92130434Y-68914557D01*
X92130434Y-68914557D02*
X92345934Y-68699057D01*
X92345934Y-68699057D02*
X92426746Y-68672120D01*
X92426746Y-68672120D02*
X92480621Y-68672120D01*
X92480621Y-68672120D02*
X92561433Y-68699057D01*
X92561433Y-68699057D02*
X92642245Y-68779870D01*
X92642245Y-68779870D02*
X92669182Y-68860682D01*
X92669182Y-68860682D02*
X92669182Y-68914557D01*
X92669182Y-68914557D02*
X92642245Y-68995369D01*
X92642245Y-68995369D02*
X92426746Y-69210868D01*
X93558117Y-68618245D02*
X93234868Y-68941494D01*
X93396492Y-68779870D02*
X92830807Y-68214184D01*
X92830807Y-68214184D02*
X92857744Y-68348871D01*
X92857744Y-68348871D02*
X92857744Y-68456621D01*
X92857744Y-68456621D02*
X92830807Y-68537433D01*
X93180993Y-67863998D02*
X93558117Y-67486874D01*
X93558117Y-67486874D02*
X93881366Y-68294996D01*
X119433333Y-52559580D02*
X119385714Y-52607200D01*
X119385714Y-52607200D02*
X119242857Y-52654819D01*
X119242857Y-52654819D02*
X119147619Y-52654819D01*
X119147619Y-52654819D02*
X119004762Y-52607200D01*
X119004762Y-52607200D02*
X118909524Y-52511961D01*
X118909524Y-52511961D02*
X118861905Y-52416723D01*
X118861905Y-52416723D02*
X118814286Y-52226247D01*
X118814286Y-52226247D02*
X118814286Y-52083390D01*
X118814286Y-52083390D02*
X118861905Y-51892914D01*
X118861905Y-51892914D02*
X118909524Y-51797676D01*
X118909524Y-51797676D02*
X119004762Y-51702438D01*
X119004762Y-51702438D02*
X119147619Y-51654819D01*
X119147619Y-51654819D02*
X119242857Y-51654819D01*
X119242857Y-51654819D02*
X119385714Y-51702438D01*
X119385714Y-51702438D02*
X119433333Y-51750057D01*
X120385714Y-52654819D02*
X119814286Y-52654819D01*
X120100000Y-52654819D02*
X120100000Y-51654819D01*
X120100000Y-51654819D02*
X120004762Y-51797676D01*
X120004762Y-51797676D02*
X119909524Y-51892914D01*
X119909524Y-51892914D02*
X119814286Y-51940533D01*
X119653909Y-44832682D02*
X120369404Y-44832682D01*
X120369404Y-44832682D02*
X120512503Y-44880382D01*
X120512503Y-44880382D02*
X120607903Y-44975781D01*
X120607903Y-44975781D02*
X120655602Y-45118880D01*
X120655602Y-45118880D02*
X120655602Y-45214280D01*
X120655602Y-43830989D02*
X120655602Y-44403385D01*
X120655602Y-44117187D02*
X119653909Y-44117187D01*
X119653909Y-44117187D02*
X119797008Y-44212586D01*
X119797008Y-44212586D02*
X119892408Y-44307986D01*
X119892408Y-44307986D02*
X119940107Y-44403385D01*
X120655602Y-42876996D02*
X120655602Y-43449392D01*
X120655602Y-43163194D02*
X119653909Y-43163194D01*
X119653909Y-43163194D02*
X119797008Y-43258593D01*
X119797008Y-43258593D02*
X119892408Y-43353993D01*
X119892408Y-43353993D02*
X119940107Y-43449392D01*
X120274005Y-42447699D02*
X120274005Y-41684505D01*
X119653909Y-41016710D02*
X119653909Y-40825911D01*
X119653909Y-40825911D02*
X119701609Y-40730512D01*
X119701609Y-40730512D02*
X119797008Y-40635112D01*
X119797008Y-40635112D02*
X119987807Y-40587413D01*
X119987807Y-40587413D02*
X120321705Y-40587413D01*
X120321705Y-40587413D02*
X120512503Y-40635112D01*
X120512503Y-40635112D02*
X120607903Y-40730512D01*
X120607903Y-40730512D02*
X120655602Y-40825911D01*
X120655602Y-40825911D02*
X120655602Y-41016710D01*
X120655602Y-41016710D02*
X120607903Y-41112109D01*
X120607903Y-41112109D02*
X120512503Y-41207508D01*
X120512503Y-41207508D02*
X120321705Y-41255208D01*
X120321705Y-41255208D02*
X119987807Y-41255208D01*
X119987807Y-41255208D02*
X119797008Y-41207508D01*
X119797008Y-41207508D02*
X119701609Y-41112109D01*
X119701609Y-41112109D02*
X119653909Y-41016710D01*
X120655602Y-39633419D02*
X120655602Y-40205815D01*
X120655602Y-39919617D02*
X119653909Y-39919617D01*
X119653909Y-39919617D02*
X119797008Y-40015016D01*
X119797008Y-40015016D02*
X119892408Y-40110416D01*
X119892408Y-40110416D02*
X119940107Y-40205815D01*
X112938095Y-51854819D02*
X112938095Y-52664342D01*
X112938095Y-52664342D02*
X112985714Y-52759580D01*
X112985714Y-52759580D02*
X113033333Y-52807200D01*
X113033333Y-52807200D02*
X113128571Y-52854819D01*
X113128571Y-52854819D02*
X113319047Y-52854819D01*
X113319047Y-52854819D02*
X113414285Y-52807200D01*
X113414285Y-52807200D02*
X113461904Y-52759580D01*
X113461904Y-52759580D02*
X113509523Y-52664342D01*
X113509523Y-52664342D02*
X113509523Y-51854819D01*
X113938095Y-51950057D02*
X113985714Y-51902438D01*
X113985714Y-51902438D02*
X114080952Y-51854819D01*
X114080952Y-51854819D02*
X114319047Y-51854819D01*
X114319047Y-51854819D02*
X114414285Y-51902438D01*
X114414285Y-51902438D02*
X114461904Y-51950057D01*
X114461904Y-51950057D02*
X114509523Y-52045295D01*
X114509523Y-52045295D02*
X114509523Y-52140533D01*
X114509523Y-52140533D02*
X114461904Y-52283390D01*
X114461904Y-52283390D02*
X113890476Y-52854819D01*
X113890476Y-52854819D02*
X114509523Y-52854819D01*
D11*
X147193552Y-115440453D02*
X147764980Y-115440453D01*
X147479266Y-116440453D02*
X147479266Y-115440453D01*
X148098314Y-116440453D02*
X148098314Y-115440453D01*
X148098314Y-115440453D02*
X148479266Y-115440453D01*
X148479266Y-115440453D02*
X148574504Y-115488072D01*
X148574504Y-115488072D02*
X148622123Y-115535691D01*
X148622123Y-115535691D02*
X148669742Y-115630929D01*
X148669742Y-115630929D02*
X148669742Y-115773786D01*
X148669742Y-115773786D02*
X148622123Y-115869024D01*
X148622123Y-115869024D02*
X148574504Y-115916643D01*
X148574504Y-115916643D02*
X148479266Y-115964262D01*
X148479266Y-115964262D02*
X148098314Y-115964262D01*
X149241171Y-115869024D02*
X149145933Y-115821405D01*
X149145933Y-115821405D02*
X149098314Y-115773786D01*
X149098314Y-115773786D02*
X149050695Y-115678548D01*
X149050695Y-115678548D02*
X149050695Y-115630929D01*
X149050695Y-115630929D02*
X149098314Y-115535691D01*
X149098314Y-115535691D02*
X149145933Y-115488072D01*
X149145933Y-115488072D02*
X149241171Y-115440453D01*
X149241171Y-115440453D02*
X149431647Y-115440453D01*
X149431647Y-115440453D02*
X149526885Y-115488072D01*
X149526885Y-115488072D02*
X149574504Y-115535691D01*
X149574504Y-115535691D02*
X149622123Y-115630929D01*
X149622123Y-115630929D02*
X149622123Y-115678548D01*
X149622123Y-115678548D02*
X149574504Y-115773786D01*
X149574504Y-115773786D02*
X149526885Y-115821405D01*
X149526885Y-115821405D02*
X149431647Y-115869024D01*
X149431647Y-115869024D02*
X149241171Y-115869024D01*
X149241171Y-115869024D02*
X149145933Y-115916643D01*
X149145933Y-115916643D02*
X149098314Y-115964262D01*
X149098314Y-115964262D02*
X149050695Y-116059500D01*
X149050695Y-116059500D02*
X149050695Y-116249976D01*
X149050695Y-116249976D02*
X149098314Y-116345214D01*
X149098314Y-116345214D02*
X149145933Y-116392834D01*
X149145933Y-116392834D02*
X149241171Y-116440453D01*
X149241171Y-116440453D02*
X149431647Y-116440453D01*
X149431647Y-116440453D02*
X149526885Y-116392834D01*
X149526885Y-116392834D02*
X149574504Y-116345214D01*
X149574504Y-116345214D02*
X149622123Y-116249976D01*
X149622123Y-116249976D02*
X149622123Y-116059500D01*
X149622123Y-116059500D02*
X149574504Y-115964262D01*
X149574504Y-115964262D02*
X149526885Y-115916643D01*
X149526885Y-115916643D02*
X149431647Y-115869024D01*
D10*
X97804819Y-77942857D02*
X97328628Y-78276190D01*
X97804819Y-78514285D02*
X96804819Y-78514285D01*
X96804819Y-78514285D02*
X96804819Y-78133333D01*
X96804819Y-78133333D02*
X96852438Y-78038095D01*
X96852438Y-78038095D02*
X96900057Y-77990476D01*
X96900057Y-77990476D02*
X96995295Y-77942857D01*
X96995295Y-77942857D02*
X97138152Y-77942857D01*
X97138152Y-77942857D02*
X97233390Y-77990476D01*
X97233390Y-77990476D02*
X97281009Y-78038095D01*
X97281009Y-78038095D02*
X97328628Y-78133333D01*
X97328628Y-78133333D02*
X97328628Y-78514285D01*
X97804819Y-76990476D02*
X97804819Y-77561904D01*
X97804819Y-77276190D02*
X96804819Y-77276190D01*
X96804819Y-77276190D02*
X96947676Y-77371428D01*
X96947676Y-77371428D02*
X97042914Y-77466666D01*
X97042914Y-77466666D02*
X97090533Y-77561904D01*
X97138152Y-76133333D02*
X97804819Y-76133333D01*
X96757200Y-76371428D02*
X97471485Y-76609523D01*
X97471485Y-76609523D02*
X97471485Y-75990476D01*
X108954819Y-37966666D02*
X108478628Y-38299999D01*
X108954819Y-38538094D02*
X107954819Y-38538094D01*
X107954819Y-38538094D02*
X107954819Y-38157142D01*
X107954819Y-38157142D02*
X108002438Y-38061904D01*
X108002438Y-38061904D02*
X108050057Y-38014285D01*
X108050057Y-38014285D02*
X108145295Y-37966666D01*
X108145295Y-37966666D02*
X108288152Y-37966666D01*
X108288152Y-37966666D02*
X108383390Y-38014285D01*
X108383390Y-38014285D02*
X108431009Y-38061904D01*
X108431009Y-38061904D02*
X108478628Y-38157142D01*
X108478628Y-38157142D02*
X108478628Y-38538094D01*
X108288152Y-37109523D02*
X108954819Y-37109523D01*
X107907200Y-37347618D02*
X108621485Y-37585713D01*
X108621485Y-37585713D02*
X108621485Y-36966666D01*
D12*
X96518838Y-53018754D02*
X96518838Y-51850354D01*
X96518838Y-51850354D02*
X96797028Y-51850354D01*
X96797028Y-51850354D02*
X96963943Y-51905992D01*
X96963943Y-51905992D02*
X97075219Y-52017268D01*
X97075219Y-52017268D02*
X97130857Y-52128544D01*
X97130857Y-52128544D02*
X97186495Y-52351096D01*
X97186495Y-52351096D02*
X97186495Y-52518011D01*
X97186495Y-52518011D02*
X97130857Y-52740563D01*
X97130857Y-52740563D02*
X97075219Y-52851839D01*
X97075219Y-52851839D02*
X96963943Y-52963116D01*
X96963943Y-52963116D02*
X96797028Y-53018754D01*
X96797028Y-53018754D02*
X96518838Y-53018754D01*
X97687238Y-53018754D02*
X97687238Y-51850354D01*
X98187981Y-52963116D02*
X98354895Y-53018754D01*
X98354895Y-53018754D02*
X98633086Y-53018754D01*
X98633086Y-53018754D02*
X98744362Y-52963116D01*
X98744362Y-52963116D02*
X98800000Y-52907477D01*
X98800000Y-52907477D02*
X98855638Y-52796201D01*
X98855638Y-52796201D02*
X98855638Y-52684925D01*
X98855638Y-52684925D02*
X98800000Y-52573649D01*
X98800000Y-52573649D02*
X98744362Y-52518011D01*
X98744362Y-52518011D02*
X98633086Y-52462373D01*
X98633086Y-52462373D02*
X98410533Y-52406735D01*
X98410533Y-52406735D02*
X98299257Y-52351096D01*
X98299257Y-52351096D02*
X98243619Y-52295458D01*
X98243619Y-52295458D02*
X98187981Y-52184182D01*
X98187981Y-52184182D02*
X98187981Y-52072906D01*
X98187981Y-52072906D02*
X98243619Y-51961630D01*
X98243619Y-51961630D02*
X98299257Y-51905992D01*
X98299257Y-51905992D02*
X98410533Y-51850354D01*
X98410533Y-51850354D02*
X98688724Y-51850354D01*
X98688724Y-51850354D02*
X98855638Y-51905992D01*
X99356381Y-53018754D02*
X99356381Y-51850354D01*
X99356381Y-51850354D02*
X99801486Y-51850354D01*
X99801486Y-51850354D02*
X99912762Y-51905992D01*
X99912762Y-51905992D02*
X99968400Y-51961630D01*
X99968400Y-51961630D02*
X100024038Y-52072906D01*
X100024038Y-52072906D02*
X100024038Y-52239820D01*
X100024038Y-52239820D02*
X99968400Y-52351096D01*
X99968400Y-52351096D02*
X99912762Y-52406735D01*
X99912762Y-52406735D02*
X99801486Y-52462373D01*
X99801486Y-52462373D02*
X99356381Y-52462373D01*
X101136800Y-53018754D02*
X100469143Y-53018754D01*
X100802971Y-53018754D02*
X100802971Y-51850354D01*
X100802971Y-51850354D02*
X100691695Y-52017268D01*
X100691695Y-52017268D02*
X100580419Y-52128544D01*
X100580419Y-52128544D02*
X100469143Y-52184182D01*
D13*
X103836871Y-50812762D02*
X103881381Y-50679230D01*
X103881381Y-50679230D02*
X103881381Y-50456678D01*
X103881381Y-50456678D02*
X103836871Y-50367657D01*
X103836871Y-50367657D02*
X103792360Y-50323146D01*
X103792360Y-50323146D02*
X103703339Y-50278636D01*
X103703339Y-50278636D02*
X103614318Y-50278636D01*
X103614318Y-50278636D02*
X103525297Y-50323146D01*
X103525297Y-50323146D02*
X103480787Y-50367657D01*
X103480787Y-50367657D02*
X103436276Y-50456678D01*
X103436276Y-50456678D02*
X103391766Y-50634720D01*
X103391766Y-50634720D02*
X103347255Y-50723741D01*
X103347255Y-50723741D02*
X103302745Y-50768251D01*
X103302745Y-50768251D02*
X103213724Y-50812762D01*
X103213724Y-50812762D02*
X103124703Y-50812762D01*
X103124703Y-50812762D02*
X103035682Y-50768251D01*
X103035682Y-50768251D02*
X102991171Y-50723741D01*
X102991171Y-50723741D02*
X102946661Y-50634720D01*
X102946661Y-50634720D02*
X102946661Y-50412167D01*
X102946661Y-50412167D02*
X102991171Y-50278636D01*
X103792360Y-49343915D02*
X103836871Y-49388426D01*
X103836871Y-49388426D02*
X103881381Y-49521957D01*
X103881381Y-49521957D02*
X103881381Y-49610978D01*
X103881381Y-49610978D02*
X103836871Y-49744510D01*
X103836871Y-49744510D02*
X103747850Y-49833531D01*
X103747850Y-49833531D02*
X103658829Y-49878041D01*
X103658829Y-49878041D02*
X103480787Y-49922552D01*
X103480787Y-49922552D02*
X103347255Y-49922552D01*
X103347255Y-49922552D02*
X103169213Y-49878041D01*
X103169213Y-49878041D02*
X103080192Y-49833531D01*
X103080192Y-49833531D02*
X102991171Y-49744510D01*
X102991171Y-49744510D02*
X102946661Y-49610978D01*
X102946661Y-49610978D02*
X102946661Y-49521957D01*
X102946661Y-49521957D02*
X102991171Y-49388426D01*
X102991171Y-49388426D02*
X103035682Y-49343915D01*
X103881381Y-48498216D02*
X103881381Y-48943321D01*
X103881381Y-48943321D02*
X102946661Y-48943321D01*
X102036871Y-50835017D02*
X102081381Y-50701485D01*
X102081381Y-50701485D02*
X102081381Y-50478933D01*
X102081381Y-50478933D02*
X102036871Y-50389912D01*
X102036871Y-50389912D02*
X101992360Y-50345401D01*
X101992360Y-50345401D02*
X101903339Y-50300891D01*
X101903339Y-50300891D02*
X101814318Y-50300891D01*
X101814318Y-50300891D02*
X101725297Y-50345401D01*
X101725297Y-50345401D02*
X101680787Y-50389912D01*
X101680787Y-50389912D02*
X101636276Y-50478933D01*
X101636276Y-50478933D02*
X101591766Y-50656975D01*
X101591766Y-50656975D02*
X101547255Y-50745996D01*
X101547255Y-50745996D02*
X101502745Y-50790506D01*
X101502745Y-50790506D02*
X101413724Y-50835017D01*
X101413724Y-50835017D02*
X101324703Y-50835017D01*
X101324703Y-50835017D02*
X101235682Y-50790506D01*
X101235682Y-50790506D02*
X101191171Y-50745996D01*
X101191171Y-50745996D02*
X101146661Y-50656975D01*
X101146661Y-50656975D02*
X101146661Y-50434422D01*
X101146661Y-50434422D02*
X101191171Y-50300891D01*
X102081381Y-49900296D02*
X101146661Y-49900296D01*
X101146661Y-49900296D02*
X101146661Y-49677744D01*
X101146661Y-49677744D02*
X101191171Y-49544212D01*
X101191171Y-49544212D02*
X101280192Y-49455191D01*
X101280192Y-49455191D02*
X101369213Y-49410681D01*
X101369213Y-49410681D02*
X101547255Y-49366170D01*
X101547255Y-49366170D02*
X101680787Y-49366170D01*
X101680787Y-49366170D02*
X101858829Y-49410681D01*
X101858829Y-49410681D02*
X101947850Y-49455191D01*
X101947850Y-49455191D02*
X102036871Y-49544212D01*
X102036871Y-49544212D02*
X102081381Y-49677744D01*
X102081381Y-49677744D02*
X102081381Y-49900296D01*
X101814318Y-49010087D02*
X101814318Y-48564982D01*
X102081381Y-49099108D02*
X101146661Y-48787534D01*
X101146661Y-48787534D02*
X102081381Y-48475961D01*
X110946661Y-48205293D02*
X111881381Y-47893719D01*
X111881381Y-47893719D02*
X110946661Y-47582146D01*
X111792360Y-46736446D02*
X111836871Y-46780957D01*
X111836871Y-46780957D02*
X111881381Y-46914488D01*
X111881381Y-46914488D02*
X111881381Y-47003509D01*
X111881381Y-47003509D02*
X111836871Y-47137041D01*
X111836871Y-47137041D02*
X111747850Y-47226062D01*
X111747850Y-47226062D02*
X111658829Y-47270572D01*
X111658829Y-47270572D02*
X111480787Y-47315083D01*
X111480787Y-47315083D02*
X111347255Y-47315083D01*
X111347255Y-47315083D02*
X111169213Y-47270572D01*
X111169213Y-47270572D02*
X111080192Y-47226062D01*
X111080192Y-47226062D02*
X110991171Y-47137041D01*
X110991171Y-47137041D02*
X110946661Y-47003509D01*
X110946661Y-47003509D02*
X110946661Y-46914488D01*
X110946661Y-46914488D02*
X110991171Y-46780957D01*
X110991171Y-46780957D02*
X111035682Y-46736446D01*
X111792360Y-45801726D02*
X111836871Y-45846237D01*
X111836871Y-45846237D02*
X111881381Y-45979768D01*
X111881381Y-45979768D02*
X111881381Y-46068789D01*
X111881381Y-46068789D02*
X111836871Y-46202321D01*
X111836871Y-46202321D02*
X111747850Y-46291342D01*
X111747850Y-46291342D02*
X111658829Y-46335852D01*
X111658829Y-46335852D02*
X111480787Y-46380363D01*
X111480787Y-46380363D02*
X111347255Y-46380363D01*
X111347255Y-46380363D02*
X111169213Y-46335852D01*
X111169213Y-46335852D02*
X111080192Y-46291342D01*
X111080192Y-46291342D02*
X110991171Y-46202321D01*
X110991171Y-46202321D02*
X110946661Y-46068789D01*
X110946661Y-46068789D02*
X110946661Y-45979768D01*
X110946661Y-45979768D02*
X110991171Y-45846237D01*
X110991171Y-45846237D02*
X111035682Y-45801726D01*
X112891171Y-47712167D02*
X112846661Y-47801188D01*
X112846661Y-47801188D02*
X112846661Y-47934719D01*
X112846661Y-47934719D02*
X112891171Y-48068251D01*
X112891171Y-48068251D02*
X112980192Y-48157272D01*
X112980192Y-48157272D02*
X113069213Y-48201782D01*
X113069213Y-48201782D02*
X113247255Y-48246293D01*
X113247255Y-48246293D02*
X113380787Y-48246293D01*
X113380787Y-48246293D02*
X113558829Y-48201782D01*
X113558829Y-48201782D02*
X113647850Y-48157272D01*
X113647850Y-48157272D02*
X113736871Y-48068251D01*
X113736871Y-48068251D02*
X113781381Y-47934719D01*
X113781381Y-47934719D02*
X113781381Y-47845698D01*
X113781381Y-47845698D02*
X113736871Y-47712167D01*
X113736871Y-47712167D02*
X113692360Y-47667656D01*
X113692360Y-47667656D02*
X113380787Y-47667656D01*
X113380787Y-47667656D02*
X113380787Y-47845698D01*
X113781381Y-47267062D02*
X112846661Y-47267062D01*
X112846661Y-47267062D02*
X113781381Y-46732936D01*
X113781381Y-46732936D02*
X112846661Y-46732936D01*
X113781381Y-46287832D02*
X112846661Y-46287832D01*
X112846661Y-46287832D02*
X112846661Y-46065280D01*
X112846661Y-46065280D02*
X112891171Y-45931748D01*
X112891171Y-45931748D02*
X112980192Y-45842727D01*
X112980192Y-45842727D02*
X113069213Y-45798217D01*
X113069213Y-45798217D02*
X113247255Y-45753706D01*
X113247255Y-45753706D02*
X113380787Y-45753706D01*
X113380787Y-45753706D02*
X113558829Y-45798217D01*
X113558829Y-45798217D02*
X113647850Y-45842727D01*
X113647850Y-45842727D02*
X113736871Y-45931748D01*
X113736871Y-45931748D02*
X113781381Y-46065280D01*
X113781381Y-46065280D02*
X113781381Y-46287832D01*
D10*
X99361905Y-24424819D02*
X99361905Y-23424819D01*
X99361905Y-23424819D02*
X99600000Y-23424819D01*
X99600000Y-23424819D02*
X99742857Y-23472438D01*
X99742857Y-23472438D02*
X99838095Y-23567676D01*
X99838095Y-23567676D02*
X99885714Y-23662914D01*
X99885714Y-23662914D02*
X99933333Y-23853390D01*
X99933333Y-23853390D02*
X99933333Y-23996247D01*
X99933333Y-23996247D02*
X99885714Y-24186723D01*
X99885714Y-24186723D02*
X99838095Y-24281961D01*
X99838095Y-24281961D02*
X99742857Y-24377200D01*
X99742857Y-24377200D02*
X99600000Y-24424819D01*
X99600000Y-24424819D02*
X99361905Y-24424819D01*
X100933333Y-24424819D02*
X100600000Y-23948628D01*
X100361905Y-24424819D02*
X100361905Y-23424819D01*
X100361905Y-23424819D02*
X100742857Y-23424819D01*
X100742857Y-23424819D02*
X100838095Y-23472438D01*
X100838095Y-23472438D02*
X100885714Y-23520057D01*
X100885714Y-23520057D02*
X100933333Y-23615295D01*
X100933333Y-23615295D02*
X100933333Y-23758152D01*
X100933333Y-23758152D02*
X100885714Y-23853390D01*
X100885714Y-23853390D02*
X100838095Y-23901009D01*
X100838095Y-23901009D02*
X100742857Y-23948628D01*
X100742857Y-23948628D02*
X100361905Y-23948628D01*
X101885714Y-24424819D02*
X101314286Y-24424819D01*
X101600000Y-24424819D02*
X101600000Y-23424819D01*
X101600000Y-23424819D02*
X101504762Y-23567676D01*
X101504762Y-23567676D02*
X101409524Y-23662914D01*
X101409524Y-23662914D02*
X101314286Y-23710533D01*
X122554819Y-38166666D02*
X122078628Y-38499999D01*
X122554819Y-38738094D02*
X121554819Y-38738094D01*
X121554819Y-38738094D02*
X121554819Y-38357142D01*
X121554819Y-38357142D02*
X121602438Y-38261904D01*
X121602438Y-38261904D02*
X121650057Y-38214285D01*
X121650057Y-38214285D02*
X121745295Y-38166666D01*
X121745295Y-38166666D02*
X121888152Y-38166666D01*
X121888152Y-38166666D02*
X121983390Y-38214285D01*
X121983390Y-38214285D02*
X122031009Y-38261904D01*
X122031009Y-38261904D02*
X122078628Y-38357142D01*
X122078628Y-38357142D02*
X122078628Y-38738094D01*
X122554819Y-37214285D02*
X122554819Y-37785713D01*
X122554819Y-37499999D02*
X121554819Y-37499999D01*
X121554819Y-37499999D02*
X121697676Y-37595237D01*
X121697676Y-37595237D02*
X121792914Y-37690475D01*
X121792914Y-37690475D02*
X121840533Y-37785713D01*
D11*
X147221129Y-100340453D02*
X147792557Y-100340453D01*
X147506843Y-101340453D02*
X147506843Y-100340453D01*
X148125891Y-101340453D02*
X148125891Y-100340453D01*
X148125891Y-100340453D02*
X148506843Y-100340453D01*
X148506843Y-100340453D02*
X148602081Y-100388072D01*
X148602081Y-100388072D02*
X148649700Y-100435691D01*
X148649700Y-100435691D02*
X148697319Y-100530929D01*
X148697319Y-100530929D02*
X148697319Y-100673786D01*
X148697319Y-100673786D02*
X148649700Y-100769024D01*
X148649700Y-100769024D02*
X148602081Y-100816643D01*
X148602081Y-100816643D02*
X148506843Y-100864262D01*
X148506843Y-100864262D02*
X148125891Y-100864262D01*
X149554462Y-100673786D02*
X149554462Y-101340453D01*
X149316367Y-100292834D02*
X149078272Y-101007119D01*
X149078272Y-101007119D02*
X149697319Y-101007119D01*
D10*
X154661905Y-58954819D02*
X154661905Y-57954819D01*
X154661905Y-57954819D02*
X154900000Y-57954819D01*
X154900000Y-57954819D02*
X155042857Y-58002438D01*
X155042857Y-58002438D02*
X155138095Y-58097676D01*
X155138095Y-58097676D02*
X155185714Y-58192914D01*
X155185714Y-58192914D02*
X155233333Y-58383390D01*
X155233333Y-58383390D02*
X155233333Y-58526247D01*
X155233333Y-58526247D02*
X155185714Y-58716723D01*
X155185714Y-58716723D02*
X155138095Y-58811961D01*
X155138095Y-58811961D02*
X155042857Y-58907200D01*
X155042857Y-58907200D02*
X154900000Y-58954819D01*
X154900000Y-58954819D02*
X154661905Y-58954819D01*
X156185714Y-58954819D02*
X155614286Y-58954819D01*
X155900000Y-58954819D02*
X155900000Y-57954819D01*
X155900000Y-57954819D02*
X155804762Y-58097676D01*
X155804762Y-58097676D02*
X155709524Y-58192914D01*
X155709524Y-58192914D02*
X155614286Y-58240533D01*
D14*
%TO.C,R3*%
X124435000Y-35539564D02*
X124435000Y-35085436D01*
X122965000Y-35539564D02*
X122965000Y-35085436D01*
%TO.C,RV8*%
X136221000Y-57420000D02*
X126180000Y-57420000D01*
X126180000Y-53484000D02*
X126180000Y-57420000D01*
X136221000Y-53484000D02*
X136221000Y-57420000D01*
X126180000Y-45180000D02*
X126180000Y-49117000D01*
X127830000Y-45180000D02*
X126180000Y-45180000D01*
X130329000Y-45180000D02*
X129570000Y-45180000D01*
X132450000Y-45180000D02*
X132070000Y-45180000D01*
X136221000Y-45180000D02*
X136221000Y-49117000D01*
X136221000Y-45180000D02*
X134900000Y-45180000D01*
%TO.C,RV7*%
X82121000Y-81580000D02*
X80800000Y-81580000D01*
X82121000Y-81580000D02*
X82121000Y-85517000D01*
X78350000Y-81580000D02*
X77970000Y-81580000D01*
X76229000Y-81580000D02*
X75470000Y-81580000D01*
X73730000Y-81580000D02*
X72080000Y-81580000D01*
X72080000Y-81580000D02*
X72080000Y-85517000D01*
X82121000Y-89884000D02*
X82121000Y-93820000D01*
X72080000Y-89884000D02*
X72080000Y-93820000D01*
X82121000Y-93820000D02*
X72080000Y-93820000D01*
%TO.C,RV6*%
X106021000Y-81480000D02*
X104700000Y-81480000D01*
X106021000Y-81480000D02*
X106021000Y-85417000D01*
X102250000Y-81480000D02*
X101870000Y-81480000D01*
X100129000Y-81480000D02*
X99370000Y-81480000D01*
X97630000Y-81480000D02*
X95980000Y-81480000D01*
X95980000Y-81480000D02*
X95980000Y-85417000D01*
X106021000Y-89784000D02*
X106021000Y-93720000D01*
X95980000Y-89784000D02*
X95980000Y-93720000D01*
X106021000Y-93720000D02*
X95980000Y-93720000D01*
%TO.C,RV5*%
X130221000Y-81480000D02*
X128900000Y-81480000D01*
X130221000Y-81480000D02*
X130221000Y-85417000D01*
X126450000Y-81480000D02*
X126070000Y-81480000D01*
X124329000Y-81480000D02*
X123570000Y-81480000D01*
X121830000Y-81480000D02*
X120180000Y-81480000D01*
X120180000Y-81480000D02*
X120180000Y-85417000D01*
X130221000Y-89784000D02*
X130221000Y-93720000D01*
X120180000Y-89784000D02*
X120180000Y-93720000D01*
X130221000Y-93720000D02*
X120180000Y-93720000D01*
%TO.C,RV4*%
X153521000Y-81380000D02*
X152200000Y-81380000D01*
X153521000Y-81380000D02*
X153521000Y-85317000D01*
X149750000Y-81380000D02*
X149370000Y-81380000D01*
X147629000Y-81380000D02*
X146870000Y-81380000D01*
X145130000Y-81380000D02*
X143480000Y-81380000D01*
X143480000Y-81380000D02*
X143480000Y-85317000D01*
X153521000Y-89684000D02*
X153521000Y-93620000D01*
X143480000Y-89684000D02*
X143480000Y-93620000D01*
X153521000Y-93620000D02*
X143480000Y-93620000D01*
%TO.C,RV3*%
X106321000Y-75020000D02*
X96280000Y-75020000D01*
X96280000Y-71084000D02*
X96280000Y-75020000D01*
X106321000Y-71084000D02*
X106321000Y-75020000D01*
X96280000Y-62780000D02*
X96280000Y-66717000D01*
X97930000Y-62780000D02*
X96280000Y-62780000D01*
X100429000Y-62780000D02*
X99670000Y-62780000D01*
X102550000Y-62780000D02*
X102170000Y-62780000D01*
X106321000Y-62780000D02*
X106321000Y-66717000D01*
X106321000Y-62780000D02*
X105000000Y-62780000D01*
%TO.C,RV2*%
X152621000Y-74870000D02*
X142580000Y-74870000D01*
X142580000Y-70934000D02*
X142580000Y-74870000D01*
X152621000Y-70934000D02*
X152621000Y-74870000D01*
X142580000Y-62630000D02*
X142580000Y-66567000D01*
X144230000Y-62630000D02*
X142580000Y-62630000D01*
X146729000Y-62630000D02*
X145970000Y-62630000D01*
X148850000Y-62630000D02*
X148470000Y-62630000D01*
X152621000Y-62630000D02*
X152621000Y-66567000D01*
X152621000Y-62630000D02*
X151300000Y-62630000D01*
%TO.C,RV1*%
X129021000Y-75020000D02*
X118980000Y-75020000D01*
X118980000Y-71084000D02*
X118980000Y-75020000D01*
X129021000Y-71084000D02*
X129021000Y-75020000D01*
X118980000Y-62780000D02*
X118980000Y-66717000D01*
X120630000Y-62780000D02*
X118980000Y-62780000D01*
X123129000Y-62780000D02*
X122370000Y-62780000D01*
X125250000Y-62780000D02*
X124870000Y-62780000D01*
X129021000Y-62780000D02*
X129021000Y-66717000D01*
X129021000Y-62780000D02*
X127700000Y-62780000D01*
%TO.C,R11*%
X124092577Y-77085436D02*
X124092577Y-77539564D01*
X125562577Y-77085436D02*
X125562577Y-77539564D01*
%TO.C,R6*%
X110065000Y-35439564D02*
X110065000Y-34985436D01*
X111535000Y-35439564D02*
X111535000Y-34985436D01*
%TO.C,DT1*%
X111800000Y-24465000D02*
X109515000Y-24465000D01*
X109515000Y-25935000D02*
X111800000Y-25935000D01*
X109515000Y-24465000D02*
X109515000Y-25935000D01*
D15*
%TO.C,J1-I1*%
X100982000Y-26300000D02*
G75*
G02*
X100782000Y-26300000I-100000J0D01*
G01*
X100782000Y-26300000D02*
G75*
G02*
X100982000Y-26300000I100000J0D01*
G01*
D16*
X107182000Y-41600000D02*
X101182000Y-41600000D01*
X107182000Y-32800000D02*
X107182000Y-41600000D01*
X107182000Y-27100000D02*
X107182000Y-30200000D01*
X106682000Y-27100000D02*
X107182000Y-27100000D01*
X106682000Y-27100000D02*
X106682000Y-24600000D01*
X106682000Y-24600000D02*
X101682000Y-24600000D01*
X101682000Y-27100000D02*
X106682000Y-27100000D01*
X101682000Y-24600000D02*
X101682000Y-27100000D01*
X101182000Y-40500000D02*
X101182000Y-41600000D01*
X101182000Y-30800000D02*
X101182000Y-37300000D01*
X101182000Y-27100000D02*
X101682000Y-27100000D01*
X101182000Y-27100000D02*
X101182000Y-28200000D01*
D14*
%TO.C,SW1*%
X140950000Y-55300000D02*
X140950000Y-54300000D01*
X141000000Y-47300000D02*
X141000000Y-53100000D01*
X141950000Y-55300000D02*
X140950000Y-55300000D01*
X142950000Y-47100000D02*
X145550000Y-47100000D01*
X142950000Y-53300000D02*
X145550000Y-53300000D01*
X147500000Y-47200000D02*
X147500000Y-53200000D01*
%TO.C,R15*%
X118665000Y-77085436D02*
X118665000Y-77539564D01*
X120135000Y-77085436D02*
X120135000Y-77539564D01*
%TO.C,R9*%
X76781663Y-77085436D02*
X76781663Y-77539564D01*
X78251663Y-77085436D02*
X78251663Y-77539564D01*
D16*
%TO.C,U4*%
X124890000Y-22520000D02*
X124890000Y-40300000D01*
X124890000Y-40300000D02*
X156640000Y-40300000D01*
X127430000Y-22520000D02*
X124890000Y-22520000D01*
X127430000Y-31410000D02*
X127430000Y-22520000D01*
X127430000Y-31410000D02*
X132510000Y-31410000D01*
X132510000Y-22520000D02*
X127430000Y-22520000D01*
X132510000Y-31410000D02*
X132510000Y-22520000D01*
X156640000Y-22520000D02*
X132510000Y-22520000D01*
X156640000Y-40300000D02*
X156640000Y-22520000D01*
D14*
%TO.C,R5*%
X96665000Y-29072936D02*
X96665000Y-29527064D01*
X98135000Y-29072936D02*
X98135000Y-29527064D01*
%TO.C,U1*%
X149770000Y-49935000D02*
G75*
G02*
X149770000Y-51935000I0J-1000000D01*
G01*
X157510000Y-54170000D02*
X157510000Y-47700000D01*
X157510000Y-47700000D02*
X149770000Y-47700000D01*
X149770000Y-54170000D02*
X157510000Y-54170000D01*
X149770000Y-51935000D02*
X149770000Y-54170000D01*
X149770000Y-47700000D02*
X149770000Y-49935000D01*
%TO.C,R8*%
X105065000Y-46772936D02*
X105065000Y-47227064D01*
X106535000Y-46772936D02*
X106535000Y-47227064D01*
%TO.C,R18*%
X105965000Y-77072936D02*
X105965000Y-77527064D01*
X107435000Y-77072936D02*
X107435000Y-77527064D01*
%TO.C,R2*%
X109372936Y-26565000D02*
X109827064Y-26565000D01*
X109372936Y-28035000D02*
X109827064Y-28035000D01*
%TO.C,R20*%
X153265000Y-77072936D02*
X153265000Y-77527064D01*
X154735000Y-77072936D02*
X154735000Y-77527064D01*
%TO.C,R7*%
X107565000Y-46772936D02*
X107565000Y-47227064D01*
X109035000Y-46772936D02*
X109035000Y-47227064D01*
%TO.C,R13*%
X71365000Y-77085436D02*
X71365000Y-77539564D01*
X72835000Y-77085436D02*
X72835000Y-77539564D01*
%TO.C,R17*%
X82265000Y-77072936D02*
X82265000Y-77527064D01*
X83735000Y-77072936D02*
X83735000Y-77527064D01*
%TO.C,R19*%
X129565000Y-77072936D02*
X129565000Y-77527064D01*
X131035000Y-77072936D02*
X131035000Y-77527064D01*
%TO.C,R10*%
X100437120Y-77085436D02*
X100437120Y-77539564D01*
X101907120Y-77085436D02*
X101907120Y-77539564D01*
%TO.C,R16*%
X142265000Y-77085436D02*
X142265000Y-77539564D01*
X143735000Y-77085436D02*
X143735000Y-77539564D01*
%TO.C,R12*%
X147748034Y-77085436D02*
X147748034Y-77539564D01*
X149218034Y-77085436D02*
X149218034Y-77539564D01*
%TO.C,U3*%
X90290000Y-72730000D02*
X83490000Y-72730000D01*
X90290000Y-69930000D02*
X90290000Y-70330000D01*
X90290000Y-67330000D02*
X90290000Y-67730000D01*
X90290000Y-64830000D02*
X90290000Y-65230000D01*
X90290000Y-62330000D02*
X90290000Y-62730000D01*
X90290000Y-59730000D02*
X90290000Y-60130000D01*
X90290000Y-57230000D02*
X90290000Y-57630000D01*
X90290000Y-54630000D02*
X90290000Y-55030000D01*
X90290000Y-52130000D02*
X90290000Y-52530000D01*
X90290000Y-49530000D02*
X90290000Y-49930000D01*
X90290000Y-47030000D02*
X90290000Y-47430000D01*
X90290000Y-44530000D02*
X90290000Y-44930000D01*
X90290000Y-41930000D02*
X90290000Y-42330000D01*
X90290000Y-39430000D02*
X90290000Y-39830000D01*
X90290000Y-36830000D02*
X90290000Y-37230000D01*
X90290000Y-34330000D02*
X90290000Y-34730000D01*
X90290000Y-31830000D02*
X90290000Y-32230000D01*
X90290000Y-29230000D02*
X90290000Y-29630000D01*
X90290000Y-26730000D02*
X90290000Y-27130000D01*
X90290000Y-24130000D02*
X90290000Y-24530000D01*
X90290000Y-21730000D02*
X90290000Y-22030000D01*
X80890000Y-72730000D02*
X81290000Y-72730000D01*
X78290000Y-72730000D02*
X78690000Y-72730000D01*
X76090000Y-72730000D02*
X69290000Y-72730000D01*
X72297000Y-24397000D02*
X72297000Y-21730000D01*
X69290000Y-69930000D02*
X69290000Y-70330000D01*
X69290000Y-67330000D02*
X69290000Y-67730000D01*
X69290000Y-64830000D02*
X69290000Y-65230000D01*
X69290000Y-62330000D02*
X69290000Y-62730000D01*
X69290000Y-59730000D02*
X69290000Y-60130000D01*
X69290000Y-57230000D02*
X69290000Y-57630000D01*
X69290000Y-54630000D02*
X69290000Y-55030000D01*
X69290000Y-52130000D02*
X69290000Y-52530000D01*
X69290000Y-49530000D02*
X69290000Y-49930000D01*
X69290000Y-47030000D02*
X69290000Y-47430000D01*
X69290000Y-44530000D02*
X69290000Y-44930000D01*
X69290000Y-41930000D02*
X69290000Y-42330000D01*
X69290000Y-39430000D02*
X69290000Y-39830000D01*
X69290000Y-36830000D02*
X69290000Y-37230000D01*
X69290000Y-34330000D02*
X69290000Y-34730000D01*
X69290000Y-31830000D02*
X69290000Y-32230000D01*
X69290000Y-29230000D02*
X69290000Y-29630000D01*
X69290000Y-26730000D02*
X69290000Y-27130000D01*
X69290000Y-24397000D02*
X72297000Y-24397000D01*
X69290000Y-24130000D02*
X69290000Y-24530000D01*
X69290000Y-21730000D02*
X90290000Y-21730000D01*
X69290000Y-21730000D02*
X69290000Y-22030000D01*
%TO.C,C1*%
X116765580Y-49390000D02*
X116484420Y-49390000D01*
X116765580Y-50410000D02*
X116484420Y-50410000D01*
D15*
%TO.C,J11-O1*%
X113250000Y-25700000D02*
G75*
G02*
X113050000Y-25700000I-100000J0D01*
G01*
X113050000Y-25700000D02*
G75*
G02*
X113250000Y-25700000I100000J0D01*
G01*
D16*
X119450000Y-41000000D02*
X113450000Y-41000000D01*
X119450000Y-32200000D02*
X119450000Y-41000000D01*
X119450000Y-26500000D02*
X119450000Y-29600000D01*
X118950000Y-26500000D02*
X119450000Y-26500000D01*
X118950000Y-26500000D02*
X118950000Y-24000000D01*
X118950000Y-24000000D02*
X113950000Y-24000000D01*
X113950000Y-26500000D02*
X118950000Y-26500000D01*
X113950000Y-24000000D02*
X113950000Y-26500000D01*
X113450000Y-39900000D02*
X113450000Y-41000000D01*
X113450000Y-30200000D02*
X113450000Y-36700000D01*
X113450000Y-26500000D02*
X113950000Y-26500000D01*
X113450000Y-26500000D02*
X113450000Y-27600000D01*
D14*
%TO.C,U2*%
X110945000Y-51470000D02*
X110705000Y-51140000D01*
X111185000Y-51140000D01*
X110945000Y-51470000D01*
G36*
X110945000Y-51470000D02*
G01*
X110705000Y-51140000D01*
X111185000Y-51140000D01*
X110945000Y-51470000D01*
G37*
X113645000Y-61535000D02*
X115595000Y-61535000D01*
X113645000Y-61535000D02*
X111695000Y-61535000D01*
X113645000Y-51415000D02*
X115595000Y-51415000D01*
X113645000Y-51415000D02*
X111695000Y-51415000D01*
%TO.C,R14*%
X94965000Y-77072936D02*
X94965000Y-77527064D01*
X96435000Y-77072936D02*
X96435000Y-77527064D01*
%TO.C,R4*%
X107965000Y-34985436D02*
X107965000Y-35439564D01*
X109435000Y-34985436D02*
X109435000Y-35439564D01*
D16*
%TO.C,DISP1*%
X123232000Y-51277000D02*
X95800000Y-51277000D01*
X123232000Y-23337000D02*
X123232000Y-51277000D01*
X120946000Y-45435000D02*
X98086000Y-45435000D01*
X120946000Y-31719000D02*
X120946000Y-45435000D01*
X117136000Y-23337000D02*
X123232000Y-23337000D01*
X117136000Y-23337000D02*
X115866000Y-25242000D01*
X115866000Y-25242000D02*
X103166000Y-25242000D01*
X114596000Y-50642000D02*
X113961000Y-51277000D01*
X114596000Y-49372000D02*
X114596000Y-50642000D01*
X113961000Y-48737000D02*
X114596000Y-49372000D01*
X112691000Y-51277000D02*
X112056000Y-50642000D01*
X112691000Y-48737000D02*
X113961000Y-48737000D01*
X112056000Y-50642000D02*
X111421000Y-51277000D01*
X112056000Y-49372000D02*
X112691000Y-48737000D01*
X111421000Y-48737000D02*
X112056000Y-49372000D01*
X110786000Y-47340000D02*
X110786000Y-48356000D01*
X110151000Y-51277000D02*
X109516000Y-50642000D01*
X110151000Y-48737000D02*
X111421000Y-48737000D01*
X109516000Y-50642000D02*
X108881000Y-51277000D01*
X109516000Y-49372000D02*
X110151000Y-48737000D01*
X108881000Y-48737000D02*
X109516000Y-49372000D01*
X107611000Y-51277000D02*
X106976000Y-50642000D01*
X107611000Y-48737000D02*
X108881000Y-48737000D01*
X106976000Y-50642000D02*
X106341000Y-51277000D01*
X106976000Y-49372000D02*
X107611000Y-48737000D01*
X106341000Y-48737000D02*
X106976000Y-49372000D01*
X105706000Y-47340000D02*
X105706000Y-48356000D01*
X105071000Y-51277000D02*
X104436000Y-50642000D01*
X105071000Y-48737000D02*
X106341000Y-48737000D01*
X104436000Y-50642000D02*
X104436000Y-49372000D01*
X104436000Y-49372000D02*
X105071000Y-48737000D01*
X103166000Y-25242000D02*
X101896000Y-23337000D01*
X101896000Y-23337000D02*
X117136000Y-23337000D01*
X98086000Y-45435000D02*
X98086000Y-31719000D01*
X98086000Y-31719000D02*
X120946000Y-31719000D01*
X95800000Y-51277000D02*
X95800000Y-23337000D01*
X95800000Y-23337000D02*
X101896000Y-23337000D01*
D14*
%TO.C,DR1*%
X99115000Y-24665000D02*
X99115000Y-26135000D01*
X99115000Y-26135000D02*
X101400000Y-26135000D01*
X101400000Y-24665000D02*
X99115000Y-24665000D01*
%TO.C,R1*%
X122435000Y-35527064D02*
X122435000Y-35072936D01*
X120965000Y-35527064D02*
X120965000Y-35072936D01*
%TO.C,D1*%
X150990000Y-57650000D02*
X150990000Y-59350000D01*
X150990000Y-57650000D02*
X153650000Y-57650000D01*
X150990000Y-59350000D02*
X153650000Y-59350000D01*
%TD*%
%LPC*%
D17*
%TO.C,R3*%
X123700000Y-34400000D03*
X123700000Y-36225000D03*
%TD*%
D18*
%TO.C,RV8*%
X126800000Y-51300000D03*
X135600000Y-51300000D03*
D19*
X128700000Y-44300000D03*
X131200000Y-44300000D03*
D20*
X133700000Y-44300000D03*
%TD*%
%TO.C,RV7*%
X79600000Y-80700000D03*
D19*
X77100000Y-80700000D03*
X74600000Y-80700000D03*
D18*
X81500000Y-87700000D03*
X72700000Y-87700000D03*
%TD*%
D20*
%TO.C,RV6*%
X103500000Y-80600000D03*
D19*
X101000000Y-80600000D03*
X98500000Y-80600000D03*
D18*
X105400000Y-87600000D03*
X96600000Y-87600000D03*
%TD*%
D20*
%TO.C,RV5*%
X127700000Y-80600000D03*
D19*
X125200000Y-80600000D03*
X122700000Y-80600000D03*
D18*
X129600000Y-87600000D03*
X120800000Y-87600000D03*
%TD*%
D20*
%TO.C,RV4*%
X151000000Y-80500000D03*
D19*
X148500000Y-80500000D03*
X146000000Y-80500000D03*
D18*
X152900000Y-87500000D03*
X144100000Y-87500000D03*
%TD*%
%TO.C,RV3*%
X96900000Y-68900000D03*
X105700000Y-68900000D03*
D19*
X98800000Y-61900000D03*
X101300000Y-61900000D03*
D20*
X103800000Y-61900000D03*
%TD*%
D18*
%TO.C,RV2*%
X143200000Y-68750000D03*
X152000000Y-68750000D03*
D19*
X145100000Y-61750000D03*
X147600000Y-61750000D03*
D20*
X150100000Y-61750000D03*
%TD*%
D18*
%TO.C,RV1*%
X119600000Y-68900000D03*
X128400000Y-68900000D03*
D19*
X121500000Y-61900000D03*
X124000000Y-61900000D03*
D20*
X126500000Y-61900000D03*
%TD*%
D21*
%TO.C,R11*%
X124827577Y-76400000D03*
X124827577Y-78225000D03*
%TD*%
D17*
%TO.C,R6*%
X110800000Y-36125000D03*
X110800000Y-34300000D03*
%TD*%
D22*
%TO.C,DT1*%
X111787500Y-25200000D03*
X110212500Y-25200000D03*
%TD*%
D23*
%TO.C,J1-I1*%
X104932000Y-42900000D03*
D24*
X107882000Y-31500000D03*
X100482000Y-38900000D03*
X100482000Y-29500000D03*
D25*
X104182000Y-37600000D03*
X104182000Y-30600000D03*
%TD*%
D26*
%TO.C,SW1*%
X142000000Y-54200000D03*
X142000000Y-46200000D03*
X146500000Y-54200000D03*
X146500000Y-46200000D03*
%TD*%
D21*
%TO.C,R15*%
X119400000Y-76400000D03*
X119400000Y-78225000D03*
%TD*%
%TO.C,R9*%
X77516663Y-76400000D03*
X77516663Y-78225000D03*
%TD*%
D27*
%TO.C,U4*%
X148640000Y-38800000D03*
X146100000Y-38800000D03*
X143560000Y-38800000D03*
X141020000Y-38800000D03*
X138480000Y-38800000D03*
X155140000Y-35510000D03*
X155140000Y-32970000D03*
X135940000Y-38800000D03*
X130860000Y-38800000D03*
X155140000Y-27890000D03*
X128320000Y-38800000D03*
X155140000Y-30430000D03*
X133400000Y-38800000D03*
X155140000Y-38050000D03*
X155140000Y-25350000D03*
%TD*%
D21*
%TO.C,R5*%
X97400000Y-28387500D03*
X97400000Y-30212500D03*
%TD*%
D28*
%TO.C,U1*%
X151100000Y-46170000D03*
X153640000Y-46170000D03*
X156180000Y-46170000D03*
X156180000Y-55700000D03*
X153640000Y-55700000D03*
X151100000Y-55700000D03*
%TD*%
D21*
%TO.C,R8*%
X105800000Y-46087500D03*
X105800000Y-47912500D03*
%TD*%
%TO.C,R18*%
X106700000Y-76387500D03*
X106700000Y-78212500D03*
%TD*%
D29*
%TO.C,R2*%
X108687500Y-27300000D03*
X110512500Y-27300000D03*
%TD*%
D21*
%TO.C,R20*%
X154000000Y-76387500D03*
X154000000Y-78212500D03*
%TD*%
%TO.C,R7*%
X108300000Y-46087500D03*
X108300000Y-47912500D03*
%TD*%
%TO.C,R13*%
X72100000Y-76400000D03*
X72100000Y-78225000D03*
%TD*%
%TO.C,R17*%
X83000000Y-76387500D03*
X83000000Y-78212500D03*
%TD*%
%TO.C,R19*%
X130300000Y-76387500D03*
X130300000Y-78212500D03*
%TD*%
%TO.C,R10*%
X101172120Y-76400000D03*
X101172120Y-78225000D03*
%TD*%
%TO.C,R16*%
X143000000Y-76400000D03*
X143000000Y-78225000D03*
%TD*%
%TO.C,R12*%
X148483034Y-76400000D03*
X148483034Y-78225000D03*
%TD*%
D30*
%TO.C,U3*%
X82330000Y-72030000D03*
D31*
X82330000Y-71130000D03*
D30*
X79790000Y-72030000D03*
D32*
X79790000Y-71130000D03*
D30*
X77250000Y-72030000D03*
D31*
X77250000Y-71130000D03*
D33*
X89580000Y-23100000D03*
D31*
X88680000Y-23100000D03*
D33*
X89580000Y-25640000D03*
D31*
X88680000Y-25640000D03*
D33*
X89580000Y-28180000D03*
D32*
X88680000Y-28180000D03*
D33*
X89580000Y-30720000D03*
D31*
X88680000Y-30720000D03*
D33*
X89580000Y-33260000D03*
D31*
X88680000Y-33260000D03*
D33*
X89580000Y-35800000D03*
D31*
X88680000Y-35800000D03*
D33*
X89580000Y-38340000D03*
D31*
X88680000Y-38340000D03*
D33*
X89580000Y-40880000D03*
D32*
X88680000Y-40880000D03*
D33*
X89580000Y-43420000D03*
D31*
X88680000Y-43420000D03*
D33*
X89580000Y-45960000D03*
D31*
X88680000Y-45960000D03*
D33*
X89580000Y-48500000D03*
D31*
X88680000Y-48500000D03*
D33*
X89580000Y-51040000D03*
D31*
X88680000Y-51040000D03*
D33*
X89580000Y-53580000D03*
D32*
X88680000Y-53580000D03*
D33*
X89580000Y-56120000D03*
D31*
X88680000Y-56120000D03*
D33*
X89580000Y-58660000D03*
D31*
X88680000Y-58660000D03*
D33*
X89580000Y-61200000D03*
D31*
X88680000Y-61200000D03*
D33*
X89580000Y-63740000D03*
D31*
X88680000Y-63740000D03*
D33*
X89580000Y-66280000D03*
D32*
X88680000Y-66280000D03*
D33*
X89580000Y-68820000D03*
D31*
X88680000Y-68820000D03*
D33*
X89580000Y-71360000D03*
D31*
X88680000Y-71360000D03*
D33*
X70000000Y-71360000D03*
D31*
X70900000Y-71360000D03*
D33*
X70000000Y-68820000D03*
D31*
X70900000Y-68820000D03*
D33*
X70000000Y-66280000D03*
D32*
X70900000Y-66280000D03*
D33*
X70000000Y-63740000D03*
D31*
X70900000Y-63740000D03*
D33*
X70000000Y-61200000D03*
D31*
X70900000Y-61200000D03*
D33*
X70000000Y-58660000D03*
D31*
X70900000Y-58660000D03*
D33*
X70000000Y-56120000D03*
D31*
X70900000Y-56120000D03*
D33*
X70000000Y-53580000D03*
D32*
X70900000Y-53580000D03*
D33*
X70000000Y-51040000D03*
D31*
X70900000Y-51040000D03*
D33*
X70000000Y-48500000D03*
D31*
X70900000Y-48500000D03*
D33*
X70000000Y-45960000D03*
D31*
X70900000Y-45960000D03*
D33*
X70000000Y-43420000D03*
D31*
X70900000Y-43420000D03*
D33*
X70000000Y-40880000D03*
D32*
X70900000Y-40880000D03*
D33*
X70000000Y-38340000D03*
D31*
X70900000Y-38340000D03*
D33*
X70000000Y-35800000D03*
D31*
X70900000Y-35800000D03*
D33*
X70000000Y-33260000D03*
D31*
X70900000Y-33260000D03*
D33*
X70000000Y-30720000D03*
D31*
X70900000Y-30720000D03*
D33*
X70000000Y-28180000D03*
D32*
X70900000Y-28180000D03*
D33*
X70000000Y-25640000D03*
D31*
X70900000Y-25640000D03*
D33*
X70000000Y-23100000D03*
D31*
X70900000Y-23100000D03*
D34*
X82515000Y-23230000D03*
D35*
X82215000Y-26260000D03*
X77365000Y-26260000D03*
D34*
X77065000Y-23230000D03*
%TD*%
D36*
%TO.C,C1*%
X117400000Y-49900000D03*
X115850000Y-49900000D03*
%TD*%
D23*
%TO.C,J11-O1*%
X117200000Y-42300000D03*
D24*
X120150000Y-30900000D03*
X112750000Y-38300000D03*
X112750000Y-28900000D03*
D25*
X116450000Y-37000000D03*
X116450000Y-30000000D03*
%TD*%
D37*
%TO.C,U2*%
X116120000Y-52030000D03*
X116120000Y-53300000D03*
X116120000Y-54570000D03*
X116120000Y-55840000D03*
X116120000Y-57110000D03*
X116120000Y-58380000D03*
X116120000Y-59650000D03*
X116120000Y-60920000D03*
X111170000Y-60920000D03*
X111170000Y-59650000D03*
X111170000Y-58380000D03*
X111170000Y-57110000D03*
X111170000Y-55840000D03*
X111170000Y-54570000D03*
X111170000Y-53300000D03*
X111170000Y-52030000D03*
%TD*%
D21*
%TO.C,R14*%
X95700000Y-76387500D03*
X95700000Y-78212500D03*
%TD*%
%TO.C,R4*%
X108700000Y-34300000D03*
X108700000Y-36125000D03*
%TD*%
D38*
%TO.C,DISP1*%
X105706000Y-50007000D03*
X108246000Y-50007000D03*
X110786000Y-50007000D03*
D39*
X113326000Y-50007000D03*
D40*
X97832000Y-25750000D03*
X97832000Y-48864000D03*
X121200000Y-25750000D03*
X121200000Y-48864000D03*
%TD*%
D22*
%TO.C,DR1*%
X99812500Y-25400000D03*
X101387500Y-25400000D03*
%TD*%
D17*
%TO.C,R1*%
X121700000Y-34387500D03*
X121700000Y-36212500D03*
%TD*%
D41*
%TO.C,D1*%
X151550000Y-58500000D03*
X153650000Y-58500000D03*
%TD*%
%LPD*%
M02*
