%TF.GenerationSoftware,KiCad,Pcbnew,8.0.3*%
%TF.CreationDate,2024-07-12T18:25:32-05:00*%
%TF.ProjectId,controller,636f6e74-726f-46c6-9c65-722e6b696361,rev?*%
%TF.SameCoordinates,Original*%
%TF.FileFunction,Legend,Bot*%
%TF.FilePolarity,Positive*%
%FSLAX46Y46*%
G04 Gerber Fmt 4.6, Leading zero omitted, Abs format (unit mm)*
G04 Created by KiCad (PCBNEW 8.0.3) date 2024-07-12 18:25:32*
%MOMM*%
%LPD*%
G01*
G04 APERTURE LIST*
G04 Aperture macros list*
%AMRoundRect*
0 Rectangle with rounded corners*
0 $1 Rounding radius*
0 $2 $3 $4 $5 $6 $7 $8 $9 X,Y pos of 4 corners*
0 Add a 4 corners polygon primitive as box body*
4,1,4,$2,$3,$4,$5,$6,$7,$8,$9,$2,$3,0*
0 Add four circle primitives for the rounded corners*
1,1,$1+$1,$2,$3*
1,1,$1+$1,$4,$5*
1,1,$1+$1,$6,$7*
1,1,$1+$1,$8,$9*
0 Add four rect primitives between the rounded corners*
20,1,$1+$1,$2,$3,$4,$5,0*
20,1,$1+$1,$4,$5,$6,$7,0*
20,1,$1+$1,$6,$7,$8,$9,0*
20,1,$1+$1,$8,$9,$2,$3,0*%
G04 Aperture macros list end*
%ADD10RoundRect,0.750000X-0.750000X1.250000X-0.750000X-1.250000X0.750000X-1.250000X0.750000X1.250000X0*%
%ADD11C,1.800000*%
%ADD12R,1.800000X1.800000*%
%ADD13C,1.700000*%
%ADD14C,1.879600*%
%ADD15O,1.700000X1.700000*%
%ADD16R,1.700000X1.700000*%
%ADD17O,1.800000X1.800000*%
%ADD18O,1.500000X1.500000*%
%ADD19C,1.711200*%
%ADD20RoundRect,0.101600X0.754000X0.754000X-0.754000X0.754000X-0.754000X-0.754000X0.754000X-0.754000X0*%
%ADD21C,2.540000*%
G04 APERTURE END LIST*
%LPC*%
D10*
%TO.C,RV8*%
X126800000Y-51300000D03*
X135600000Y-51300000D03*
D11*
X128700000Y-44300000D03*
X131200000Y-44300000D03*
D12*
X133700000Y-44300000D03*
%TD*%
%TO.C,RV7*%
X79600000Y-80700000D03*
D11*
X77100000Y-80700000D03*
X74600000Y-80700000D03*
D10*
X81500000Y-87700000D03*
X72700000Y-87700000D03*
%TD*%
D12*
%TO.C,RV6*%
X103500000Y-80600000D03*
D11*
X101000000Y-80600000D03*
X98500000Y-80600000D03*
D10*
X105400000Y-87600000D03*
X96600000Y-87600000D03*
%TD*%
D12*
%TO.C,RV5*%
X127700000Y-80600000D03*
D11*
X125200000Y-80600000D03*
X122700000Y-80600000D03*
D10*
X129600000Y-87600000D03*
X120800000Y-87600000D03*
%TD*%
D12*
%TO.C,RV4*%
X151000000Y-80500000D03*
D11*
X148500000Y-80500000D03*
X146000000Y-80500000D03*
D10*
X152900000Y-87500000D03*
X144100000Y-87500000D03*
%TD*%
%TO.C,RV3*%
X96900000Y-68900000D03*
X105700000Y-68900000D03*
D11*
X98800000Y-61900000D03*
X101300000Y-61900000D03*
D12*
X103800000Y-61900000D03*
%TD*%
D10*
%TO.C,RV2*%
X143200000Y-68750000D03*
X152000000Y-68750000D03*
D11*
X145100000Y-61750000D03*
X147600000Y-61750000D03*
D12*
X150100000Y-61750000D03*
%TD*%
D10*
%TO.C,RV1*%
X119600000Y-68900000D03*
X128400000Y-68900000D03*
D11*
X121500000Y-61900000D03*
X124000000Y-61900000D03*
D12*
X126500000Y-61900000D03*
%TD*%
D13*
%TO.C,J1-I1*%
X104182000Y-37600000D03*
X104182000Y-30600000D03*
%TD*%
D14*
%TO.C,U4*%
X148640000Y-38800000D03*
X146100000Y-38800000D03*
X143560000Y-38800000D03*
X141020000Y-38800000D03*
X138480000Y-38800000D03*
X155140000Y-35510000D03*
X155140000Y-32970000D03*
X135940000Y-38800000D03*
X130860000Y-38800000D03*
X155140000Y-27890000D03*
X128320000Y-38800000D03*
X155140000Y-30430000D03*
X133400000Y-38800000D03*
X155140000Y-38050000D03*
X155140000Y-25350000D03*
%TD*%
D15*
%TO.C,U3*%
X82330000Y-71130000D03*
D16*
X79790000Y-71130000D03*
D15*
X77250000Y-71130000D03*
X88680000Y-23100000D03*
X88680000Y-25640000D03*
D16*
X88680000Y-28180000D03*
D15*
X88680000Y-30720000D03*
X88680000Y-33260000D03*
X88680000Y-35800000D03*
X88680000Y-38340000D03*
D16*
X88680000Y-40880000D03*
D15*
X88680000Y-43420000D03*
X88680000Y-45960000D03*
X88680000Y-48500000D03*
X88680000Y-51040000D03*
D16*
X88680000Y-53580000D03*
D15*
X88680000Y-56120000D03*
X88680000Y-58660000D03*
X88680000Y-61200000D03*
X88680000Y-63740000D03*
D16*
X88680000Y-66280000D03*
D15*
X88680000Y-68820000D03*
X88680000Y-71360000D03*
X70900000Y-71360000D03*
X70900000Y-68820000D03*
D16*
X70900000Y-66280000D03*
D15*
X70900000Y-63740000D03*
X70900000Y-61200000D03*
X70900000Y-58660000D03*
X70900000Y-56120000D03*
D16*
X70900000Y-53580000D03*
D15*
X70900000Y-51040000D03*
X70900000Y-48500000D03*
X70900000Y-45960000D03*
X70900000Y-43420000D03*
D16*
X70900000Y-40880000D03*
D15*
X70900000Y-38340000D03*
X70900000Y-35800000D03*
X70900000Y-33260000D03*
X70900000Y-30720000D03*
D16*
X70900000Y-28180000D03*
D15*
X70900000Y-25640000D03*
X70900000Y-23100000D03*
D17*
X82515000Y-23230000D03*
D18*
X82215000Y-26260000D03*
X77365000Y-26260000D03*
D17*
X77065000Y-23230000D03*
%TD*%
D13*
%TO.C,J11-O1*%
X116450000Y-37000000D03*
X116450000Y-30000000D03*
%TD*%
D19*
%TO.C,DISP1*%
X105706000Y-50007000D03*
X108246000Y-50007000D03*
X110786000Y-50007000D03*
D20*
X113326000Y-50007000D03*
D21*
X97832000Y-25750000D03*
X97832000Y-48864000D03*
X121200000Y-25750000D03*
X121200000Y-48864000D03*
%TD*%
%LPD*%
M02*
